G04 #@! TF.GenerationSoftware,KiCad,Pcbnew,(5.1.5)-2*
G04 #@! TF.CreationDate,2020-08-18T22:47:36+04:00*
G04 #@! TF.ProjectId,stm32f103_feather,73746d33-3266-4313-9033-5f6665617468,rev?*
G04 #@! TF.SameCoordinates,Original*
G04 #@! TF.FileFunction,Soldermask,Bot*
G04 #@! TF.FilePolarity,Negative*
%FSLAX46Y46*%
G04 Gerber Fmt 4.6, Leading zero omitted, Abs format (unit mm)*
G04 Created by KiCad (PCBNEW (5.1.5)-2) date 2020-08-18 22:47:36*
%MOMM*%
%LPD*%
G04 APERTURE LIST*
G04 #@! TA.AperFunction,Profile*
%ADD10C,0.050000*%
G04 #@! TD*
%ADD11C,0.150000*%
G04 APERTURE END LIST*
D10*
X175260000Y-76200000D02*
X129540000Y-76200000D01*
X177800000Y-96520000D02*
X177800000Y-78740000D01*
X129540000Y-99060000D02*
X175260000Y-99060000D01*
X127000000Y-78740000D02*
X127000000Y-96520000D01*
X175260000Y-76200000D02*
G75*
G02X177800000Y-78740000I0J-2540000D01*
G01*
X177800000Y-96520000D02*
G75*
G02X175260000Y-99060000I-2540000J0D01*
G01*
X129540000Y-99060000D02*
G75*
G02X127000000Y-96520000I0J2540000D01*
G01*
X127000000Y-78740000D02*
G75*
G02X129540000Y-76200000I2540000J0D01*
G01*
D11*
G36*
X134251000Y-98691000D02*
G01*
X132449000Y-98691000D01*
X132449000Y-96889000D01*
X134251000Y-96889000D01*
X134251000Y-98691000D01*
G37*
G36*
X151243512Y-96893927D02*
G01*
X151392812Y-96923624D01*
X151556784Y-96991544D01*
X151704354Y-97090147D01*
X151829853Y-97215646D01*
X151928456Y-97363216D01*
X151996376Y-97527188D01*
X152031000Y-97701259D01*
X152031000Y-97878741D01*
X151996376Y-98052812D01*
X151928456Y-98216784D01*
X151829853Y-98364354D01*
X151704354Y-98489853D01*
X151556784Y-98588456D01*
X151392812Y-98656376D01*
X151243512Y-98686073D01*
X151218742Y-98691000D01*
X151041258Y-98691000D01*
X151016488Y-98686073D01*
X150867188Y-98656376D01*
X150703216Y-98588456D01*
X150555646Y-98489853D01*
X150430147Y-98364354D01*
X150331544Y-98216784D01*
X150263624Y-98052812D01*
X150229000Y-97878741D01*
X150229000Y-97701259D01*
X150263624Y-97527188D01*
X150331544Y-97363216D01*
X150430147Y-97215646D01*
X150555646Y-97090147D01*
X150703216Y-96991544D01*
X150867188Y-96923624D01*
X151016488Y-96893927D01*
X151041258Y-96889000D01*
X151218742Y-96889000D01*
X151243512Y-96893927D01*
G37*
G36*
X136003512Y-96893927D02*
G01*
X136152812Y-96923624D01*
X136316784Y-96991544D01*
X136464354Y-97090147D01*
X136589853Y-97215646D01*
X136688456Y-97363216D01*
X136756376Y-97527188D01*
X136791000Y-97701259D01*
X136791000Y-97878741D01*
X136756376Y-98052812D01*
X136688456Y-98216784D01*
X136589853Y-98364354D01*
X136464354Y-98489853D01*
X136316784Y-98588456D01*
X136152812Y-98656376D01*
X136003512Y-98686073D01*
X135978742Y-98691000D01*
X135801258Y-98691000D01*
X135776488Y-98686073D01*
X135627188Y-98656376D01*
X135463216Y-98588456D01*
X135315646Y-98489853D01*
X135190147Y-98364354D01*
X135091544Y-98216784D01*
X135023624Y-98052812D01*
X134989000Y-97878741D01*
X134989000Y-97701259D01*
X135023624Y-97527188D01*
X135091544Y-97363216D01*
X135190147Y-97215646D01*
X135315646Y-97090147D01*
X135463216Y-96991544D01*
X135627188Y-96923624D01*
X135776488Y-96893927D01*
X135801258Y-96889000D01*
X135978742Y-96889000D01*
X136003512Y-96893927D01*
G37*
G36*
X138543512Y-96893927D02*
G01*
X138692812Y-96923624D01*
X138856784Y-96991544D01*
X139004354Y-97090147D01*
X139129853Y-97215646D01*
X139228456Y-97363216D01*
X139296376Y-97527188D01*
X139331000Y-97701259D01*
X139331000Y-97878741D01*
X139296376Y-98052812D01*
X139228456Y-98216784D01*
X139129853Y-98364354D01*
X139004354Y-98489853D01*
X138856784Y-98588456D01*
X138692812Y-98656376D01*
X138543512Y-98686073D01*
X138518742Y-98691000D01*
X138341258Y-98691000D01*
X138316488Y-98686073D01*
X138167188Y-98656376D01*
X138003216Y-98588456D01*
X137855646Y-98489853D01*
X137730147Y-98364354D01*
X137631544Y-98216784D01*
X137563624Y-98052812D01*
X137529000Y-97878741D01*
X137529000Y-97701259D01*
X137563624Y-97527188D01*
X137631544Y-97363216D01*
X137730147Y-97215646D01*
X137855646Y-97090147D01*
X138003216Y-96991544D01*
X138167188Y-96923624D01*
X138316488Y-96893927D01*
X138341258Y-96889000D01*
X138518742Y-96889000D01*
X138543512Y-96893927D01*
G37*
G36*
X141083512Y-96893927D02*
G01*
X141232812Y-96923624D01*
X141396784Y-96991544D01*
X141544354Y-97090147D01*
X141669853Y-97215646D01*
X141768456Y-97363216D01*
X141836376Y-97527188D01*
X141871000Y-97701259D01*
X141871000Y-97878741D01*
X141836376Y-98052812D01*
X141768456Y-98216784D01*
X141669853Y-98364354D01*
X141544354Y-98489853D01*
X141396784Y-98588456D01*
X141232812Y-98656376D01*
X141083512Y-98686073D01*
X141058742Y-98691000D01*
X140881258Y-98691000D01*
X140856488Y-98686073D01*
X140707188Y-98656376D01*
X140543216Y-98588456D01*
X140395646Y-98489853D01*
X140270147Y-98364354D01*
X140171544Y-98216784D01*
X140103624Y-98052812D01*
X140069000Y-97878741D01*
X140069000Y-97701259D01*
X140103624Y-97527188D01*
X140171544Y-97363216D01*
X140270147Y-97215646D01*
X140395646Y-97090147D01*
X140543216Y-96991544D01*
X140707188Y-96923624D01*
X140856488Y-96893927D01*
X140881258Y-96889000D01*
X141058742Y-96889000D01*
X141083512Y-96893927D01*
G37*
G36*
X143623512Y-96893927D02*
G01*
X143772812Y-96923624D01*
X143936784Y-96991544D01*
X144084354Y-97090147D01*
X144209853Y-97215646D01*
X144308456Y-97363216D01*
X144376376Y-97527188D01*
X144411000Y-97701259D01*
X144411000Y-97878741D01*
X144376376Y-98052812D01*
X144308456Y-98216784D01*
X144209853Y-98364354D01*
X144084354Y-98489853D01*
X143936784Y-98588456D01*
X143772812Y-98656376D01*
X143623512Y-98686073D01*
X143598742Y-98691000D01*
X143421258Y-98691000D01*
X143396488Y-98686073D01*
X143247188Y-98656376D01*
X143083216Y-98588456D01*
X142935646Y-98489853D01*
X142810147Y-98364354D01*
X142711544Y-98216784D01*
X142643624Y-98052812D01*
X142609000Y-97878741D01*
X142609000Y-97701259D01*
X142643624Y-97527188D01*
X142711544Y-97363216D01*
X142810147Y-97215646D01*
X142935646Y-97090147D01*
X143083216Y-96991544D01*
X143247188Y-96923624D01*
X143396488Y-96893927D01*
X143421258Y-96889000D01*
X143598742Y-96889000D01*
X143623512Y-96893927D01*
G37*
G36*
X146163512Y-96893927D02*
G01*
X146312812Y-96923624D01*
X146476784Y-96991544D01*
X146624354Y-97090147D01*
X146749853Y-97215646D01*
X146848456Y-97363216D01*
X146916376Y-97527188D01*
X146951000Y-97701259D01*
X146951000Y-97878741D01*
X146916376Y-98052812D01*
X146848456Y-98216784D01*
X146749853Y-98364354D01*
X146624354Y-98489853D01*
X146476784Y-98588456D01*
X146312812Y-98656376D01*
X146163512Y-98686073D01*
X146138742Y-98691000D01*
X145961258Y-98691000D01*
X145936488Y-98686073D01*
X145787188Y-98656376D01*
X145623216Y-98588456D01*
X145475646Y-98489853D01*
X145350147Y-98364354D01*
X145251544Y-98216784D01*
X145183624Y-98052812D01*
X145149000Y-97878741D01*
X145149000Y-97701259D01*
X145183624Y-97527188D01*
X145251544Y-97363216D01*
X145350147Y-97215646D01*
X145475646Y-97090147D01*
X145623216Y-96991544D01*
X145787188Y-96923624D01*
X145936488Y-96893927D01*
X145961258Y-96889000D01*
X146138742Y-96889000D01*
X146163512Y-96893927D01*
G37*
G36*
X148703512Y-96893927D02*
G01*
X148852812Y-96923624D01*
X149016784Y-96991544D01*
X149164354Y-97090147D01*
X149289853Y-97215646D01*
X149388456Y-97363216D01*
X149456376Y-97527188D01*
X149491000Y-97701259D01*
X149491000Y-97878741D01*
X149456376Y-98052812D01*
X149388456Y-98216784D01*
X149289853Y-98364354D01*
X149164354Y-98489853D01*
X149016784Y-98588456D01*
X148852812Y-98656376D01*
X148703512Y-98686073D01*
X148678742Y-98691000D01*
X148501258Y-98691000D01*
X148476488Y-98686073D01*
X148327188Y-98656376D01*
X148163216Y-98588456D01*
X148015646Y-98489853D01*
X147890147Y-98364354D01*
X147791544Y-98216784D01*
X147723624Y-98052812D01*
X147689000Y-97878741D01*
X147689000Y-97701259D01*
X147723624Y-97527188D01*
X147791544Y-97363216D01*
X147890147Y-97215646D01*
X148015646Y-97090147D01*
X148163216Y-96991544D01*
X148327188Y-96923624D01*
X148476488Y-96893927D01*
X148501258Y-96889000D01*
X148678742Y-96889000D01*
X148703512Y-96893927D01*
G37*
G36*
X156323512Y-96893927D02*
G01*
X156472812Y-96923624D01*
X156636784Y-96991544D01*
X156784354Y-97090147D01*
X156909853Y-97215646D01*
X157008456Y-97363216D01*
X157076376Y-97527188D01*
X157111000Y-97701259D01*
X157111000Y-97878741D01*
X157076376Y-98052812D01*
X157008456Y-98216784D01*
X156909853Y-98364354D01*
X156784354Y-98489853D01*
X156636784Y-98588456D01*
X156472812Y-98656376D01*
X156323512Y-98686073D01*
X156298742Y-98691000D01*
X156121258Y-98691000D01*
X156096488Y-98686073D01*
X155947188Y-98656376D01*
X155783216Y-98588456D01*
X155635646Y-98489853D01*
X155510147Y-98364354D01*
X155411544Y-98216784D01*
X155343624Y-98052812D01*
X155309000Y-97878741D01*
X155309000Y-97701259D01*
X155343624Y-97527188D01*
X155411544Y-97363216D01*
X155510147Y-97215646D01*
X155635646Y-97090147D01*
X155783216Y-96991544D01*
X155947188Y-96923624D01*
X156096488Y-96893927D01*
X156121258Y-96889000D01*
X156298742Y-96889000D01*
X156323512Y-96893927D01*
G37*
G36*
X171563512Y-96893927D02*
G01*
X171712812Y-96923624D01*
X171876784Y-96991544D01*
X172024354Y-97090147D01*
X172149853Y-97215646D01*
X172248456Y-97363216D01*
X172316376Y-97527188D01*
X172351000Y-97701259D01*
X172351000Y-97878741D01*
X172316376Y-98052812D01*
X172248456Y-98216784D01*
X172149853Y-98364354D01*
X172024354Y-98489853D01*
X171876784Y-98588456D01*
X171712812Y-98656376D01*
X171563512Y-98686073D01*
X171538742Y-98691000D01*
X171361258Y-98691000D01*
X171336488Y-98686073D01*
X171187188Y-98656376D01*
X171023216Y-98588456D01*
X170875646Y-98489853D01*
X170750147Y-98364354D01*
X170651544Y-98216784D01*
X170583624Y-98052812D01*
X170549000Y-97878741D01*
X170549000Y-97701259D01*
X170583624Y-97527188D01*
X170651544Y-97363216D01*
X170750147Y-97215646D01*
X170875646Y-97090147D01*
X171023216Y-96991544D01*
X171187188Y-96923624D01*
X171336488Y-96893927D01*
X171361258Y-96889000D01*
X171538742Y-96889000D01*
X171563512Y-96893927D01*
G37*
G36*
X169023512Y-96893927D02*
G01*
X169172812Y-96923624D01*
X169336784Y-96991544D01*
X169484354Y-97090147D01*
X169609853Y-97215646D01*
X169708456Y-97363216D01*
X169776376Y-97527188D01*
X169811000Y-97701259D01*
X169811000Y-97878741D01*
X169776376Y-98052812D01*
X169708456Y-98216784D01*
X169609853Y-98364354D01*
X169484354Y-98489853D01*
X169336784Y-98588456D01*
X169172812Y-98656376D01*
X169023512Y-98686073D01*
X168998742Y-98691000D01*
X168821258Y-98691000D01*
X168796488Y-98686073D01*
X168647188Y-98656376D01*
X168483216Y-98588456D01*
X168335646Y-98489853D01*
X168210147Y-98364354D01*
X168111544Y-98216784D01*
X168043624Y-98052812D01*
X168009000Y-97878741D01*
X168009000Y-97701259D01*
X168043624Y-97527188D01*
X168111544Y-97363216D01*
X168210147Y-97215646D01*
X168335646Y-97090147D01*
X168483216Y-96991544D01*
X168647188Y-96923624D01*
X168796488Y-96893927D01*
X168821258Y-96889000D01*
X168998742Y-96889000D01*
X169023512Y-96893927D01*
G37*
G36*
X166483512Y-96893927D02*
G01*
X166632812Y-96923624D01*
X166796784Y-96991544D01*
X166944354Y-97090147D01*
X167069853Y-97215646D01*
X167168456Y-97363216D01*
X167236376Y-97527188D01*
X167271000Y-97701259D01*
X167271000Y-97878741D01*
X167236376Y-98052812D01*
X167168456Y-98216784D01*
X167069853Y-98364354D01*
X166944354Y-98489853D01*
X166796784Y-98588456D01*
X166632812Y-98656376D01*
X166483512Y-98686073D01*
X166458742Y-98691000D01*
X166281258Y-98691000D01*
X166256488Y-98686073D01*
X166107188Y-98656376D01*
X165943216Y-98588456D01*
X165795646Y-98489853D01*
X165670147Y-98364354D01*
X165571544Y-98216784D01*
X165503624Y-98052812D01*
X165469000Y-97878741D01*
X165469000Y-97701259D01*
X165503624Y-97527188D01*
X165571544Y-97363216D01*
X165670147Y-97215646D01*
X165795646Y-97090147D01*
X165943216Y-96991544D01*
X166107188Y-96923624D01*
X166256488Y-96893927D01*
X166281258Y-96889000D01*
X166458742Y-96889000D01*
X166483512Y-96893927D01*
G37*
G36*
X161403512Y-96893927D02*
G01*
X161552812Y-96923624D01*
X161716784Y-96991544D01*
X161864354Y-97090147D01*
X161989853Y-97215646D01*
X162088456Y-97363216D01*
X162156376Y-97527188D01*
X162191000Y-97701259D01*
X162191000Y-97878741D01*
X162156376Y-98052812D01*
X162088456Y-98216784D01*
X161989853Y-98364354D01*
X161864354Y-98489853D01*
X161716784Y-98588456D01*
X161552812Y-98656376D01*
X161403512Y-98686073D01*
X161378742Y-98691000D01*
X161201258Y-98691000D01*
X161176488Y-98686073D01*
X161027188Y-98656376D01*
X160863216Y-98588456D01*
X160715646Y-98489853D01*
X160590147Y-98364354D01*
X160491544Y-98216784D01*
X160423624Y-98052812D01*
X160389000Y-97878741D01*
X160389000Y-97701259D01*
X160423624Y-97527188D01*
X160491544Y-97363216D01*
X160590147Y-97215646D01*
X160715646Y-97090147D01*
X160863216Y-96991544D01*
X161027188Y-96923624D01*
X161176488Y-96893927D01*
X161201258Y-96889000D01*
X161378742Y-96889000D01*
X161403512Y-96893927D01*
G37*
G36*
X153783512Y-96893927D02*
G01*
X153932812Y-96923624D01*
X154096784Y-96991544D01*
X154244354Y-97090147D01*
X154369853Y-97215646D01*
X154468456Y-97363216D01*
X154536376Y-97527188D01*
X154571000Y-97701259D01*
X154571000Y-97878741D01*
X154536376Y-98052812D01*
X154468456Y-98216784D01*
X154369853Y-98364354D01*
X154244354Y-98489853D01*
X154096784Y-98588456D01*
X153932812Y-98656376D01*
X153783512Y-98686073D01*
X153758742Y-98691000D01*
X153581258Y-98691000D01*
X153556488Y-98686073D01*
X153407188Y-98656376D01*
X153243216Y-98588456D01*
X153095646Y-98489853D01*
X152970147Y-98364354D01*
X152871544Y-98216784D01*
X152803624Y-98052812D01*
X152769000Y-97878741D01*
X152769000Y-97701259D01*
X152803624Y-97527188D01*
X152871544Y-97363216D01*
X152970147Y-97215646D01*
X153095646Y-97090147D01*
X153243216Y-96991544D01*
X153407188Y-96923624D01*
X153556488Y-96893927D01*
X153581258Y-96889000D01*
X153758742Y-96889000D01*
X153783512Y-96893927D01*
G37*
G36*
X163943512Y-96893927D02*
G01*
X164092812Y-96923624D01*
X164256784Y-96991544D01*
X164404354Y-97090147D01*
X164529853Y-97215646D01*
X164628456Y-97363216D01*
X164696376Y-97527188D01*
X164731000Y-97701259D01*
X164731000Y-97878741D01*
X164696376Y-98052812D01*
X164628456Y-98216784D01*
X164529853Y-98364354D01*
X164404354Y-98489853D01*
X164256784Y-98588456D01*
X164092812Y-98656376D01*
X163943512Y-98686073D01*
X163918742Y-98691000D01*
X163741258Y-98691000D01*
X163716488Y-98686073D01*
X163567188Y-98656376D01*
X163403216Y-98588456D01*
X163255646Y-98489853D01*
X163130147Y-98364354D01*
X163031544Y-98216784D01*
X162963624Y-98052812D01*
X162929000Y-97878741D01*
X162929000Y-97701259D01*
X162963624Y-97527188D01*
X163031544Y-97363216D01*
X163130147Y-97215646D01*
X163255646Y-97090147D01*
X163403216Y-96991544D01*
X163567188Y-96923624D01*
X163716488Y-96893927D01*
X163741258Y-96889000D01*
X163918742Y-96889000D01*
X163943512Y-96893927D01*
G37*
G36*
X158863512Y-96893927D02*
G01*
X159012812Y-96923624D01*
X159176784Y-96991544D01*
X159324354Y-97090147D01*
X159449853Y-97215646D01*
X159548456Y-97363216D01*
X159616376Y-97527188D01*
X159651000Y-97701259D01*
X159651000Y-97878741D01*
X159616376Y-98052812D01*
X159548456Y-98216784D01*
X159449853Y-98364354D01*
X159324354Y-98489853D01*
X159176784Y-98588456D01*
X159012812Y-98656376D01*
X158863512Y-98686073D01*
X158838742Y-98691000D01*
X158661258Y-98691000D01*
X158636488Y-98686073D01*
X158487188Y-98656376D01*
X158323216Y-98588456D01*
X158175646Y-98489853D01*
X158050147Y-98364354D01*
X157951544Y-98216784D01*
X157883624Y-98052812D01*
X157849000Y-97878741D01*
X157849000Y-97701259D01*
X157883624Y-97527188D01*
X157951544Y-97363216D01*
X158050147Y-97215646D01*
X158175646Y-97090147D01*
X158323216Y-96991544D01*
X158487188Y-96923624D01*
X158636488Y-96893927D01*
X158661258Y-96889000D01*
X158838742Y-96889000D01*
X158863512Y-96893927D01*
G37*
G36*
X156671674Y-93226465D02*
G01*
X156709367Y-93237899D01*
X156744103Y-93256466D01*
X156774548Y-93281452D01*
X156799534Y-93311897D01*
X156818101Y-93346633D01*
X156829535Y-93384326D01*
X156834000Y-93429661D01*
X156834000Y-94266339D01*
X156829535Y-94311674D01*
X156818101Y-94349367D01*
X156799534Y-94384103D01*
X156774548Y-94414548D01*
X156744103Y-94439534D01*
X156709367Y-94458101D01*
X156671674Y-94469535D01*
X156626339Y-94474000D01*
X155539661Y-94474000D01*
X155494326Y-94469535D01*
X155456633Y-94458101D01*
X155421897Y-94439534D01*
X155391452Y-94414548D01*
X155366466Y-94384103D01*
X155347899Y-94349367D01*
X155336465Y-94311674D01*
X155332000Y-94266339D01*
X155332000Y-93429661D01*
X155336465Y-93384326D01*
X155347899Y-93346633D01*
X155366466Y-93311897D01*
X155391452Y-93281452D01*
X155421897Y-93256466D01*
X155456633Y-93237899D01*
X155494326Y-93226465D01*
X155539661Y-93222000D01*
X156626339Y-93222000D01*
X156671674Y-93226465D01*
G37*
G36*
X154639674Y-93226465D02*
G01*
X154677367Y-93237899D01*
X154712103Y-93256466D01*
X154742548Y-93281452D01*
X154767534Y-93311897D01*
X154786101Y-93346633D01*
X154797535Y-93384326D01*
X154802000Y-93429661D01*
X154802000Y-94266339D01*
X154797535Y-94311674D01*
X154786101Y-94349367D01*
X154767534Y-94384103D01*
X154742548Y-94414548D01*
X154712103Y-94439534D01*
X154677367Y-94458101D01*
X154639674Y-94469535D01*
X154594339Y-94474000D01*
X153507661Y-94474000D01*
X153462326Y-94469535D01*
X153424633Y-94458101D01*
X153389897Y-94439534D01*
X153359452Y-94414548D01*
X153334466Y-94384103D01*
X153315899Y-94349367D01*
X153304465Y-94311674D01*
X153300000Y-94266339D01*
X153300000Y-93429661D01*
X153304465Y-93384326D01*
X153315899Y-93346633D01*
X153334466Y-93311897D01*
X153359452Y-93281452D01*
X153389897Y-93256466D01*
X153424633Y-93237899D01*
X153462326Y-93226465D01*
X153507661Y-93222000D01*
X154594339Y-93222000D01*
X154639674Y-93226465D01*
G37*
G36*
X154639674Y-91176465D02*
G01*
X154677367Y-91187899D01*
X154712103Y-91206466D01*
X154742548Y-91231452D01*
X154767534Y-91261897D01*
X154786101Y-91296633D01*
X154797535Y-91334326D01*
X154802000Y-91379661D01*
X154802000Y-92216339D01*
X154797535Y-92261674D01*
X154786101Y-92299367D01*
X154767534Y-92334103D01*
X154742548Y-92364548D01*
X154712103Y-92389534D01*
X154677367Y-92408101D01*
X154639674Y-92419535D01*
X154594339Y-92424000D01*
X153507661Y-92424000D01*
X153462326Y-92419535D01*
X153424633Y-92408101D01*
X153389897Y-92389534D01*
X153359452Y-92364548D01*
X153334466Y-92334103D01*
X153315899Y-92299367D01*
X153304465Y-92261674D01*
X153300000Y-92216339D01*
X153300000Y-91379661D01*
X153304465Y-91334326D01*
X153315899Y-91296633D01*
X153334466Y-91261897D01*
X153359452Y-91231452D01*
X153389897Y-91206466D01*
X153424633Y-91187899D01*
X153462326Y-91176465D01*
X153507661Y-91172000D01*
X154594339Y-91172000D01*
X154639674Y-91176465D01*
G37*
G36*
X156671674Y-91176465D02*
G01*
X156709367Y-91187899D01*
X156744103Y-91206466D01*
X156774548Y-91231452D01*
X156799534Y-91261897D01*
X156818101Y-91296633D01*
X156829535Y-91334326D01*
X156834000Y-91379661D01*
X156834000Y-92216339D01*
X156829535Y-92261674D01*
X156818101Y-92299367D01*
X156799534Y-92334103D01*
X156774548Y-92364548D01*
X156744103Y-92389534D01*
X156709367Y-92408101D01*
X156671674Y-92419535D01*
X156626339Y-92424000D01*
X155539661Y-92424000D01*
X155494326Y-92419535D01*
X155456633Y-92408101D01*
X155421897Y-92389534D01*
X155391452Y-92364548D01*
X155366466Y-92334103D01*
X155347899Y-92299367D01*
X155336465Y-92261674D01*
X155332000Y-92216339D01*
X155332000Y-91379661D01*
X155336465Y-91334326D01*
X155347899Y-91296633D01*
X155366466Y-91261897D01*
X155391452Y-91231452D01*
X155421897Y-91206466D01*
X155456633Y-91187899D01*
X155494326Y-91176465D01*
X155539661Y-91172000D01*
X156626339Y-91172000D01*
X156671674Y-91176465D01*
G37*
G36*
X176008512Y-90543927D02*
G01*
X176157812Y-90573624D01*
X176321784Y-90641544D01*
X176469354Y-90740147D01*
X176594853Y-90865646D01*
X176693456Y-91013216D01*
X176761376Y-91177188D01*
X176778225Y-91261897D01*
X176796000Y-91351258D01*
X176796000Y-91528742D01*
X176794913Y-91534208D01*
X176761376Y-91702812D01*
X176693456Y-91866784D01*
X176594853Y-92014354D01*
X176469354Y-92139853D01*
X176321784Y-92238456D01*
X176157812Y-92306376D01*
X176018415Y-92334103D01*
X175983742Y-92341000D01*
X175806258Y-92341000D01*
X175771585Y-92334103D01*
X175632188Y-92306376D01*
X175468216Y-92238456D01*
X175320646Y-92139853D01*
X175195147Y-92014354D01*
X175096544Y-91866784D01*
X175028624Y-91702812D01*
X174995087Y-91534208D01*
X174994000Y-91528742D01*
X174994000Y-91351258D01*
X175011775Y-91261897D01*
X175028624Y-91177188D01*
X175096544Y-91013216D01*
X175195147Y-90865646D01*
X175320646Y-90740147D01*
X175468216Y-90641544D01*
X175632188Y-90573624D01*
X175781488Y-90543927D01*
X175806258Y-90539000D01*
X175983742Y-90539000D01*
X176008512Y-90543927D01*
G37*
G36*
X173113000Y-92341000D02*
G01*
X171311000Y-92341000D01*
X171311000Y-90539000D01*
X173113000Y-90539000D01*
X173113000Y-92341000D01*
G37*
G36*
X128799715Y-90634058D02*
G01*
X128895753Y-90663191D01*
X128910935Y-90667796D01*
X128917722Y-90669855D01*
X129026468Y-90727981D01*
X129121790Y-90806210D01*
X129200019Y-90901532D01*
X129258145Y-91010278D01*
X129293942Y-91128285D01*
X129306028Y-91251000D01*
X129293942Y-91373715D01*
X129258145Y-91491722D01*
X129200019Y-91600468D01*
X129121790Y-91695790D01*
X129026468Y-91774019D01*
X128917722Y-91832145D01*
X128799715Y-91867942D01*
X128707746Y-91877000D01*
X127996254Y-91877000D01*
X127904285Y-91867942D01*
X127786278Y-91832145D01*
X127677532Y-91774019D01*
X127582210Y-91695790D01*
X127503981Y-91600468D01*
X127445855Y-91491722D01*
X127410058Y-91373715D01*
X127397972Y-91251000D01*
X127410058Y-91128285D01*
X127445855Y-91010278D01*
X127503981Y-90901532D01*
X127582210Y-90806210D01*
X127677532Y-90727981D01*
X127786278Y-90669855D01*
X127793066Y-90667796D01*
X127808247Y-90663191D01*
X127904285Y-90634058D01*
X127996254Y-90625000D01*
X128707746Y-90625000D01*
X128799715Y-90634058D01*
G37*
G36*
X131233552Y-89442331D02*
G01*
X131310861Y-89474354D01*
X131315629Y-89476329D01*
X131352813Y-89501175D01*
X131389495Y-89525685D01*
X131452315Y-89588505D01*
X131501672Y-89662373D01*
X131535669Y-89744448D01*
X131553000Y-89831579D01*
X131553000Y-89920421D01*
X131535669Y-90007552D01*
X131501672Y-90089627D01*
X131452315Y-90163495D01*
X131436762Y-90179048D01*
X131421217Y-90197990D01*
X131409666Y-90219601D01*
X131402553Y-90243050D01*
X131400151Y-90267436D01*
X131402553Y-90291822D01*
X131409666Y-90315271D01*
X131421217Y-90336882D01*
X131436762Y-90355824D01*
X131455704Y-90371369D01*
X131477315Y-90382920D01*
X131500764Y-90390033D01*
X131525150Y-90392435D01*
X131549536Y-90390033D01*
X131572985Y-90382920D01*
X131576614Y-90381204D01*
X131578600Y-90380602D01*
X131578601Y-90380601D01*
X131622901Y-90367163D01*
X131724879Y-90336228D01*
X131838882Y-90325000D01*
X132465118Y-90325000D01*
X132579121Y-90336228D01*
X132725402Y-90380602D01*
X132860204Y-90452655D01*
X132860207Y-90452657D01*
X132860208Y-90452658D01*
X132978369Y-90549631D01*
X133053801Y-90641544D01*
X133075345Y-90667796D01*
X133147398Y-90802598D01*
X133191772Y-90948879D01*
X133206754Y-91101000D01*
X133191772Y-91253121D01*
X133147398Y-91399402D01*
X133075345Y-91534204D01*
X133075343Y-91534207D01*
X133075342Y-91534208D01*
X132978369Y-91652369D01*
X132916905Y-91702812D01*
X132860204Y-91749345D01*
X132725402Y-91821398D01*
X132579121Y-91865772D01*
X132465118Y-91877000D01*
X131838882Y-91877000D01*
X131724879Y-91865772D01*
X131578598Y-91821398D01*
X131443796Y-91749345D01*
X131387096Y-91702812D01*
X131325631Y-91652369D01*
X131228658Y-91534208D01*
X131228657Y-91534207D01*
X131228655Y-91534204D01*
X131156602Y-91399402D01*
X131112228Y-91253121D01*
X131097246Y-91101000D01*
X131112228Y-90948879D01*
X131156602Y-90802598D01*
X131228655Y-90667796D01*
X131325633Y-90549628D01*
X131358430Y-90522712D01*
X131375757Y-90505385D01*
X131389370Y-90485011D01*
X131398748Y-90462372D01*
X131403528Y-90438339D01*
X131403528Y-90413835D01*
X131398748Y-90389801D01*
X131389370Y-90367163D01*
X131375756Y-90346788D01*
X131358429Y-90329461D01*
X131338055Y-90315848D01*
X131315416Y-90306470D01*
X131291383Y-90301690D01*
X131266879Y-90301690D01*
X131242845Y-90306470D01*
X131234351Y-90309510D01*
X131146421Y-90327000D01*
X131057579Y-90327000D01*
X130970448Y-90309669D01*
X130888373Y-90275672D01*
X130888372Y-90275672D01*
X130888371Y-90275671D01*
X130814504Y-90226314D01*
X130751686Y-90163496D01*
X130702329Y-90089629D01*
X130702328Y-90089627D01*
X130668331Y-90007552D01*
X130651000Y-89920421D01*
X130651000Y-89831579D01*
X130668331Y-89744448D01*
X130702328Y-89662373D01*
X130751685Y-89588505D01*
X130814505Y-89525685D01*
X130851187Y-89501175D01*
X130888371Y-89476329D01*
X130893139Y-89474354D01*
X130970448Y-89442331D01*
X131057579Y-89425000D01*
X131146421Y-89425000D01*
X131233552Y-89442331D01*
G37*
G36*
X176008512Y-88003927D02*
G01*
X176157812Y-88033624D01*
X176321784Y-88101544D01*
X176469354Y-88200147D01*
X176594853Y-88325646D01*
X176693456Y-88473216D01*
X176761376Y-88637188D01*
X176796000Y-88811259D01*
X176796000Y-88988741D01*
X176761376Y-89162812D01*
X176693456Y-89326784D01*
X176594853Y-89474354D01*
X176469354Y-89599853D01*
X176321784Y-89698456D01*
X176157812Y-89766376D01*
X176008512Y-89796073D01*
X175983742Y-89801000D01*
X175806258Y-89801000D01*
X175781488Y-89796073D01*
X175632188Y-89766376D01*
X175468216Y-89698456D01*
X175320646Y-89599853D01*
X175195147Y-89474354D01*
X175096544Y-89326784D01*
X175028624Y-89162812D01*
X174994000Y-88988741D01*
X174994000Y-88811259D01*
X175028624Y-88637188D01*
X175096544Y-88473216D01*
X175195147Y-88325646D01*
X175320646Y-88200147D01*
X175468216Y-88101544D01*
X175632188Y-88033624D01*
X175781488Y-88003927D01*
X175806258Y-87999000D01*
X175983742Y-87999000D01*
X176008512Y-88003927D01*
G37*
G36*
X172325512Y-88003927D02*
G01*
X172474812Y-88033624D01*
X172638784Y-88101544D01*
X172786354Y-88200147D01*
X172911853Y-88325646D01*
X173010456Y-88473216D01*
X173078376Y-88637188D01*
X173113000Y-88811259D01*
X173113000Y-88988741D01*
X173078376Y-89162812D01*
X173010456Y-89326784D01*
X172911853Y-89474354D01*
X172786354Y-89599853D01*
X172638784Y-89698456D01*
X172474812Y-89766376D01*
X172325512Y-89796073D01*
X172300742Y-89801000D01*
X172123258Y-89801000D01*
X172098488Y-89796073D01*
X171949188Y-89766376D01*
X171785216Y-89698456D01*
X171637646Y-89599853D01*
X171512147Y-89474354D01*
X171413544Y-89326784D01*
X171345624Y-89162812D01*
X171311000Y-88988741D01*
X171311000Y-88811259D01*
X171345624Y-88637188D01*
X171413544Y-88473216D01*
X171512147Y-88325646D01*
X171637646Y-88200147D01*
X171785216Y-88101544D01*
X171949188Y-88033624D01*
X172098488Y-88003927D01*
X172123258Y-87999000D01*
X172300742Y-87999000D01*
X172325512Y-88003927D01*
G37*
G36*
X172321042Y-85463038D02*
G01*
X172474812Y-85493624D01*
X172638784Y-85561544D01*
X172786354Y-85660147D01*
X172911853Y-85785646D01*
X173010456Y-85933216D01*
X173078376Y-86097188D01*
X173113000Y-86271259D01*
X173113000Y-86448741D01*
X173078376Y-86622812D01*
X173010456Y-86786784D01*
X172911853Y-86934354D01*
X172786354Y-87059853D01*
X172638784Y-87158456D01*
X172474812Y-87226376D01*
X172325512Y-87256073D01*
X172300742Y-87261000D01*
X172123258Y-87261000D01*
X172098488Y-87256073D01*
X171949188Y-87226376D01*
X171785216Y-87158456D01*
X171637646Y-87059853D01*
X171512147Y-86934354D01*
X171413544Y-86786784D01*
X171345624Y-86622812D01*
X171311000Y-86448741D01*
X171311000Y-86271259D01*
X171345624Y-86097188D01*
X171413544Y-85933216D01*
X171512147Y-85785646D01*
X171637646Y-85660147D01*
X171785216Y-85561544D01*
X171949188Y-85493624D01*
X172102958Y-85463038D01*
X172123258Y-85459000D01*
X172300742Y-85459000D01*
X172321042Y-85463038D01*
G37*
G36*
X176004042Y-85463038D02*
G01*
X176157812Y-85493624D01*
X176321784Y-85561544D01*
X176469354Y-85660147D01*
X176594853Y-85785646D01*
X176693456Y-85933216D01*
X176761376Y-86097188D01*
X176796000Y-86271259D01*
X176796000Y-86448741D01*
X176761376Y-86622812D01*
X176693456Y-86786784D01*
X176594853Y-86934354D01*
X176469354Y-87059853D01*
X176321784Y-87158456D01*
X176157812Y-87226376D01*
X176008512Y-87256073D01*
X175983742Y-87261000D01*
X175806258Y-87261000D01*
X175781488Y-87256073D01*
X175632188Y-87226376D01*
X175468216Y-87158456D01*
X175320646Y-87059853D01*
X175195147Y-86934354D01*
X175096544Y-86786784D01*
X175028624Y-86622812D01*
X174994000Y-86448741D01*
X174994000Y-86271259D01*
X175028624Y-86097188D01*
X175096544Y-85933216D01*
X175195147Y-85785646D01*
X175320646Y-85660147D01*
X175468216Y-85561544D01*
X175632188Y-85493624D01*
X175785958Y-85463038D01*
X175806258Y-85459000D01*
X175983742Y-85459000D01*
X176004042Y-85463038D01*
G37*
G36*
X139126434Y-82185686D02*
G01*
X139166284Y-82197774D01*
X139202999Y-82217399D01*
X139235186Y-82243814D01*
X139261601Y-82276001D01*
X139281226Y-82312716D01*
X139293314Y-82352566D01*
X139298000Y-82400141D01*
X139298000Y-85563859D01*
X139293314Y-85611434D01*
X139281226Y-85651284D01*
X139261601Y-85687999D01*
X139235186Y-85720186D01*
X139202999Y-85746601D01*
X139166284Y-85766226D01*
X139126434Y-85778314D01*
X139078859Y-85783000D01*
X138415141Y-85783000D01*
X138367566Y-85778314D01*
X138327716Y-85766226D01*
X138291001Y-85746601D01*
X138258814Y-85720186D01*
X138232399Y-85687999D01*
X138212774Y-85651284D01*
X138200686Y-85611434D01*
X138196000Y-85563859D01*
X138196000Y-82400141D01*
X138200686Y-82352566D01*
X138212774Y-82312716D01*
X138232399Y-82276001D01*
X138258814Y-82243814D01*
X138291001Y-82217399D01*
X138327716Y-82197774D01*
X138367566Y-82185686D01*
X138415141Y-82181000D01*
X139078859Y-82181000D01*
X139126434Y-82185686D01*
G37*
G36*
X137126434Y-82185686D02*
G01*
X137166284Y-82197774D01*
X137202999Y-82217399D01*
X137235186Y-82243814D01*
X137261601Y-82276001D01*
X137281226Y-82312716D01*
X137293314Y-82352566D01*
X137298000Y-82400141D01*
X137298000Y-85563859D01*
X137293314Y-85611434D01*
X137281226Y-85651284D01*
X137261601Y-85687999D01*
X137235186Y-85720186D01*
X137202999Y-85746601D01*
X137166284Y-85766226D01*
X137126434Y-85778314D01*
X137078859Y-85783000D01*
X136415141Y-85783000D01*
X136367566Y-85778314D01*
X136327716Y-85766226D01*
X136291001Y-85746601D01*
X136258814Y-85720186D01*
X136232399Y-85687999D01*
X136212774Y-85651284D01*
X136200686Y-85611434D01*
X136196000Y-85563859D01*
X136196000Y-82400141D01*
X136200686Y-82352566D01*
X136212774Y-82312716D01*
X136232399Y-82276001D01*
X136258814Y-82243814D01*
X136291001Y-82217399D01*
X136327716Y-82197774D01*
X136367566Y-82185686D01*
X136415141Y-82181000D01*
X137078859Y-82181000D01*
X137126434Y-82185686D01*
G37*
G36*
X150323674Y-84089465D02*
G01*
X150361367Y-84100899D01*
X150396103Y-84119466D01*
X150426548Y-84144452D01*
X150451534Y-84174897D01*
X150470101Y-84209633D01*
X150481535Y-84247326D01*
X150486000Y-84292661D01*
X150486000Y-85379339D01*
X150481535Y-85424674D01*
X150470101Y-85462367D01*
X150451534Y-85497103D01*
X150426548Y-85527548D01*
X150396103Y-85552534D01*
X150361367Y-85571101D01*
X150323674Y-85582535D01*
X150278339Y-85587000D01*
X149441661Y-85587000D01*
X149396326Y-85582535D01*
X149358633Y-85571101D01*
X149323897Y-85552534D01*
X149293452Y-85527548D01*
X149268466Y-85497103D01*
X149249899Y-85462367D01*
X149238465Y-85424674D01*
X149234000Y-85379339D01*
X149234000Y-84292661D01*
X149238465Y-84247326D01*
X149249899Y-84209633D01*
X149268466Y-84174897D01*
X149293452Y-84144452D01*
X149323897Y-84119466D01*
X149358633Y-84100899D01*
X149396326Y-84089465D01*
X149441661Y-84085000D01*
X150278339Y-84085000D01*
X150323674Y-84089465D01*
G37*
G36*
X152373674Y-84089465D02*
G01*
X152411367Y-84100899D01*
X152446103Y-84119466D01*
X152476548Y-84144452D01*
X152501534Y-84174897D01*
X152520101Y-84209633D01*
X152531535Y-84247326D01*
X152536000Y-84292661D01*
X152536000Y-85379339D01*
X152531535Y-85424674D01*
X152520101Y-85462367D01*
X152501534Y-85497103D01*
X152476548Y-85527548D01*
X152446103Y-85552534D01*
X152411367Y-85571101D01*
X152373674Y-85582535D01*
X152328339Y-85587000D01*
X151491661Y-85587000D01*
X151446326Y-85582535D01*
X151408633Y-85571101D01*
X151373897Y-85552534D01*
X151343452Y-85527548D01*
X151318466Y-85497103D01*
X151299899Y-85462367D01*
X151288465Y-85424674D01*
X151284000Y-85379339D01*
X151284000Y-84292661D01*
X151288465Y-84247326D01*
X151299899Y-84209633D01*
X151318466Y-84174897D01*
X151343452Y-84144452D01*
X151373897Y-84119466D01*
X151408633Y-84100899D01*
X151446326Y-84089465D01*
X151491661Y-84085000D01*
X152328339Y-84085000D01*
X152373674Y-84089465D01*
G37*
G36*
X144606674Y-84336465D02*
G01*
X144644367Y-84347899D01*
X144679103Y-84366466D01*
X144709548Y-84391452D01*
X144734534Y-84421897D01*
X144753101Y-84456633D01*
X144764535Y-84494326D01*
X144769000Y-84539661D01*
X144769000Y-85376339D01*
X144764535Y-85421674D01*
X144753101Y-85459367D01*
X144734534Y-85494103D01*
X144709548Y-85524548D01*
X144679103Y-85549534D01*
X144644367Y-85568101D01*
X144606674Y-85579535D01*
X144561339Y-85584000D01*
X143474661Y-85584000D01*
X143429326Y-85579535D01*
X143391633Y-85568101D01*
X143356897Y-85549534D01*
X143326452Y-85524548D01*
X143301466Y-85494103D01*
X143282899Y-85459367D01*
X143271465Y-85421674D01*
X143267000Y-85376339D01*
X143267000Y-84539661D01*
X143271465Y-84494326D01*
X143282899Y-84456633D01*
X143301466Y-84421897D01*
X143326452Y-84391452D01*
X143356897Y-84366466D01*
X143391633Y-84347899D01*
X143429326Y-84336465D01*
X143474661Y-84332000D01*
X144561339Y-84332000D01*
X144606674Y-84336465D01*
G37*
G36*
X132579121Y-82886228D02*
G01*
X132725402Y-82930602D01*
X132860204Y-83002655D01*
X132860207Y-83002657D01*
X132860208Y-83002658D01*
X132978369Y-83099631D01*
X133020963Y-83151531D01*
X133075345Y-83217796D01*
X133147398Y-83352598D01*
X133191772Y-83498879D01*
X133206754Y-83651000D01*
X133191772Y-83803121D01*
X133147398Y-83949402D01*
X133075345Y-84084204D01*
X133075343Y-84084207D01*
X133075342Y-84084208D01*
X132978369Y-84202369D01*
X132868349Y-84292661D01*
X132860204Y-84299345D01*
X132725402Y-84371398D01*
X132579121Y-84415772D01*
X132465118Y-84427000D01*
X131838882Y-84427000D01*
X131724879Y-84415772D01*
X131572664Y-84369598D01*
X131561439Y-84364948D01*
X131537405Y-84360167D01*
X131512901Y-84360167D01*
X131488868Y-84364946D01*
X131466229Y-84374323D01*
X131445854Y-84387936D01*
X131428527Y-84405263D01*
X131414912Y-84425637D01*
X131405534Y-84448275D01*
X131400753Y-84472309D01*
X131400753Y-84496813D01*
X131405532Y-84520846D01*
X131414909Y-84543485D01*
X131428522Y-84563860D01*
X131436762Y-84572952D01*
X131452315Y-84588505D01*
X131501672Y-84662373D01*
X131535669Y-84744448D01*
X131553000Y-84831579D01*
X131553000Y-84920421D01*
X131535669Y-85007552D01*
X131501672Y-85089627D01*
X131501671Y-85089629D01*
X131452314Y-85163496D01*
X131389496Y-85226314D01*
X131315629Y-85275671D01*
X131315628Y-85275672D01*
X131315627Y-85275672D01*
X131233552Y-85309669D01*
X131146421Y-85327000D01*
X131057579Y-85327000D01*
X130970448Y-85309669D01*
X130888373Y-85275672D01*
X130888372Y-85275672D01*
X130888371Y-85275671D01*
X130814504Y-85226314D01*
X130751686Y-85163496D01*
X130702329Y-85089629D01*
X130702328Y-85089627D01*
X130668331Y-85007552D01*
X130651000Y-84920421D01*
X130651000Y-84831579D01*
X130668331Y-84744448D01*
X130702328Y-84662373D01*
X130751685Y-84588505D01*
X130814505Y-84525685D01*
X130861437Y-84494326D01*
X130888371Y-84476329D01*
X130898076Y-84472309D01*
X130970448Y-84442331D01*
X131057579Y-84425000D01*
X131146421Y-84425000D01*
X131235946Y-84442807D01*
X131254743Y-84448510D01*
X131279129Y-84450912D01*
X131303515Y-84448511D01*
X131326964Y-84441398D01*
X131348575Y-84429847D01*
X131367517Y-84414302D01*
X131383063Y-84395361D01*
X131394614Y-84373750D01*
X131401728Y-84350301D01*
X131404130Y-84325915D01*
X131401729Y-84301529D01*
X131394616Y-84278080D01*
X131383065Y-84256469D01*
X131367520Y-84237527D01*
X131358430Y-84229288D01*
X131325633Y-84202372D01*
X131233600Y-84090230D01*
X131228658Y-84084208D01*
X131228657Y-84084207D01*
X131228655Y-84084204D01*
X131156602Y-83949402D01*
X131112228Y-83803121D01*
X131097246Y-83651000D01*
X131112228Y-83498879D01*
X131156602Y-83352598D01*
X131228655Y-83217796D01*
X131283038Y-83151531D01*
X131325631Y-83099631D01*
X131443792Y-83002658D01*
X131443793Y-83002657D01*
X131443796Y-83002655D01*
X131578598Y-82930602D01*
X131724879Y-82886228D01*
X131838882Y-82875000D01*
X132465118Y-82875000D01*
X132579121Y-82886228D01*
G37*
G36*
X146420000Y-85273000D02*
G01*
X145258000Y-85273000D01*
X145258000Y-82621000D01*
X146420000Y-82621000D01*
X146420000Y-85273000D01*
G37*
G36*
X148620000Y-85273000D02*
G01*
X147458000Y-85273000D01*
X147458000Y-84521000D01*
X148620000Y-84521000D01*
X148620000Y-85273000D01*
G37*
G36*
X154639674Y-83724465D02*
G01*
X154677367Y-83735899D01*
X154712103Y-83754466D01*
X154742548Y-83779452D01*
X154767534Y-83809897D01*
X154786101Y-83844633D01*
X154797535Y-83882326D01*
X154802000Y-83927661D01*
X154802000Y-84764339D01*
X154797535Y-84809674D01*
X154786101Y-84847367D01*
X154767534Y-84882103D01*
X154742548Y-84912548D01*
X154712103Y-84937534D01*
X154677367Y-84956101D01*
X154639674Y-84967535D01*
X154594339Y-84972000D01*
X153507661Y-84972000D01*
X153462326Y-84967535D01*
X153424633Y-84956101D01*
X153389897Y-84937534D01*
X153359452Y-84912548D01*
X153334466Y-84882103D01*
X153315899Y-84847367D01*
X153304465Y-84809674D01*
X153300000Y-84764339D01*
X153300000Y-83927661D01*
X153304465Y-83882326D01*
X153315899Y-83844633D01*
X153334466Y-83809897D01*
X153359452Y-83779452D01*
X153389897Y-83754466D01*
X153424633Y-83735899D01*
X153462326Y-83724465D01*
X153507661Y-83720000D01*
X154594339Y-83720000D01*
X154639674Y-83724465D01*
G37*
G36*
X176796000Y-84721000D02*
G01*
X174994000Y-84721000D01*
X174994000Y-82919000D01*
X176796000Y-82919000D01*
X176796000Y-84721000D01*
G37*
G36*
X128799715Y-82884058D02*
G01*
X128872381Y-82906101D01*
X128914904Y-82919000D01*
X128917722Y-82919855D01*
X129026468Y-82977981D01*
X129121790Y-83056210D01*
X129200019Y-83151532D01*
X129258145Y-83260278D01*
X129293942Y-83378285D01*
X129306028Y-83501000D01*
X129293942Y-83623715D01*
X129258145Y-83741722D01*
X129200019Y-83850468D01*
X129121790Y-83945790D01*
X129026468Y-84024019D01*
X128917722Y-84082145D01*
X128917719Y-84082146D01*
X128910921Y-84084208D01*
X128799715Y-84117942D01*
X128707746Y-84127000D01*
X127996254Y-84127000D01*
X127904285Y-84117942D01*
X127793079Y-84084208D01*
X127786281Y-84082146D01*
X127786278Y-84082145D01*
X127677532Y-84024019D01*
X127582210Y-83945790D01*
X127503981Y-83850468D01*
X127445855Y-83741722D01*
X127410058Y-83623715D01*
X127397972Y-83501000D01*
X127410058Y-83378285D01*
X127445855Y-83260278D01*
X127503981Y-83151532D01*
X127582210Y-83056210D01*
X127677532Y-82977981D01*
X127786278Y-82919855D01*
X127789097Y-82919000D01*
X127831619Y-82906101D01*
X127904285Y-82884058D01*
X127996254Y-82875000D01*
X128707746Y-82875000D01*
X128799715Y-82884058D01*
G37*
G36*
X144606674Y-82286465D02*
G01*
X144644367Y-82297899D01*
X144679103Y-82316466D01*
X144709548Y-82341452D01*
X144734534Y-82371897D01*
X144753101Y-82406633D01*
X144764535Y-82444326D01*
X144769000Y-82489661D01*
X144769000Y-83326339D01*
X144764535Y-83371674D01*
X144753101Y-83409367D01*
X144734534Y-83444103D01*
X144709548Y-83474548D01*
X144679103Y-83499534D01*
X144644367Y-83518101D01*
X144606674Y-83529535D01*
X144561339Y-83534000D01*
X143474661Y-83534000D01*
X143429326Y-83529535D01*
X143391633Y-83518101D01*
X143356897Y-83499534D01*
X143326452Y-83474548D01*
X143301466Y-83444103D01*
X143282899Y-83409367D01*
X143271465Y-83371674D01*
X143267000Y-83326339D01*
X143267000Y-82489661D01*
X143271465Y-82444326D01*
X143282899Y-82406633D01*
X143301466Y-82371897D01*
X143326452Y-82341452D01*
X143356897Y-82316466D01*
X143391633Y-82297899D01*
X143429326Y-82286465D01*
X143474661Y-82282000D01*
X144561339Y-82282000D01*
X144606674Y-82286465D01*
G37*
G36*
X148620000Y-83373000D02*
G01*
X147458000Y-83373000D01*
X147458000Y-82621000D01*
X148620000Y-82621000D01*
X148620000Y-83373000D01*
G37*
G36*
X150323674Y-81549465D02*
G01*
X150361367Y-81560899D01*
X150396103Y-81579466D01*
X150426548Y-81604452D01*
X150451534Y-81634897D01*
X150470101Y-81669633D01*
X150481535Y-81707326D01*
X150486000Y-81752661D01*
X150486000Y-82839339D01*
X150481535Y-82884674D01*
X150470101Y-82922367D01*
X150451534Y-82957103D01*
X150426548Y-82987548D01*
X150396103Y-83012534D01*
X150361367Y-83031101D01*
X150323674Y-83042535D01*
X150278339Y-83047000D01*
X149441661Y-83047000D01*
X149396326Y-83042535D01*
X149358633Y-83031101D01*
X149323897Y-83012534D01*
X149293452Y-82987548D01*
X149268466Y-82957103D01*
X149249899Y-82922367D01*
X149238465Y-82884674D01*
X149234000Y-82839339D01*
X149234000Y-81752661D01*
X149238465Y-81707326D01*
X149249899Y-81669633D01*
X149268466Y-81634897D01*
X149293452Y-81604452D01*
X149323897Y-81579466D01*
X149358633Y-81560899D01*
X149396326Y-81549465D01*
X149441661Y-81545000D01*
X150278339Y-81545000D01*
X150323674Y-81549465D01*
G37*
G36*
X152373674Y-81549465D02*
G01*
X152411367Y-81560899D01*
X152446103Y-81579466D01*
X152476548Y-81604452D01*
X152501534Y-81634897D01*
X152520101Y-81669633D01*
X152531535Y-81707326D01*
X152536000Y-81752661D01*
X152536000Y-82839339D01*
X152531535Y-82884674D01*
X152520101Y-82922367D01*
X152501534Y-82957103D01*
X152476548Y-82987548D01*
X152446103Y-83012534D01*
X152411367Y-83031101D01*
X152373674Y-83042535D01*
X152328339Y-83047000D01*
X151491661Y-83047000D01*
X151446326Y-83042535D01*
X151408633Y-83031101D01*
X151373897Y-83012534D01*
X151343452Y-82987548D01*
X151318466Y-82957103D01*
X151299899Y-82922367D01*
X151288465Y-82884674D01*
X151284000Y-82839339D01*
X151284000Y-81752661D01*
X151288465Y-81707326D01*
X151299899Y-81669633D01*
X151318466Y-81634897D01*
X151343452Y-81604452D01*
X151373897Y-81579466D01*
X151408633Y-81560899D01*
X151446326Y-81549465D01*
X151491661Y-81545000D01*
X152328339Y-81545000D01*
X152373674Y-81549465D01*
G37*
G36*
X154639674Y-81674465D02*
G01*
X154677367Y-81685899D01*
X154712103Y-81704466D01*
X154742548Y-81729452D01*
X154767534Y-81759897D01*
X154786101Y-81794633D01*
X154797535Y-81832326D01*
X154802000Y-81877661D01*
X154802000Y-82714339D01*
X154797535Y-82759674D01*
X154786101Y-82797367D01*
X154767534Y-82832103D01*
X154742548Y-82862548D01*
X154712103Y-82887534D01*
X154677367Y-82906101D01*
X154639674Y-82917535D01*
X154594339Y-82922000D01*
X153507661Y-82922000D01*
X153462326Y-82917535D01*
X153424633Y-82906101D01*
X153389897Y-82887534D01*
X153359452Y-82862548D01*
X153334466Y-82832103D01*
X153315899Y-82797367D01*
X153304465Y-82759674D01*
X153300000Y-82714339D01*
X153300000Y-81877661D01*
X153304465Y-81832326D01*
X153315899Y-81794633D01*
X153334466Y-81759897D01*
X153359452Y-81729452D01*
X153389897Y-81704466D01*
X153424633Y-81685899D01*
X153462326Y-81674465D01*
X153507661Y-81670000D01*
X154594339Y-81670000D01*
X154639674Y-81674465D01*
G37*
G36*
X135050048Y-76485122D02*
G01*
X135084387Y-76495539D01*
X135116036Y-76512456D01*
X135143778Y-76535222D01*
X135166544Y-76562964D01*
X135183461Y-76594613D01*
X135193878Y-76628952D01*
X135198000Y-76670807D01*
X135198000Y-79793193D01*
X135193878Y-79835048D01*
X135183461Y-79869387D01*
X135166544Y-79901036D01*
X135143778Y-79928778D01*
X135116036Y-79951544D01*
X135084387Y-79968461D01*
X135050048Y-79978878D01*
X135008193Y-79983000D01*
X133785807Y-79983000D01*
X133743952Y-79978878D01*
X133709613Y-79968461D01*
X133677964Y-79951544D01*
X133650222Y-79928778D01*
X133627456Y-79901036D01*
X133610539Y-79869387D01*
X133600122Y-79835048D01*
X133596000Y-79793193D01*
X133596000Y-76670807D01*
X133600122Y-76628952D01*
X133610539Y-76594613D01*
X133627456Y-76562964D01*
X133650222Y-76535222D01*
X133677964Y-76512456D01*
X133709613Y-76495539D01*
X133743952Y-76485122D01*
X133785807Y-76481000D01*
X135008193Y-76481000D01*
X135050048Y-76485122D01*
G37*
G36*
X141750048Y-76485122D02*
G01*
X141784387Y-76495539D01*
X141816036Y-76512456D01*
X141843778Y-76535222D01*
X141866544Y-76562964D01*
X141883461Y-76594613D01*
X141893878Y-76628952D01*
X141898000Y-76670807D01*
X141898000Y-79793193D01*
X141893878Y-79835048D01*
X141883461Y-79869387D01*
X141866544Y-79901036D01*
X141843778Y-79928778D01*
X141816036Y-79951544D01*
X141784387Y-79968461D01*
X141750048Y-79978878D01*
X141708193Y-79983000D01*
X140485807Y-79983000D01*
X140443952Y-79978878D01*
X140409613Y-79968461D01*
X140377964Y-79951544D01*
X140350222Y-79928778D01*
X140327456Y-79901036D01*
X140310539Y-79869387D01*
X140300122Y-79835048D01*
X140296000Y-79793193D01*
X140296000Y-76670807D01*
X140300122Y-76628952D01*
X140310539Y-76594613D01*
X140327456Y-76562964D01*
X140350222Y-76535222D01*
X140377964Y-76512456D01*
X140409613Y-76495539D01*
X140443952Y-76485122D01*
X140485807Y-76481000D01*
X141708193Y-76481000D01*
X141750048Y-76485122D01*
G37*
G36*
X163943512Y-76573927D02*
G01*
X164092812Y-76603624D01*
X164256784Y-76671544D01*
X164404354Y-76770147D01*
X164529853Y-76895646D01*
X164628456Y-77043216D01*
X164696376Y-77207188D01*
X164731000Y-77381259D01*
X164731000Y-77558741D01*
X164696376Y-77732812D01*
X164628456Y-77896784D01*
X164529853Y-78044354D01*
X164404354Y-78169853D01*
X164256784Y-78268456D01*
X164092812Y-78336376D01*
X163943512Y-78366073D01*
X163918742Y-78371000D01*
X163741258Y-78371000D01*
X163716488Y-78366073D01*
X163567188Y-78336376D01*
X163403216Y-78268456D01*
X163255646Y-78169853D01*
X163130147Y-78044354D01*
X163031544Y-77896784D01*
X162963624Y-77732812D01*
X162929000Y-77558741D01*
X162929000Y-77381259D01*
X162963624Y-77207188D01*
X163031544Y-77043216D01*
X163130147Y-76895646D01*
X163255646Y-76770147D01*
X163403216Y-76671544D01*
X163567188Y-76603624D01*
X163716488Y-76573927D01*
X163741258Y-76569000D01*
X163918742Y-76569000D01*
X163943512Y-76573927D01*
G37*
G36*
X161403512Y-76573927D02*
G01*
X161552812Y-76603624D01*
X161716784Y-76671544D01*
X161864354Y-76770147D01*
X161989853Y-76895646D01*
X162088456Y-77043216D01*
X162156376Y-77207188D01*
X162191000Y-77381259D01*
X162191000Y-77558741D01*
X162156376Y-77732812D01*
X162088456Y-77896784D01*
X161989853Y-78044354D01*
X161864354Y-78169853D01*
X161716784Y-78268456D01*
X161552812Y-78336376D01*
X161403512Y-78366073D01*
X161378742Y-78371000D01*
X161201258Y-78371000D01*
X161176488Y-78366073D01*
X161027188Y-78336376D01*
X160863216Y-78268456D01*
X160715646Y-78169853D01*
X160590147Y-78044354D01*
X160491544Y-77896784D01*
X160423624Y-77732812D01*
X160389000Y-77558741D01*
X160389000Y-77381259D01*
X160423624Y-77207188D01*
X160491544Y-77043216D01*
X160590147Y-76895646D01*
X160715646Y-76770147D01*
X160863216Y-76671544D01*
X161027188Y-76603624D01*
X161176488Y-76573927D01*
X161201258Y-76569000D01*
X161378742Y-76569000D01*
X161403512Y-76573927D01*
G37*
G36*
X158863512Y-76573927D02*
G01*
X159012812Y-76603624D01*
X159176784Y-76671544D01*
X159324354Y-76770147D01*
X159449853Y-76895646D01*
X159548456Y-77043216D01*
X159616376Y-77207188D01*
X159651000Y-77381259D01*
X159651000Y-77558741D01*
X159616376Y-77732812D01*
X159548456Y-77896784D01*
X159449853Y-78044354D01*
X159324354Y-78169853D01*
X159176784Y-78268456D01*
X159012812Y-78336376D01*
X158863512Y-78366073D01*
X158838742Y-78371000D01*
X158661258Y-78371000D01*
X158636488Y-78366073D01*
X158487188Y-78336376D01*
X158323216Y-78268456D01*
X158175646Y-78169853D01*
X158050147Y-78044354D01*
X157951544Y-77896784D01*
X157883624Y-77732812D01*
X157849000Y-77558741D01*
X157849000Y-77381259D01*
X157883624Y-77207188D01*
X157951544Y-77043216D01*
X158050147Y-76895646D01*
X158175646Y-76770147D01*
X158323216Y-76671544D01*
X158487188Y-76603624D01*
X158636488Y-76573927D01*
X158661258Y-76569000D01*
X158838742Y-76569000D01*
X158863512Y-76573927D01*
G37*
G36*
X156323512Y-76573927D02*
G01*
X156472812Y-76603624D01*
X156636784Y-76671544D01*
X156784354Y-76770147D01*
X156909853Y-76895646D01*
X157008456Y-77043216D01*
X157076376Y-77207188D01*
X157111000Y-77381259D01*
X157111000Y-77558741D01*
X157076376Y-77732812D01*
X157008456Y-77896784D01*
X156909853Y-78044354D01*
X156784354Y-78169853D01*
X156636784Y-78268456D01*
X156472812Y-78336376D01*
X156323512Y-78366073D01*
X156298742Y-78371000D01*
X156121258Y-78371000D01*
X156096488Y-78366073D01*
X155947188Y-78336376D01*
X155783216Y-78268456D01*
X155635646Y-78169853D01*
X155510147Y-78044354D01*
X155411544Y-77896784D01*
X155343624Y-77732812D01*
X155309000Y-77558741D01*
X155309000Y-77381259D01*
X155343624Y-77207188D01*
X155411544Y-77043216D01*
X155510147Y-76895646D01*
X155635646Y-76770147D01*
X155783216Y-76671544D01*
X155947188Y-76603624D01*
X156096488Y-76573927D01*
X156121258Y-76569000D01*
X156298742Y-76569000D01*
X156323512Y-76573927D01*
G37*
G36*
X153783512Y-76573927D02*
G01*
X153932812Y-76603624D01*
X154096784Y-76671544D01*
X154244354Y-76770147D01*
X154369853Y-76895646D01*
X154468456Y-77043216D01*
X154536376Y-77207188D01*
X154571000Y-77381259D01*
X154571000Y-77558741D01*
X154536376Y-77732812D01*
X154468456Y-77896784D01*
X154369853Y-78044354D01*
X154244354Y-78169853D01*
X154096784Y-78268456D01*
X153932812Y-78336376D01*
X153783512Y-78366073D01*
X153758742Y-78371000D01*
X153581258Y-78371000D01*
X153556488Y-78366073D01*
X153407188Y-78336376D01*
X153243216Y-78268456D01*
X153095646Y-78169853D01*
X152970147Y-78044354D01*
X152871544Y-77896784D01*
X152803624Y-77732812D01*
X152769000Y-77558741D01*
X152769000Y-77381259D01*
X152803624Y-77207188D01*
X152871544Y-77043216D01*
X152970147Y-76895646D01*
X153095646Y-76770147D01*
X153243216Y-76671544D01*
X153407188Y-76603624D01*
X153556488Y-76573927D01*
X153581258Y-76569000D01*
X153758742Y-76569000D01*
X153783512Y-76573927D01*
G37*
G36*
X151243512Y-76573927D02*
G01*
X151392812Y-76603624D01*
X151556784Y-76671544D01*
X151704354Y-76770147D01*
X151829853Y-76895646D01*
X151928456Y-77043216D01*
X151996376Y-77207188D01*
X152031000Y-77381259D01*
X152031000Y-77558741D01*
X151996376Y-77732812D01*
X151928456Y-77896784D01*
X151829853Y-78044354D01*
X151704354Y-78169853D01*
X151556784Y-78268456D01*
X151392812Y-78336376D01*
X151243512Y-78366073D01*
X151218742Y-78371000D01*
X151041258Y-78371000D01*
X151016488Y-78366073D01*
X150867188Y-78336376D01*
X150703216Y-78268456D01*
X150555646Y-78169853D01*
X150430147Y-78044354D01*
X150331544Y-77896784D01*
X150263624Y-77732812D01*
X150229000Y-77558741D01*
X150229000Y-77381259D01*
X150263624Y-77207188D01*
X150331544Y-77043216D01*
X150430147Y-76895646D01*
X150555646Y-76770147D01*
X150703216Y-76671544D01*
X150867188Y-76603624D01*
X151016488Y-76573927D01*
X151041258Y-76569000D01*
X151218742Y-76569000D01*
X151243512Y-76573927D01*
G37*
G36*
X171563512Y-76573927D02*
G01*
X171712812Y-76603624D01*
X171876784Y-76671544D01*
X172024354Y-76770147D01*
X172149853Y-76895646D01*
X172248456Y-77043216D01*
X172316376Y-77207188D01*
X172351000Y-77381259D01*
X172351000Y-77558741D01*
X172316376Y-77732812D01*
X172248456Y-77896784D01*
X172149853Y-78044354D01*
X172024354Y-78169853D01*
X171876784Y-78268456D01*
X171712812Y-78336376D01*
X171563512Y-78366073D01*
X171538742Y-78371000D01*
X171361258Y-78371000D01*
X171336488Y-78366073D01*
X171187188Y-78336376D01*
X171023216Y-78268456D01*
X170875646Y-78169853D01*
X170750147Y-78044354D01*
X170651544Y-77896784D01*
X170583624Y-77732812D01*
X170549000Y-77558741D01*
X170549000Y-77381259D01*
X170583624Y-77207188D01*
X170651544Y-77043216D01*
X170750147Y-76895646D01*
X170875646Y-76770147D01*
X171023216Y-76671544D01*
X171187188Y-76603624D01*
X171336488Y-76573927D01*
X171361258Y-76569000D01*
X171538742Y-76569000D01*
X171563512Y-76573927D01*
G37*
G36*
X169023512Y-76573927D02*
G01*
X169172812Y-76603624D01*
X169336784Y-76671544D01*
X169484354Y-76770147D01*
X169609853Y-76895646D01*
X169708456Y-77043216D01*
X169776376Y-77207188D01*
X169811000Y-77381259D01*
X169811000Y-77558741D01*
X169776376Y-77732812D01*
X169708456Y-77896784D01*
X169609853Y-78044354D01*
X169484354Y-78169853D01*
X169336784Y-78268456D01*
X169172812Y-78336376D01*
X169023512Y-78366073D01*
X168998742Y-78371000D01*
X168821258Y-78371000D01*
X168796488Y-78366073D01*
X168647188Y-78336376D01*
X168483216Y-78268456D01*
X168335646Y-78169853D01*
X168210147Y-78044354D01*
X168111544Y-77896784D01*
X168043624Y-77732812D01*
X168009000Y-77558741D01*
X168009000Y-77381259D01*
X168043624Y-77207188D01*
X168111544Y-77043216D01*
X168210147Y-76895646D01*
X168335646Y-76770147D01*
X168483216Y-76671544D01*
X168647188Y-76603624D01*
X168796488Y-76573927D01*
X168821258Y-76569000D01*
X168998742Y-76569000D01*
X169023512Y-76573927D01*
G37*
G36*
X166483512Y-76573927D02*
G01*
X166632812Y-76603624D01*
X166796784Y-76671544D01*
X166944354Y-76770147D01*
X167069853Y-76895646D01*
X167168456Y-77043216D01*
X167236376Y-77207188D01*
X167271000Y-77381259D01*
X167271000Y-77558741D01*
X167236376Y-77732812D01*
X167168456Y-77896784D01*
X167069853Y-78044354D01*
X166944354Y-78169853D01*
X166796784Y-78268456D01*
X166632812Y-78336376D01*
X166483512Y-78366073D01*
X166458742Y-78371000D01*
X166281258Y-78371000D01*
X166256488Y-78366073D01*
X166107188Y-78336376D01*
X165943216Y-78268456D01*
X165795646Y-78169853D01*
X165670147Y-78044354D01*
X165571544Y-77896784D01*
X165503624Y-77732812D01*
X165469000Y-77558741D01*
X165469000Y-77381259D01*
X165503624Y-77207188D01*
X165571544Y-77043216D01*
X165670147Y-76895646D01*
X165795646Y-76770147D01*
X165943216Y-76671544D01*
X166107188Y-76603624D01*
X166256488Y-76573927D01*
X166281258Y-76569000D01*
X166458742Y-76569000D01*
X166483512Y-76573927D01*
G37*
G36*
X148703512Y-76573927D02*
G01*
X148852812Y-76603624D01*
X149016784Y-76671544D01*
X149164354Y-76770147D01*
X149289853Y-76895646D01*
X149388456Y-77043216D01*
X149456376Y-77207188D01*
X149491000Y-77381259D01*
X149491000Y-77558741D01*
X149456376Y-77732812D01*
X149388456Y-77896784D01*
X149289853Y-78044354D01*
X149164354Y-78169853D01*
X149016784Y-78268456D01*
X148852812Y-78336376D01*
X148703512Y-78366073D01*
X148678742Y-78371000D01*
X148501258Y-78371000D01*
X148476488Y-78366073D01*
X148327188Y-78336376D01*
X148163216Y-78268456D01*
X148015646Y-78169853D01*
X147890147Y-78044354D01*
X147791544Y-77896784D01*
X147723624Y-77732812D01*
X147689000Y-77558741D01*
X147689000Y-77381259D01*
X147723624Y-77207188D01*
X147791544Y-77043216D01*
X147890147Y-76895646D01*
X148015646Y-76770147D01*
X148163216Y-76671544D01*
X148327188Y-76603624D01*
X148476488Y-76573927D01*
X148501258Y-76569000D01*
X148678742Y-76569000D01*
X148703512Y-76573927D01*
G37*
G36*
X146163512Y-76573927D02*
G01*
X146312812Y-76603624D01*
X146476784Y-76671544D01*
X146624354Y-76770147D01*
X146749853Y-76895646D01*
X146848456Y-77043216D01*
X146916376Y-77207188D01*
X146951000Y-77381259D01*
X146951000Y-77558741D01*
X146916376Y-77732812D01*
X146848456Y-77896784D01*
X146749853Y-78044354D01*
X146624354Y-78169853D01*
X146476784Y-78268456D01*
X146312812Y-78336376D01*
X146163512Y-78366073D01*
X146138742Y-78371000D01*
X145961258Y-78371000D01*
X145936488Y-78366073D01*
X145787188Y-78336376D01*
X145623216Y-78268456D01*
X145475646Y-78169853D01*
X145350147Y-78044354D01*
X145251544Y-77896784D01*
X145183624Y-77732812D01*
X145149000Y-77558741D01*
X145149000Y-77381259D01*
X145183624Y-77207188D01*
X145251544Y-77043216D01*
X145350147Y-76895646D01*
X145475646Y-76770147D01*
X145623216Y-76671544D01*
X145787188Y-76603624D01*
X145936488Y-76573927D01*
X145961258Y-76569000D01*
X146138742Y-76569000D01*
X146163512Y-76573927D01*
G37*
G36*
X144411000Y-78371000D02*
G01*
X142609000Y-78371000D01*
X142609000Y-76569000D01*
X144411000Y-76569000D01*
X144411000Y-78371000D01*
G37*
M02*
