G04 #@! TF.GenerationSoftware,KiCad,Pcbnew,(5.1.5)-2*
G04 #@! TF.CreationDate,2020-08-19T20:36:14+04:00*
G04 #@! TF.ProjectId,stm32f103_feather,73746d33-3266-4313-9033-5f6665617468,rev?*
G04 #@! TF.SameCoordinates,Original*
G04 #@! TF.FileFunction,Copper,L2,Bot*
G04 #@! TF.FilePolarity,Positive*
%FSLAX46Y46*%
G04 Gerber Fmt 4.6, Leading zero omitted, Abs format (unit mm)*
G04 Created by KiCad (PCBNEW (5.1.5)-2) date 2020-08-19 20:36:14*
%MOMM*%
%LPD*%
G04 APERTURE LIST*
G04 #@! TA.AperFunction,Profile*
%ADD10C,0.050000*%
G04 #@! TD*
G04 #@! TA.AperFunction,SMDPad,CuDef*
%ADD11R,1.750000X0.600000*%
G04 #@! TD*
G04 #@! TA.AperFunction,SMDPad,CuDef*
%ADD12R,1.000000X1.500000*%
G04 #@! TD*
G04 #@! TA.AperFunction,SMDPad,CuDef*
%ADD13C,0.150000*%
G04 #@! TD*
G04 #@! TA.AperFunction,ComponentPad*
%ADD14O,1.700000X1.700000*%
G04 #@! TD*
G04 #@! TA.AperFunction,ComponentPad*
%ADD15R,1.700000X1.700000*%
G04 #@! TD*
G04 #@! TA.AperFunction,SMDPad,CuDef*
%ADD16R,1.060000X0.650000*%
G04 #@! TD*
G04 #@! TA.AperFunction,ComponentPad*
%ADD17O,1.800000X1.150000*%
G04 #@! TD*
G04 #@! TA.AperFunction,ComponentPad*
%ADD18O,2.000000X1.450000*%
G04 #@! TD*
G04 #@! TA.AperFunction,ViaPad*
%ADD19C,0.600000*%
G04 #@! TD*
G04 #@! TA.AperFunction,ViaPad*
%ADD20C,3.810000*%
G04 #@! TD*
G04 #@! TA.AperFunction,Conductor*
%ADD21C,0.250000*%
G04 #@! TD*
G04 #@! TA.AperFunction,Conductor*
%ADD22C,0.762000*%
G04 #@! TD*
G04 #@! TA.AperFunction,Conductor*
%ADD23C,0.381000*%
G04 #@! TD*
G04 #@! TA.AperFunction,Conductor*
%ADD24C,0.254000*%
G04 #@! TD*
G04 APERTURE END LIST*
D10*
X175260000Y-76200000D02*
X129540000Y-76200000D01*
X177800000Y-96520000D02*
X177800000Y-78740000D01*
X129540000Y-99060000D02*
X175260000Y-99060000D01*
X127000000Y-78740000D02*
X127000000Y-96520000D01*
X175260000Y-76200000D02*
G75*
G02X177800000Y-78740000I0J-2540000D01*
G01*
X177800000Y-96520000D02*
G75*
G02X175260000Y-99060000I-2540000J0D01*
G01*
X129540000Y-99060000D02*
G75*
G02X127000000Y-96520000I0J2540000D01*
G01*
X127000000Y-78740000D02*
G75*
G02X129540000Y-76200000I2540000J0D01*
G01*
D11*
G04 #@! TO.P,J6,4*
G04 #@! TO.N,/usb*
X130225800Y-86130000D03*
G04 #@! TO.P,J6,2*
G04 #@! TO.N,/usb_dp*
X130225800Y-88130000D03*
G04 #@! TO.P,J6,3*
G04 #@! TO.N,/usb_dm*
X128475800Y-87130000D03*
G04 #@! TO.P,J6,1*
G04 #@! TO.N,GND*
X128475800Y-89130000D03*
G04 #@! TD*
D12*
G04 #@! TO.P,usart1,1*
G04 #@! TO.N,Net-(U1-Pad31)*
X160244000Y-92202000D03*
G04 #@! TO.P,usart1,2*
G04 #@! TO.N,Net-(U1-Pad30)*
X161544000Y-92202000D03*
G04 #@! TO.P,usart1,3*
G04 #@! TO.N,Net-(U1-Pad29)*
X162844000Y-92202000D03*
G04 #@! TD*
G04 #@! TA.AperFunction,SMDPad,CuDef*
D13*
G04 #@! TO.P,R8,2*
G04 #@! TO.N,GND*
G36*
X144619505Y-91383204D02*
G01*
X144643773Y-91386804D01*
X144667572Y-91392765D01*
X144690671Y-91401030D01*
X144712850Y-91411520D01*
X144733893Y-91424132D01*
X144753599Y-91438747D01*
X144771777Y-91455223D01*
X144788253Y-91473401D01*
X144802868Y-91493107D01*
X144815480Y-91514150D01*
X144825970Y-91536329D01*
X144834235Y-91559428D01*
X144840196Y-91583227D01*
X144843796Y-91607495D01*
X144845000Y-91631999D01*
X144845000Y-92282001D01*
X144843796Y-92306505D01*
X144840196Y-92330773D01*
X144834235Y-92354572D01*
X144825970Y-92377671D01*
X144815480Y-92399850D01*
X144802868Y-92420893D01*
X144788253Y-92440599D01*
X144771777Y-92458777D01*
X144753599Y-92475253D01*
X144733893Y-92489868D01*
X144712850Y-92502480D01*
X144690671Y-92512970D01*
X144667572Y-92521235D01*
X144643773Y-92527196D01*
X144619505Y-92530796D01*
X144595001Y-92532000D01*
X143694999Y-92532000D01*
X143670495Y-92530796D01*
X143646227Y-92527196D01*
X143622428Y-92521235D01*
X143599329Y-92512970D01*
X143577150Y-92502480D01*
X143556107Y-92489868D01*
X143536401Y-92475253D01*
X143518223Y-92458777D01*
X143501747Y-92440599D01*
X143487132Y-92420893D01*
X143474520Y-92399850D01*
X143464030Y-92377671D01*
X143455765Y-92354572D01*
X143449804Y-92330773D01*
X143446204Y-92306505D01*
X143445000Y-92282001D01*
X143445000Y-91631999D01*
X143446204Y-91607495D01*
X143449804Y-91583227D01*
X143455765Y-91559428D01*
X143464030Y-91536329D01*
X143474520Y-91514150D01*
X143487132Y-91493107D01*
X143501747Y-91473401D01*
X143518223Y-91455223D01*
X143536401Y-91438747D01*
X143556107Y-91424132D01*
X143577150Y-91411520D01*
X143599329Y-91401030D01*
X143622428Y-91392765D01*
X143646227Y-91386804D01*
X143670495Y-91383204D01*
X143694999Y-91382000D01*
X144595001Y-91382000D01*
X144619505Y-91383204D01*
G37*
G04 #@! TD.AperFunction*
G04 #@! TA.AperFunction,SMDPad,CuDef*
G04 #@! TO.P,R8,1*
G04 #@! TO.N,/batvtest*
G36*
X144619505Y-89333204D02*
G01*
X144643773Y-89336804D01*
X144667572Y-89342765D01*
X144690671Y-89351030D01*
X144712850Y-89361520D01*
X144733893Y-89374132D01*
X144753599Y-89388747D01*
X144771777Y-89405223D01*
X144788253Y-89423401D01*
X144802868Y-89443107D01*
X144815480Y-89464150D01*
X144825970Y-89486329D01*
X144834235Y-89509428D01*
X144840196Y-89533227D01*
X144843796Y-89557495D01*
X144845000Y-89581999D01*
X144845000Y-90232001D01*
X144843796Y-90256505D01*
X144840196Y-90280773D01*
X144834235Y-90304572D01*
X144825970Y-90327671D01*
X144815480Y-90349850D01*
X144802868Y-90370893D01*
X144788253Y-90390599D01*
X144771777Y-90408777D01*
X144753599Y-90425253D01*
X144733893Y-90439868D01*
X144712850Y-90452480D01*
X144690671Y-90462970D01*
X144667572Y-90471235D01*
X144643773Y-90477196D01*
X144619505Y-90480796D01*
X144595001Y-90482000D01*
X143694999Y-90482000D01*
X143670495Y-90480796D01*
X143646227Y-90477196D01*
X143622428Y-90471235D01*
X143599329Y-90462970D01*
X143577150Y-90452480D01*
X143556107Y-90439868D01*
X143536401Y-90425253D01*
X143518223Y-90408777D01*
X143501747Y-90390599D01*
X143487132Y-90370893D01*
X143474520Y-90349850D01*
X143464030Y-90327671D01*
X143455765Y-90304572D01*
X143449804Y-90280773D01*
X143446204Y-90256505D01*
X143445000Y-90232001D01*
X143445000Y-89581999D01*
X143446204Y-89557495D01*
X143449804Y-89533227D01*
X143455765Y-89509428D01*
X143464030Y-89486329D01*
X143474520Y-89464150D01*
X143487132Y-89443107D01*
X143501747Y-89423401D01*
X143518223Y-89405223D01*
X143536401Y-89388747D01*
X143556107Y-89374132D01*
X143577150Y-89361520D01*
X143599329Y-89351030D01*
X143622428Y-89342765D01*
X143646227Y-89336804D01*
X143670495Y-89333204D01*
X143694999Y-89332000D01*
X144595001Y-89332000D01*
X144619505Y-89333204D01*
G37*
G04 #@! TD.AperFunction*
G04 #@! TD*
G04 #@! TA.AperFunction,SMDPad,CuDef*
G04 #@! TO.P,R7,2*
G04 #@! TO.N,/batvtest*
G36*
X146778505Y-91374204D02*
G01*
X146802773Y-91377804D01*
X146826572Y-91383765D01*
X146849671Y-91392030D01*
X146871850Y-91402520D01*
X146892893Y-91415132D01*
X146912599Y-91429747D01*
X146930777Y-91446223D01*
X146947253Y-91464401D01*
X146961868Y-91484107D01*
X146974480Y-91505150D01*
X146984970Y-91527329D01*
X146993235Y-91550428D01*
X146999196Y-91574227D01*
X147002796Y-91598495D01*
X147004000Y-91622999D01*
X147004000Y-92273001D01*
X147002796Y-92297505D01*
X146999196Y-92321773D01*
X146993235Y-92345572D01*
X146984970Y-92368671D01*
X146974480Y-92390850D01*
X146961868Y-92411893D01*
X146947253Y-92431599D01*
X146930777Y-92449777D01*
X146912599Y-92466253D01*
X146892893Y-92480868D01*
X146871850Y-92493480D01*
X146849671Y-92503970D01*
X146826572Y-92512235D01*
X146802773Y-92518196D01*
X146778505Y-92521796D01*
X146754001Y-92523000D01*
X145853999Y-92523000D01*
X145829495Y-92521796D01*
X145805227Y-92518196D01*
X145781428Y-92512235D01*
X145758329Y-92503970D01*
X145736150Y-92493480D01*
X145715107Y-92480868D01*
X145695401Y-92466253D01*
X145677223Y-92449777D01*
X145660747Y-92431599D01*
X145646132Y-92411893D01*
X145633520Y-92390850D01*
X145623030Y-92368671D01*
X145614765Y-92345572D01*
X145608804Y-92321773D01*
X145605204Y-92297505D01*
X145604000Y-92273001D01*
X145604000Y-91622999D01*
X145605204Y-91598495D01*
X145608804Y-91574227D01*
X145614765Y-91550428D01*
X145623030Y-91527329D01*
X145633520Y-91505150D01*
X145646132Y-91484107D01*
X145660747Y-91464401D01*
X145677223Y-91446223D01*
X145695401Y-91429747D01*
X145715107Y-91415132D01*
X145736150Y-91402520D01*
X145758329Y-91392030D01*
X145781428Y-91383765D01*
X145805227Y-91377804D01*
X145829495Y-91374204D01*
X145853999Y-91373000D01*
X146754001Y-91373000D01*
X146778505Y-91374204D01*
G37*
G04 #@! TD.AperFunction*
G04 #@! TA.AperFunction,SMDPad,CuDef*
G04 #@! TO.P,R7,1*
G04 #@! TO.N,/bat*
G36*
X146778505Y-89324204D02*
G01*
X146802773Y-89327804D01*
X146826572Y-89333765D01*
X146849671Y-89342030D01*
X146871850Y-89352520D01*
X146892893Y-89365132D01*
X146912599Y-89379747D01*
X146930777Y-89396223D01*
X146947253Y-89414401D01*
X146961868Y-89434107D01*
X146974480Y-89455150D01*
X146984970Y-89477329D01*
X146993235Y-89500428D01*
X146999196Y-89524227D01*
X147002796Y-89548495D01*
X147004000Y-89572999D01*
X147004000Y-90223001D01*
X147002796Y-90247505D01*
X146999196Y-90271773D01*
X146993235Y-90295572D01*
X146984970Y-90318671D01*
X146974480Y-90340850D01*
X146961868Y-90361893D01*
X146947253Y-90381599D01*
X146930777Y-90399777D01*
X146912599Y-90416253D01*
X146892893Y-90430868D01*
X146871850Y-90443480D01*
X146849671Y-90453970D01*
X146826572Y-90462235D01*
X146802773Y-90468196D01*
X146778505Y-90471796D01*
X146754001Y-90473000D01*
X145853999Y-90473000D01*
X145829495Y-90471796D01*
X145805227Y-90468196D01*
X145781428Y-90462235D01*
X145758329Y-90453970D01*
X145736150Y-90443480D01*
X145715107Y-90430868D01*
X145695401Y-90416253D01*
X145677223Y-90399777D01*
X145660747Y-90381599D01*
X145646132Y-90361893D01*
X145633520Y-90340850D01*
X145623030Y-90318671D01*
X145614765Y-90295572D01*
X145608804Y-90271773D01*
X145605204Y-90247505D01*
X145604000Y-90223001D01*
X145604000Y-89572999D01*
X145605204Y-89548495D01*
X145608804Y-89524227D01*
X145614765Y-89500428D01*
X145623030Y-89477329D01*
X145633520Y-89455150D01*
X145646132Y-89434107D01*
X145660747Y-89414401D01*
X145677223Y-89396223D01*
X145695401Y-89379747D01*
X145715107Y-89365132D01*
X145736150Y-89352520D01*
X145758329Y-89342030D01*
X145781428Y-89333765D01*
X145805227Y-89327804D01*
X145829495Y-89324204D01*
X145853999Y-89323000D01*
X146754001Y-89323000D01*
X146778505Y-89324204D01*
G37*
G04 #@! TD.AperFunction*
G04 #@! TD*
G04 #@! TA.AperFunction,SMDPad,CuDef*
G04 #@! TO.P,R5,2*
G04 #@! TO.N,Net-(R5-Pad2)*
G36*
X154525505Y-83772204D02*
G01*
X154549773Y-83775804D01*
X154573572Y-83781765D01*
X154596671Y-83790030D01*
X154618850Y-83800520D01*
X154639893Y-83813132D01*
X154659599Y-83827747D01*
X154677777Y-83844223D01*
X154694253Y-83862401D01*
X154708868Y-83882107D01*
X154721480Y-83903150D01*
X154731970Y-83925329D01*
X154740235Y-83948428D01*
X154746196Y-83972227D01*
X154749796Y-83996495D01*
X154751000Y-84020999D01*
X154751000Y-84671001D01*
X154749796Y-84695505D01*
X154746196Y-84719773D01*
X154740235Y-84743572D01*
X154731970Y-84766671D01*
X154721480Y-84788850D01*
X154708868Y-84809893D01*
X154694253Y-84829599D01*
X154677777Y-84847777D01*
X154659599Y-84864253D01*
X154639893Y-84878868D01*
X154618850Y-84891480D01*
X154596671Y-84901970D01*
X154573572Y-84910235D01*
X154549773Y-84916196D01*
X154525505Y-84919796D01*
X154501001Y-84921000D01*
X153600999Y-84921000D01*
X153576495Y-84919796D01*
X153552227Y-84916196D01*
X153528428Y-84910235D01*
X153505329Y-84901970D01*
X153483150Y-84891480D01*
X153462107Y-84878868D01*
X153442401Y-84864253D01*
X153424223Y-84847777D01*
X153407747Y-84829599D01*
X153393132Y-84809893D01*
X153380520Y-84788850D01*
X153370030Y-84766671D01*
X153361765Y-84743572D01*
X153355804Y-84719773D01*
X153352204Y-84695505D01*
X153351000Y-84671001D01*
X153351000Y-84020999D01*
X153352204Y-83996495D01*
X153355804Y-83972227D01*
X153361765Y-83948428D01*
X153370030Y-83925329D01*
X153380520Y-83903150D01*
X153393132Y-83882107D01*
X153407747Y-83862401D01*
X153424223Y-83844223D01*
X153442401Y-83827747D01*
X153462107Y-83813132D01*
X153483150Y-83800520D01*
X153505329Y-83790030D01*
X153528428Y-83781765D01*
X153552227Y-83775804D01*
X153576495Y-83772204D01*
X153600999Y-83771000D01*
X154501001Y-83771000D01*
X154525505Y-83772204D01*
G37*
G04 #@! TD.AperFunction*
G04 #@! TA.AperFunction,SMDPad,CuDef*
G04 #@! TO.P,R5,1*
G04 #@! TO.N,Net-(D4-Pad1)*
G36*
X154525505Y-81722204D02*
G01*
X154549773Y-81725804D01*
X154573572Y-81731765D01*
X154596671Y-81740030D01*
X154618850Y-81750520D01*
X154639893Y-81763132D01*
X154659599Y-81777747D01*
X154677777Y-81794223D01*
X154694253Y-81812401D01*
X154708868Y-81832107D01*
X154721480Y-81853150D01*
X154731970Y-81875329D01*
X154740235Y-81898428D01*
X154746196Y-81922227D01*
X154749796Y-81946495D01*
X154751000Y-81970999D01*
X154751000Y-82621001D01*
X154749796Y-82645505D01*
X154746196Y-82669773D01*
X154740235Y-82693572D01*
X154731970Y-82716671D01*
X154721480Y-82738850D01*
X154708868Y-82759893D01*
X154694253Y-82779599D01*
X154677777Y-82797777D01*
X154659599Y-82814253D01*
X154639893Y-82828868D01*
X154618850Y-82841480D01*
X154596671Y-82851970D01*
X154573572Y-82860235D01*
X154549773Y-82866196D01*
X154525505Y-82869796D01*
X154501001Y-82871000D01*
X153600999Y-82871000D01*
X153576495Y-82869796D01*
X153552227Y-82866196D01*
X153528428Y-82860235D01*
X153505329Y-82851970D01*
X153483150Y-82841480D01*
X153462107Y-82828868D01*
X153442401Y-82814253D01*
X153424223Y-82797777D01*
X153407747Y-82779599D01*
X153393132Y-82759893D01*
X153380520Y-82738850D01*
X153370030Y-82716671D01*
X153361765Y-82693572D01*
X153355804Y-82669773D01*
X153352204Y-82645505D01*
X153351000Y-82621001D01*
X153351000Y-81970999D01*
X153352204Y-81946495D01*
X153355804Y-81922227D01*
X153361765Y-81898428D01*
X153370030Y-81875329D01*
X153380520Y-81853150D01*
X153393132Y-81832107D01*
X153407747Y-81812401D01*
X153424223Y-81794223D01*
X153442401Y-81777747D01*
X153462107Y-81763132D01*
X153483150Y-81750520D01*
X153505329Y-81740030D01*
X153528428Y-81731765D01*
X153552227Y-81725804D01*
X153576495Y-81722204D01*
X153600999Y-81721000D01*
X154501001Y-81721000D01*
X154525505Y-81722204D01*
G37*
G04 #@! TD.AperFunction*
G04 #@! TD*
G04 #@! TA.AperFunction,SMDPad,CuDef*
G04 #@! TO.P,R4,2*
G04 #@! TO.N,GND*
G36*
X152259505Y-84137204D02*
G01*
X152283773Y-84140804D01*
X152307572Y-84146765D01*
X152330671Y-84155030D01*
X152352850Y-84165520D01*
X152373893Y-84178132D01*
X152393599Y-84192747D01*
X152411777Y-84209223D01*
X152428253Y-84227401D01*
X152442868Y-84247107D01*
X152455480Y-84268150D01*
X152465970Y-84290329D01*
X152474235Y-84313428D01*
X152480196Y-84337227D01*
X152483796Y-84361495D01*
X152485000Y-84385999D01*
X152485000Y-85286001D01*
X152483796Y-85310505D01*
X152480196Y-85334773D01*
X152474235Y-85358572D01*
X152465970Y-85381671D01*
X152455480Y-85403850D01*
X152442868Y-85424893D01*
X152428253Y-85444599D01*
X152411777Y-85462777D01*
X152393599Y-85479253D01*
X152373893Y-85493868D01*
X152352850Y-85506480D01*
X152330671Y-85516970D01*
X152307572Y-85525235D01*
X152283773Y-85531196D01*
X152259505Y-85534796D01*
X152235001Y-85536000D01*
X151584999Y-85536000D01*
X151560495Y-85534796D01*
X151536227Y-85531196D01*
X151512428Y-85525235D01*
X151489329Y-85516970D01*
X151467150Y-85506480D01*
X151446107Y-85493868D01*
X151426401Y-85479253D01*
X151408223Y-85462777D01*
X151391747Y-85444599D01*
X151377132Y-85424893D01*
X151364520Y-85403850D01*
X151354030Y-85381671D01*
X151345765Y-85358572D01*
X151339804Y-85334773D01*
X151336204Y-85310505D01*
X151335000Y-85286001D01*
X151335000Y-84385999D01*
X151336204Y-84361495D01*
X151339804Y-84337227D01*
X151345765Y-84313428D01*
X151354030Y-84290329D01*
X151364520Y-84268150D01*
X151377132Y-84247107D01*
X151391747Y-84227401D01*
X151408223Y-84209223D01*
X151426401Y-84192747D01*
X151446107Y-84178132D01*
X151467150Y-84165520D01*
X151489329Y-84155030D01*
X151512428Y-84146765D01*
X151536227Y-84140804D01*
X151560495Y-84137204D01*
X151584999Y-84136000D01*
X152235001Y-84136000D01*
X152259505Y-84137204D01*
G37*
G04 #@! TD.AperFunction*
G04 #@! TA.AperFunction,SMDPad,CuDef*
G04 #@! TO.P,R4,1*
G04 #@! TO.N,Net-(R4-Pad1)*
G36*
X150209505Y-84137204D02*
G01*
X150233773Y-84140804D01*
X150257572Y-84146765D01*
X150280671Y-84155030D01*
X150302850Y-84165520D01*
X150323893Y-84178132D01*
X150343599Y-84192747D01*
X150361777Y-84209223D01*
X150378253Y-84227401D01*
X150392868Y-84247107D01*
X150405480Y-84268150D01*
X150415970Y-84290329D01*
X150424235Y-84313428D01*
X150430196Y-84337227D01*
X150433796Y-84361495D01*
X150435000Y-84385999D01*
X150435000Y-85286001D01*
X150433796Y-85310505D01*
X150430196Y-85334773D01*
X150424235Y-85358572D01*
X150415970Y-85381671D01*
X150405480Y-85403850D01*
X150392868Y-85424893D01*
X150378253Y-85444599D01*
X150361777Y-85462777D01*
X150343599Y-85479253D01*
X150323893Y-85493868D01*
X150302850Y-85506480D01*
X150280671Y-85516970D01*
X150257572Y-85525235D01*
X150233773Y-85531196D01*
X150209505Y-85534796D01*
X150185001Y-85536000D01*
X149534999Y-85536000D01*
X149510495Y-85534796D01*
X149486227Y-85531196D01*
X149462428Y-85525235D01*
X149439329Y-85516970D01*
X149417150Y-85506480D01*
X149396107Y-85493868D01*
X149376401Y-85479253D01*
X149358223Y-85462777D01*
X149341747Y-85444599D01*
X149327132Y-85424893D01*
X149314520Y-85403850D01*
X149304030Y-85381671D01*
X149295765Y-85358572D01*
X149289804Y-85334773D01*
X149286204Y-85310505D01*
X149285000Y-85286001D01*
X149285000Y-84385999D01*
X149286204Y-84361495D01*
X149289804Y-84337227D01*
X149295765Y-84313428D01*
X149304030Y-84290329D01*
X149314520Y-84268150D01*
X149327132Y-84247107D01*
X149341747Y-84227401D01*
X149358223Y-84209223D01*
X149376401Y-84192747D01*
X149396107Y-84178132D01*
X149417150Y-84165520D01*
X149439329Y-84155030D01*
X149462428Y-84146765D01*
X149486227Y-84140804D01*
X149510495Y-84137204D01*
X149534999Y-84136000D01*
X150185001Y-84136000D01*
X150209505Y-84137204D01*
G37*
G04 #@! TD.AperFunction*
G04 #@! TD*
G04 #@! TA.AperFunction,SMDPad,CuDef*
G04 #@! TO.P,D4,2*
G04 #@! TO.N,/usb*
G36*
X150209505Y-81597204D02*
G01*
X150233773Y-81600804D01*
X150257572Y-81606765D01*
X150280671Y-81615030D01*
X150302850Y-81625520D01*
X150323893Y-81638132D01*
X150343599Y-81652747D01*
X150361777Y-81669223D01*
X150378253Y-81687401D01*
X150392868Y-81707107D01*
X150405480Y-81728150D01*
X150415970Y-81750329D01*
X150424235Y-81773428D01*
X150430196Y-81797227D01*
X150433796Y-81821495D01*
X150435000Y-81845999D01*
X150435000Y-82746001D01*
X150433796Y-82770505D01*
X150430196Y-82794773D01*
X150424235Y-82818572D01*
X150415970Y-82841671D01*
X150405480Y-82863850D01*
X150392868Y-82884893D01*
X150378253Y-82904599D01*
X150361777Y-82922777D01*
X150343599Y-82939253D01*
X150323893Y-82953868D01*
X150302850Y-82966480D01*
X150280671Y-82976970D01*
X150257572Y-82985235D01*
X150233773Y-82991196D01*
X150209505Y-82994796D01*
X150185001Y-82996000D01*
X149534999Y-82996000D01*
X149510495Y-82994796D01*
X149486227Y-82991196D01*
X149462428Y-82985235D01*
X149439329Y-82976970D01*
X149417150Y-82966480D01*
X149396107Y-82953868D01*
X149376401Y-82939253D01*
X149358223Y-82922777D01*
X149341747Y-82904599D01*
X149327132Y-82884893D01*
X149314520Y-82863850D01*
X149304030Y-82841671D01*
X149295765Y-82818572D01*
X149289804Y-82794773D01*
X149286204Y-82770505D01*
X149285000Y-82746001D01*
X149285000Y-81845999D01*
X149286204Y-81821495D01*
X149289804Y-81797227D01*
X149295765Y-81773428D01*
X149304030Y-81750329D01*
X149314520Y-81728150D01*
X149327132Y-81707107D01*
X149341747Y-81687401D01*
X149358223Y-81669223D01*
X149376401Y-81652747D01*
X149396107Y-81638132D01*
X149417150Y-81625520D01*
X149439329Y-81615030D01*
X149462428Y-81606765D01*
X149486227Y-81600804D01*
X149510495Y-81597204D01*
X149534999Y-81596000D01*
X150185001Y-81596000D01*
X150209505Y-81597204D01*
G37*
G04 #@! TD.AperFunction*
G04 #@! TA.AperFunction,SMDPad,CuDef*
G04 #@! TO.P,D4,1*
G04 #@! TO.N,Net-(D4-Pad1)*
G36*
X152259505Y-81597204D02*
G01*
X152283773Y-81600804D01*
X152307572Y-81606765D01*
X152330671Y-81615030D01*
X152352850Y-81625520D01*
X152373893Y-81638132D01*
X152393599Y-81652747D01*
X152411777Y-81669223D01*
X152428253Y-81687401D01*
X152442868Y-81707107D01*
X152455480Y-81728150D01*
X152465970Y-81750329D01*
X152474235Y-81773428D01*
X152480196Y-81797227D01*
X152483796Y-81821495D01*
X152485000Y-81845999D01*
X152485000Y-82746001D01*
X152483796Y-82770505D01*
X152480196Y-82794773D01*
X152474235Y-82818572D01*
X152465970Y-82841671D01*
X152455480Y-82863850D01*
X152442868Y-82884893D01*
X152428253Y-82904599D01*
X152411777Y-82922777D01*
X152393599Y-82939253D01*
X152373893Y-82953868D01*
X152352850Y-82966480D01*
X152330671Y-82976970D01*
X152307572Y-82985235D01*
X152283773Y-82991196D01*
X152259505Y-82994796D01*
X152235001Y-82996000D01*
X151584999Y-82996000D01*
X151560495Y-82994796D01*
X151536227Y-82991196D01*
X151512428Y-82985235D01*
X151489329Y-82976970D01*
X151467150Y-82966480D01*
X151446107Y-82953868D01*
X151426401Y-82939253D01*
X151408223Y-82922777D01*
X151391747Y-82904599D01*
X151377132Y-82884893D01*
X151364520Y-82863850D01*
X151354030Y-82841671D01*
X151345765Y-82818572D01*
X151339804Y-82794773D01*
X151336204Y-82770505D01*
X151335000Y-82746001D01*
X151335000Y-81845999D01*
X151336204Y-81821495D01*
X151339804Y-81797227D01*
X151345765Y-81773428D01*
X151354030Y-81750329D01*
X151364520Y-81728150D01*
X151377132Y-81707107D01*
X151391747Y-81687401D01*
X151408223Y-81669223D01*
X151426401Y-81652747D01*
X151446107Y-81638132D01*
X151467150Y-81625520D01*
X151489329Y-81615030D01*
X151512428Y-81606765D01*
X151536227Y-81600804D01*
X151560495Y-81597204D01*
X151584999Y-81596000D01*
X152235001Y-81596000D01*
X152259505Y-81597204D01*
G37*
G04 #@! TD.AperFunction*
G04 #@! TD*
G04 #@! TA.AperFunction,SMDPad,CuDef*
G04 #@! TO.P,C14,2*
G04 #@! TO.N,/bat*
G36*
X144492505Y-82334204D02*
G01*
X144516773Y-82337804D01*
X144540572Y-82343765D01*
X144563671Y-82352030D01*
X144585850Y-82362520D01*
X144606893Y-82375132D01*
X144626599Y-82389747D01*
X144644777Y-82406223D01*
X144661253Y-82424401D01*
X144675868Y-82444107D01*
X144688480Y-82465150D01*
X144698970Y-82487329D01*
X144707235Y-82510428D01*
X144713196Y-82534227D01*
X144716796Y-82558495D01*
X144718000Y-82582999D01*
X144718000Y-83233001D01*
X144716796Y-83257505D01*
X144713196Y-83281773D01*
X144707235Y-83305572D01*
X144698970Y-83328671D01*
X144688480Y-83350850D01*
X144675868Y-83371893D01*
X144661253Y-83391599D01*
X144644777Y-83409777D01*
X144626599Y-83426253D01*
X144606893Y-83440868D01*
X144585850Y-83453480D01*
X144563671Y-83463970D01*
X144540572Y-83472235D01*
X144516773Y-83478196D01*
X144492505Y-83481796D01*
X144468001Y-83483000D01*
X143567999Y-83483000D01*
X143543495Y-83481796D01*
X143519227Y-83478196D01*
X143495428Y-83472235D01*
X143472329Y-83463970D01*
X143450150Y-83453480D01*
X143429107Y-83440868D01*
X143409401Y-83426253D01*
X143391223Y-83409777D01*
X143374747Y-83391599D01*
X143360132Y-83371893D01*
X143347520Y-83350850D01*
X143337030Y-83328671D01*
X143328765Y-83305572D01*
X143322804Y-83281773D01*
X143319204Y-83257505D01*
X143318000Y-83233001D01*
X143318000Y-82582999D01*
X143319204Y-82558495D01*
X143322804Y-82534227D01*
X143328765Y-82510428D01*
X143337030Y-82487329D01*
X143347520Y-82465150D01*
X143360132Y-82444107D01*
X143374747Y-82424401D01*
X143391223Y-82406223D01*
X143409401Y-82389747D01*
X143429107Y-82375132D01*
X143450150Y-82362520D01*
X143472329Y-82352030D01*
X143495428Y-82343765D01*
X143519227Y-82337804D01*
X143543495Y-82334204D01*
X143567999Y-82333000D01*
X144468001Y-82333000D01*
X144492505Y-82334204D01*
G37*
G04 #@! TD.AperFunction*
G04 #@! TA.AperFunction,SMDPad,CuDef*
G04 #@! TO.P,C14,1*
G04 #@! TO.N,GND*
G36*
X144492505Y-84384204D02*
G01*
X144516773Y-84387804D01*
X144540572Y-84393765D01*
X144563671Y-84402030D01*
X144585850Y-84412520D01*
X144606893Y-84425132D01*
X144626599Y-84439747D01*
X144644777Y-84456223D01*
X144661253Y-84474401D01*
X144675868Y-84494107D01*
X144688480Y-84515150D01*
X144698970Y-84537329D01*
X144707235Y-84560428D01*
X144713196Y-84584227D01*
X144716796Y-84608495D01*
X144718000Y-84632999D01*
X144718000Y-85283001D01*
X144716796Y-85307505D01*
X144713196Y-85331773D01*
X144707235Y-85355572D01*
X144698970Y-85378671D01*
X144688480Y-85400850D01*
X144675868Y-85421893D01*
X144661253Y-85441599D01*
X144644777Y-85459777D01*
X144626599Y-85476253D01*
X144606893Y-85490868D01*
X144585850Y-85503480D01*
X144563671Y-85513970D01*
X144540572Y-85522235D01*
X144516773Y-85528196D01*
X144492505Y-85531796D01*
X144468001Y-85533000D01*
X143567999Y-85533000D01*
X143543495Y-85531796D01*
X143519227Y-85528196D01*
X143495428Y-85522235D01*
X143472329Y-85513970D01*
X143450150Y-85503480D01*
X143429107Y-85490868D01*
X143409401Y-85476253D01*
X143391223Y-85459777D01*
X143374747Y-85441599D01*
X143360132Y-85421893D01*
X143347520Y-85400850D01*
X143337030Y-85378671D01*
X143328765Y-85355572D01*
X143322804Y-85331773D01*
X143319204Y-85307505D01*
X143318000Y-85283001D01*
X143318000Y-84632999D01*
X143319204Y-84608495D01*
X143322804Y-84584227D01*
X143328765Y-84560428D01*
X143337030Y-84537329D01*
X143347520Y-84515150D01*
X143360132Y-84494107D01*
X143374747Y-84474401D01*
X143391223Y-84456223D01*
X143409401Y-84439747D01*
X143429107Y-84425132D01*
X143450150Y-84412520D01*
X143472329Y-84402030D01*
X143495428Y-84393765D01*
X143519227Y-84387804D01*
X143543495Y-84384204D01*
X143567999Y-84383000D01*
X144468001Y-84383000D01*
X144492505Y-84384204D01*
G37*
G04 #@! TD.AperFunction*
G04 #@! TD*
G04 #@! TA.AperFunction,SMDPad,CuDef*
G04 #@! TO.P,C12,2*
G04 #@! TO.N,GND*
G36*
X156557505Y-93274204D02*
G01*
X156581773Y-93277804D01*
X156605572Y-93283765D01*
X156628671Y-93292030D01*
X156650850Y-93302520D01*
X156671893Y-93315132D01*
X156691599Y-93329747D01*
X156709777Y-93346223D01*
X156726253Y-93364401D01*
X156740868Y-93384107D01*
X156753480Y-93405150D01*
X156763970Y-93427329D01*
X156772235Y-93450428D01*
X156778196Y-93474227D01*
X156781796Y-93498495D01*
X156783000Y-93522999D01*
X156783000Y-94173001D01*
X156781796Y-94197505D01*
X156778196Y-94221773D01*
X156772235Y-94245572D01*
X156763970Y-94268671D01*
X156753480Y-94290850D01*
X156740868Y-94311893D01*
X156726253Y-94331599D01*
X156709777Y-94349777D01*
X156691599Y-94366253D01*
X156671893Y-94380868D01*
X156650850Y-94393480D01*
X156628671Y-94403970D01*
X156605572Y-94412235D01*
X156581773Y-94418196D01*
X156557505Y-94421796D01*
X156533001Y-94423000D01*
X155632999Y-94423000D01*
X155608495Y-94421796D01*
X155584227Y-94418196D01*
X155560428Y-94412235D01*
X155537329Y-94403970D01*
X155515150Y-94393480D01*
X155494107Y-94380868D01*
X155474401Y-94366253D01*
X155456223Y-94349777D01*
X155439747Y-94331599D01*
X155425132Y-94311893D01*
X155412520Y-94290850D01*
X155402030Y-94268671D01*
X155393765Y-94245572D01*
X155387804Y-94221773D01*
X155384204Y-94197505D01*
X155383000Y-94173001D01*
X155383000Y-93522999D01*
X155384204Y-93498495D01*
X155387804Y-93474227D01*
X155393765Y-93450428D01*
X155402030Y-93427329D01*
X155412520Y-93405150D01*
X155425132Y-93384107D01*
X155439747Y-93364401D01*
X155456223Y-93346223D01*
X155474401Y-93329747D01*
X155494107Y-93315132D01*
X155515150Y-93302520D01*
X155537329Y-93292030D01*
X155560428Y-93283765D01*
X155584227Y-93277804D01*
X155608495Y-93274204D01*
X155632999Y-93273000D01*
X156533001Y-93273000D01*
X156557505Y-93274204D01*
G37*
G04 #@! TD.AperFunction*
G04 #@! TA.AperFunction,SMDPad,CuDef*
G04 #@! TO.P,C12,1*
G04 #@! TO.N,/vref*
G36*
X156557505Y-91224204D02*
G01*
X156581773Y-91227804D01*
X156605572Y-91233765D01*
X156628671Y-91242030D01*
X156650850Y-91252520D01*
X156671893Y-91265132D01*
X156691599Y-91279747D01*
X156709777Y-91296223D01*
X156726253Y-91314401D01*
X156740868Y-91334107D01*
X156753480Y-91355150D01*
X156763970Y-91377329D01*
X156772235Y-91400428D01*
X156778196Y-91424227D01*
X156781796Y-91448495D01*
X156783000Y-91472999D01*
X156783000Y-92123001D01*
X156781796Y-92147505D01*
X156778196Y-92171773D01*
X156772235Y-92195572D01*
X156763970Y-92218671D01*
X156753480Y-92240850D01*
X156740868Y-92261893D01*
X156726253Y-92281599D01*
X156709777Y-92299777D01*
X156691599Y-92316253D01*
X156671893Y-92330868D01*
X156650850Y-92343480D01*
X156628671Y-92353970D01*
X156605572Y-92362235D01*
X156581773Y-92368196D01*
X156557505Y-92371796D01*
X156533001Y-92373000D01*
X155632999Y-92373000D01*
X155608495Y-92371796D01*
X155584227Y-92368196D01*
X155560428Y-92362235D01*
X155537329Y-92353970D01*
X155515150Y-92343480D01*
X155494107Y-92330868D01*
X155474401Y-92316253D01*
X155456223Y-92299777D01*
X155439747Y-92281599D01*
X155425132Y-92261893D01*
X155412520Y-92240850D01*
X155402030Y-92218671D01*
X155393765Y-92195572D01*
X155387804Y-92171773D01*
X155384204Y-92147505D01*
X155383000Y-92123001D01*
X155383000Y-91472999D01*
X155384204Y-91448495D01*
X155387804Y-91424227D01*
X155393765Y-91400428D01*
X155402030Y-91377329D01*
X155412520Y-91355150D01*
X155425132Y-91334107D01*
X155439747Y-91314401D01*
X155456223Y-91296223D01*
X155474401Y-91279747D01*
X155494107Y-91265132D01*
X155515150Y-91252520D01*
X155537329Y-91242030D01*
X155560428Y-91233765D01*
X155584227Y-91227804D01*
X155608495Y-91224204D01*
X155632999Y-91223000D01*
X156533001Y-91223000D01*
X156557505Y-91224204D01*
G37*
G04 #@! TD.AperFunction*
G04 #@! TD*
G04 #@! TA.AperFunction,SMDPad,CuDef*
G04 #@! TO.P,C11,2*
G04 #@! TO.N,GND*
G36*
X154525505Y-93274204D02*
G01*
X154549773Y-93277804D01*
X154573572Y-93283765D01*
X154596671Y-93292030D01*
X154618850Y-93302520D01*
X154639893Y-93315132D01*
X154659599Y-93329747D01*
X154677777Y-93346223D01*
X154694253Y-93364401D01*
X154708868Y-93384107D01*
X154721480Y-93405150D01*
X154731970Y-93427329D01*
X154740235Y-93450428D01*
X154746196Y-93474227D01*
X154749796Y-93498495D01*
X154751000Y-93522999D01*
X154751000Y-94173001D01*
X154749796Y-94197505D01*
X154746196Y-94221773D01*
X154740235Y-94245572D01*
X154731970Y-94268671D01*
X154721480Y-94290850D01*
X154708868Y-94311893D01*
X154694253Y-94331599D01*
X154677777Y-94349777D01*
X154659599Y-94366253D01*
X154639893Y-94380868D01*
X154618850Y-94393480D01*
X154596671Y-94403970D01*
X154573572Y-94412235D01*
X154549773Y-94418196D01*
X154525505Y-94421796D01*
X154501001Y-94423000D01*
X153600999Y-94423000D01*
X153576495Y-94421796D01*
X153552227Y-94418196D01*
X153528428Y-94412235D01*
X153505329Y-94403970D01*
X153483150Y-94393480D01*
X153462107Y-94380868D01*
X153442401Y-94366253D01*
X153424223Y-94349777D01*
X153407747Y-94331599D01*
X153393132Y-94311893D01*
X153380520Y-94290850D01*
X153370030Y-94268671D01*
X153361765Y-94245572D01*
X153355804Y-94221773D01*
X153352204Y-94197505D01*
X153351000Y-94173001D01*
X153351000Y-93522999D01*
X153352204Y-93498495D01*
X153355804Y-93474227D01*
X153361765Y-93450428D01*
X153370030Y-93427329D01*
X153380520Y-93405150D01*
X153393132Y-93384107D01*
X153407747Y-93364401D01*
X153424223Y-93346223D01*
X153442401Y-93329747D01*
X153462107Y-93315132D01*
X153483150Y-93302520D01*
X153505329Y-93292030D01*
X153528428Y-93283765D01*
X153552227Y-93277804D01*
X153576495Y-93274204D01*
X153600999Y-93273000D01*
X154501001Y-93273000D01*
X154525505Y-93274204D01*
G37*
G04 #@! TD.AperFunction*
G04 #@! TA.AperFunction,SMDPad,CuDef*
G04 #@! TO.P,C11,1*
G04 #@! TO.N,/vref*
G36*
X154525505Y-91224204D02*
G01*
X154549773Y-91227804D01*
X154573572Y-91233765D01*
X154596671Y-91242030D01*
X154618850Y-91252520D01*
X154639893Y-91265132D01*
X154659599Y-91279747D01*
X154677777Y-91296223D01*
X154694253Y-91314401D01*
X154708868Y-91334107D01*
X154721480Y-91355150D01*
X154731970Y-91377329D01*
X154740235Y-91400428D01*
X154746196Y-91424227D01*
X154749796Y-91448495D01*
X154751000Y-91472999D01*
X154751000Y-92123001D01*
X154749796Y-92147505D01*
X154746196Y-92171773D01*
X154740235Y-92195572D01*
X154731970Y-92218671D01*
X154721480Y-92240850D01*
X154708868Y-92261893D01*
X154694253Y-92281599D01*
X154677777Y-92299777D01*
X154659599Y-92316253D01*
X154639893Y-92330868D01*
X154618850Y-92343480D01*
X154596671Y-92353970D01*
X154573572Y-92362235D01*
X154549773Y-92368196D01*
X154525505Y-92371796D01*
X154501001Y-92373000D01*
X153600999Y-92373000D01*
X153576495Y-92371796D01*
X153552227Y-92368196D01*
X153528428Y-92362235D01*
X153505329Y-92353970D01*
X153483150Y-92343480D01*
X153462107Y-92330868D01*
X153442401Y-92316253D01*
X153424223Y-92299777D01*
X153407747Y-92281599D01*
X153393132Y-92261893D01*
X153380520Y-92240850D01*
X153370030Y-92218671D01*
X153361765Y-92195572D01*
X153355804Y-92171773D01*
X153352204Y-92147505D01*
X153351000Y-92123001D01*
X153351000Y-91472999D01*
X153352204Y-91448495D01*
X153355804Y-91424227D01*
X153361765Y-91400428D01*
X153370030Y-91377329D01*
X153380520Y-91355150D01*
X153393132Y-91334107D01*
X153407747Y-91314401D01*
X153424223Y-91296223D01*
X153442401Y-91279747D01*
X153462107Y-91265132D01*
X153483150Y-91252520D01*
X153505329Y-91242030D01*
X153528428Y-91233765D01*
X153552227Y-91227804D01*
X153576495Y-91224204D01*
X153600999Y-91223000D01*
X154501001Y-91223000D01*
X154525505Y-91224204D01*
G37*
G04 #@! TD.AperFunction*
G04 #@! TD*
G04 #@! TA.AperFunction,SMDPad,CuDef*
G04 #@! TO.P,J5,MP*
G04 #@! TO.N,N/C*
G36*
X141621504Y-76533204D02*
G01*
X141645773Y-76536804D01*
X141669571Y-76542765D01*
X141692671Y-76551030D01*
X141714849Y-76561520D01*
X141735893Y-76574133D01*
X141755598Y-76588747D01*
X141773777Y-76605223D01*
X141790253Y-76623402D01*
X141804867Y-76643107D01*
X141817480Y-76664151D01*
X141827970Y-76686329D01*
X141836235Y-76709429D01*
X141842196Y-76733227D01*
X141845796Y-76757496D01*
X141847000Y-76782000D01*
X141847000Y-79682000D01*
X141845796Y-79706504D01*
X141842196Y-79730773D01*
X141836235Y-79754571D01*
X141827970Y-79777671D01*
X141817480Y-79799849D01*
X141804867Y-79820893D01*
X141790253Y-79840598D01*
X141773777Y-79858777D01*
X141755598Y-79875253D01*
X141735893Y-79889867D01*
X141714849Y-79902480D01*
X141692671Y-79912970D01*
X141669571Y-79921235D01*
X141645773Y-79927196D01*
X141621504Y-79930796D01*
X141597000Y-79932000D01*
X140597000Y-79932000D01*
X140572496Y-79930796D01*
X140548227Y-79927196D01*
X140524429Y-79921235D01*
X140501329Y-79912970D01*
X140479151Y-79902480D01*
X140458107Y-79889867D01*
X140438402Y-79875253D01*
X140420223Y-79858777D01*
X140403747Y-79840598D01*
X140389133Y-79820893D01*
X140376520Y-79799849D01*
X140366030Y-79777671D01*
X140357765Y-79754571D01*
X140351804Y-79730773D01*
X140348204Y-79706504D01*
X140347000Y-79682000D01*
X140347000Y-76782000D01*
X140348204Y-76757496D01*
X140351804Y-76733227D01*
X140357765Y-76709429D01*
X140366030Y-76686329D01*
X140376520Y-76664151D01*
X140389133Y-76643107D01*
X140403747Y-76623402D01*
X140420223Y-76605223D01*
X140438402Y-76588747D01*
X140458107Y-76574133D01*
X140479151Y-76561520D01*
X140501329Y-76551030D01*
X140524429Y-76542765D01*
X140548227Y-76536804D01*
X140572496Y-76533204D01*
X140597000Y-76532000D01*
X141597000Y-76532000D01*
X141621504Y-76533204D01*
G37*
G04 #@! TD.AperFunction*
G04 #@! TA.AperFunction,SMDPad,CuDef*
G36*
X134921504Y-76533204D02*
G01*
X134945773Y-76536804D01*
X134969571Y-76542765D01*
X134992671Y-76551030D01*
X135014849Y-76561520D01*
X135035893Y-76574133D01*
X135055598Y-76588747D01*
X135073777Y-76605223D01*
X135090253Y-76623402D01*
X135104867Y-76643107D01*
X135117480Y-76664151D01*
X135127970Y-76686329D01*
X135136235Y-76709429D01*
X135142196Y-76733227D01*
X135145796Y-76757496D01*
X135147000Y-76782000D01*
X135147000Y-79682000D01*
X135145796Y-79706504D01*
X135142196Y-79730773D01*
X135136235Y-79754571D01*
X135127970Y-79777671D01*
X135117480Y-79799849D01*
X135104867Y-79820893D01*
X135090253Y-79840598D01*
X135073777Y-79858777D01*
X135055598Y-79875253D01*
X135035893Y-79889867D01*
X135014849Y-79902480D01*
X134992671Y-79912970D01*
X134969571Y-79921235D01*
X134945773Y-79927196D01*
X134921504Y-79930796D01*
X134897000Y-79932000D01*
X133897000Y-79932000D01*
X133872496Y-79930796D01*
X133848227Y-79927196D01*
X133824429Y-79921235D01*
X133801329Y-79912970D01*
X133779151Y-79902480D01*
X133758107Y-79889867D01*
X133738402Y-79875253D01*
X133720223Y-79858777D01*
X133703747Y-79840598D01*
X133689133Y-79820893D01*
X133676520Y-79799849D01*
X133666030Y-79777671D01*
X133657765Y-79754571D01*
X133651804Y-79730773D01*
X133648204Y-79706504D01*
X133647000Y-79682000D01*
X133647000Y-76782000D01*
X133648204Y-76757496D01*
X133651804Y-76733227D01*
X133657765Y-76709429D01*
X133666030Y-76686329D01*
X133676520Y-76664151D01*
X133689133Y-76643107D01*
X133703747Y-76623402D01*
X133720223Y-76605223D01*
X133738402Y-76588747D01*
X133758107Y-76574133D01*
X133779151Y-76561520D01*
X133801329Y-76551030D01*
X133824429Y-76542765D01*
X133848227Y-76536804D01*
X133872496Y-76533204D01*
X133897000Y-76532000D01*
X134897000Y-76532000D01*
X134921504Y-76533204D01*
G37*
G04 #@! TD.AperFunction*
G04 #@! TA.AperFunction,SMDPad,CuDef*
G04 #@! TO.P,J5,2*
G04 #@! TO.N,/bat*
G36*
X139021504Y-82233204D02*
G01*
X139045773Y-82236804D01*
X139069571Y-82242765D01*
X139092671Y-82251030D01*
X139114849Y-82261520D01*
X139135893Y-82274133D01*
X139155598Y-82288747D01*
X139173777Y-82305223D01*
X139190253Y-82323402D01*
X139204867Y-82343107D01*
X139217480Y-82364151D01*
X139227970Y-82386329D01*
X139236235Y-82409429D01*
X139242196Y-82433227D01*
X139245796Y-82457496D01*
X139247000Y-82482000D01*
X139247000Y-85482000D01*
X139245796Y-85506504D01*
X139242196Y-85530773D01*
X139236235Y-85554571D01*
X139227970Y-85577671D01*
X139217480Y-85599849D01*
X139204867Y-85620893D01*
X139190253Y-85640598D01*
X139173777Y-85658777D01*
X139155598Y-85675253D01*
X139135893Y-85689867D01*
X139114849Y-85702480D01*
X139092671Y-85712970D01*
X139069571Y-85721235D01*
X139045773Y-85727196D01*
X139021504Y-85730796D01*
X138997000Y-85732000D01*
X138497000Y-85732000D01*
X138472496Y-85730796D01*
X138448227Y-85727196D01*
X138424429Y-85721235D01*
X138401329Y-85712970D01*
X138379151Y-85702480D01*
X138358107Y-85689867D01*
X138338402Y-85675253D01*
X138320223Y-85658777D01*
X138303747Y-85640598D01*
X138289133Y-85620893D01*
X138276520Y-85599849D01*
X138266030Y-85577671D01*
X138257765Y-85554571D01*
X138251804Y-85530773D01*
X138248204Y-85506504D01*
X138247000Y-85482000D01*
X138247000Y-82482000D01*
X138248204Y-82457496D01*
X138251804Y-82433227D01*
X138257765Y-82409429D01*
X138266030Y-82386329D01*
X138276520Y-82364151D01*
X138289133Y-82343107D01*
X138303747Y-82323402D01*
X138320223Y-82305223D01*
X138338402Y-82288747D01*
X138358107Y-82274133D01*
X138379151Y-82261520D01*
X138401329Y-82251030D01*
X138424429Y-82242765D01*
X138448227Y-82236804D01*
X138472496Y-82233204D01*
X138497000Y-82232000D01*
X138997000Y-82232000D01*
X139021504Y-82233204D01*
G37*
G04 #@! TD.AperFunction*
G04 #@! TA.AperFunction,SMDPad,CuDef*
G04 #@! TO.P,J5,1*
G04 #@! TO.N,GND*
G36*
X137021504Y-82233204D02*
G01*
X137045773Y-82236804D01*
X137069571Y-82242765D01*
X137092671Y-82251030D01*
X137114849Y-82261520D01*
X137135893Y-82274133D01*
X137155598Y-82288747D01*
X137173777Y-82305223D01*
X137190253Y-82323402D01*
X137204867Y-82343107D01*
X137217480Y-82364151D01*
X137227970Y-82386329D01*
X137236235Y-82409429D01*
X137242196Y-82433227D01*
X137245796Y-82457496D01*
X137247000Y-82482000D01*
X137247000Y-85482000D01*
X137245796Y-85506504D01*
X137242196Y-85530773D01*
X137236235Y-85554571D01*
X137227970Y-85577671D01*
X137217480Y-85599849D01*
X137204867Y-85620893D01*
X137190253Y-85640598D01*
X137173777Y-85658777D01*
X137155598Y-85675253D01*
X137135893Y-85689867D01*
X137114849Y-85702480D01*
X137092671Y-85712970D01*
X137069571Y-85721235D01*
X137045773Y-85727196D01*
X137021504Y-85730796D01*
X136997000Y-85732000D01*
X136497000Y-85732000D01*
X136472496Y-85730796D01*
X136448227Y-85727196D01*
X136424429Y-85721235D01*
X136401329Y-85712970D01*
X136379151Y-85702480D01*
X136358107Y-85689867D01*
X136338402Y-85675253D01*
X136320223Y-85658777D01*
X136303747Y-85640598D01*
X136289133Y-85620893D01*
X136276520Y-85599849D01*
X136266030Y-85577671D01*
X136257765Y-85554571D01*
X136251804Y-85530773D01*
X136248204Y-85506504D01*
X136247000Y-85482000D01*
X136247000Y-82482000D01*
X136248204Y-82457496D01*
X136251804Y-82433227D01*
X136257765Y-82409429D01*
X136266030Y-82386329D01*
X136276520Y-82364151D01*
X136289133Y-82343107D01*
X136303747Y-82323402D01*
X136320223Y-82305223D01*
X136338402Y-82288747D01*
X136358107Y-82274133D01*
X136379151Y-82261520D01*
X136401329Y-82251030D01*
X136424429Y-82242765D01*
X136448227Y-82236804D01*
X136472496Y-82233204D01*
X136497000Y-82232000D01*
X136997000Y-82232000D01*
X137021504Y-82233204D01*
G37*
G04 #@! TD.AperFunction*
G04 #@! TD*
D14*
G04 #@! TO.P,J2,12*
G04 #@! TO.N,/sda*
X171450000Y-77470000D03*
G04 #@! TO.P,J2,11*
G04 #@! TO.N,/scl*
X168910000Y-77470000D03*
G04 #@! TO.P,J2,10*
G04 #@! TO.N,/nss*
X166370000Y-77470000D03*
G04 #@! TO.P,J2,9*
G04 #@! TO.N,/pa15*
X163830000Y-77470000D03*
G04 #@! TO.P,J2,8*
G04 #@! TO.N,/pb3*
X161290000Y-77470000D03*
G04 #@! TO.P,J2,7*
G04 #@! TO.N,/pb4*
X158750000Y-77470000D03*
G04 #@! TO.P,J2,6*
G04 #@! TO.N,/pb5*
X156210000Y-77470000D03*
G04 #@! TO.P,J2,5*
G04 #@! TO.N,/canrx*
X153670000Y-77470000D03*
G04 #@! TO.P,J2,4*
G04 #@! TO.N,/cantx*
X151130000Y-77470000D03*
G04 #@! TO.P,J2,3*
G04 #@! TO.N,/usb*
X148590000Y-77470000D03*
G04 #@! TO.P,J2,2*
G04 #@! TO.N,/en*
X146050000Y-77470000D03*
D15*
G04 #@! TO.P,J2,1*
G04 #@! TO.N,/bat*
X143510000Y-77470000D03*
G04 #@! TD*
D14*
G04 #@! TO.P,JP1,3*
G04 #@! TO.N,GND*
X172212000Y-86360000D03*
G04 #@! TO.P,JP1,2*
G04 #@! TO.N,/boot*
X172212000Y-88900000D03*
D15*
G04 #@! TO.P,JP1,1*
G04 #@! TO.N,/3vo*
X172212000Y-91440000D03*
G04 #@! TD*
D16*
G04 #@! TO.P,U3,1*
G04 #@! TO.N,Net-(R5-Pad2)*
X145839000Y-84897000D03*
G04 #@! TO.P,U3,2*
G04 #@! TO.N,GND*
X145839000Y-83947000D03*
G04 #@! TO.P,U3,3*
G04 #@! TO.N,/bat*
X145839000Y-82997000D03*
G04 #@! TO.P,U3,4*
G04 #@! TO.N,/usb*
X148039000Y-82997000D03*
G04 #@! TO.P,U3,5*
G04 #@! TO.N,Net-(R4-Pad1)*
X148039000Y-84897000D03*
G04 #@! TD*
D17*
G04 #@! TO.P,J4,6*
G04 #@! TO.N,GND*
X128352000Y-91251000D03*
X128352000Y-83501000D03*
D18*
X132152000Y-91101000D03*
X132152000Y-83651000D03*
G04 #@! TD*
D14*
G04 #@! TO.P,J3,4*
G04 #@! TO.N,/3vo*
X175895000Y-91440000D03*
G04 #@! TO.P,J3,3*
G04 #@! TO.N,/swclk*
X175895000Y-88900000D03*
G04 #@! TO.P,J3,2*
G04 #@! TO.N,GND*
X175895000Y-86360000D03*
D15*
G04 #@! TO.P,J3,1*
G04 #@! TO.N,/swdio*
X175895000Y-83820000D03*
G04 #@! TD*
D14*
G04 #@! TO.P,J1,16*
G04 #@! TO.N,GND*
X171450000Y-97790000D03*
G04 #@! TO.P,J1,15*
G04 #@! TO.N,/tx*
X168910000Y-97790000D03*
G04 #@! TO.P,J1,14*
G04 #@! TO.N,/rx*
X166370000Y-97790000D03*
G04 #@! TO.P,J1,13*
G04 #@! TO.N,/mi*
X163830000Y-97790000D03*
G04 #@! TO.P,J1,12*
G04 #@! TO.N,/mo*
X161290000Y-97790000D03*
G04 #@! TO.P,J1,11*
G04 #@! TO.N,/sck*
X158750000Y-97790000D03*
G04 #@! TO.P,J1,10*
G04 #@! TO.N,/a5*
X156210000Y-97790000D03*
G04 #@! TO.P,J1,9*
G04 #@! TO.N,/a4*
X153670000Y-97790000D03*
G04 #@! TO.P,J1,8*
G04 #@! TO.N,/a3*
X151130000Y-97790000D03*
G04 #@! TO.P,J1,7*
G04 #@! TO.N,/a2*
X148590000Y-97790000D03*
G04 #@! TO.P,J1,6*
G04 #@! TO.N,/a1*
X146050000Y-97790000D03*
G04 #@! TO.P,J1,5*
G04 #@! TO.N,/a0*
X143510000Y-97790000D03*
G04 #@! TO.P,J1,4*
G04 #@! TO.N,GND*
X140970000Y-97790000D03*
G04 #@! TO.P,J1,3*
G04 #@! TO.N,/vref*
X138430000Y-97790000D03*
G04 #@! TO.P,J1,2*
G04 #@! TO.N,/3vo*
X135890000Y-97790000D03*
D15*
G04 #@! TO.P,J1,1*
G04 #@! TO.N,/nrst*
X133350000Y-97790000D03*
G04 #@! TD*
D19*
G04 #@! TO.N,GND*
X128524000Y-89154000D03*
G04 #@! TO.N,/usb_dp*
X130302000Y-88138000D03*
G04 #@! TO.N,/usb_dm*
X128524000Y-87122000D03*
G04 #@! TO.N,/usb*
X130302000Y-86106000D03*
G04 #@! TO.N,/tx*
X162433000Y-93916500D03*
G04 #@! TO.N,/rx*
X163385500Y-94424500D03*
G04 #@! TO.N,/mi*
X164020500Y-95827010D03*
G04 #@! TO.N,/3vo*
X151638000Y-80391000D03*
X166560500Y-93345000D03*
X146163000Y-79657000D03*
X165072000Y-79657000D03*
X157198000Y-81661000D03*
X169164000Y-93345000D03*
G04 #@! TO.N,/sda*
X160591500Y-81788000D03*
G04 #@! TO.N,/scl*
X161544000Y-81026000D03*
G04 #@! TO.N,GND*
X147574000Y-80645000D03*
X149860000Y-89535000D03*
D20*
X129540000Y-78740000D03*
X129540000Y-96520000D03*
X175260000Y-78740000D03*
X175260000Y-96520000D03*
D19*
X141478000Y-89916000D03*
X159512000Y-89027000D03*
X163576000Y-90424000D03*
X163703000Y-85979000D03*
X137777250Y-90632250D03*
X159385000Y-85852000D03*
X155448000Y-83185000D03*
X167626000Y-83185000D03*
X139509500Y-92075000D03*
X169128500Y-95158500D03*
X147701000Y-85979000D03*
G04 #@! TO.N,/nrst*
X148018500Y-93789500D03*
X155321000Y-88900000D03*
X141541500Y-93726000D03*
G04 #@! TO.N,/vref*
X155321000Y-89789000D03*
G04 #@! TO.N,/swdio*
X168910000Y-83756500D03*
G04 #@! TO.N,/swclk*
X164592000Y-82613500D03*
G04 #@! TO.N,/usb_dp*
X134493000Y-87503000D03*
X169164000Y-86741000D03*
G04 #@! TO.N,/usb_dm*
X135636000Y-87503000D03*
X169164000Y-87757000D03*
G04 #@! TO.N,/boot*
X160909000Y-88836500D03*
G04 #@! TO.N,/nss*
X165925500Y-92202000D03*
X170688000Y-90424000D03*
G04 #@! TO.N,Net-(U1-Pad31)*
X160528000Y-90424000D03*
G04 #@! TO.N,Net-(U1-Pad30)*
X161544000Y-90424000D03*
G04 #@! TO.N,Net-(U1-Pad29)*
X162560000Y-90424000D03*
G04 #@! TO.N,/batvtest*
X159766000Y-95250000D03*
G04 #@! TD*
D21*
G04 #@! TO.N,/tx*
X168060001Y-96940001D02*
X168910000Y-97790000D01*
X164819499Y-93699499D02*
X168060001Y-96940001D01*
X162650001Y-93699499D02*
X164819499Y-93699499D01*
X162433000Y-93916500D02*
X162650001Y-93699499D01*
G04 #@! TO.N,/rx*
X163951185Y-94424500D02*
X163385500Y-94424500D01*
X164206581Y-94424500D02*
X163951185Y-94424500D01*
X166370000Y-96587919D02*
X164206581Y-94424500D01*
X166370000Y-97790000D02*
X166370000Y-96587919D01*
G04 #@! TO.N,/mi*
X163830000Y-96017510D02*
X164020500Y-95827010D01*
X163830000Y-97790000D02*
X163830000Y-96017510D01*
D22*
G04 #@! TO.N,/3vo*
X172720000Y-91440000D02*
X175895000Y-91440000D01*
D23*
X165072000Y-79657000D02*
X165072000Y-79657000D01*
X157198000Y-81186000D02*
X157198000Y-81661000D01*
X155669000Y-79657000D02*
X157198000Y-81186000D01*
X146163000Y-79657000D02*
X155669000Y-79657000D01*
X159727000Y-79657000D02*
X155669000Y-79657000D01*
X165072000Y-79657000D02*
X159727000Y-79657000D01*
D21*
X151638000Y-80391000D02*
X151638000Y-79657000D01*
D23*
X166560500Y-93345000D02*
X169164000Y-93345000D01*
X169588264Y-93345000D02*
X169164000Y-93345000D01*
X171538000Y-93345000D02*
X169588264Y-93345000D01*
X172212000Y-92671000D02*
X171538000Y-93345000D01*
X172212000Y-91440000D02*
X172212000Y-92671000D01*
D21*
G04 #@! TO.N,/sda*
X167132000Y-81788000D02*
X171450000Y-77470000D01*
X160591500Y-81788000D02*
X167132000Y-81788000D01*
G04 #@! TO.N,/scl*
X165354000Y-81026000D02*
X168910000Y-77470000D01*
X161544000Y-81026000D02*
X165354000Y-81026000D01*
D23*
G04 #@! TO.N,/usb*
X148039000Y-82291000D02*
X147663000Y-81915000D01*
X148039000Y-82997000D02*
X148039000Y-82291000D01*
X147663000Y-81915000D02*
X145161000Y-81915000D01*
X145161000Y-81915000D02*
X144599010Y-81353010D01*
X144599010Y-81353010D02*
X144599010Y-79301990D01*
X147740001Y-78319999D02*
X148590000Y-77470000D01*
X147193501Y-78866499D02*
X147740001Y-78319999D01*
X145034501Y-78866499D02*
X147193501Y-78866499D01*
X144599010Y-79301990D02*
X145034501Y-78866499D01*
D21*
X149860000Y-82996000D02*
X149860000Y-82296000D01*
X149859000Y-82997000D02*
X149860000Y-82996000D01*
X148039000Y-82997000D02*
X149859000Y-82997000D01*
D23*
G04 #@! TO.N,/bat*
X144018000Y-77978000D02*
X143510000Y-77470000D01*
X144018000Y-83058000D02*
X144018000Y-77978000D01*
X144018000Y-83058000D02*
X139671000Y-83058000D01*
X144079000Y-82997000D02*
X144018000Y-83058000D01*
X145839000Y-82997000D02*
X144079000Y-82997000D01*
X138747000Y-83982000D02*
X139671000Y-83058000D01*
D21*
X133867999Y-87803001D02*
X133867999Y-82540001D01*
X134192999Y-88128001D02*
X133867999Y-87803001D01*
X145109001Y-88128001D02*
X134192999Y-88128001D01*
X146304000Y-89898000D02*
X146304000Y-89323000D01*
X146304000Y-89323000D02*
X145109001Y-88128001D01*
X133867999Y-82540001D02*
X135001000Y-81407000D01*
X138747000Y-82232000D02*
X138747000Y-83982000D01*
X137922000Y-81407000D02*
X138747000Y-82232000D01*
X135001000Y-81407000D02*
X137922000Y-81407000D01*
D23*
G04 #@! TO.N,GND*
X144879000Y-83947000D02*
X145839000Y-83947000D01*
X144018000Y-84808000D02*
X144879000Y-83947000D01*
X136747000Y-85732000D02*
X136747000Y-83982000D01*
X137137510Y-86122510D02*
X136747000Y-85732000D01*
X142228490Y-86122510D02*
X137137510Y-86122510D01*
X143543000Y-84808000D02*
X142228490Y-86122510D01*
X144018000Y-84808000D02*
X143543000Y-84808000D01*
X141097000Y-92075000D02*
X141478000Y-91694000D01*
X141478000Y-89916000D02*
X141478000Y-91694000D01*
X139509500Y-92075000D02*
X141097000Y-92075000D01*
X171450000Y-97480000D02*
X169128500Y-95158500D01*
X171450000Y-97790000D02*
X171450000Y-97480000D01*
X154051000Y-93848000D02*
X156083000Y-93848000D01*
X151910000Y-85536000D02*
X151910000Y-84836000D01*
X147955000Y-85979000D02*
X151467000Y-85979000D01*
X151467000Y-85979000D02*
X151910000Y-85536000D01*
D22*
X172720000Y-86360000D02*
X175895000Y-86360000D01*
D23*
X144145000Y-94615000D02*
X144145000Y-91957000D01*
X140970000Y-97790000D02*
X144145000Y-94615000D01*
X144027000Y-92075000D02*
X144145000Y-91957000D01*
X139509500Y-92075000D02*
X144027000Y-92075000D01*
D21*
G04 #@! TO.N,/nrst*
X155321000Y-88900000D02*
X150495000Y-93726000D01*
X133350000Y-96690000D02*
X133350000Y-97790000D01*
X136314000Y-93726000D02*
X133350000Y-96690000D01*
X141541500Y-93726000D02*
X136314000Y-93726000D01*
X150431500Y-93789500D02*
X150495000Y-93726000D01*
X148018500Y-93789500D02*
X150431500Y-93789500D01*
D23*
G04 #@! TO.N,/vref*
X156083000Y-91798000D02*
X154051000Y-91798000D01*
X156083000Y-90551000D02*
X155321000Y-89789000D01*
X156083000Y-91798000D02*
X156083000Y-90551000D01*
D21*
G04 #@! TO.N,/swdio*
X175831500Y-83756500D02*
X175895000Y-83820000D01*
X168910000Y-83756500D02*
X175831500Y-83756500D01*
G04 #@! TO.N,/swclk*
X174719999Y-87724999D02*
X171862499Y-87724999D01*
X175895000Y-88900000D02*
X174719999Y-87724999D01*
X171862499Y-87724999D02*
X168656000Y-84518500D01*
X166497000Y-84518500D02*
X164592000Y-82613500D01*
X168656000Y-84518500D02*
X166497000Y-84518500D01*
G04 #@! TO.N,/usb_dp*
X134677002Y-87503000D02*
X134493000Y-87503000D01*
X135439002Y-86741000D02*
X134677002Y-87503000D01*
X169164000Y-86741000D02*
X135439002Y-86741000D01*
G04 #@! TO.N,/usb_dm*
X168910000Y-87503000D02*
X169164000Y-87757000D01*
X135509000Y-87503000D02*
X168910000Y-87503000D01*
G04 #@! TO.N,Net-(D4-Pad1)*
X151910000Y-82296000D02*
X154051000Y-82296000D01*
D23*
G04 #@! TO.N,Net-(R4-Pad1)*
X148105000Y-84963000D02*
X148039000Y-84897000D01*
X149799000Y-84897000D02*
X149860000Y-84836000D01*
X148039000Y-84897000D02*
X149799000Y-84897000D01*
D21*
G04 #@! TO.N,Net-(R5-Pad2)*
X146619000Y-84897000D02*
X145839000Y-84897000D01*
X147705010Y-83810990D02*
X146619000Y-84897000D01*
X152815990Y-83810990D02*
X147705010Y-83810990D01*
X153351000Y-84346000D02*
X152815990Y-83810990D01*
X154051000Y-84346000D02*
X153351000Y-84346000D01*
G04 #@! TO.N,/boot*
X172656500Y-88836500D02*
X172720000Y-88900000D01*
X160909000Y-88836500D02*
X172656500Y-88836500D01*
G04 #@! TO.N,/nss*
X169481500Y-92202000D02*
X165925500Y-92202000D01*
X166491185Y-92202000D02*
X165925500Y-92202000D01*
X169672000Y-92202000D02*
X165925500Y-92202000D01*
X170688000Y-91186000D02*
X169672000Y-92202000D01*
X170688000Y-91186000D02*
X170688000Y-90424000D01*
G04 #@! TO.N,Net-(U1-Pad31)*
X160528000Y-91918000D02*
X160244000Y-92202000D01*
X160528000Y-90424000D02*
X160528000Y-91918000D01*
G04 #@! TO.N,Net-(U1-Pad30)*
X161544000Y-90424000D02*
X161544000Y-92202000D01*
G04 #@! TO.N,Net-(U1-Pad29)*
X162560000Y-91918000D02*
X162844000Y-92202000D01*
X162560000Y-90424000D02*
X162560000Y-91918000D01*
D23*
G04 #@! TO.N,/batvtest*
X146186000Y-91948000D02*
X144145000Y-89907000D01*
X146304000Y-91948000D02*
X146186000Y-91948000D01*
D21*
X146304000Y-92523000D02*
X146304000Y-91948000D01*
X146304000Y-93000002D02*
X146304000Y-92523000D01*
X148553998Y-95250000D02*
X146304000Y-93000002D01*
X159766000Y-95250000D02*
X148553998Y-95250000D01*
G04 #@! TD*
D24*
G04 #@! TO.N,GND*
G36*
X133264157Y-79682000D02*
G01*
X133276317Y-79805462D01*
X133312329Y-79924179D01*
X133370810Y-80033589D01*
X133449512Y-80129488D01*
X133545411Y-80208190D01*
X133654821Y-80266671D01*
X133773538Y-80302683D01*
X133897000Y-80314843D01*
X134897000Y-80314843D01*
X135020462Y-80302683D01*
X135139179Y-80266671D01*
X135248589Y-80208190D01*
X135344488Y-80129488D01*
X135423190Y-80033589D01*
X135481671Y-79924179D01*
X135517683Y-79805462D01*
X135529843Y-79682000D01*
X135529843Y-77597000D01*
X139964157Y-77597000D01*
X139964157Y-79682000D01*
X139976317Y-79805462D01*
X140012329Y-79924179D01*
X140070810Y-80033589D01*
X140149512Y-80129488D01*
X140245411Y-80208190D01*
X140354821Y-80266671D01*
X140473538Y-80302683D01*
X140597000Y-80314843D01*
X141597000Y-80314843D01*
X141720462Y-80302683D01*
X141839179Y-80266671D01*
X141948589Y-80208190D01*
X142044488Y-80129488D01*
X142123190Y-80033589D01*
X142181671Y-79924179D01*
X142217683Y-79805462D01*
X142229843Y-79682000D01*
X142229843Y-77597000D01*
X142277157Y-77597000D01*
X142277157Y-78320000D01*
X142284513Y-78394689D01*
X142306299Y-78466508D01*
X142341678Y-78532696D01*
X142389289Y-78590711D01*
X142447304Y-78638322D01*
X142513492Y-78673701D01*
X142585311Y-78695487D01*
X142660000Y-78702843D01*
X143446501Y-78702843D01*
X143446500Y-81962124D01*
X143444538Y-81962317D01*
X143325821Y-81998329D01*
X143216411Y-82056810D01*
X143120512Y-82135512D01*
X143041810Y-82231411D01*
X142983329Y-82340821D01*
X142947317Y-82459538D01*
X142944661Y-82486500D01*
X139699071Y-82486500D01*
X139670999Y-82483735D01*
X139642927Y-82486500D01*
X139642926Y-82486500D01*
X139629843Y-82487789D01*
X139629843Y-82482000D01*
X139617683Y-82358538D01*
X139581671Y-82239821D01*
X139523190Y-82130411D01*
X139444488Y-82034512D01*
X139348589Y-81955810D01*
X139239179Y-81897329D01*
X139120462Y-81861317D01*
X139089179Y-81858236D01*
X139087220Y-81856628D01*
X138297376Y-81066785D01*
X138281527Y-81047473D01*
X138204479Y-80984241D01*
X138116575Y-80937255D01*
X138021193Y-80908322D01*
X137946854Y-80901000D01*
X137946846Y-80901000D01*
X137922000Y-80898553D01*
X137897154Y-80901000D01*
X135025845Y-80901000D01*
X135000999Y-80898553D01*
X134976153Y-80901000D01*
X134976146Y-80901000D01*
X134911694Y-80907348D01*
X134901806Y-80908322D01*
X134879607Y-80915056D01*
X134806425Y-80937255D01*
X134718521Y-80984241D01*
X134641473Y-81047473D01*
X134625628Y-81066780D01*
X133527779Y-82164630D01*
X133508473Y-82180474D01*
X133445241Y-82257522D01*
X133437959Y-82271146D01*
X133398254Y-82345427D01*
X133369321Y-82440809D01*
X133359552Y-82540001D01*
X133362000Y-82564857D01*
X133362000Y-82663841D01*
X133288173Y-82590758D01*
X133064783Y-82443124D01*
X132816883Y-82341908D01*
X132554000Y-82291000D01*
X132279000Y-82291000D01*
X132279000Y-83524000D01*
X132299000Y-83524000D01*
X132299000Y-83778000D01*
X132279000Y-83778000D01*
X132279000Y-85011000D01*
X132554000Y-85011000D01*
X132816883Y-84960092D01*
X133064783Y-84858876D01*
X133288173Y-84711242D01*
X133362000Y-84638159D01*
X133361999Y-87778155D01*
X133359552Y-87803001D01*
X133361999Y-87827847D01*
X133361999Y-87827854D01*
X133369321Y-87902193D01*
X133398254Y-87997575D01*
X133445240Y-88085480D01*
X133508472Y-88162528D01*
X133527784Y-88178377D01*
X133817623Y-88468216D01*
X133833472Y-88487528D01*
X133910520Y-88550760D01*
X133998424Y-88597746D01*
X134063619Y-88617522D01*
X134093805Y-88626679D01*
X134103693Y-88627653D01*
X134168145Y-88634001D01*
X134168152Y-88634001D01*
X134192998Y-88636448D01*
X134217844Y-88634001D01*
X144899410Y-88634001D01*
X145399484Y-89134076D01*
X145327810Y-89221411D01*
X145269329Y-89330821D01*
X145233317Y-89449538D01*
X145224057Y-89543557D01*
X145215683Y-89458538D01*
X145179671Y-89339821D01*
X145121190Y-89230411D01*
X145042488Y-89134512D01*
X144946589Y-89055810D01*
X144837179Y-88997329D01*
X144718462Y-88961317D01*
X144595001Y-88949157D01*
X143694999Y-88949157D01*
X143571538Y-88961317D01*
X143452821Y-88997329D01*
X143343411Y-89055810D01*
X143247512Y-89134512D01*
X143168810Y-89230411D01*
X143110329Y-89339821D01*
X143074317Y-89458538D01*
X143062157Y-89581999D01*
X143062157Y-90232001D01*
X143074317Y-90355462D01*
X143110329Y-90474179D01*
X143168810Y-90583589D01*
X143247512Y-90679488D01*
X143338780Y-90754389D01*
X143320518Y-90756188D01*
X143200820Y-90792498D01*
X143090506Y-90851463D01*
X142993815Y-90930815D01*
X142914463Y-91027506D01*
X142855498Y-91137820D01*
X142819188Y-91257518D01*
X142806928Y-91382000D01*
X142810000Y-91671250D01*
X142968750Y-91830000D01*
X144018000Y-91830000D01*
X144018000Y-91810000D01*
X144272000Y-91810000D01*
X144272000Y-91830000D01*
X144292000Y-91830000D01*
X144292000Y-92084000D01*
X144272000Y-92084000D01*
X144272000Y-93008250D01*
X144430750Y-93167000D01*
X144845000Y-93170072D01*
X144969482Y-93157812D01*
X145089180Y-93121502D01*
X145199494Y-93062537D01*
X145296185Y-92983185D01*
X145375537Y-92886494D01*
X145434502Y-92776180D01*
X145442449Y-92749981D01*
X145502411Y-92799190D01*
X145611821Y-92857671D01*
X145730538Y-92893683D01*
X145798000Y-92900328D01*
X145798000Y-92975155D01*
X145795553Y-93000002D01*
X145798000Y-93024848D01*
X145798000Y-93024855D01*
X145805322Y-93099194D01*
X145834255Y-93194576D01*
X145881241Y-93282481D01*
X145944473Y-93359529D01*
X145963785Y-93375378D01*
X148178626Y-95590220D01*
X148194471Y-95609527D01*
X148271519Y-95672759D01*
X148359423Y-95719745D01*
X148454805Y-95748678D01*
X148553998Y-95758448D01*
X148578852Y-95756000D01*
X159308921Y-95756000D01*
X159331888Y-95778967D01*
X159443426Y-95853494D01*
X159567360Y-95904829D01*
X159698927Y-95931000D01*
X159833073Y-95931000D01*
X159964640Y-95904829D01*
X160088574Y-95853494D01*
X160200112Y-95778967D01*
X160294967Y-95684112D01*
X160369494Y-95572574D01*
X160420829Y-95448640D01*
X160447000Y-95317073D01*
X160447000Y-95182927D01*
X160420829Y-95051360D01*
X160369494Y-94927426D01*
X160294967Y-94815888D01*
X160200112Y-94721033D01*
X160088574Y-94646506D01*
X159964640Y-94595171D01*
X159833073Y-94569000D01*
X159698927Y-94569000D01*
X159567360Y-94595171D01*
X159443426Y-94646506D01*
X159331888Y-94721033D01*
X159308921Y-94744000D01*
X157331440Y-94744000D01*
X157372502Y-94667180D01*
X157408812Y-94547482D01*
X157421072Y-94423000D01*
X157418000Y-94133750D01*
X157259250Y-93975000D01*
X156210000Y-93975000D01*
X156210000Y-93995000D01*
X155956000Y-93995000D01*
X155956000Y-93975000D01*
X154178000Y-93975000D01*
X154178000Y-93995000D01*
X153924000Y-93995000D01*
X153924000Y-93975000D01*
X152874750Y-93975000D01*
X152716000Y-94133750D01*
X152712928Y-94423000D01*
X152725188Y-94547482D01*
X152761498Y-94667180D01*
X152802560Y-94744000D01*
X148763590Y-94744000D01*
X148383941Y-94364351D01*
X148452612Y-94318467D01*
X148475579Y-94295500D01*
X150406654Y-94295500D01*
X150431500Y-94297947D01*
X150456346Y-94295500D01*
X150456354Y-94295500D01*
X150530693Y-94288178D01*
X150626075Y-94259245D01*
X150713979Y-94212259D01*
X150791027Y-94149027D01*
X150806876Y-94129715D01*
X152968157Y-91968434D01*
X152968157Y-92123001D01*
X152980317Y-92246462D01*
X153016329Y-92365179D01*
X153074810Y-92474589D01*
X153153512Y-92570488D01*
X153244780Y-92645389D01*
X153226518Y-92647188D01*
X153106820Y-92683498D01*
X152996506Y-92742463D01*
X152899815Y-92821815D01*
X152820463Y-92918506D01*
X152761498Y-93028820D01*
X152725188Y-93148518D01*
X152712928Y-93273000D01*
X152716000Y-93562250D01*
X152874750Y-93721000D01*
X153924000Y-93721000D01*
X153924000Y-93701000D01*
X154178000Y-93701000D01*
X154178000Y-93721000D01*
X155956000Y-93721000D01*
X155956000Y-93701000D01*
X156210000Y-93701000D01*
X156210000Y-93721000D01*
X157259250Y-93721000D01*
X157418000Y-93562250D01*
X157421072Y-93273000D01*
X157408812Y-93148518D01*
X157372502Y-93028820D01*
X157313537Y-92918506D01*
X157234185Y-92821815D01*
X157137494Y-92742463D01*
X157027180Y-92683498D01*
X156907482Y-92647188D01*
X156889220Y-92645389D01*
X156980488Y-92570488D01*
X157059190Y-92474589D01*
X157117671Y-92365179D01*
X157153683Y-92246462D01*
X157165843Y-92123001D01*
X157165843Y-91472999D01*
X157153683Y-91349538D01*
X157117671Y-91230821D01*
X157059190Y-91121411D01*
X156980488Y-91025512D01*
X156884589Y-90946810D01*
X156775179Y-90888329D01*
X156656462Y-90852317D01*
X156654500Y-90852124D01*
X156654500Y-90579074D01*
X156657265Y-90551000D01*
X156646231Y-90438966D01*
X156613552Y-90331238D01*
X156560484Y-90231955D01*
X156506963Y-90166739D01*
X156506961Y-90166737D01*
X156489067Y-90144933D01*
X156467262Y-90127038D01*
X155987064Y-89646841D01*
X155975829Y-89590360D01*
X155924494Y-89466426D01*
X155849967Y-89354888D01*
X155839579Y-89344500D01*
X155849967Y-89334112D01*
X155924494Y-89222574D01*
X155975829Y-89098640D01*
X156002000Y-88967073D01*
X156002000Y-88832927D01*
X155975829Y-88701360D01*
X155924494Y-88577426D01*
X155849967Y-88465888D01*
X155755112Y-88371033D01*
X155643574Y-88296506D01*
X155519640Y-88245171D01*
X155388073Y-88219000D01*
X155253927Y-88219000D01*
X155122360Y-88245171D01*
X154998426Y-88296506D01*
X154886888Y-88371033D01*
X154792033Y-88465888D01*
X154717506Y-88577426D01*
X154666171Y-88701360D01*
X154640000Y-88832927D01*
X154640000Y-88865408D01*
X150221909Y-93283500D01*
X148475579Y-93283500D01*
X148452612Y-93260533D01*
X148341074Y-93186006D01*
X148217140Y-93134671D01*
X148085573Y-93108500D01*
X147951427Y-93108500D01*
X147819860Y-93134671D01*
X147695926Y-93186006D01*
X147584388Y-93260533D01*
X147489533Y-93355388D01*
X147443649Y-93424059D01*
X146904938Y-92885348D01*
X146996179Y-92857671D01*
X147105589Y-92799190D01*
X147201488Y-92720488D01*
X147280190Y-92624589D01*
X147338671Y-92515179D01*
X147374683Y-92396462D01*
X147386843Y-92273001D01*
X147386843Y-91622999D01*
X147374683Y-91499538D01*
X147338671Y-91380821D01*
X147280190Y-91271411D01*
X147201488Y-91175512D01*
X147105589Y-91096810D01*
X146996179Y-91038329D01*
X146877462Y-91002317D01*
X146754001Y-90990157D01*
X146036380Y-90990157D01*
X145902066Y-90855843D01*
X146754001Y-90855843D01*
X146877462Y-90843683D01*
X146996179Y-90807671D01*
X147105589Y-90749190D01*
X147201488Y-90670488D01*
X147280190Y-90574589D01*
X147338671Y-90465179D01*
X147374683Y-90346462D01*
X147386843Y-90223001D01*
X147386843Y-89572999D01*
X147374683Y-89449538D01*
X147338671Y-89330821D01*
X147280190Y-89221411D01*
X147201488Y-89125512D01*
X147105589Y-89046810D01*
X146996179Y-88988329D01*
X146877462Y-88952317D01*
X146754001Y-88940157D01*
X146636749Y-88940157D01*
X145705591Y-88009000D01*
X168531273Y-88009000D01*
X168560506Y-88079574D01*
X168635033Y-88191112D01*
X168729888Y-88285967D01*
X168796537Y-88330500D01*
X161366079Y-88330500D01*
X161343112Y-88307533D01*
X161231574Y-88233006D01*
X161107640Y-88181671D01*
X160976073Y-88155500D01*
X160841927Y-88155500D01*
X160710360Y-88181671D01*
X160586426Y-88233006D01*
X160474888Y-88307533D01*
X160380033Y-88402388D01*
X160305506Y-88513926D01*
X160254171Y-88637860D01*
X160228000Y-88769427D01*
X160228000Y-88903573D01*
X160254171Y-89035140D01*
X160305506Y-89159074D01*
X160380033Y-89270612D01*
X160474888Y-89365467D01*
X160586426Y-89439994D01*
X160710360Y-89491329D01*
X160841927Y-89517500D01*
X160976073Y-89517500D01*
X161107640Y-89491329D01*
X161231574Y-89439994D01*
X161343112Y-89365467D01*
X161366079Y-89342500D01*
X171062865Y-89342500D01*
X171121102Y-89483097D01*
X171255820Y-89684717D01*
X171427283Y-89856180D01*
X171628903Y-89990898D01*
X171852931Y-90083693D01*
X172090757Y-90131000D01*
X172333243Y-90131000D01*
X172571069Y-90083693D01*
X172795097Y-89990898D01*
X172996717Y-89856180D01*
X173168180Y-89684717D01*
X173302898Y-89483097D01*
X173395693Y-89259069D01*
X173443000Y-89021243D01*
X173443000Y-88778757D01*
X173395693Y-88540931D01*
X173302898Y-88316903D01*
X173245499Y-88230999D01*
X174510408Y-88230999D01*
X174743242Y-88463833D01*
X174711307Y-88540931D01*
X174664000Y-88778757D01*
X174664000Y-89021243D01*
X174711307Y-89259069D01*
X174804102Y-89483097D01*
X174938820Y-89684717D01*
X175110283Y-89856180D01*
X175311903Y-89990898D01*
X175535931Y-90083693D01*
X175773757Y-90131000D01*
X176016243Y-90131000D01*
X176254069Y-90083693D01*
X176403000Y-90022004D01*
X176403000Y-90317996D01*
X176254069Y-90256307D01*
X176016243Y-90209000D01*
X175773757Y-90209000D01*
X175535931Y-90256307D01*
X175311903Y-90349102D01*
X175110283Y-90483820D01*
X174938820Y-90655283D01*
X174923641Y-90678000D01*
X173444843Y-90678000D01*
X173444843Y-90590000D01*
X173437487Y-90515311D01*
X173415701Y-90443492D01*
X173380322Y-90377304D01*
X173332711Y-90319289D01*
X173274696Y-90271678D01*
X173208508Y-90236299D01*
X173136689Y-90214513D01*
X173062000Y-90207157D01*
X171362000Y-90207157D01*
X171336336Y-90209685D01*
X171291494Y-90101426D01*
X171216967Y-89989888D01*
X171122112Y-89895033D01*
X171010574Y-89820506D01*
X170886640Y-89769171D01*
X170755073Y-89743000D01*
X170620927Y-89743000D01*
X170489360Y-89769171D01*
X170365426Y-89820506D01*
X170253888Y-89895033D01*
X170159033Y-89989888D01*
X170084506Y-90101426D01*
X170033171Y-90225360D01*
X170007000Y-90356927D01*
X170007000Y-90491073D01*
X170033171Y-90622640D01*
X170084506Y-90746574D01*
X170159033Y-90858112D01*
X170182000Y-90881079D01*
X170182000Y-90976408D01*
X169462409Y-91696000D01*
X166382579Y-91696000D01*
X166359612Y-91673033D01*
X166248074Y-91598506D01*
X166124140Y-91547171D01*
X165992573Y-91521000D01*
X165858427Y-91521000D01*
X165726860Y-91547171D01*
X165602926Y-91598506D01*
X165491388Y-91673033D01*
X165396533Y-91767888D01*
X165322006Y-91879426D01*
X165270671Y-92003360D01*
X165244500Y-92134927D01*
X165244500Y-92269073D01*
X165270671Y-92400640D01*
X165322006Y-92524574D01*
X165396533Y-92636112D01*
X165491388Y-92730967D01*
X165602926Y-92805494D01*
X165726860Y-92856829D01*
X165858427Y-92883000D01*
X165992573Y-92883000D01*
X166076020Y-92866401D01*
X166031533Y-92910888D01*
X165957006Y-93022426D01*
X165905671Y-93146360D01*
X165879500Y-93277927D01*
X165879500Y-93412073D01*
X165905671Y-93543640D01*
X165957006Y-93667574D01*
X166031533Y-93779112D01*
X166126388Y-93873967D01*
X166237926Y-93948494D01*
X166361860Y-93999829D01*
X166493427Y-94026000D01*
X166627573Y-94026000D01*
X166759140Y-93999829D01*
X166883074Y-93948494D01*
X166930957Y-93916500D01*
X168793543Y-93916500D01*
X168841426Y-93948494D01*
X168965360Y-93999829D01*
X169096927Y-94026000D01*
X169231073Y-94026000D01*
X169362640Y-93999829D01*
X169486574Y-93948494D01*
X169534457Y-93916500D01*
X171509926Y-93916500D01*
X171538000Y-93919265D01*
X171566074Y-93916500D01*
X171650034Y-93908231D01*
X171757762Y-93875552D01*
X171857045Y-93822484D01*
X171944067Y-93751067D01*
X171961970Y-93729252D01*
X172596257Y-93094966D01*
X172618067Y-93077067D01*
X172689484Y-92990045D01*
X172742552Y-92890762D01*
X172775231Y-92783034D01*
X172783500Y-92699074D01*
X172786083Y-92672843D01*
X173062000Y-92672843D01*
X173136689Y-92665487D01*
X173208508Y-92643701D01*
X173274696Y-92608322D01*
X173332711Y-92560711D01*
X173380322Y-92502696D01*
X173415701Y-92436508D01*
X173437487Y-92364689D01*
X173444843Y-92290000D01*
X173444843Y-92202000D01*
X174923641Y-92202000D01*
X174938820Y-92224717D01*
X175110283Y-92396180D01*
X175311903Y-92530898D01*
X175535931Y-92623693D01*
X175773757Y-92671000D01*
X176016243Y-92671000D01*
X176254069Y-92623693D01*
X176403000Y-92562004D01*
X176403000Y-97663000D01*
X172935000Y-97663000D01*
X172935000Y-97662998D01*
X172770815Y-97662998D01*
X172891481Y-97433109D01*
X172794157Y-97158748D01*
X172645178Y-96908645D01*
X172450269Y-96692412D01*
X172216920Y-96518359D01*
X171954099Y-96393175D01*
X171806890Y-96348524D01*
X171577000Y-96469845D01*
X171577000Y-97663000D01*
X171323000Y-97663000D01*
X171323000Y-96469845D01*
X171093110Y-96348524D01*
X170945901Y-96393175D01*
X170683080Y-96518359D01*
X170449731Y-96692412D01*
X170254822Y-96908645D01*
X170105843Y-97158748D01*
X170048228Y-97321168D01*
X170000898Y-97206903D01*
X169866180Y-97005283D01*
X169694717Y-96833820D01*
X169493097Y-96699102D01*
X169269069Y-96606307D01*
X169031243Y-96559000D01*
X168788757Y-96559000D01*
X168550931Y-96606307D01*
X168473833Y-96638242D01*
X168435375Y-96599784D01*
X168435371Y-96599779D01*
X165194875Y-93359284D01*
X165179026Y-93339972D01*
X165101978Y-93276740D01*
X165014074Y-93229754D01*
X164918692Y-93200821D01*
X164844353Y-93193499D01*
X164844345Y-93193499D01*
X164819499Y-93191052D01*
X164794653Y-93193499D01*
X163638684Y-93193499D01*
X163662322Y-93164696D01*
X163697701Y-93098508D01*
X163719487Y-93026689D01*
X163726843Y-92952000D01*
X163726843Y-91452000D01*
X163719487Y-91377311D01*
X163697701Y-91305492D01*
X163662322Y-91239304D01*
X163614711Y-91181289D01*
X163556696Y-91133678D01*
X163490508Y-91098299D01*
X163418689Y-91076513D01*
X163344000Y-91069157D01*
X163066000Y-91069157D01*
X163066000Y-90881079D01*
X163088967Y-90858112D01*
X163163494Y-90746574D01*
X163214829Y-90622640D01*
X163241000Y-90491073D01*
X163241000Y-90356927D01*
X163214829Y-90225360D01*
X163163494Y-90101426D01*
X163088967Y-89989888D01*
X162994112Y-89895033D01*
X162882574Y-89820506D01*
X162758640Y-89769171D01*
X162627073Y-89743000D01*
X162492927Y-89743000D01*
X162361360Y-89769171D01*
X162237426Y-89820506D01*
X162125888Y-89895033D01*
X162052000Y-89968921D01*
X161978112Y-89895033D01*
X161866574Y-89820506D01*
X161742640Y-89769171D01*
X161611073Y-89743000D01*
X161476927Y-89743000D01*
X161345360Y-89769171D01*
X161221426Y-89820506D01*
X161109888Y-89895033D01*
X161036000Y-89968921D01*
X160962112Y-89895033D01*
X160850574Y-89820506D01*
X160726640Y-89769171D01*
X160595073Y-89743000D01*
X160460927Y-89743000D01*
X160329360Y-89769171D01*
X160205426Y-89820506D01*
X160093888Y-89895033D01*
X159999033Y-89989888D01*
X159924506Y-90101426D01*
X159873171Y-90225360D01*
X159847000Y-90356927D01*
X159847000Y-90491073D01*
X159873171Y-90622640D01*
X159924506Y-90746574D01*
X159999033Y-90858112D01*
X160022000Y-90881079D01*
X160022000Y-91069157D01*
X159744000Y-91069157D01*
X159669311Y-91076513D01*
X159597492Y-91098299D01*
X159531304Y-91133678D01*
X159473289Y-91181289D01*
X159425678Y-91239304D01*
X159390299Y-91305492D01*
X159368513Y-91377311D01*
X159361157Y-91452000D01*
X159361157Y-92952000D01*
X159368513Y-93026689D01*
X159390299Y-93098508D01*
X159425678Y-93164696D01*
X159473289Y-93222711D01*
X159531304Y-93270322D01*
X159597492Y-93305701D01*
X159669311Y-93327487D01*
X159744000Y-93334843D01*
X160744000Y-93334843D01*
X160818689Y-93327487D01*
X160890508Y-93305701D01*
X160894000Y-93303834D01*
X160897492Y-93305701D01*
X160969311Y-93327487D01*
X161044000Y-93334843D01*
X162044000Y-93334843D01*
X162083578Y-93330945D01*
X161998888Y-93387533D01*
X161904033Y-93482388D01*
X161829506Y-93593926D01*
X161778171Y-93717860D01*
X161752000Y-93849427D01*
X161752000Y-93983573D01*
X161778171Y-94115140D01*
X161829506Y-94239074D01*
X161904033Y-94350612D01*
X161998888Y-94445467D01*
X162110426Y-94519994D01*
X162234360Y-94571329D01*
X162365927Y-94597500D01*
X162500073Y-94597500D01*
X162631640Y-94571329D01*
X162713611Y-94537376D01*
X162730671Y-94623140D01*
X162782006Y-94747074D01*
X162856533Y-94858612D01*
X162951388Y-94953467D01*
X163062926Y-95027994D01*
X163186860Y-95079329D01*
X163318427Y-95105500D01*
X163452573Y-95105500D01*
X163584140Y-95079329D01*
X163708074Y-95027994D01*
X163819612Y-94953467D01*
X163842579Y-94930500D01*
X163996990Y-94930500D01*
X164252481Y-95185991D01*
X164219140Y-95172181D01*
X164087573Y-95146010D01*
X163953427Y-95146010D01*
X163821860Y-95172181D01*
X163697926Y-95223516D01*
X163586388Y-95298043D01*
X163491533Y-95392898D01*
X163417006Y-95504436D01*
X163365671Y-95628370D01*
X163339500Y-95759937D01*
X163339500Y-95891358D01*
X163331322Y-95918318D01*
X163321553Y-96017510D01*
X163324001Y-96042366D01*
X163324001Y-96667167D01*
X163246903Y-96699102D01*
X163045283Y-96833820D01*
X162873820Y-97005283D01*
X162739102Y-97206903D01*
X162646307Y-97430931D01*
X162600145Y-97663000D01*
X162519855Y-97663000D01*
X162473693Y-97430931D01*
X162380898Y-97206903D01*
X162246180Y-97005283D01*
X162074717Y-96833820D01*
X161873097Y-96699102D01*
X161649069Y-96606307D01*
X161411243Y-96559000D01*
X161168757Y-96559000D01*
X160930931Y-96606307D01*
X160706903Y-96699102D01*
X160505283Y-96833820D01*
X160333820Y-97005283D01*
X160199102Y-97206903D01*
X160106307Y-97430931D01*
X160060145Y-97663000D01*
X159979855Y-97663000D01*
X159933693Y-97430931D01*
X159840898Y-97206903D01*
X159706180Y-97005283D01*
X159534717Y-96833820D01*
X159333097Y-96699102D01*
X159109069Y-96606307D01*
X158871243Y-96559000D01*
X158628757Y-96559000D01*
X158390931Y-96606307D01*
X158166903Y-96699102D01*
X157965283Y-96833820D01*
X157793820Y-97005283D01*
X157659102Y-97206903D01*
X157566307Y-97430931D01*
X157520145Y-97663000D01*
X157439855Y-97663000D01*
X157393693Y-97430931D01*
X157300898Y-97206903D01*
X157166180Y-97005283D01*
X156994717Y-96833820D01*
X156793097Y-96699102D01*
X156569069Y-96606307D01*
X156331243Y-96559000D01*
X156088757Y-96559000D01*
X155850931Y-96606307D01*
X155626903Y-96699102D01*
X155425283Y-96833820D01*
X155253820Y-97005283D01*
X155119102Y-97206903D01*
X155026307Y-97430931D01*
X154980145Y-97663000D01*
X154899855Y-97663000D01*
X154853693Y-97430931D01*
X154760898Y-97206903D01*
X154626180Y-97005283D01*
X154454717Y-96833820D01*
X154253097Y-96699102D01*
X154029069Y-96606307D01*
X153791243Y-96559000D01*
X153548757Y-96559000D01*
X153310931Y-96606307D01*
X153086903Y-96699102D01*
X152885283Y-96833820D01*
X152713820Y-97005283D01*
X152579102Y-97206903D01*
X152486307Y-97430931D01*
X152440145Y-97663000D01*
X152359855Y-97663000D01*
X152313693Y-97430931D01*
X152220898Y-97206903D01*
X152086180Y-97005283D01*
X151914717Y-96833820D01*
X151713097Y-96699102D01*
X151489069Y-96606307D01*
X151251243Y-96559000D01*
X151008757Y-96559000D01*
X150770931Y-96606307D01*
X150546903Y-96699102D01*
X150345283Y-96833820D01*
X150173820Y-97005283D01*
X150039102Y-97206903D01*
X149946307Y-97430931D01*
X149900145Y-97663000D01*
X149819855Y-97663000D01*
X149773693Y-97430931D01*
X149680898Y-97206903D01*
X149546180Y-97005283D01*
X149374717Y-96833820D01*
X149173097Y-96699102D01*
X148949069Y-96606307D01*
X148711243Y-96559000D01*
X148468757Y-96559000D01*
X148230931Y-96606307D01*
X148006903Y-96699102D01*
X147805283Y-96833820D01*
X147633820Y-97005283D01*
X147499102Y-97206903D01*
X147406307Y-97430931D01*
X147360145Y-97663000D01*
X147279855Y-97663000D01*
X147233693Y-97430931D01*
X147140898Y-97206903D01*
X147006180Y-97005283D01*
X146834717Y-96833820D01*
X146633097Y-96699102D01*
X146409069Y-96606307D01*
X146171243Y-96559000D01*
X145928757Y-96559000D01*
X145690931Y-96606307D01*
X145466903Y-96699102D01*
X145265283Y-96833820D01*
X145093820Y-97005283D01*
X144959102Y-97206903D01*
X144866307Y-97430931D01*
X144820145Y-97663000D01*
X144739855Y-97663000D01*
X144693693Y-97430931D01*
X144600898Y-97206903D01*
X144466180Y-97005283D01*
X144294717Y-96833820D01*
X144093097Y-96699102D01*
X143869069Y-96606307D01*
X143631243Y-96559000D01*
X143388757Y-96559000D01*
X143150931Y-96606307D01*
X142926903Y-96699102D01*
X142725283Y-96833820D01*
X142553820Y-97005283D01*
X142419102Y-97206903D01*
X142371772Y-97321168D01*
X142314157Y-97158748D01*
X142165178Y-96908645D01*
X141970269Y-96692412D01*
X141736920Y-96518359D01*
X141474099Y-96393175D01*
X141326890Y-96348524D01*
X141097000Y-96469845D01*
X141097000Y-97663000D01*
X140843000Y-97663000D01*
X140843000Y-96469845D01*
X140613110Y-96348524D01*
X140465901Y-96393175D01*
X140203080Y-96518359D01*
X139969731Y-96692412D01*
X139774822Y-96908645D01*
X139625843Y-97158748D01*
X139568228Y-97321168D01*
X139520898Y-97206903D01*
X139386180Y-97005283D01*
X139214717Y-96833820D01*
X139013097Y-96699102D01*
X138789069Y-96606307D01*
X138551243Y-96559000D01*
X138308757Y-96559000D01*
X138070931Y-96606307D01*
X137846903Y-96699102D01*
X137645283Y-96833820D01*
X137473820Y-97005283D01*
X137339102Y-97206903D01*
X137246307Y-97430931D01*
X137200145Y-97663000D01*
X137119855Y-97663000D01*
X137073693Y-97430931D01*
X136980898Y-97206903D01*
X136846180Y-97005283D01*
X136674717Y-96833820D01*
X136473097Y-96699102D01*
X136249069Y-96606307D01*
X136011243Y-96559000D01*
X135768757Y-96559000D01*
X135530931Y-96606307D01*
X135306903Y-96699102D01*
X135105283Y-96833820D01*
X134933820Y-97005283D01*
X134799102Y-97206903D01*
X134706307Y-97430931D01*
X134660145Y-97663000D01*
X134582843Y-97663000D01*
X134582843Y-96940000D01*
X134575487Y-96865311D01*
X134553701Y-96793492D01*
X134518322Y-96727304D01*
X134470711Y-96669289D01*
X134412696Y-96621678D01*
X134346508Y-96586299D01*
X134274689Y-96564513D01*
X134200000Y-96557157D01*
X134198434Y-96557157D01*
X136523592Y-94232000D01*
X141084421Y-94232000D01*
X141107388Y-94254967D01*
X141218926Y-94329494D01*
X141342860Y-94380829D01*
X141474427Y-94407000D01*
X141608573Y-94407000D01*
X141740140Y-94380829D01*
X141864074Y-94329494D01*
X141975612Y-94254967D01*
X142070467Y-94160112D01*
X142144994Y-94048574D01*
X142196329Y-93924640D01*
X142222500Y-93793073D01*
X142222500Y-93658927D01*
X142196329Y-93527360D01*
X142144994Y-93403426D01*
X142070467Y-93291888D01*
X141975612Y-93197033D01*
X141864074Y-93122506D01*
X141740140Y-93071171D01*
X141608573Y-93045000D01*
X141474427Y-93045000D01*
X141342860Y-93071171D01*
X141218926Y-93122506D01*
X141107388Y-93197033D01*
X141084421Y-93220000D01*
X136338846Y-93220000D01*
X136314000Y-93217553D01*
X136289154Y-93220000D01*
X136289146Y-93220000D01*
X136214807Y-93227322D01*
X136119425Y-93256255D01*
X136031521Y-93303241D01*
X135954473Y-93366473D01*
X135938629Y-93385779D01*
X133009785Y-96314624D01*
X132990473Y-96330473D01*
X132927241Y-96407521D01*
X132880255Y-96495426D01*
X132861530Y-96557157D01*
X132500000Y-96557157D01*
X132425311Y-96564513D01*
X132353492Y-96586299D01*
X132287304Y-96621678D01*
X132229289Y-96669289D01*
X132181678Y-96727304D01*
X132146299Y-96793492D01*
X132124513Y-96865311D01*
X132117157Y-96940000D01*
X132117157Y-97663000D01*
X128397000Y-97663000D01*
X128397000Y-92532000D01*
X142806928Y-92532000D01*
X142819188Y-92656482D01*
X142855498Y-92776180D01*
X142914463Y-92886494D01*
X142993815Y-92983185D01*
X143090506Y-93062537D01*
X143200820Y-93121502D01*
X143320518Y-93157812D01*
X143445000Y-93170072D01*
X143859250Y-93167000D01*
X144018000Y-93008250D01*
X144018000Y-92084000D01*
X142968750Y-92084000D01*
X142810000Y-92242750D01*
X142806928Y-92532000D01*
X128397000Y-92532000D01*
X128397000Y-92461000D01*
X128804000Y-92461000D01*
X129037619Y-92412974D01*
X129257380Y-92320294D01*
X129454837Y-92186521D01*
X129622402Y-92016797D01*
X129753636Y-91817644D01*
X129843496Y-91596715D01*
X129845635Y-91564677D01*
X129760927Y-91438258D01*
X130559481Y-91438258D01*
X130571922Y-91504117D01*
X130675643Y-91750979D01*
X130825531Y-91972863D01*
X131015827Y-92161242D01*
X131239217Y-92308876D01*
X131487117Y-92410092D01*
X131750000Y-92461000D01*
X132025000Y-92461000D01*
X132025000Y-91228000D01*
X132279000Y-91228000D01*
X132279000Y-92461000D01*
X132554000Y-92461000D01*
X132816883Y-92410092D01*
X133064783Y-92308876D01*
X133288173Y-92161242D01*
X133478469Y-91972863D01*
X133628357Y-91750979D01*
X133732078Y-91504117D01*
X133744519Y-91438258D01*
X133621518Y-91228000D01*
X132279000Y-91228000D01*
X132025000Y-91228000D01*
X130682482Y-91228000D01*
X130559481Y-91438258D01*
X129760927Y-91438258D01*
X129720550Y-91378000D01*
X128479000Y-91378000D01*
X128479000Y-91398000D01*
X128397000Y-91398000D01*
X128397000Y-91104000D01*
X128479000Y-91104000D01*
X128479000Y-91124000D01*
X129720550Y-91124000D01*
X129845635Y-90937323D01*
X129843496Y-90905285D01*
X129753636Y-90684356D01*
X129622402Y-90485203D01*
X129454837Y-90315479D01*
X129257380Y-90181706D01*
X129037619Y-90089026D01*
X128924889Y-90065852D01*
X129350800Y-90068072D01*
X129475282Y-90055812D01*
X129594980Y-90019502D01*
X129705294Y-89960537D01*
X129801985Y-89881185D01*
X129869368Y-89799078D01*
X130321000Y-89799078D01*
X130321000Y-89952922D01*
X130351013Y-90103809D01*
X130409887Y-90245942D01*
X130495358Y-90373859D01*
X130604141Y-90482642D01*
X130649596Y-90513014D01*
X130571922Y-90697883D01*
X130559481Y-90763742D01*
X130682482Y-90974000D01*
X132025000Y-90974000D01*
X132025000Y-89741000D01*
X132279000Y-89741000D01*
X132279000Y-90974000D01*
X133621518Y-90974000D01*
X133744519Y-90763742D01*
X133732078Y-90697883D01*
X133628357Y-90451021D01*
X133478469Y-90229137D01*
X133288173Y-90040758D01*
X133064783Y-89893124D01*
X132816883Y-89791908D01*
X132554000Y-89741000D01*
X132279000Y-89741000D01*
X132025000Y-89741000D01*
X131871448Y-89741000D01*
X131852987Y-89648191D01*
X131794113Y-89506058D01*
X131708642Y-89378141D01*
X131599859Y-89269358D01*
X131471942Y-89183887D01*
X131329809Y-89125013D01*
X131178922Y-89095000D01*
X131025078Y-89095000D01*
X130874191Y-89125013D01*
X130732058Y-89183887D01*
X130604141Y-89269358D01*
X130495358Y-89378141D01*
X130409887Y-89506058D01*
X130351013Y-89648191D01*
X130321000Y-89799078D01*
X129869368Y-89799078D01*
X129881337Y-89784494D01*
X129940302Y-89674180D01*
X129976612Y-89554482D01*
X129988872Y-89430000D01*
X129985800Y-89415750D01*
X129827050Y-89257000D01*
X128602800Y-89257000D01*
X128602800Y-89906250D01*
X128737550Y-90041000D01*
X128397000Y-90041000D01*
X128397000Y-87812843D01*
X128969647Y-87812843D01*
X128967957Y-87830000D01*
X128967957Y-88193924D01*
X128761550Y-88195000D01*
X128602800Y-88353750D01*
X128602800Y-89003000D01*
X129827050Y-89003000D01*
X129985800Y-88844250D01*
X129988872Y-88830000D01*
X129987182Y-88812843D01*
X130203974Y-88812843D01*
X130234927Y-88819000D01*
X130369073Y-88819000D01*
X130400026Y-88812843D01*
X131100800Y-88812843D01*
X131175489Y-88805487D01*
X131247308Y-88783701D01*
X131313496Y-88748322D01*
X131371511Y-88700711D01*
X131419122Y-88642696D01*
X131454501Y-88576508D01*
X131476287Y-88504689D01*
X131483643Y-88430000D01*
X131483643Y-87830000D01*
X131476287Y-87755311D01*
X131454501Y-87683492D01*
X131419122Y-87617304D01*
X131371511Y-87559289D01*
X131313496Y-87511678D01*
X131247308Y-87476299D01*
X131175489Y-87454513D01*
X131100800Y-87447157D01*
X129731953Y-87447157D01*
X129733643Y-87430000D01*
X129733643Y-86830000D01*
X129731953Y-86812843D01*
X131100800Y-86812843D01*
X131175489Y-86805487D01*
X131247308Y-86783701D01*
X131313496Y-86748322D01*
X131371511Y-86700711D01*
X131419122Y-86642696D01*
X131454501Y-86576508D01*
X131476287Y-86504689D01*
X131483643Y-86430000D01*
X131483643Y-85830000D01*
X131476287Y-85755311D01*
X131454501Y-85683492D01*
X131419122Y-85617304D01*
X131402394Y-85596921D01*
X131471942Y-85568113D01*
X131599859Y-85482642D01*
X131708642Y-85373859D01*
X131794113Y-85245942D01*
X131852987Y-85103809D01*
X131871448Y-85011000D01*
X132025000Y-85011000D01*
X132025000Y-83778000D01*
X130682482Y-83778000D01*
X130559481Y-83988258D01*
X130571922Y-84054117D01*
X130649596Y-84238986D01*
X130604141Y-84269358D01*
X130495358Y-84378141D01*
X130409887Y-84506058D01*
X130351013Y-84648191D01*
X130321000Y-84799078D01*
X130321000Y-84952922D01*
X130351013Y-85103809D01*
X130409887Y-85245942D01*
X130495358Y-85373859D01*
X130568656Y-85447157D01*
X130480461Y-85447157D01*
X130369073Y-85425000D01*
X130234927Y-85425000D01*
X130123539Y-85447157D01*
X129350800Y-85447157D01*
X129276111Y-85454513D01*
X129204292Y-85476299D01*
X129138104Y-85511678D01*
X129080089Y-85559289D01*
X129032478Y-85617304D01*
X128997099Y-85683492D01*
X128975313Y-85755311D01*
X128967957Y-85830000D01*
X128967957Y-86430000D01*
X128969647Y-86447157D01*
X128622026Y-86447157D01*
X128591073Y-86441000D01*
X128456927Y-86441000D01*
X128425974Y-86447157D01*
X128397000Y-86447157D01*
X128397000Y-84711000D01*
X128804000Y-84711000D01*
X129037619Y-84662974D01*
X129257380Y-84570294D01*
X129454837Y-84436521D01*
X129622402Y-84266797D01*
X129753636Y-84067644D01*
X129843496Y-83846715D01*
X129845635Y-83814677D01*
X129720550Y-83628000D01*
X128479000Y-83628000D01*
X128479000Y-83648000D01*
X128397000Y-83648000D01*
X128397000Y-83354000D01*
X128479000Y-83354000D01*
X128479000Y-83374000D01*
X129720550Y-83374000D01*
X129760926Y-83313742D01*
X130559481Y-83313742D01*
X130682482Y-83524000D01*
X132025000Y-83524000D01*
X132025000Y-82291000D01*
X131750000Y-82291000D01*
X131487117Y-82341908D01*
X131239217Y-82443124D01*
X131015827Y-82590758D01*
X130825531Y-82779137D01*
X130675643Y-83001021D01*
X130571922Y-83247883D01*
X130559481Y-83313742D01*
X129760926Y-83313742D01*
X129845635Y-83187323D01*
X129843496Y-83155285D01*
X129753636Y-82934356D01*
X129622402Y-82735203D01*
X129454837Y-82565479D01*
X129257380Y-82431706D01*
X129037619Y-82339026D01*
X128804000Y-82291000D01*
X128397000Y-82291000D01*
X128397000Y-77597000D01*
X133264157Y-77597000D01*
X133264157Y-79682000D01*
G37*
X133264157Y-79682000D02*
X133276317Y-79805462D01*
X133312329Y-79924179D01*
X133370810Y-80033589D01*
X133449512Y-80129488D01*
X133545411Y-80208190D01*
X133654821Y-80266671D01*
X133773538Y-80302683D01*
X133897000Y-80314843D01*
X134897000Y-80314843D01*
X135020462Y-80302683D01*
X135139179Y-80266671D01*
X135248589Y-80208190D01*
X135344488Y-80129488D01*
X135423190Y-80033589D01*
X135481671Y-79924179D01*
X135517683Y-79805462D01*
X135529843Y-79682000D01*
X135529843Y-77597000D01*
X139964157Y-77597000D01*
X139964157Y-79682000D01*
X139976317Y-79805462D01*
X140012329Y-79924179D01*
X140070810Y-80033589D01*
X140149512Y-80129488D01*
X140245411Y-80208190D01*
X140354821Y-80266671D01*
X140473538Y-80302683D01*
X140597000Y-80314843D01*
X141597000Y-80314843D01*
X141720462Y-80302683D01*
X141839179Y-80266671D01*
X141948589Y-80208190D01*
X142044488Y-80129488D01*
X142123190Y-80033589D01*
X142181671Y-79924179D01*
X142217683Y-79805462D01*
X142229843Y-79682000D01*
X142229843Y-77597000D01*
X142277157Y-77597000D01*
X142277157Y-78320000D01*
X142284513Y-78394689D01*
X142306299Y-78466508D01*
X142341678Y-78532696D01*
X142389289Y-78590711D01*
X142447304Y-78638322D01*
X142513492Y-78673701D01*
X142585311Y-78695487D01*
X142660000Y-78702843D01*
X143446501Y-78702843D01*
X143446500Y-81962124D01*
X143444538Y-81962317D01*
X143325821Y-81998329D01*
X143216411Y-82056810D01*
X143120512Y-82135512D01*
X143041810Y-82231411D01*
X142983329Y-82340821D01*
X142947317Y-82459538D01*
X142944661Y-82486500D01*
X139699071Y-82486500D01*
X139670999Y-82483735D01*
X139642927Y-82486500D01*
X139642926Y-82486500D01*
X139629843Y-82487789D01*
X139629843Y-82482000D01*
X139617683Y-82358538D01*
X139581671Y-82239821D01*
X139523190Y-82130411D01*
X139444488Y-82034512D01*
X139348589Y-81955810D01*
X139239179Y-81897329D01*
X139120462Y-81861317D01*
X139089179Y-81858236D01*
X139087220Y-81856628D01*
X138297376Y-81066785D01*
X138281527Y-81047473D01*
X138204479Y-80984241D01*
X138116575Y-80937255D01*
X138021193Y-80908322D01*
X137946854Y-80901000D01*
X137946846Y-80901000D01*
X137922000Y-80898553D01*
X137897154Y-80901000D01*
X135025845Y-80901000D01*
X135000999Y-80898553D01*
X134976153Y-80901000D01*
X134976146Y-80901000D01*
X134911694Y-80907348D01*
X134901806Y-80908322D01*
X134879607Y-80915056D01*
X134806425Y-80937255D01*
X134718521Y-80984241D01*
X134641473Y-81047473D01*
X134625628Y-81066780D01*
X133527779Y-82164630D01*
X133508473Y-82180474D01*
X133445241Y-82257522D01*
X133437959Y-82271146D01*
X133398254Y-82345427D01*
X133369321Y-82440809D01*
X133359552Y-82540001D01*
X133362000Y-82564857D01*
X133362000Y-82663841D01*
X133288173Y-82590758D01*
X133064783Y-82443124D01*
X132816883Y-82341908D01*
X132554000Y-82291000D01*
X132279000Y-82291000D01*
X132279000Y-83524000D01*
X132299000Y-83524000D01*
X132299000Y-83778000D01*
X132279000Y-83778000D01*
X132279000Y-85011000D01*
X132554000Y-85011000D01*
X132816883Y-84960092D01*
X133064783Y-84858876D01*
X133288173Y-84711242D01*
X133362000Y-84638159D01*
X133361999Y-87778155D01*
X133359552Y-87803001D01*
X133361999Y-87827847D01*
X133361999Y-87827854D01*
X133369321Y-87902193D01*
X133398254Y-87997575D01*
X133445240Y-88085480D01*
X133508472Y-88162528D01*
X133527784Y-88178377D01*
X133817623Y-88468216D01*
X133833472Y-88487528D01*
X133910520Y-88550760D01*
X133998424Y-88597746D01*
X134063619Y-88617522D01*
X134093805Y-88626679D01*
X134103693Y-88627653D01*
X134168145Y-88634001D01*
X134168152Y-88634001D01*
X134192998Y-88636448D01*
X134217844Y-88634001D01*
X144899410Y-88634001D01*
X145399484Y-89134076D01*
X145327810Y-89221411D01*
X145269329Y-89330821D01*
X145233317Y-89449538D01*
X145224057Y-89543557D01*
X145215683Y-89458538D01*
X145179671Y-89339821D01*
X145121190Y-89230411D01*
X145042488Y-89134512D01*
X144946589Y-89055810D01*
X144837179Y-88997329D01*
X144718462Y-88961317D01*
X144595001Y-88949157D01*
X143694999Y-88949157D01*
X143571538Y-88961317D01*
X143452821Y-88997329D01*
X143343411Y-89055810D01*
X143247512Y-89134512D01*
X143168810Y-89230411D01*
X143110329Y-89339821D01*
X143074317Y-89458538D01*
X143062157Y-89581999D01*
X143062157Y-90232001D01*
X143074317Y-90355462D01*
X143110329Y-90474179D01*
X143168810Y-90583589D01*
X143247512Y-90679488D01*
X143338780Y-90754389D01*
X143320518Y-90756188D01*
X143200820Y-90792498D01*
X143090506Y-90851463D01*
X142993815Y-90930815D01*
X142914463Y-91027506D01*
X142855498Y-91137820D01*
X142819188Y-91257518D01*
X142806928Y-91382000D01*
X142810000Y-91671250D01*
X142968750Y-91830000D01*
X144018000Y-91830000D01*
X144018000Y-91810000D01*
X144272000Y-91810000D01*
X144272000Y-91830000D01*
X144292000Y-91830000D01*
X144292000Y-92084000D01*
X144272000Y-92084000D01*
X144272000Y-93008250D01*
X144430750Y-93167000D01*
X144845000Y-93170072D01*
X144969482Y-93157812D01*
X145089180Y-93121502D01*
X145199494Y-93062537D01*
X145296185Y-92983185D01*
X145375537Y-92886494D01*
X145434502Y-92776180D01*
X145442449Y-92749981D01*
X145502411Y-92799190D01*
X145611821Y-92857671D01*
X145730538Y-92893683D01*
X145798000Y-92900328D01*
X145798000Y-92975155D01*
X145795553Y-93000002D01*
X145798000Y-93024848D01*
X145798000Y-93024855D01*
X145805322Y-93099194D01*
X145834255Y-93194576D01*
X145881241Y-93282481D01*
X145944473Y-93359529D01*
X145963785Y-93375378D01*
X148178626Y-95590220D01*
X148194471Y-95609527D01*
X148271519Y-95672759D01*
X148359423Y-95719745D01*
X148454805Y-95748678D01*
X148553998Y-95758448D01*
X148578852Y-95756000D01*
X159308921Y-95756000D01*
X159331888Y-95778967D01*
X159443426Y-95853494D01*
X159567360Y-95904829D01*
X159698927Y-95931000D01*
X159833073Y-95931000D01*
X159964640Y-95904829D01*
X160088574Y-95853494D01*
X160200112Y-95778967D01*
X160294967Y-95684112D01*
X160369494Y-95572574D01*
X160420829Y-95448640D01*
X160447000Y-95317073D01*
X160447000Y-95182927D01*
X160420829Y-95051360D01*
X160369494Y-94927426D01*
X160294967Y-94815888D01*
X160200112Y-94721033D01*
X160088574Y-94646506D01*
X159964640Y-94595171D01*
X159833073Y-94569000D01*
X159698927Y-94569000D01*
X159567360Y-94595171D01*
X159443426Y-94646506D01*
X159331888Y-94721033D01*
X159308921Y-94744000D01*
X157331440Y-94744000D01*
X157372502Y-94667180D01*
X157408812Y-94547482D01*
X157421072Y-94423000D01*
X157418000Y-94133750D01*
X157259250Y-93975000D01*
X156210000Y-93975000D01*
X156210000Y-93995000D01*
X155956000Y-93995000D01*
X155956000Y-93975000D01*
X154178000Y-93975000D01*
X154178000Y-93995000D01*
X153924000Y-93995000D01*
X153924000Y-93975000D01*
X152874750Y-93975000D01*
X152716000Y-94133750D01*
X152712928Y-94423000D01*
X152725188Y-94547482D01*
X152761498Y-94667180D01*
X152802560Y-94744000D01*
X148763590Y-94744000D01*
X148383941Y-94364351D01*
X148452612Y-94318467D01*
X148475579Y-94295500D01*
X150406654Y-94295500D01*
X150431500Y-94297947D01*
X150456346Y-94295500D01*
X150456354Y-94295500D01*
X150530693Y-94288178D01*
X150626075Y-94259245D01*
X150713979Y-94212259D01*
X150791027Y-94149027D01*
X150806876Y-94129715D01*
X152968157Y-91968434D01*
X152968157Y-92123001D01*
X152980317Y-92246462D01*
X153016329Y-92365179D01*
X153074810Y-92474589D01*
X153153512Y-92570488D01*
X153244780Y-92645389D01*
X153226518Y-92647188D01*
X153106820Y-92683498D01*
X152996506Y-92742463D01*
X152899815Y-92821815D01*
X152820463Y-92918506D01*
X152761498Y-93028820D01*
X152725188Y-93148518D01*
X152712928Y-93273000D01*
X152716000Y-93562250D01*
X152874750Y-93721000D01*
X153924000Y-93721000D01*
X153924000Y-93701000D01*
X154178000Y-93701000D01*
X154178000Y-93721000D01*
X155956000Y-93721000D01*
X155956000Y-93701000D01*
X156210000Y-93701000D01*
X156210000Y-93721000D01*
X157259250Y-93721000D01*
X157418000Y-93562250D01*
X157421072Y-93273000D01*
X157408812Y-93148518D01*
X157372502Y-93028820D01*
X157313537Y-92918506D01*
X157234185Y-92821815D01*
X157137494Y-92742463D01*
X157027180Y-92683498D01*
X156907482Y-92647188D01*
X156889220Y-92645389D01*
X156980488Y-92570488D01*
X157059190Y-92474589D01*
X157117671Y-92365179D01*
X157153683Y-92246462D01*
X157165843Y-92123001D01*
X157165843Y-91472999D01*
X157153683Y-91349538D01*
X157117671Y-91230821D01*
X157059190Y-91121411D01*
X156980488Y-91025512D01*
X156884589Y-90946810D01*
X156775179Y-90888329D01*
X156656462Y-90852317D01*
X156654500Y-90852124D01*
X156654500Y-90579074D01*
X156657265Y-90551000D01*
X156646231Y-90438966D01*
X156613552Y-90331238D01*
X156560484Y-90231955D01*
X156506963Y-90166739D01*
X156506961Y-90166737D01*
X156489067Y-90144933D01*
X156467262Y-90127038D01*
X155987064Y-89646841D01*
X155975829Y-89590360D01*
X155924494Y-89466426D01*
X155849967Y-89354888D01*
X155839579Y-89344500D01*
X155849967Y-89334112D01*
X155924494Y-89222574D01*
X155975829Y-89098640D01*
X156002000Y-88967073D01*
X156002000Y-88832927D01*
X155975829Y-88701360D01*
X155924494Y-88577426D01*
X155849967Y-88465888D01*
X155755112Y-88371033D01*
X155643574Y-88296506D01*
X155519640Y-88245171D01*
X155388073Y-88219000D01*
X155253927Y-88219000D01*
X155122360Y-88245171D01*
X154998426Y-88296506D01*
X154886888Y-88371033D01*
X154792033Y-88465888D01*
X154717506Y-88577426D01*
X154666171Y-88701360D01*
X154640000Y-88832927D01*
X154640000Y-88865408D01*
X150221909Y-93283500D01*
X148475579Y-93283500D01*
X148452612Y-93260533D01*
X148341074Y-93186006D01*
X148217140Y-93134671D01*
X148085573Y-93108500D01*
X147951427Y-93108500D01*
X147819860Y-93134671D01*
X147695926Y-93186006D01*
X147584388Y-93260533D01*
X147489533Y-93355388D01*
X147443649Y-93424059D01*
X146904938Y-92885348D01*
X146996179Y-92857671D01*
X147105589Y-92799190D01*
X147201488Y-92720488D01*
X147280190Y-92624589D01*
X147338671Y-92515179D01*
X147374683Y-92396462D01*
X147386843Y-92273001D01*
X147386843Y-91622999D01*
X147374683Y-91499538D01*
X147338671Y-91380821D01*
X147280190Y-91271411D01*
X147201488Y-91175512D01*
X147105589Y-91096810D01*
X146996179Y-91038329D01*
X146877462Y-91002317D01*
X146754001Y-90990157D01*
X146036380Y-90990157D01*
X145902066Y-90855843D01*
X146754001Y-90855843D01*
X146877462Y-90843683D01*
X146996179Y-90807671D01*
X147105589Y-90749190D01*
X147201488Y-90670488D01*
X147280190Y-90574589D01*
X147338671Y-90465179D01*
X147374683Y-90346462D01*
X147386843Y-90223001D01*
X147386843Y-89572999D01*
X147374683Y-89449538D01*
X147338671Y-89330821D01*
X147280190Y-89221411D01*
X147201488Y-89125512D01*
X147105589Y-89046810D01*
X146996179Y-88988329D01*
X146877462Y-88952317D01*
X146754001Y-88940157D01*
X146636749Y-88940157D01*
X145705591Y-88009000D01*
X168531273Y-88009000D01*
X168560506Y-88079574D01*
X168635033Y-88191112D01*
X168729888Y-88285967D01*
X168796537Y-88330500D01*
X161366079Y-88330500D01*
X161343112Y-88307533D01*
X161231574Y-88233006D01*
X161107640Y-88181671D01*
X160976073Y-88155500D01*
X160841927Y-88155500D01*
X160710360Y-88181671D01*
X160586426Y-88233006D01*
X160474888Y-88307533D01*
X160380033Y-88402388D01*
X160305506Y-88513926D01*
X160254171Y-88637860D01*
X160228000Y-88769427D01*
X160228000Y-88903573D01*
X160254171Y-89035140D01*
X160305506Y-89159074D01*
X160380033Y-89270612D01*
X160474888Y-89365467D01*
X160586426Y-89439994D01*
X160710360Y-89491329D01*
X160841927Y-89517500D01*
X160976073Y-89517500D01*
X161107640Y-89491329D01*
X161231574Y-89439994D01*
X161343112Y-89365467D01*
X161366079Y-89342500D01*
X171062865Y-89342500D01*
X171121102Y-89483097D01*
X171255820Y-89684717D01*
X171427283Y-89856180D01*
X171628903Y-89990898D01*
X171852931Y-90083693D01*
X172090757Y-90131000D01*
X172333243Y-90131000D01*
X172571069Y-90083693D01*
X172795097Y-89990898D01*
X172996717Y-89856180D01*
X173168180Y-89684717D01*
X173302898Y-89483097D01*
X173395693Y-89259069D01*
X173443000Y-89021243D01*
X173443000Y-88778757D01*
X173395693Y-88540931D01*
X173302898Y-88316903D01*
X173245499Y-88230999D01*
X174510408Y-88230999D01*
X174743242Y-88463833D01*
X174711307Y-88540931D01*
X174664000Y-88778757D01*
X174664000Y-89021243D01*
X174711307Y-89259069D01*
X174804102Y-89483097D01*
X174938820Y-89684717D01*
X175110283Y-89856180D01*
X175311903Y-89990898D01*
X175535931Y-90083693D01*
X175773757Y-90131000D01*
X176016243Y-90131000D01*
X176254069Y-90083693D01*
X176403000Y-90022004D01*
X176403000Y-90317996D01*
X176254069Y-90256307D01*
X176016243Y-90209000D01*
X175773757Y-90209000D01*
X175535931Y-90256307D01*
X175311903Y-90349102D01*
X175110283Y-90483820D01*
X174938820Y-90655283D01*
X174923641Y-90678000D01*
X173444843Y-90678000D01*
X173444843Y-90590000D01*
X173437487Y-90515311D01*
X173415701Y-90443492D01*
X173380322Y-90377304D01*
X173332711Y-90319289D01*
X173274696Y-90271678D01*
X173208508Y-90236299D01*
X173136689Y-90214513D01*
X173062000Y-90207157D01*
X171362000Y-90207157D01*
X171336336Y-90209685D01*
X171291494Y-90101426D01*
X171216967Y-89989888D01*
X171122112Y-89895033D01*
X171010574Y-89820506D01*
X170886640Y-89769171D01*
X170755073Y-89743000D01*
X170620927Y-89743000D01*
X170489360Y-89769171D01*
X170365426Y-89820506D01*
X170253888Y-89895033D01*
X170159033Y-89989888D01*
X170084506Y-90101426D01*
X170033171Y-90225360D01*
X170007000Y-90356927D01*
X170007000Y-90491073D01*
X170033171Y-90622640D01*
X170084506Y-90746574D01*
X170159033Y-90858112D01*
X170182000Y-90881079D01*
X170182000Y-90976408D01*
X169462409Y-91696000D01*
X166382579Y-91696000D01*
X166359612Y-91673033D01*
X166248074Y-91598506D01*
X166124140Y-91547171D01*
X165992573Y-91521000D01*
X165858427Y-91521000D01*
X165726860Y-91547171D01*
X165602926Y-91598506D01*
X165491388Y-91673033D01*
X165396533Y-91767888D01*
X165322006Y-91879426D01*
X165270671Y-92003360D01*
X165244500Y-92134927D01*
X165244500Y-92269073D01*
X165270671Y-92400640D01*
X165322006Y-92524574D01*
X165396533Y-92636112D01*
X165491388Y-92730967D01*
X165602926Y-92805494D01*
X165726860Y-92856829D01*
X165858427Y-92883000D01*
X165992573Y-92883000D01*
X166076020Y-92866401D01*
X166031533Y-92910888D01*
X165957006Y-93022426D01*
X165905671Y-93146360D01*
X165879500Y-93277927D01*
X165879500Y-93412073D01*
X165905671Y-93543640D01*
X165957006Y-93667574D01*
X166031533Y-93779112D01*
X166126388Y-93873967D01*
X166237926Y-93948494D01*
X166361860Y-93999829D01*
X166493427Y-94026000D01*
X166627573Y-94026000D01*
X166759140Y-93999829D01*
X166883074Y-93948494D01*
X166930957Y-93916500D01*
X168793543Y-93916500D01*
X168841426Y-93948494D01*
X168965360Y-93999829D01*
X169096927Y-94026000D01*
X169231073Y-94026000D01*
X169362640Y-93999829D01*
X169486574Y-93948494D01*
X169534457Y-93916500D01*
X171509926Y-93916500D01*
X171538000Y-93919265D01*
X171566074Y-93916500D01*
X171650034Y-93908231D01*
X171757762Y-93875552D01*
X171857045Y-93822484D01*
X171944067Y-93751067D01*
X171961970Y-93729252D01*
X172596257Y-93094966D01*
X172618067Y-93077067D01*
X172689484Y-92990045D01*
X172742552Y-92890762D01*
X172775231Y-92783034D01*
X172783500Y-92699074D01*
X172786083Y-92672843D01*
X173062000Y-92672843D01*
X173136689Y-92665487D01*
X173208508Y-92643701D01*
X173274696Y-92608322D01*
X173332711Y-92560711D01*
X173380322Y-92502696D01*
X173415701Y-92436508D01*
X173437487Y-92364689D01*
X173444843Y-92290000D01*
X173444843Y-92202000D01*
X174923641Y-92202000D01*
X174938820Y-92224717D01*
X175110283Y-92396180D01*
X175311903Y-92530898D01*
X175535931Y-92623693D01*
X175773757Y-92671000D01*
X176016243Y-92671000D01*
X176254069Y-92623693D01*
X176403000Y-92562004D01*
X176403000Y-97663000D01*
X172935000Y-97663000D01*
X172935000Y-97662998D01*
X172770815Y-97662998D01*
X172891481Y-97433109D01*
X172794157Y-97158748D01*
X172645178Y-96908645D01*
X172450269Y-96692412D01*
X172216920Y-96518359D01*
X171954099Y-96393175D01*
X171806890Y-96348524D01*
X171577000Y-96469845D01*
X171577000Y-97663000D01*
X171323000Y-97663000D01*
X171323000Y-96469845D01*
X171093110Y-96348524D01*
X170945901Y-96393175D01*
X170683080Y-96518359D01*
X170449731Y-96692412D01*
X170254822Y-96908645D01*
X170105843Y-97158748D01*
X170048228Y-97321168D01*
X170000898Y-97206903D01*
X169866180Y-97005283D01*
X169694717Y-96833820D01*
X169493097Y-96699102D01*
X169269069Y-96606307D01*
X169031243Y-96559000D01*
X168788757Y-96559000D01*
X168550931Y-96606307D01*
X168473833Y-96638242D01*
X168435375Y-96599784D01*
X168435371Y-96599779D01*
X165194875Y-93359284D01*
X165179026Y-93339972D01*
X165101978Y-93276740D01*
X165014074Y-93229754D01*
X164918692Y-93200821D01*
X164844353Y-93193499D01*
X164844345Y-93193499D01*
X164819499Y-93191052D01*
X164794653Y-93193499D01*
X163638684Y-93193499D01*
X163662322Y-93164696D01*
X163697701Y-93098508D01*
X163719487Y-93026689D01*
X163726843Y-92952000D01*
X163726843Y-91452000D01*
X163719487Y-91377311D01*
X163697701Y-91305492D01*
X163662322Y-91239304D01*
X163614711Y-91181289D01*
X163556696Y-91133678D01*
X163490508Y-91098299D01*
X163418689Y-91076513D01*
X163344000Y-91069157D01*
X163066000Y-91069157D01*
X163066000Y-90881079D01*
X163088967Y-90858112D01*
X163163494Y-90746574D01*
X163214829Y-90622640D01*
X163241000Y-90491073D01*
X163241000Y-90356927D01*
X163214829Y-90225360D01*
X163163494Y-90101426D01*
X163088967Y-89989888D01*
X162994112Y-89895033D01*
X162882574Y-89820506D01*
X162758640Y-89769171D01*
X162627073Y-89743000D01*
X162492927Y-89743000D01*
X162361360Y-89769171D01*
X162237426Y-89820506D01*
X162125888Y-89895033D01*
X162052000Y-89968921D01*
X161978112Y-89895033D01*
X161866574Y-89820506D01*
X161742640Y-89769171D01*
X161611073Y-89743000D01*
X161476927Y-89743000D01*
X161345360Y-89769171D01*
X161221426Y-89820506D01*
X161109888Y-89895033D01*
X161036000Y-89968921D01*
X160962112Y-89895033D01*
X160850574Y-89820506D01*
X160726640Y-89769171D01*
X160595073Y-89743000D01*
X160460927Y-89743000D01*
X160329360Y-89769171D01*
X160205426Y-89820506D01*
X160093888Y-89895033D01*
X159999033Y-89989888D01*
X159924506Y-90101426D01*
X159873171Y-90225360D01*
X159847000Y-90356927D01*
X159847000Y-90491073D01*
X159873171Y-90622640D01*
X159924506Y-90746574D01*
X159999033Y-90858112D01*
X160022000Y-90881079D01*
X160022000Y-91069157D01*
X159744000Y-91069157D01*
X159669311Y-91076513D01*
X159597492Y-91098299D01*
X159531304Y-91133678D01*
X159473289Y-91181289D01*
X159425678Y-91239304D01*
X159390299Y-91305492D01*
X159368513Y-91377311D01*
X159361157Y-91452000D01*
X159361157Y-92952000D01*
X159368513Y-93026689D01*
X159390299Y-93098508D01*
X159425678Y-93164696D01*
X159473289Y-93222711D01*
X159531304Y-93270322D01*
X159597492Y-93305701D01*
X159669311Y-93327487D01*
X159744000Y-93334843D01*
X160744000Y-93334843D01*
X160818689Y-93327487D01*
X160890508Y-93305701D01*
X160894000Y-93303834D01*
X160897492Y-93305701D01*
X160969311Y-93327487D01*
X161044000Y-93334843D01*
X162044000Y-93334843D01*
X162083578Y-93330945D01*
X161998888Y-93387533D01*
X161904033Y-93482388D01*
X161829506Y-93593926D01*
X161778171Y-93717860D01*
X161752000Y-93849427D01*
X161752000Y-93983573D01*
X161778171Y-94115140D01*
X161829506Y-94239074D01*
X161904033Y-94350612D01*
X161998888Y-94445467D01*
X162110426Y-94519994D01*
X162234360Y-94571329D01*
X162365927Y-94597500D01*
X162500073Y-94597500D01*
X162631640Y-94571329D01*
X162713611Y-94537376D01*
X162730671Y-94623140D01*
X162782006Y-94747074D01*
X162856533Y-94858612D01*
X162951388Y-94953467D01*
X163062926Y-95027994D01*
X163186860Y-95079329D01*
X163318427Y-95105500D01*
X163452573Y-95105500D01*
X163584140Y-95079329D01*
X163708074Y-95027994D01*
X163819612Y-94953467D01*
X163842579Y-94930500D01*
X163996990Y-94930500D01*
X164252481Y-95185991D01*
X164219140Y-95172181D01*
X164087573Y-95146010D01*
X163953427Y-95146010D01*
X163821860Y-95172181D01*
X163697926Y-95223516D01*
X163586388Y-95298043D01*
X163491533Y-95392898D01*
X163417006Y-95504436D01*
X163365671Y-95628370D01*
X163339500Y-95759937D01*
X163339500Y-95891358D01*
X163331322Y-95918318D01*
X163321553Y-96017510D01*
X163324001Y-96042366D01*
X163324001Y-96667167D01*
X163246903Y-96699102D01*
X163045283Y-96833820D01*
X162873820Y-97005283D01*
X162739102Y-97206903D01*
X162646307Y-97430931D01*
X162600145Y-97663000D01*
X162519855Y-97663000D01*
X162473693Y-97430931D01*
X162380898Y-97206903D01*
X162246180Y-97005283D01*
X162074717Y-96833820D01*
X161873097Y-96699102D01*
X161649069Y-96606307D01*
X161411243Y-96559000D01*
X161168757Y-96559000D01*
X160930931Y-96606307D01*
X160706903Y-96699102D01*
X160505283Y-96833820D01*
X160333820Y-97005283D01*
X160199102Y-97206903D01*
X160106307Y-97430931D01*
X160060145Y-97663000D01*
X159979855Y-97663000D01*
X159933693Y-97430931D01*
X159840898Y-97206903D01*
X159706180Y-97005283D01*
X159534717Y-96833820D01*
X159333097Y-96699102D01*
X159109069Y-96606307D01*
X158871243Y-96559000D01*
X158628757Y-96559000D01*
X158390931Y-96606307D01*
X158166903Y-96699102D01*
X157965283Y-96833820D01*
X157793820Y-97005283D01*
X157659102Y-97206903D01*
X157566307Y-97430931D01*
X157520145Y-97663000D01*
X157439855Y-97663000D01*
X157393693Y-97430931D01*
X157300898Y-97206903D01*
X157166180Y-97005283D01*
X156994717Y-96833820D01*
X156793097Y-96699102D01*
X156569069Y-96606307D01*
X156331243Y-96559000D01*
X156088757Y-96559000D01*
X155850931Y-96606307D01*
X155626903Y-96699102D01*
X155425283Y-96833820D01*
X155253820Y-97005283D01*
X155119102Y-97206903D01*
X155026307Y-97430931D01*
X154980145Y-97663000D01*
X154899855Y-97663000D01*
X154853693Y-97430931D01*
X154760898Y-97206903D01*
X154626180Y-97005283D01*
X154454717Y-96833820D01*
X154253097Y-96699102D01*
X154029069Y-96606307D01*
X153791243Y-96559000D01*
X153548757Y-96559000D01*
X153310931Y-96606307D01*
X153086903Y-96699102D01*
X152885283Y-96833820D01*
X152713820Y-97005283D01*
X152579102Y-97206903D01*
X152486307Y-97430931D01*
X152440145Y-97663000D01*
X152359855Y-97663000D01*
X152313693Y-97430931D01*
X152220898Y-97206903D01*
X152086180Y-97005283D01*
X151914717Y-96833820D01*
X151713097Y-96699102D01*
X151489069Y-96606307D01*
X151251243Y-96559000D01*
X151008757Y-96559000D01*
X150770931Y-96606307D01*
X150546903Y-96699102D01*
X150345283Y-96833820D01*
X150173820Y-97005283D01*
X150039102Y-97206903D01*
X149946307Y-97430931D01*
X149900145Y-97663000D01*
X149819855Y-97663000D01*
X149773693Y-97430931D01*
X149680898Y-97206903D01*
X149546180Y-97005283D01*
X149374717Y-96833820D01*
X149173097Y-96699102D01*
X148949069Y-96606307D01*
X148711243Y-96559000D01*
X148468757Y-96559000D01*
X148230931Y-96606307D01*
X148006903Y-96699102D01*
X147805283Y-96833820D01*
X147633820Y-97005283D01*
X147499102Y-97206903D01*
X147406307Y-97430931D01*
X147360145Y-97663000D01*
X147279855Y-97663000D01*
X147233693Y-97430931D01*
X147140898Y-97206903D01*
X147006180Y-97005283D01*
X146834717Y-96833820D01*
X146633097Y-96699102D01*
X146409069Y-96606307D01*
X146171243Y-96559000D01*
X145928757Y-96559000D01*
X145690931Y-96606307D01*
X145466903Y-96699102D01*
X145265283Y-96833820D01*
X145093820Y-97005283D01*
X144959102Y-97206903D01*
X144866307Y-97430931D01*
X144820145Y-97663000D01*
X144739855Y-97663000D01*
X144693693Y-97430931D01*
X144600898Y-97206903D01*
X144466180Y-97005283D01*
X144294717Y-96833820D01*
X144093097Y-96699102D01*
X143869069Y-96606307D01*
X143631243Y-96559000D01*
X143388757Y-96559000D01*
X143150931Y-96606307D01*
X142926903Y-96699102D01*
X142725283Y-96833820D01*
X142553820Y-97005283D01*
X142419102Y-97206903D01*
X142371772Y-97321168D01*
X142314157Y-97158748D01*
X142165178Y-96908645D01*
X141970269Y-96692412D01*
X141736920Y-96518359D01*
X141474099Y-96393175D01*
X141326890Y-96348524D01*
X141097000Y-96469845D01*
X141097000Y-97663000D01*
X140843000Y-97663000D01*
X140843000Y-96469845D01*
X140613110Y-96348524D01*
X140465901Y-96393175D01*
X140203080Y-96518359D01*
X139969731Y-96692412D01*
X139774822Y-96908645D01*
X139625843Y-97158748D01*
X139568228Y-97321168D01*
X139520898Y-97206903D01*
X139386180Y-97005283D01*
X139214717Y-96833820D01*
X139013097Y-96699102D01*
X138789069Y-96606307D01*
X138551243Y-96559000D01*
X138308757Y-96559000D01*
X138070931Y-96606307D01*
X137846903Y-96699102D01*
X137645283Y-96833820D01*
X137473820Y-97005283D01*
X137339102Y-97206903D01*
X137246307Y-97430931D01*
X137200145Y-97663000D01*
X137119855Y-97663000D01*
X137073693Y-97430931D01*
X136980898Y-97206903D01*
X136846180Y-97005283D01*
X136674717Y-96833820D01*
X136473097Y-96699102D01*
X136249069Y-96606307D01*
X136011243Y-96559000D01*
X135768757Y-96559000D01*
X135530931Y-96606307D01*
X135306903Y-96699102D01*
X135105283Y-96833820D01*
X134933820Y-97005283D01*
X134799102Y-97206903D01*
X134706307Y-97430931D01*
X134660145Y-97663000D01*
X134582843Y-97663000D01*
X134582843Y-96940000D01*
X134575487Y-96865311D01*
X134553701Y-96793492D01*
X134518322Y-96727304D01*
X134470711Y-96669289D01*
X134412696Y-96621678D01*
X134346508Y-96586299D01*
X134274689Y-96564513D01*
X134200000Y-96557157D01*
X134198434Y-96557157D01*
X136523592Y-94232000D01*
X141084421Y-94232000D01*
X141107388Y-94254967D01*
X141218926Y-94329494D01*
X141342860Y-94380829D01*
X141474427Y-94407000D01*
X141608573Y-94407000D01*
X141740140Y-94380829D01*
X141864074Y-94329494D01*
X141975612Y-94254967D01*
X142070467Y-94160112D01*
X142144994Y-94048574D01*
X142196329Y-93924640D01*
X142222500Y-93793073D01*
X142222500Y-93658927D01*
X142196329Y-93527360D01*
X142144994Y-93403426D01*
X142070467Y-93291888D01*
X141975612Y-93197033D01*
X141864074Y-93122506D01*
X141740140Y-93071171D01*
X141608573Y-93045000D01*
X141474427Y-93045000D01*
X141342860Y-93071171D01*
X141218926Y-93122506D01*
X141107388Y-93197033D01*
X141084421Y-93220000D01*
X136338846Y-93220000D01*
X136314000Y-93217553D01*
X136289154Y-93220000D01*
X136289146Y-93220000D01*
X136214807Y-93227322D01*
X136119425Y-93256255D01*
X136031521Y-93303241D01*
X135954473Y-93366473D01*
X135938629Y-93385779D01*
X133009785Y-96314624D01*
X132990473Y-96330473D01*
X132927241Y-96407521D01*
X132880255Y-96495426D01*
X132861530Y-96557157D01*
X132500000Y-96557157D01*
X132425311Y-96564513D01*
X132353492Y-96586299D01*
X132287304Y-96621678D01*
X132229289Y-96669289D01*
X132181678Y-96727304D01*
X132146299Y-96793492D01*
X132124513Y-96865311D01*
X132117157Y-96940000D01*
X132117157Y-97663000D01*
X128397000Y-97663000D01*
X128397000Y-92532000D01*
X142806928Y-92532000D01*
X142819188Y-92656482D01*
X142855498Y-92776180D01*
X142914463Y-92886494D01*
X142993815Y-92983185D01*
X143090506Y-93062537D01*
X143200820Y-93121502D01*
X143320518Y-93157812D01*
X143445000Y-93170072D01*
X143859250Y-93167000D01*
X144018000Y-93008250D01*
X144018000Y-92084000D01*
X142968750Y-92084000D01*
X142810000Y-92242750D01*
X142806928Y-92532000D01*
X128397000Y-92532000D01*
X128397000Y-92461000D01*
X128804000Y-92461000D01*
X129037619Y-92412974D01*
X129257380Y-92320294D01*
X129454837Y-92186521D01*
X129622402Y-92016797D01*
X129753636Y-91817644D01*
X129843496Y-91596715D01*
X129845635Y-91564677D01*
X129760927Y-91438258D01*
X130559481Y-91438258D01*
X130571922Y-91504117D01*
X130675643Y-91750979D01*
X130825531Y-91972863D01*
X131015827Y-92161242D01*
X131239217Y-92308876D01*
X131487117Y-92410092D01*
X131750000Y-92461000D01*
X132025000Y-92461000D01*
X132025000Y-91228000D01*
X132279000Y-91228000D01*
X132279000Y-92461000D01*
X132554000Y-92461000D01*
X132816883Y-92410092D01*
X133064783Y-92308876D01*
X133288173Y-92161242D01*
X133478469Y-91972863D01*
X133628357Y-91750979D01*
X133732078Y-91504117D01*
X133744519Y-91438258D01*
X133621518Y-91228000D01*
X132279000Y-91228000D01*
X132025000Y-91228000D01*
X130682482Y-91228000D01*
X130559481Y-91438258D01*
X129760927Y-91438258D01*
X129720550Y-91378000D01*
X128479000Y-91378000D01*
X128479000Y-91398000D01*
X128397000Y-91398000D01*
X128397000Y-91104000D01*
X128479000Y-91104000D01*
X128479000Y-91124000D01*
X129720550Y-91124000D01*
X129845635Y-90937323D01*
X129843496Y-90905285D01*
X129753636Y-90684356D01*
X129622402Y-90485203D01*
X129454837Y-90315479D01*
X129257380Y-90181706D01*
X129037619Y-90089026D01*
X128924889Y-90065852D01*
X129350800Y-90068072D01*
X129475282Y-90055812D01*
X129594980Y-90019502D01*
X129705294Y-89960537D01*
X129801985Y-89881185D01*
X129869368Y-89799078D01*
X130321000Y-89799078D01*
X130321000Y-89952922D01*
X130351013Y-90103809D01*
X130409887Y-90245942D01*
X130495358Y-90373859D01*
X130604141Y-90482642D01*
X130649596Y-90513014D01*
X130571922Y-90697883D01*
X130559481Y-90763742D01*
X130682482Y-90974000D01*
X132025000Y-90974000D01*
X132025000Y-89741000D01*
X132279000Y-89741000D01*
X132279000Y-90974000D01*
X133621518Y-90974000D01*
X133744519Y-90763742D01*
X133732078Y-90697883D01*
X133628357Y-90451021D01*
X133478469Y-90229137D01*
X133288173Y-90040758D01*
X133064783Y-89893124D01*
X132816883Y-89791908D01*
X132554000Y-89741000D01*
X132279000Y-89741000D01*
X132025000Y-89741000D01*
X131871448Y-89741000D01*
X131852987Y-89648191D01*
X131794113Y-89506058D01*
X131708642Y-89378141D01*
X131599859Y-89269358D01*
X131471942Y-89183887D01*
X131329809Y-89125013D01*
X131178922Y-89095000D01*
X131025078Y-89095000D01*
X130874191Y-89125013D01*
X130732058Y-89183887D01*
X130604141Y-89269358D01*
X130495358Y-89378141D01*
X130409887Y-89506058D01*
X130351013Y-89648191D01*
X130321000Y-89799078D01*
X129869368Y-89799078D01*
X129881337Y-89784494D01*
X129940302Y-89674180D01*
X129976612Y-89554482D01*
X129988872Y-89430000D01*
X129985800Y-89415750D01*
X129827050Y-89257000D01*
X128602800Y-89257000D01*
X128602800Y-89906250D01*
X128737550Y-90041000D01*
X128397000Y-90041000D01*
X128397000Y-87812843D01*
X128969647Y-87812843D01*
X128967957Y-87830000D01*
X128967957Y-88193924D01*
X128761550Y-88195000D01*
X128602800Y-88353750D01*
X128602800Y-89003000D01*
X129827050Y-89003000D01*
X129985800Y-88844250D01*
X129988872Y-88830000D01*
X129987182Y-88812843D01*
X130203974Y-88812843D01*
X130234927Y-88819000D01*
X130369073Y-88819000D01*
X130400026Y-88812843D01*
X131100800Y-88812843D01*
X131175489Y-88805487D01*
X131247308Y-88783701D01*
X131313496Y-88748322D01*
X131371511Y-88700711D01*
X131419122Y-88642696D01*
X131454501Y-88576508D01*
X131476287Y-88504689D01*
X131483643Y-88430000D01*
X131483643Y-87830000D01*
X131476287Y-87755311D01*
X131454501Y-87683492D01*
X131419122Y-87617304D01*
X131371511Y-87559289D01*
X131313496Y-87511678D01*
X131247308Y-87476299D01*
X131175489Y-87454513D01*
X131100800Y-87447157D01*
X129731953Y-87447157D01*
X129733643Y-87430000D01*
X129733643Y-86830000D01*
X129731953Y-86812843D01*
X131100800Y-86812843D01*
X131175489Y-86805487D01*
X131247308Y-86783701D01*
X131313496Y-86748322D01*
X131371511Y-86700711D01*
X131419122Y-86642696D01*
X131454501Y-86576508D01*
X131476287Y-86504689D01*
X131483643Y-86430000D01*
X131483643Y-85830000D01*
X131476287Y-85755311D01*
X131454501Y-85683492D01*
X131419122Y-85617304D01*
X131402394Y-85596921D01*
X131471942Y-85568113D01*
X131599859Y-85482642D01*
X131708642Y-85373859D01*
X131794113Y-85245942D01*
X131852987Y-85103809D01*
X131871448Y-85011000D01*
X132025000Y-85011000D01*
X132025000Y-83778000D01*
X130682482Y-83778000D01*
X130559481Y-83988258D01*
X130571922Y-84054117D01*
X130649596Y-84238986D01*
X130604141Y-84269358D01*
X130495358Y-84378141D01*
X130409887Y-84506058D01*
X130351013Y-84648191D01*
X130321000Y-84799078D01*
X130321000Y-84952922D01*
X130351013Y-85103809D01*
X130409887Y-85245942D01*
X130495358Y-85373859D01*
X130568656Y-85447157D01*
X130480461Y-85447157D01*
X130369073Y-85425000D01*
X130234927Y-85425000D01*
X130123539Y-85447157D01*
X129350800Y-85447157D01*
X129276111Y-85454513D01*
X129204292Y-85476299D01*
X129138104Y-85511678D01*
X129080089Y-85559289D01*
X129032478Y-85617304D01*
X128997099Y-85683492D01*
X128975313Y-85755311D01*
X128967957Y-85830000D01*
X128967957Y-86430000D01*
X128969647Y-86447157D01*
X128622026Y-86447157D01*
X128591073Y-86441000D01*
X128456927Y-86441000D01*
X128425974Y-86447157D01*
X128397000Y-86447157D01*
X128397000Y-84711000D01*
X128804000Y-84711000D01*
X129037619Y-84662974D01*
X129257380Y-84570294D01*
X129454837Y-84436521D01*
X129622402Y-84266797D01*
X129753636Y-84067644D01*
X129843496Y-83846715D01*
X129845635Y-83814677D01*
X129720550Y-83628000D01*
X128479000Y-83628000D01*
X128479000Y-83648000D01*
X128397000Y-83648000D01*
X128397000Y-83354000D01*
X128479000Y-83354000D01*
X128479000Y-83374000D01*
X129720550Y-83374000D01*
X129760926Y-83313742D01*
X130559481Y-83313742D01*
X130682482Y-83524000D01*
X132025000Y-83524000D01*
X132025000Y-82291000D01*
X131750000Y-82291000D01*
X131487117Y-82341908D01*
X131239217Y-82443124D01*
X131015827Y-82590758D01*
X130825531Y-82779137D01*
X130675643Y-83001021D01*
X130571922Y-83247883D01*
X130559481Y-83313742D01*
X129760926Y-83313742D01*
X129845635Y-83187323D01*
X129843496Y-83155285D01*
X129753636Y-82934356D01*
X129622402Y-82735203D01*
X129454837Y-82565479D01*
X129257380Y-82431706D01*
X129037619Y-82339026D01*
X128804000Y-82291000D01*
X128397000Y-82291000D01*
X128397000Y-77597000D01*
X133264157Y-77597000D01*
X133264157Y-79682000D01*
G36*
X145508171Y-79458360D02*
G01*
X145482000Y-79589927D01*
X145482000Y-79724073D01*
X145508171Y-79855640D01*
X145559506Y-79979574D01*
X145634033Y-80091112D01*
X145728888Y-80185967D01*
X145840426Y-80260494D01*
X145964360Y-80311829D01*
X146095927Y-80338000D01*
X146230073Y-80338000D01*
X146361640Y-80311829D01*
X146485574Y-80260494D01*
X146533457Y-80228500D01*
X150975982Y-80228500D01*
X150957000Y-80323927D01*
X150957000Y-80458073D01*
X150983171Y-80589640D01*
X151034506Y-80713574D01*
X151109033Y-80825112D01*
X151203888Y-80919967D01*
X151315426Y-80994494D01*
X151439360Y-81045829D01*
X151570927Y-81072000D01*
X151705073Y-81072000D01*
X151836640Y-81045829D01*
X151960574Y-80994494D01*
X152072112Y-80919967D01*
X152166967Y-80825112D01*
X152241494Y-80713574D01*
X152292829Y-80589640D01*
X152319000Y-80458073D01*
X152319000Y-80323927D01*
X152300018Y-80228500D01*
X155432278Y-80228500D01*
X156579187Y-81375410D01*
X156543171Y-81462360D01*
X156517000Y-81593927D01*
X156517000Y-81728073D01*
X156543171Y-81859640D01*
X156594506Y-81983574D01*
X156669033Y-82095112D01*
X156763888Y-82189967D01*
X156875426Y-82264494D01*
X156999360Y-82315829D01*
X157130927Y-82342000D01*
X157265073Y-82342000D01*
X157396640Y-82315829D01*
X157520574Y-82264494D01*
X157632112Y-82189967D01*
X157726967Y-82095112D01*
X157801494Y-81983574D01*
X157852829Y-81859640D01*
X157879000Y-81728073D01*
X157879000Y-81593927D01*
X157852829Y-81462360D01*
X157801494Y-81338426D01*
X157769500Y-81290543D01*
X157769500Y-81214074D01*
X157772265Y-81186000D01*
X157761231Y-81073967D01*
X157760635Y-81072000D01*
X157728552Y-80966238D01*
X157675484Y-80866955D01*
X157604067Y-80779933D01*
X157582258Y-80762035D01*
X157048723Y-80228500D01*
X164701543Y-80228500D01*
X164749426Y-80260494D01*
X164873360Y-80311829D01*
X165004927Y-80338000D01*
X165139073Y-80338000D01*
X165270640Y-80311829D01*
X165394574Y-80260494D01*
X165422724Y-80241685D01*
X165144409Y-80520000D01*
X162001079Y-80520000D01*
X161978112Y-80497033D01*
X161866574Y-80422506D01*
X161742640Y-80371171D01*
X161611073Y-80345000D01*
X161476927Y-80345000D01*
X161345360Y-80371171D01*
X161221426Y-80422506D01*
X161109888Y-80497033D01*
X161015033Y-80591888D01*
X160940506Y-80703426D01*
X160889171Y-80827360D01*
X160863000Y-80958927D01*
X160863000Y-81093073D01*
X160878235Y-81169661D01*
X160790140Y-81133171D01*
X160658573Y-81107000D01*
X160524427Y-81107000D01*
X160392860Y-81133171D01*
X160268926Y-81184506D01*
X160157388Y-81259033D01*
X160062533Y-81353888D01*
X159988006Y-81465426D01*
X159936671Y-81589360D01*
X159910500Y-81720927D01*
X159910500Y-81855073D01*
X159936671Y-81986640D01*
X159988006Y-82110574D01*
X160062533Y-82222112D01*
X160157388Y-82316967D01*
X160268926Y-82391494D01*
X160392860Y-82442829D01*
X160524427Y-82469000D01*
X160658573Y-82469000D01*
X160790140Y-82442829D01*
X160914074Y-82391494D01*
X161025612Y-82316967D01*
X161048579Y-82294000D01*
X163987233Y-82294000D01*
X163937171Y-82414860D01*
X163911000Y-82546427D01*
X163911000Y-82680573D01*
X163937171Y-82812140D01*
X163988506Y-82936074D01*
X164063033Y-83047612D01*
X164157888Y-83142467D01*
X164269426Y-83216994D01*
X164393360Y-83268329D01*
X164524927Y-83294500D01*
X164557409Y-83294500D01*
X166121628Y-84858720D01*
X166137473Y-84878027D01*
X166214521Y-84941259D01*
X166302425Y-84988245D01*
X166397807Y-85017178D01*
X166497000Y-85026948D01*
X166521854Y-85024500D01*
X168446409Y-85024500D01*
X171396506Y-87974597D01*
X171255820Y-88115283D01*
X171121102Y-88316903D01*
X171115470Y-88330500D01*
X169531463Y-88330500D01*
X169598112Y-88285967D01*
X169692967Y-88191112D01*
X169767494Y-88079574D01*
X169818829Y-87955640D01*
X169845000Y-87824073D01*
X169845000Y-87689927D01*
X169818829Y-87558360D01*
X169767494Y-87434426D01*
X169692967Y-87322888D01*
X169619079Y-87249000D01*
X169692967Y-87175112D01*
X169767494Y-87063574D01*
X169818829Y-86939640D01*
X169845000Y-86808073D01*
X169845000Y-86673927D01*
X169818829Y-86542360D01*
X169767494Y-86418426D01*
X169692967Y-86306888D01*
X169598112Y-86212033D01*
X169486574Y-86137506D01*
X169362640Y-86086171D01*
X169231073Y-86060000D01*
X169096927Y-86060000D01*
X168965360Y-86086171D01*
X168841426Y-86137506D01*
X168729888Y-86212033D01*
X168706921Y-86235000D01*
X137635048Y-86235000D01*
X137698185Y-86183185D01*
X137777537Y-86086494D01*
X137836502Y-85976180D01*
X137872812Y-85856482D01*
X137885072Y-85732000D01*
X137884866Y-85633643D01*
X137912329Y-85724179D01*
X137970810Y-85833589D01*
X138049512Y-85929488D01*
X138145411Y-86008190D01*
X138254821Y-86066671D01*
X138373538Y-86102683D01*
X138497000Y-86114843D01*
X138997000Y-86114843D01*
X139120462Y-86102683D01*
X139239179Y-86066671D01*
X139348589Y-86008190D01*
X139444488Y-85929488D01*
X139523190Y-85833589D01*
X139581671Y-85724179D01*
X139617683Y-85605462D01*
X139624819Y-85533000D01*
X142679928Y-85533000D01*
X142692188Y-85657482D01*
X142728498Y-85777180D01*
X142787463Y-85887494D01*
X142866815Y-85984185D01*
X142963506Y-86063537D01*
X143073820Y-86122502D01*
X143193518Y-86158812D01*
X143318000Y-86171072D01*
X143732250Y-86168000D01*
X143891000Y-86009250D01*
X143891000Y-85085000D01*
X142841750Y-85085000D01*
X142683000Y-85243750D01*
X142679928Y-85533000D01*
X139624819Y-85533000D01*
X139629843Y-85482000D01*
X139629843Y-83907380D01*
X139907723Y-83629500D01*
X143078667Y-83629500D01*
X143120512Y-83680488D01*
X143211780Y-83755389D01*
X143193518Y-83757188D01*
X143073820Y-83793498D01*
X142963506Y-83852463D01*
X142866815Y-83931815D01*
X142787463Y-84028506D01*
X142728498Y-84138820D01*
X142692188Y-84258518D01*
X142679928Y-84383000D01*
X142683000Y-84672250D01*
X142841750Y-84831000D01*
X143891000Y-84831000D01*
X143891000Y-84811000D01*
X144145000Y-84811000D01*
X144145000Y-84831000D01*
X144165000Y-84831000D01*
X144165000Y-85085000D01*
X144145000Y-85085000D01*
X144145000Y-86009250D01*
X144303750Y-86168000D01*
X144718000Y-86171072D01*
X144842482Y-86158812D01*
X144962180Y-86122502D01*
X145072494Y-86063537D01*
X145169185Y-85984185D01*
X145248537Y-85887494D01*
X145307502Y-85777180D01*
X145343812Y-85657482D01*
X145348996Y-85604843D01*
X146369000Y-85604843D01*
X146443689Y-85597487D01*
X146515508Y-85575701D01*
X146581696Y-85540322D01*
X146639711Y-85492711D01*
X146687322Y-85434696D01*
X146707621Y-85396719D01*
X146718193Y-85395678D01*
X146813575Y-85366745D01*
X146901479Y-85319759D01*
X146978527Y-85256527D01*
X146994376Y-85237215D01*
X147126157Y-85105434D01*
X147126157Y-85222000D01*
X147133513Y-85296689D01*
X147155299Y-85368508D01*
X147190678Y-85434696D01*
X147238289Y-85492711D01*
X147296304Y-85540322D01*
X147362492Y-85575701D01*
X147434311Y-85597487D01*
X147509000Y-85604843D01*
X148569000Y-85604843D01*
X148643689Y-85597487D01*
X148715508Y-85575701D01*
X148781696Y-85540322D01*
X148839711Y-85492711D01*
X148859580Y-85468500D01*
X148932226Y-85468500D01*
X148950329Y-85528179D01*
X149008810Y-85637589D01*
X149087512Y-85733488D01*
X149183411Y-85812190D01*
X149292821Y-85870671D01*
X149411538Y-85906683D01*
X149534999Y-85918843D01*
X150185001Y-85918843D01*
X150308462Y-85906683D01*
X150427179Y-85870671D01*
X150536589Y-85812190D01*
X150632488Y-85733488D01*
X150707389Y-85642220D01*
X150709188Y-85660482D01*
X150745498Y-85780180D01*
X150804463Y-85890494D01*
X150883815Y-85987185D01*
X150980506Y-86066537D01*
X151090820Y-86125502D01*
X151210518Y-86161812D01*
X151335000Y-86174072D01*
X151624250Y-86171000D01*
X151783000Y-86012250D01*
X151783000Y-84963000D01*
X151763000Y-84963000D01*
X151763000Y-84709000D01*
X151783000Y-84709000D01*
X151783000Y-84689000D01*
X152037000Y-84689000D01*
X152037000Y-84709000D01*
X152057000Y-84709000D01*
X152057000Y-84963000D01*
X152037000Y-84963000D01*
X152037000Y-86012250D01*
X152195750Y-86171000D01*
X152485000Y-86174072D01*
X152609482Y-86161812D01*
X152729180Y-86125502D01*
X152839494Y-86066537D01*
X152936185Y-85987185D01*
X153015537Y-85890494D01*
X153074502Y-85780180D01*
X153110812Y-85660482D01*
X153123072Y-85536000D01*
X153120000Y-85121750D01*
X152961252Y-84963002D01*
X153042960Y-84963002D01*
X153074810Y-85022589D01*
X153153512Y-85118488D01*
X153249411Y-85197190D01*
X153358821Y-85255671D01*
X153477538Y-85291683D01*
X153600999Y-85303843D01*
X154501001Y-85303843D01*
X154624462Y-85291683D01*
X154743179Y-85255671D01*
X154852589Y-85197190D01*
X154948488Y-85118488D01*
X155027190Y-85022589D01*
X155085671Y-84913179D01*
X155121683Y-84794462D01*
X155133843Y-84671001D01*
X155133843Y-84020999D01*
X155121683Y-83897538D01*
X155085671Y-83778821D01*
X155027190Y-83669411D01*
X154948488Y-83573512D01*
X154852589Y-83494810D01*
X154743179Y-83436329D01*
X154624462Y-83400317D01*
X154501001Y-83388157D01*
X153600999Y-83388157D01*
X153477538Y-83400317D01*
X153358821Y-83436329D01*
X153249411Y-83494810D01*
X153230731Y-83510140D01*
X153191366Y-83470775D01*
X153175517Y-83451463D01*
X153098469Y-83388231D01*
X153010565Y-83341245D01*
X152915183Y-83312312D01*
X152840844Y-83304990D01*
X152840836Y-83304990D01*
X152815990Y-83302543D01*
X152791144Y-83304990D01*
X152525225Y-83304990D01*
X152586589Y-83272190D01*
X152682488Y-83193488D01*
X152761190Y-83097589D01*
X152819671Y-82988179D01*
X152855683Y-82869462D01*
X152862328Y-82802000D01*
X152997771Y-82802000D01*
X153016329Y-82863179D01*
X153074810Y-82972589D01*
X153153512Y-83068488D01*
X153249411Y-83147190D01*
X153358821Y-83205671D01*
X153477538Y-83241683D01*
X153600999Y-83253843D01*
X154501001Y-83253843D01*
X154624462Y-83241683D01*
X154743179Y-83205671D01*
X154852589Y-83147190D01*
X154948488Y-83068488D01*
X155027190Y-82972589D01*
X155085671Y-82863179D01*
X155121683Y-82744462D01*
X155133843Y-82621001D01*
X155133843Y-81970999D01*
X155121683Y-81847538D01*
X155085671Y-81728821D01*
X155027190Y-81619411D01*
X154948488Y-81523512D01*
X154852589Y-81444810D01*
X154743179Y-81386329D01*
X154624462Y-81350317D01*
X154501001Y-81338157D01*
X153600999Y-81338157D01*
X153477538Y-81350317D01*
X153358821Y-81386329D01*
X153249411Y-81444810D01*
X153153512Y-81523512D01*
X153074810Y-81619411D01*
X153016329Y-81728821D01*
X152997771Y-81790000D01*
X152862328Y-81790000D01*
X152855683Y-81722538D01*
X152819671Y-81603821D01*
X152761190Y-81494411D01*
X152682488Y-81398512D01*
X152586589Y-81319810D01*
X152477179Y-81261329D01*
X152358462Y-81225317D01*
X152235001Y-81213157D01*
X151584999Y-81213157D01*
X151461538Y-81225317D01*
X151342821Y-81261329D01*
X151233411Y-81319810D01*
X151137512Y-81398512D01*
X151058810Y-81494411D01*
X151000329Y-81603821D01*
X150964317Y-81722538D01*
X150952157Y-81845999D01*
X150952157Y-82746001D01*
X150964317Y-82869462D01*
X151000329Y-82988179D01*
X151058810Y-83097589D01*
X151137512Y-83193488D01*
X151233411Y-83272190D01*
X151294775Y-83304990D01*
X150475225Y-83304990D01*
X150536589Y-83272190D01*
X150632488Y-83193488D01*
X150711190Y-83097589D01*
X150769671Y-82988179D01*
X150805683Y-82869462D01*
X150817843Y-82746001D01*
X150817843Y-81845999D01*
X150805683Y-81722538D01*
X150769671Y-81603821D01*
X150711190Y-81494411D01*
X150632488Y-81398512D01*
X150536589Y-81319810D01*
X150427179Y-81261329D01*
X150308462Y-81225317D01*
X150185001Y-81213157D01*
X149534999Y-81213157D01*
X149411538Y-81225317D01*
X149292821Y-81261329D01*
X149183411Y-81319810D01*
X149087512Y-81398512D01*
X149008810Y-81494411D01*
X148950329Y-81603821D01*
X148914317Y-81722538D01*
X148902157Y-81845999D01*
X148902157Y-82487058D01*
X148887322Y-82459304D01*
X148839711Y-82401289D01*
X148781696Y-82353678D01*
X148715508Y-82318299D01*
X148643689Y-82296513D01*
X148613019Y-82293492D01*
X148613265Y-82290999D01*
X148608058Y-82238130D01*
X148602231Y-82178966D01*
X148569552Y-82071238D01*
X148516484Y-81971955D01*
X148445067Y-81884933D01*
X148423252Y-81867030D01*
X148086970Y-81530748D01*
X148069067Y-81508933D01*
X147982045Y-81437516D01*
X147882762Y-81384448D01*
X147775034Y-81351769D01*
X147691074Y-81343500D01*
X147663000Y-81340735D01*
X147634926Y-81343500D01*
X145397723Y-81343500D01*
X145170510Y-81116288D01*
X145170510Y-79538712D01*
X145271224Y-79437999D01*
X145516605Y-79437999D01*
X145508171Y-79458360D01*
G37*
X145508171Y-79458360D02*
X145482000Y-79589927D01*
X145482000Y-79724073D01*
X145508171Y-79855640D01*
X145559506Y-79979574D01*
X145634033Y-80091112D01*
X145728888Y-80185967D01*
X145840426Y-80260494D01*
X145964360Y-80311829D01*
X146095927Y-80338000D01*
X146230073Y-80338000D01*
X146361640Y-80311829D01*
X146485574Y-80260494D01*
X146533457Y-80228500D01*
X150975982Y-80228500D01*
X150957000Y-80323927D01*
X150957000Y-80458073D01*
X150983171Y-80589640D01*
X151034506Y-80713574D01*
X151109033Y-80825112D01*
X151203888Y-80919967D01*
X151315426Y-80994494D01*
X151439360Y-81045829D01*
X151570927Y-81072000D01*
X151705073Y-81072000D01*
X151836640Y-81045829D01*
X151960574Y-80994494D01*
X152072112Y-80919967D01*
X152166967Y-80825112D01*
X152241494Y-80713574D01*
X152292829Y-80589640D01*
X152319000Y-80458073D01*
X152319000Y-80323927D01*
X152300018Y-80228500D01*
X155432278Y-80228500D01*
X156579187Y-81375410D01*
X156543171Y-81462360D01*
X156517000Y-81593927D01*
X156517000Y-81728073D01*
X156543171Y-81859640D01*
X156594506Y-81983574D01*
X156669033Y-82095112D01*
X156763888Y-82189967D01*
X156875426Y-82264494D01*
X156999360Y-82315829D01*
X157130927Y-82342000D01*
X157265073Y-82342000D01*
X157396640Y-82315829D01*
X157520574Y-82264494D01*
X157632112Y-82189967D01*
X157726967Y-82095112D01*
X157801494Y-81983574D01*
X157852829Y-81859640D01*
X157879000Y-81728073D01*
X157879000Y-81593927D01*
X157852829Y-81462360D01*
X157801494Y-81338426D01*
X157769500Y-81290543D01*
X157769500Y-81214074D01*
X157772265Y-81186000D01*
X157761231Y-81073967D01*
X157760635Y-81072000D01*
X157728552Y-80966238D01*
X157675484Y-80866955D01*
X157604067Y-80779933D01*
X157582258Y-80762035D01*
X157048723Y-80228500D01*
X164701543Y-80228500D01*
X164749426Y-80260494D01*
X164873360Y-80311829D01*
X165004927Y-80338000D01*
X165139073Y-80338000D01*
X165270640Y-80311829D01*
X165394574Y-80260494D01*
X165422724Y-80241685D01*
X165144409Y-80520000D01*
X162001079Y-80520000D01*
X161978112Y-80497033D01*
X161866574Y-80422506D01*
X161742640Y-80371171D01*
X161611073Y-80345000D01*
X161476927Y-80345000D01*
X161345360Y-80371171D01*
X161221426Y-80422506D01*
X161109888Y-80497033D01*
X161015033Y-80591888D01*
X160940506Y-80703426D01*
X160889171Y-80827360D01*
X160863000Y-80958927D01*
X160863000Y-81093073D01*
X160878235Y-81169661D01*
X160790140Y-81133171D01*
X160658573Y-81107000D01*
X160524427Y-81107000D01*
X160392860Y-81133171D01*
X160268926Y-81184506D01*
X160157388Y-81259033D01*
X160062533Y-81353888D01*
X159988006Y-81465426D01*
X159936671Y-81589360D01*
X159910500Y-81720927D01*
X159910500Y-81855073D01*
X159936671Y-81986640D01*
X159988006Y-82110574D01*
X160062533Y-82222112D01*
X160157388Y-82316967D01*
X160268926Y-82391494D01*
X160392860Y-82442829D01*
X160524427Y-82469000D01*
X160658573Y-82469000D01*
X160790140Y-82442829D01*
X160914074Y-82391494D01*
X161025612Y-82316967D01*
X161048579Y-82294000D01*
X163987233Y-82294000D01*
X163937171Y-82414860D01*
X163911000Y-82546427D01*
X163911000Y-82680573D01*
X163937171Y-82812140D01*
X163988506Y-82936074D01*
X164063033Y-83047612D01*
X164157888Y-83142467D01*
X164269426Y-83216994D01*
X164393360Y-83268329D01*
X164524927Y-83294500D01*
X164557409Y-83294500D01*
X166121628Y-84858720D01*
X166137473Y-84878027D01*
X166214521Y-84941259D01*
X166302425Y-84988245D01*
X166397807Y-85017178D01*
X166497000Y-85026948D01*
X166521854Y-85024500D01*
X168446409Y-85024500D01*
X171396506Y-87974597D01*
X171255820Y-88115283D01*
X171121102Y-88316903D01*
X171115470Y-88330500D01*
X169531463Y-88330500D01*
X169598112Y-88285967D01*
X169692967Y-88191112D01*
X169767494Y-88079574D01*
X169818829Y-87955640D01*
X169845000Y-87824073D01*
X169845000Y-87689927D01*
X169818829Y-87558360D01*
X169767494Y-87434426D01*
X169692967Y-87322888D01*
X169619079Y-87249000D01*
X169692967Y-87175112D01*
X169767494Y-87063574D01*
X169818829Y-86939640D01*
X169845000Y-86808073D01*
X169845000Y-86673927D01*
X169818829Y-86542360D01*
X169767494Y-86418426D01*
X169692967Y-86306888D01*
X169598112Y-86212033D01*
X169486574Y-86137506D01*
X169362640Y-86086171D01*
X169231073Y-86060000D01*
X169096927Y-86060000D01*
X168965360Y-86086171D01*
X168841426Y-86137506D01*
X168729888Y-86212033D01*
X168706921Y-86235000D01*
X137635048Y-86235000D01*
X137698185Y-86183185D01*
X137777537Y-86086494D01*
X137836502Y-85976180D01*
X137872812Y-85856482D01*
X137885072Y-85732000D01*
X137884866Y-85633643D01*
X137912329Y-85724179D01*
X137970810Y-85833589D01*
X138049512Y-85929488D01*
X138145411Y-86008190D01*
X138254821Y-86066671D01*
X138373538Y-86102683D01*
X138497000Y-86114843D01*
X138997000Y-86114843D01*
X139120462Y-86102683D01*
X139239179Y-86066671D01*
X139348589Y-86008190D01*
X139444488Y-85929488D01*
X139523190Y-85833589D01*
X139581671Y-85724179D01*
X139617683Y-85605462D01*
X139624819Y-85533000D01*
X142679928Y-85533000D01*
X142692188Y-85657482D01*
X142728498Y-85777180D01*
X142787463Y-85887494D01*
X142866815Y-85984185D01*
X142963506Y-86063537D01*
X143073820Y-86122502D01*
X143193518Y-86158812D01*
X143318000Y-86171072D01*
X143732250Y-86168000D01*
X143891000Y-86009250D01*
X143891000Y-85085000D01*
X142841750Y-85085000D01*
X142683000Y-85243750D01*
X142679928Y-85533000D01*
X139624819Y-85533000D01*
X139629843Y-85482000D01*
X139629843Y-83907380D01*
X139907723Y-83629500D01*
X143078667Y-83629500D01*
X143120512Y-83680488D01*
X143211780Y-83755389D01*
X143193518Y-83757188D01*
X143073820Y-83793498D01*
X142963506Y-83852463D01*
X142866815Y-83931815D01*
X142787463Y-84028506D01*
X142728498Y-84138820D01*
X142692188Y-84258518D01*
X142679928Y-84383000D01*
X142683000Y-84672250D01*
X142841750Y-84831000D01*
X143891000Y-84831000D01*
X143891000Y-84811000D01*
X144145000Y-84811000D01*
X144145000Y-84831000D01*
X144165000Y-84831000D01*
X144165000Y-85085000D01*
X144145000Y-85085000D01*
X144145000Y-86009250D01*
X144303750Y-86168000D01*
X144718000Y-86171072D01*
X144842482Y-86158812D01*
X144962180Y-86122502D01*
X145072494Y-86063537D01*
X145169185Y-85984185D01*
X145248537Y-85887494D01*
X145307502Y-85777180D01*
X145343812Y-85657482D01*
X145348996Y-85604843D01*
X146369000Y-85604843D01*
X146443689Y-85597487D01*
X146515508Y-85575701D01*
X146581696Y-85540322D01*
X146639711Y-85492711D01*
X146687322Y-85434696D01*
X146707621Y-85396719D01*
X146718193Y-85395678D01*
X146813575Y-85366745D01*
X146901479Y-85319759D01*
X146978527Y-85256527D01*
X146994376Y-85237215D01*
X147126157Y-85105434D01*
X147126157Y-85222000D01*
X147133513Y-85296689D01*
X147155299Y-85368508D01*
X147190678Y-85434696D01*
X147238289Y-85492711D01*
X147296304Y-85540322D01*
X147362492Y-85575701D01*
X147434311Y-85597487D01*
X147509000Y-85604843D01*
X148569000Y-85604843D01*
X148643689Y-85597487D01*
X148715508Y-85575701D01*
X148781696Y-85540322D01*
X148839711Y-85492711D01*
X148859580Y-85468500D01*
X148932226Y-85468500D01*
X148950329Y-85528179D01*
X149008810Y-85637589D01*
X149087512Y-85733488D01*
X149183411Y-85812190D01*
X149292821Y-85870671D01*
X149411538Y-85906683D01*
X149534999Y-85918843D01*
X150185001Y-85918843D01*
X150308462Y-85906683D01*
X150427179Y-85870671D01*
X150536589Y-85812190D01*
X150632488Y-85733488D01*
X150707389Y-85642220D01*
X150709188Y-85660482D01*
X150745498Y-85780180D01*
X150804463Y-85890494D01*
X150883815Y-85987185D01*
X150980506Y-86066537D01*
X151090820Y-86125502D01*
X151210518Y-86161812D01*
X151335000Y-86174072D01*
X151624250Y-86171000D01*
X151783000Y-86012250D01*
X151783000Y-84963000D01*
X151763000Y-84963000D01*
X151763000Y-84709000D01*
X151783000Y-84709000D01*
X151783000Y-84689000D01*
X152037000Y-84689000D01*
X152037000Y-84709000D01*
X152057000Y-84709000D01*
X152057000Y-84963000D01*
X152037000Y-84963000D01*
X152037000Y-86012250D01*
X152195750Y-86171000D01*
X152485000Y-86174072D01*
X152609482Y-86161812D01*
X152729180Y-86125502D01*
X152839494Y-86066537D01*
X152936185Y-85987185D01*
X153015537Y-85890494D01*
X153074502Y-85780180D01*
X153110812Y-85660482D01*
X153123072Y-85536000D01*
X153120000Y-85121750D01*
X152961252Y-84963002D01*
X153042960Y-84963002D01*
X153074810Y-85022589D01*
X153153512Y-85118488D01*
X153249411Y-85197190D01*
X153358821Y-85255671D01*
X153477538Y-85291683D01*
X153600999Y-85303843D01*
X154501001Y-85303843D01*
X154624462Y-85291683D01*
X154743179Y-85255671D01*
X154852589Y-85197190D01*
X154948488Y-85118488D01*
X155027190Y-85022589D01*
X155085671Y-84913179D01*
X155121683Y-84794462D01*
X155133843Y-84671001D01*
X155133843Y-84020999D01*
X155121683Y-83897538D01*
X155085671Y-83778821D01*
X155027190Y-83669411D01*
X154948488Y-83573512D01*
X154852589Y-83494810D01*
X154743179Y-83436329D01*
X154624462Y-83400317D01*
X154501001Y-83388157D01*
X153600999Y-83388157D01*
X153477538Y-83400317D01*
X153358821Y-83436329D01*
X153249411Y-83494810D01*
X153230731Y-83510140D01*
X153191366Y-83470775D01*
X153175517Y-83451463D01*
X153098469Y-83388231D01*
X153010565Y-83341245D01*
X152915183Y-83312312D01*
X152840844Y-83304990D01*
X152840836Y-83304990D01*
X152815990Y-83302543D01*
X152791144Y-83304990D01*
X152525225Y-83304990D01*
X152586589Y-83272190D01*
X152682488Y-83193488D01*
X152761190Y-83097589D01*
X152819671Y-82988179D01*
X152855683Y-82869462D01*
X152862328Y-82802000D01*
X152997771Y-82802000D01*
X153016329Y-82863179D01*
X153074810Y-82972589D01*
X153153512Y-83068488D01*
X153249411Y-83147190D01*
X153358821Y-83205671D01*
X153477538Y-83241683D01*
X153600999Y-83253843D01*
X154501001Y-83253843D01*
X154624462Y-83241683D01*
X154743179Y-83205671D01*
X154852589Y-83147190D01*
X154948488Y-83068488D01*
X155027190Y-82972589D01*
X155085671Y-82863179D01*
X155121683Y-82744462D01*
X155133843Y-82621001D01*
X155133843Y-81970999D01*
X155121683Y-81847538D01*
X155085671Y-81728821D01*
X155027190Y-81619411D01*
X154948488Y-81523512D01*
X154852589Y-81444810D01*
X154743179Y-81386329D01*
X154624462Y-81350317D01*
X154501001Y-81338157D01*
X153600999Y-81338157D01*
X153477538Y-81350317D01*
X153358821Y-81386329D01*
X153249411Y-81444810D01*
X153153512Y-81523512D01*
X153074810Y-81619411D01*
X153016329Y-81728821D01*
X152997771Y-81790000D01*
X152862328Y-81790000D01*
X152855683Y-81722538D01*
X152819671Y-81603821D01*
X152761190Y-81494411D01*
X152682488Y-81398512D01*
X152586589Y-81319810D01*
X152477179Y-81261329D01*
X152358462Y-81225317D01*
X152235001Y-81213157D01*
X151584999Y-81213157D01*
X151461538Y-81225317D01*
X151342821Y-81261329D01*
X151233411Y-81319810D01*
X151137512Y-81398512D01*
X151058810Y-81494411D01*
X151000329Y-81603821D01*
X150964317Y-81722538D01*
X150952157Y-81845999D01*
X150952157Y-82746001D01*
X150964317Y-82869462D01*
X151000329Y-82988179D01*
X151058810Y-83097589D01*
X151137512Y-83193488D01*
X151233411Y-83272190D01*
X151294775Y-83304990D01*
X150475225Y-83304990D01*
X150536589Y-83272190D01*
X150632488Y-83193488D01*
X150711190Y-83097589D01*
X150769671Y-82988179D01*
X150805683Y-82869462D01*
X150817843Y-82746001D01*
X150817843Y-81845999D01*
X150805683Y-81722538D01*
X150769671Y-81603821D01*
X150711190Y-81494411D01*
X150632488Y-81398512D01*
X150536589Y-81319810D01*
X150427179Y-81261329D01*
X150308462Y-81225317D01*
X150185001Y-81213157D01*
X149534999Y-81213157D01*
X149411538Y-81225317D01*
X149292821Y-81261329D01*
X149183411Y-81319810D01*
X149087512Y-81398512D01*
X149008810Y-81494411D01*
X148950329Y-81603821D01*
X148914317Y-81722538D01*
X148902157Y-81845999D01*
X148902157Y-82487058D01*
X148887322Y-82459304D01*
X148839711Y-82401289D01*
X148781696Y-82353678D01*
X148715508Y-82318299D01*
X148643689Y-82296513D01*
X148613019Y-82293492D01*
X148613265Y-82290999D01*
X148608058Y-82238130D01*
X148602231Y-82178966D01*
X148569552Y-82071238D01*
X148516484Y-81971955D01*
X148445067Y-81884933D01*
X148423252Y-81867030D01*
X148086970Y-81530748D01*
X148069067Y-81508933D01*
X147982045Y-81437516D01*
X147882762Y-81384448D01*
X147775034Y-81351769D01*
X147691074Y-81343500D01*
X147663000Y-81340735D01*
X147634926Y-81343500D01*
X145397723Y-81343500D01*
X145170510Y-81116288D01*
X145170510Y-79538712D01*
X145271224Y-79437999D01*
X145516605Y-79437999D01*
X145508171Y-79458360D01*
G36*
X174662157Y-84670000D02*
G01*
X174669513Y-84744689D01*
X174691299Y-84816508D01*
X174726678Y-84882696D01*
X174774289Y-84940711D01*
X174832304Y-84988322D01*
X174898492Y-85023701D01*
X174970311Y-85045487D01*
X175045000Y-85052843D01*
X175201633Y-85052843D01*
X175013645Y-85164822D01*
X174797412Y-85359731D01*
X174623359Y-85593080D01*
X174498175Y-85855901D01*
X174453524Y-86003110D01*
X174574845Y-86233000D01*
X175768000Y-86233000D01*
X175768000Y-86213000D01*
X176022000Y-86213000D01*
X176022000Y-86233000D01*
X176042000Y-86233000D01*
X176042000Y-86487000D01*
X176022000Y-86487000D01*
X176022000Y-86507000D01*
X175768000Y-86507000D01*
X175768000Y-86487000D01*
X174574845Y-86487000D01*
X174453524Y-86716890D01*
X174498175Y-86864099D01*
X174623359Y-87126920D01*
X174692040Y-87218999D01*
X173414960Y-87218999D01*
X173483641Y-87126920D01*
X173608825Y-86864099D01*
X173653476Y-86716890D01*
X173532155Y-86487000D01*
X172339000Y-86487000D01*
X172339000Y-86507000D01*
X172085000Y-86507000D01*
X172085000Y-86487000D01*
X172065000Y-86487000D01*
X172065000Y-86233000D01*
X172085000Y-86233000D01*
X172085000Y-85039186D01*
X172339000Y-85039186D01*
X172339000Y-86233000D01*
X173532155Y-86233000D01*
X173653476Y-86003110D01*
X173608825Y-85855901D01*
X173483641Y-85593080D01*
X173309588Y-85359731D01*
X173093355Y-85164822D01*
X172843252Y-85015843D01*
X172568891Y-84918519D01*
X172339000Y-85039186D01*
X172085000Y-85039186D01*
X171855109Y-84918519D01*
X171580748Y-85015843D01*
X171330645Y-85164822D01*
X171114412Y-85359731D01*
X170940359Y-85593080D01*
X170815175Y-85855901D01*
X170790463Y-85937372D01*
X169218793Y-84365702D01*
X169232574Y-84359994D01*
X169344112Y-84285467D01*
X169367079Y-84262500D01*
X174662157Y-84262500D01*
X174662157Y-84670000D01*
G37*
X174662157Y-84670000D02*
X174669513Y-84744689D01*
X174691299Y-84816508D01*
X174726678Y-84882696D01*
X174774289Y-84940711D01*
X174832304Y-84988322D01*
X174898492Y-85023701D01*
X174970311Y-85045487D01*
X175045000Y-85052843D01*
X175201633Y-85052843D01*
X175013645Y-85164822D01*
X174797412Y-85359731D01*
X174623359Y-85593080D01*
X174498175Y-85855901D01*
X174453524Y-86003110D01*
X174574845Y-86233000D01*
X175768000Y-86233000D01*
X175768000Y-86213000D01*
X176022000Y-86213000D01*
X176022000Y-86233000D01*
X176042000Y-86233000D01*
X176042000Y-86487000D01*
X176022000Y-86487000D01*
X176022000Y-86507000D01*
X175768000Y-86507000D01*
X175768000Y-86487000D01*
X174574845Y-86487000D01*
X174453524Y-86716890D01*
X174498175Y-86864099D01*
X174623359Y-87126920D01*
X174692040Y-87218999D01*
X173414960Y-87218999D01*
X173483641Y-87126920D01*
X173608825Y-86864099D01*
X173653476Y-86716890D01*
X173532155Y-86487000D01*
X172339000Y-86487000D01*
X172339000Y-86507000D01*
X172085000Y-86507000D01*
X172085000Y-86487000D01*
X172065000Y-86487000D01*
X172065000Y-86233000D01*
X172085000Y-86233000D01*
X172085000Y-85039186D01*
X172339000Y-85039186D01*
X172339000Y-86233000D01*
X173532155Y-86233000D01*
X173653476Y-86003110D01*
X173608825Y-85855901D01*
X173483641Y-85593080D01*
X173309588Y-85359731D01*
X173093355Y-85164822D01*
X172843252Y-85015843D01*
X172568891Y-84918519D01*
X172339000Y-85039186D01*
X172085000Y-85039186D01*
X171855109Y-84918519D01*
X171580748Y-85015843D01*
X171330645Y-85164822D01*
X171114412Y-85359731D01*
X170940359Y-85593080D01*
X170815175Y-85855901D01*
X170790463Y-85937372D01*
X169218793Y-84365702D01*
X169232574Y-84359994D01*
X169344112Y-84285467D01*
X169367079Y-84262500D01*
X174662157Y-84262500D01*
X174662157Y-84670000D01*
G36*
X135657498Y-81987820D02*
G01*
X135621188Y-82107518D01*
X135608928Y-82232000D01*
X135612000Y-83696250D01*
X135770750Y-83855000D01*
X136620000Y-83855000D01*
X136620000Y-83835000D01*
X136874000Y-83835000D01*
X136874000Y-83855000D01*
X136894000Y-83855000D01*
X136894000Y-84109000D01*
X136874000Y-84109000D01*
X136874000Y-84129000D01*
X136620000Y-84129000D01*
X136620000Y-84109000D01*
X135770750Y-84109000D01*
X135612000Y-84267750D01*
X135608928Y-85732000D01*
X135621188Y-85856482D01*
X135657498Y-85976180D01*
X135716463Y-86086494D01*
X135795815Y-86183185D01*
X135858952Y-86235000D01*
X135463856Y-86235000D01*
X135439002Y-86232552D01*
X135414148Y-86235000D01*
X135339809Y-86242322D01*
X135244427Y-86271255D01*
X135156523Y-86318241D01*
X135079475Y-86381473D01*
X135063630Y-86400780D01*
X134628750Y-86835661D01*
X134560073Y-86822000D01*
X134425927Y-86822000D01*
X134373999Y-86832329D01*
X134373999Y-82749592D01*
X135210592Y-81913000D01*
X135697491Y-81913000D01*
X135657498Y-81987820D01*
G37*
X135657498Y-81987820D02*
X135621188Y-82107518D01*
X135608928Y-82232000D01*
X135612000Y-83696250D01*
X135770750Y-83855000D01*
X136620000Y-83855000D01*
X136620000Y-83835000D01*
X136874000Y-83835000D01*
X136874000Y-83855000D01*
X136894000Y-83855000D01*
X136894000Y-84109000D01*
X136874000Y-84109000D01*
X136874000Y-84129000D01*
X136620000Y-84129000D01*
X136620000Y-84109000D01*
X135770750Y-84109000D01*
X135612000Y-84267750D01*
X135608928Y-85732000D01*
X135621188Y-85856482D01*
X135657498Y-85976180D01*
X135716463Y-86086494D01*
X135795815Y-86183185D01*
X135858952Y-86235000D01*
X135463856Y-86235000D01*
X135439002Y-86232552D01*
X135414148Y-86235000D01*
X135339809Y-86242322D01*
X135244427Y-86271255D01*
X135156523Y-86318241D01*
X135079475Y-86381473D01*
X135063630Y-86400780D01*
X134628750Y-86835661D01*
X134560073Y-86822000D01*
X134425927Y-86822000D01*
X134373999Y-86832329D01*
X134373999Y-82749592D01*
X135210592Y-81913000D01*
X135697491Y-81913000D01*
X135657498Y-81987820D01*
G36*
X145966000Y-83820000D02*
G01*
X145986000Y-83820000D01*
X145986000Y-84074000D01*
X145966000Y-84074000D01*
X145966000Y-84094000D01*
X145712000Y-84094000D01*
X145712000Y-84074000D01*
X145692000Y-84074000D01*
X145692000Y-83820000D01*
X145712000Y-83820000D01*
X145712000Y-83800000D01*
X145966000Y-83800000D01*
X145966000Y-83820000D01*
G37*
X145966000Y-83820000D02*
X145986000Y-83820000D01*
X145986000Y-84074000D01*
X145966000Y-84074000D01*
X145966000Y-84094000D01*
X145712000Y-84094000D01*
X145712000Y-84074000D01*
X145692000Y-84074000D01*
X145692000Y-83820000D01*
X145712000Y-83820000D01*
X145712000Y-83800000D01*
X145966000Y-83800000D01*
X145966000Y-83820000D01*
G36*
X176403000Y-82587157D02*
G01*
X175045000Y-82587157D01*
X174970311Y-82594513D01*
X174898492Y-82616299D01*
X174832304Y-82651678D01*
X174774289Y-82699289D01*
X174726678Y-82757304D01*
X174691299Y-82823492D01*
X174669513Y-82895311D01*
X174662157Y-82970000D01*
X174662157Y-83250500D01*
X169367079Y-83250500D01*
X169344112Y-83227533D01*
X169232574Y-83153006D01*
X169108640Y-83101671D01*
X168977073Y-83075500D01*
X168842927Y-83075500D01*
X168711360Y-83101671D01*
X168587426Y-83153006D01*
X168475888Y-83227533D01*
X168381033Y-83322388D01*
X168306506Y-83433926D01*
X168255171Y-83557860D01*
X168229000Y-83689427D01*
X168229000Y-83823573D01*
X168255171Y-83955140D01*
X168278930Y-84012500D01*
X166706592Y-84012500D01*
X165273000Y-82578909D01*
X165273000Y-82546427D01*
X165246829Y-82414860D01*
X165196767Y-82294000D01*
X167107154Y-82294000D01*
X167132000Y-82296447D01*
X167156846Y-82294000D01*
X167156854Y-82294000D01*
X167231193Y-82286678D01*
X167326575Y-82257745D01*
X167414479Y-82210759D01*
X167491527Y-82147527D01*
X167507376Y-82128215D01*
X171013833Y-78621758D01*
X171090931Y-78653693D01*
X171328757Y-78701000D01*
X171571243Y-78701000D01*
X171809069Y-78653693D01*
X172033097Y-78560898D01*
X172234717Y-78426180D01*
X172406180Y-78254717D01*
X172540898Y-78053097D01*
X172633693Y-77829069D01*
X172679855Y-77597000D01*
X176403000Y-77597000D01*
X176403000Y-82587157D01*
G37*
X176403000Y-82587157D02*
X175045000Y-82587157D01*
X174970311Y-82594513D01*
X174898492Y-82616299D01*
X174832304Y-82651678D01*
X174774289Y-82699289D01*
X174726678Y-82757304D01*
X174691299Y-82823492D01*
X174669513Y-82895311D01*
X174662157Y-82970000D01*
X174662157Y-83250500D01*
X169367079Y-83250500D01*
X169344112Y-83227533D01*
X169232574Y-83153006D01*
X169108640Y-83101671D01*
X168977073Y-83075500D01*
X168842927Y-83075500D01*
X168711360Y-83101671D01*
X168587426Y-83153006D01*
X168475888Y-83227533D01*
X168381033Y-83322388D01*
X168306506Y-83433926D01*
X168255171Y-83557860D01*
X168229000Y-83689427D01*
X168229000Y-83823573D01*
X168255171Y-83955140D01*
X168278930Y-84012500D01*
X166706592Y-84012500D01*
X165273000Y-82578909D01*
X165273000Y-82546427D01*
X165246829Y-82414860D01*
X165196767Y-82294000D01*
X167107154Y-82294000D01*
X167132000Y-82296447D01*
X167156846Y-82294000D01*
X167156854Y-82294000D01*
X167231193Y-82286678D01*
X167326575Y-82257745D01*
X167414479Y-82210759D01*
X167491527Y-82147527D01*
X167507376Y-82128215D01*
X171013833Y-78621758D01*
X171090931Y-78653693D01*
X171328757Y-78701000D01*
X171571243Y-78701000D01*
X171809069Y-78653693D01*
X172033097Y-78560898D01*
X172234717Y-78426180D01*
X172406180Y-78254717D01*
X172540898Y-78053097D01*
X172633693Y-77829069D01*
X172679855Y-77597000D01*
X176403000Y-77597000D01*
X176403000Y-82587157D01*
G04 #@! TD*
M02*
