G04 #@! TF.GenerationSoftware,KiCad,Pcbnew,(5.1.5)-2*
G04 #@! TF.CreationDate,2020-08-19T20:36:14+04:00*
G04 #@! TF.ProjectId,stm32f103_feather,73746d33-3266-4313-9033-5f6665617468,rev?*
G04 #@! TF.SameCoordinates,Original*
G04 #@! TF.FileFunction,Soldermask,Top*
G04 #@! TF.FilePolarity,Negative*
%FSLAX46Y46*%
G04 Gerber Fmt 4.6, Leading zero omitted, Abs format (unit mm)*
G04 Created by KiCad (PCBNEW (5.1.5)-2) date 2020-08-19 20:36:14*
%MOMM*%
%LPD*%
G04 APERTURE LIST*
G04 #@! TA.AperFunction,Profile*
%ADD10C,0.050000*%
G04 #@! TD*
%ADD11C,0.150000*%
G04 APERTURE END LIST*
D10*
X175260000Y-76200000D02*
X129540000Y-76200000D01*
X177800000Y-96520000D02*
X177800000Y-78740000D01*
X129540000Y-99060000D02*
X175260000Y-99060000D01*
X127000000Y-78740000D02*
X127000000Y-96520000D01*
X175260000Y-76200000D02*
G75*
G02X177800000Y-78740000I0J-2540000D01*
G01*
X177800000Y-96520000D02*
G75*
G02X175260000Y-99060000I-2540000J0D01*
G01*
X129540000Y-99060000D02*
G75*
G02X127000000Y-96520000I0J2540000D01*
G01*
X127000000Y-78740000D02*
G75*
G02X129540000Y-76200000I2540000J0D01*
G01*
D11*
G36*
X171563512Y-96893927D02*
G01*
X171712812Y-96923624D01*
X171876784Y-96991544D01*
X172024354Y-97090147D01*
X172149853Y-97215646D01*
X172248456Y-97363216D01*
X172316376Y-97527188D01*
X172351000Y-97701259D01*
X172351000Y-97878741D01*
X172316376Y-98052812D01*
X172248456Y-98216784D01*
X172149853Y-98364354D01*
X172024354Y-98489853D01*
X171876784Y-98588456D01*
X171712812Y-98656376D01*
X171563512Y-98686073D01*
X171538742Y-98691000D01*
X171361258Y-98691000D01*
X171336488Y-98686073D01*
X171187188Y-98656376D01*
X171023216Y-98588456D01*
X170875646Y-98489853D01*
X170750147Y-98364354D01*
X170651544Y-98216784D01*
X170583624Y-98052812D01*
X170549000Y-97878741D01*
X170549000Y-97701259D01*
X170583624Y-97527188D01*
X170651544Y-97363216D01*
X170750147Y-97215646D01*
X170875646Y-97090147D01*
X171023216Y-96991544D01*
X171187188Y-96923624D01*
X171336488Y-96893927D01*
X171361258Y-96889000D01*
X171538742Y-96889000D01*
X171563512Y-96893927D01*
G37*
G36*
X151243512Y-96893927D02*
G01*
X151392812Y-96923624D01*
X151556784Y-96991544D01*
X151704354Y-97090147D01*
X151829853Y-97215646D01*
X151928456Y-97363216D01*
X151996376Y-97527188D01*
X152031000Y-97701259D01*
X152031000Y-97878741D01*
X151996376Y-98052812D01*
X151928456Y-98216784D01*
X151829853Y-98364354D01*
X151704354Y-98489853D01*
X151556784Y-98588456D01*
X151392812Y-98656376D01*
X151243512Y-98686073D01*
X151218742Y-98691000D01*
X151041258Y-98691000D01*
X151016488Y-98686073D01*
X150867188Y-98656376D01*
X150703216Y-98588456D01*
X150555646Y-98489853D01*
X150430147Y-98364354D01*
X150331544Y-98216784D01*
X150263624Y-98052812D01*
X150229000Y-97878741D01*
X150229000Y-97701259D01*
X150263624Y-97527188D01*
X150331544Y-97363216D01*
X150430147Y-97215646D01*
X150555646Y-97090147D01*
X150703216Y-96991544D01*
X150867188Y-96923624D01*
X151016488Y-96893927D01*
X151041258Y-96889000D01*
X151218742Y-96889000D01*
X151243512Y-96893927D01*
G37*
G36*
X134251000Y-98691000D02*
G01*
X132449000Y-98691000D01*
X132449000Y-96889000D01*
X134251000Y-96889000D01*
X134251000Y-98691000D01*
G37*
G36*
X136003512Y-96893927D02*
G01*
X136152812Y-96923624D01*
X136316784Y-96991544D01*
X136464354Y-97090147D01*
X136589853Y-97215646D01*
X136688456Y-97363216D01*
X136756376Y-97527188D01*
X136791000Y-97701259D01*
X136791000Y-97878741D01*
X136756376Y-98052812D01*
X136688456Y-98216784D01*
X136589853Y-98364354D01*
X136464354Y-98489853D01*
X136316784Y-98588456D01*
X136152812Y-98656376D01*
X136003512Y-98686073D01*
X135978742Y-98691000D01*
X135801258Y-98691000D01*
X135776488Y-98686073D01*
X135627188Y-98656376D01*
X135463216Y-98588456D01*
X135315646Y-98489853D01*
X135190147Y-98364354D01*
X135091544Y-98216784D01*
X135023624Y-98052812D01*
X134989000Y-97878741D01*
X134989000Y-97701259D01*
X135023624Y-97527188D01*
X135091544Y-97363216D01*
X135190147Y-97215646D01*
X135315646Y-97090147D01*
X135463216Y-96991544D01*
X135627188Y-96923624D01*
X135776488Y-96893927D01*
X135801258Y-96889000D01*
X135978742Y-96889000D01*
X136003512Y-96893927D01*
G37*
G36*
X138543512Y-96893927D02*
G01*
X138692812Y-96923624D01*
X138856784Y-96991544D01*
X139004354Y-97090147D01*
X139129853Y-97215646D01*
X139228456Y-97363216D01*
X139296376Y-97527188D01*
X139331000Y-97701259D01*
X139331000Y-97878741D01*
X139296376Y-98052812D01*
X139228456Y-98216784D01*
X139129853Y-98364354D01*
X139004354Y-98489853D01*
X138856784Y-98588456D01*
X138692812Y-98656376D01*
X138543512Y-98686073D01*
X138518742Y-98691000D01*
X138341258Y-98691000D01*
X138316488Y-98686073D01*
X138167188Y-98656376D01*
X138003216Y-98588456D01*
X137855646Y-98489853D01*
X137730147Y-98364354D01*
X137631544Y-98216784D01*
X137563624Y-98052812D01*
X137529000Y-97878741D01*
X137529000Y-97701259D01*
X137563624Y-97527188D01*
X137631544Y-97363216D01*
X137730147Y-97215646D01*
X137855646Y-97090147D01*
X138003216Y-96991544D01*
X138167188Y-96923624D01*
X138316488Y-96893927D01*
X138341258Y-96889000D01*
X138518742Y-96889000D01*
X138543512Y-96893927D01*
G37*
G36*
X141083512Y-96893927D02*
G01*
X141232812Y-96923624D01*
X141396784Y-96991544D01*
X141544354Y-97090147D01*
X141669853Y-97215646D01*
X141768456Y-97363216D01*
X141836376Y-97527188D01*
X141871000Y-97701259D01*
X141871000Y-97878741D01*
X141836376Y-98052812D01*
X141768456Y-98216784D01*
X141669853Y-98364354D01*
X141544354Y-98489853D01*
X141396784Y-98588456D01*
X141232812Y-98656376D01*
X141083512Y-98686073D01*
X141058742Y-98691000D01*
X140881258Y-98691000D01*
X140856488Y-98686073D01*
X140707188Y-98656376D01*
X140543216Y-98588456D01*
X140395646Y-98489853D01*
X140270147Y-98364354D01*
X140171544Y-98216784D01*
X140103624Y-98052812D01*
X140069000Y-97878741D01*
X140069000Y-97701259D01*
X140103624Y-97527188D01*
X140171544Y-97363216D01*
X140270147Y-97215646D01*
X140395646Y-97090147D01*
X140543216Y-96991544D01*
X140707188Y-96923624D01*
X140856488Y-96893927D01*
X140881258Y-96889000D01*
X141058742Y-96889000D01*
X141083512Y-96893927D01*
G37*
G36*
X143623512Y-96893927D02*
G01*
X143772812Y-96923624D01*
X143936784Y-96991544D01*
X144084354Y-97090147D01*
X144209853Y-97215646D01*
X144308456Y-97363216D01*
X144376376Y-97527188D01*
X144411000Y-97701259D01*
X144411000Y-97878741D01*
X144376376Y-98052812D01*
X144308456Y-98216784D01*
X144209853Y-98364354D01*
X144084354Y-98489853D01*
X143936784Y-98588456D01*
X143772812Y-98656376D01*
X143623512Y-98686073D01*
X143598742Y-98691000D01*
X143421258Y-98691000D01*
X143396488Y-98686073D01*
X143247188Y-98656376D01*
X143083216Y-98588456D01*
X142935646Y-98489853D01*
X142810147Y-98364354D01*
X142711544Y-98216784D01*
X142643624Y-98052812D01*
X142609000Y-97878741D01*
X142609000Y-97701259D01*
X142643624Y-97527188D01*
X142711544Y-97363216D01*
X142810147Y-97215646D01*
X142935646Y-97090147D01*
X143083216Y-96991544D01*
X143247188Y-96923624D01*
X143396488Y-96893927D01*
X143421258Y-96889000D01*
X143598742Y-96889000D01*
X143623512Y-96893927D01*
G37*
G36*
X146163512Y-96893927D02*
G01*
X146312812Y-96923624D01*
X146476784Y-96991544D01*
X146624354Y-97090147D01*
X146749853Y-97215646D01*
X146848456Y-97363216D01*
X146916376Y-97527188D01*
X146951000Y-97701259D01*
X146951000Y-97878741D01*
X146916376Y-98052812D01*
X146848456Y-98216784D01*
X146749853Y-98364354D01*
X146624354Y-98489853D01*
X146476784Y-98588456D01*
X146312812Y-98656376D01*
X146163512Y-98686073D01*
X146138742Y-98691000D01*
X145961258Y-98691000D01*
X145936488Y-98686073D01*
X145787188Y-98656376D01*
X145623216Y-98588456D01*
X145475646Y-98489853D01*
X145350147Y-98364354D01*
X145251544Y-98216784D01*
X145183624Y-98052812D01*
X145149000Y-97878741D01*
X145149000Y-97701259D01*
X145183624Y-97527188D01*
X145251544Y-97363216D01*
X145350147Y-97215646D01*
X145475646Y-97090147D01*
X145623216Y-96991544D01*
X145787188Y-96923624D01*
X145936488Y-96893927D01*
X145961258Y-96889000D01*
X146138742Y-96889000D01*
X146163512Y-96893927D01*
G37*
G36*
X148703512Y-96893927D02*
G01*
X148852812Y-96923624D01*
X149016784Y-96991544D01*
X149164354Y-97090147D01*
X149289853Y-97215646D01*
X149388456Y-97363216D01*
X149456376Y-97527188D01*
X149491000Y-97701259D01*
X149491000Y-97878741D01*
X149456376Y-98052812D01*
X149388456Y-98216784D01*
X149289853Y-98364354D01*
X149164354Y-98489853D01*
X149016784Y-98588456D01*
X148852812Y-98656376D01*
X148703512Y-98686073D01*
X148678742Y-98691000D01*
X148501258Y-98691000D01*
X148476488Y-98686073D01*
X148327188Y-98656376D01*
X148163216Y-98588456D01*
X148015646Y-98489853D01*
X147890147Y-98364354D01*
X147791544Y-98216784D01*
X147723624Y-98052812D01*
X147689000Y-97878741D01*
X147689000Y-97701259D01*
X147723624Y-97527188D01*
X147791544Y-97363216D01*
X147890147Y-97215646D01*
X148015646Y-97090147D01*
X148163216Y-96991544D01*
X148327188Y-96923624D01*
X148476488Y-96893927D01*
X148501258Y-96889000D01*
X148678742Y-96889000D01*
X148703512Y-96893927D01*
G37*
G36*
X156323512Y-96893927D02*
G01*
X156472812Y-96923624D01*
X156636784Y-96991544D01*
X156784354Y-97090147D01*
X156909853Y-97215646D01*
X157008456Y-97363216D01*
X157076376Y-97527188D01*
X157111000Y-97701259D01*
X157111000Y-97878741D01*
X157076376Y-98052812D01*
X157008456Y-98216784D01*
X156909853Y-98364354D01*
X156784354Y-98489853D01*
X156636784Y-98588456D01*
X156472812Y-98656376D01*
X156323512Y-98686073D01*
X156298742Y-98691000D01*
X156121258Y-98691000D01*
X156096488Y-98686073D01*
X155947188Y-98656376D01*
X155783216Y-98588456D01*
X155635646Y-98489853D01*
X155510147Y-98364354D01*
X155411544Y-98216784D01*
X155343624Y-98052812D01*
X155309000Y-97878741D01*
X155309000Y-97701259D01*
X155343624Y-97527188D01*
X155411544Y-97363216D01*
X155510147Y-97215646D01*
X155635646Y-97090147D01*
X155783216Y-96991544D01*
X155947188Y-96923624D01*
X156096488Y-96893927D01*
X156121258Y-96889000D01*
X156298742Y-96889000D01*
X156323512Y-96893927D01*
G37*
G36*
X158863512Y-96893927D02*
G01*
X159012812Y-96923624D01*
X159176784Y-96991544D01*
X159324354Y-97090147D01*
X159449853Y-97215646D01*
X159548456Y-97363216D01*
X159616376Y-97527188D01*
X159651000Y-97701259D01*
X159651000Y-97878741D01*
X159616376Y-98052812D01*
X159548456Y-98216784D01*
X159449853Y-98364354D01*
X159324354Y-98489853D01*
X159176784Y-98588456D01*
X159012812Y-98656376D01*
X158863512Y-98686073D01*
X158838742Y-98691000D01*
X158661258Y-98691000D01*
X158636488Y-98686073D01*
X158487188Y-98656376D01*
X158323216Y-98588456D01*
X158175646Y-98489853D01*
X158050147Y-98364354D01*
X157951544Y-98216784D01*
X157883624Y-98052812D01*
X157849000Y-97878741D01*
X157849000Y-97701259D01*
X157883624Y-97527188D01*
X157951544Y-97363216D01*
X158050147Y-97215646D01*
X158175646Y-97090147D01*
X158323216Y-96991544D01*
X158487188Y-96923624D01*
X158636488Y-96893927D01*
X158661258Y-96889000D01*
X158838742Y-96889000D01*
X158863512Y-96893927D01*
G37*
G36*
X161403512Y-96893927D02*
G01*
X161552812Y-96923624D01*
X161716784Y-96991544D01*
X161864354Y-97090147D01*
X161989853Y-97215646D01*
X162088456Y-97363216D01*
X162156376Y-97527188D01*
X162191000Y-97701259D01*
X162191000Y-97878741D01*
X162156376Y-98052812D01*
X162088456Y-98216784D01*
X161989853Y-98364354D01*
X161864354Y-98489853D01*
X161716784Y-98588456D01*
X161552812Y-98656376D01*
X161403512Y-98686073D01*
X161378742Y-98691000D01*
X161201258Y-98691000D01*
X161176488Y-98686073D01*
X161027188Y-98656376D01*
X160863216Y-98588456D01*
X160715646Y-98489853D01*
X160590147Y-98364354D01*
X160491544Y-98216784D01*
X160423624Y-98052812D01*
X160389000Y-97878741D01*
X160389000Y-97701259D01*
X160423624Y-97527188D01*
X160491544Y-97363216D01*
X160590147Y-97215646D01*
X160715646Y-97090147D01*
X160863216Y-96991544D01*
X161027188Y-96923624D01*
X161176488Y-96893927D01*
X161201258Y-96889000D01*
X161378742Y-96889000D01*
X161403512Y-96893927D01*
G37*
G36*
X163943512Y-96893927D02*
G01*
X164092812Y-96923624D01*
X164256784Y-96991544D01*
X164404354Y-97090147D01*
X164529853Y-97215646D01*
X164628456Y-97363216D01*
X164696376Y-97527188D01*
X164731000Y-97701259D01*
X164731000Y-97878741D01*
X164696376Y-98052812D01*
X164628456Y-98216784D01*
X164529853Y-98364354D01*
X164404354Y-98489853D01*
X164256784Y-98588456D01*
X164092812Y-98656376D01*
X163943512Y-98686073D01*
X163918742Y-98691000D01*
X163741258Y-98691000D01*
X163716488Y-98686073D01*
X163567188Y-98656376D01*
X163403216Y-98588456D01*
X163255646Y-98489853D01*
X163130147Y-98364354D01*
X163031544Y-98216784D01*
X162963624Y-98052812D01*
X162929000Y-97878741D01*
X162929000Y-97701259D01*
X162963624Y-97527188D01*
X163031544Y-97363216D01*
X163130147Y-97215646D01*
X163255646Y-97090147D01*
X163403216Y-96991544D01*
X163567188Y-96923624D01*
X163716488Y-96893927D01*
X163741258Y-96889000D01*
X163918742Y-96889000D01*
X163943512Y-96893927D01*
G37*
G36*
X166483512Y-96893927D02*
G01*
X166632812Y-96923624D01*
X166796784Y-96991544D01*
X166944354Y-97090147D01*
X167069853Y-97215646D01*
X167168456Y-97363216D01*
X167236376Y-97527188D01*
X167271000Y-97701259D01*
X167271000Y-97878741D01*
X167236376Y-98052812D01*
X167168456Y-98216784D01*
X167069853Y-98364354D01*
X166944354Y-98489853D01*
X166796784Y-98588456D01*
X166632812Y-98656376D01*
X166483512Y-98686073D01*
X166458742Y-98691000D01*
X166281258Y-98691000D01*
X166256488Y-98686073D01*
X166107188Y-98656376D01*
X165943216Y-98588456D01*
X165795646Y-98489853D01*
X165670147Y-98364354D01*
X165571544Y-98216784D01*
X165503624Y-98052812D01*
X165469000Y-97878741D01*
X165469000Y-97701259D01*
X165503624Y-97527188D01*
X165571544Y-97363216D01*
X165670147Y-97215646D01*
X165795646Y-97090147D01*
X165943216Y-96991544D01*
X166107188Y-96923624D01*
X166256488Y-96893927D01*
X166281258Y-96889000D01*
X166458742Y-96889000D01*
X166483512Y-96893927D01*
G37*
G36*
X169023512Y-96893927D02*
G01*
X169172812Y-96923624D01*
X169336784Y-96991544D01*
X169484354Y-97090147D01*
X169609853Y-97215646D01*
X169708456Y-97363216D01*
X169776376Y-97527188D01*
X169811000Y-97701259D01*
X169811000Y-97878741D01*
X169776376Y-98052812D01*
X169708456Y-98216784D01*
X169609853Y-98364354D01*
X169484354Y-98489853D01*
X169336784Y-98588456D01*
X169172812Y-98656376D01*
X169023512Y-98686073D01*
X168998742Y-98691000D01*
X168821258Y-98691000D01*
X168796488Y-98686073D01*
X168647188Y-98656376D01*
X168483216Y-98588456D01*
X168335646Y-98489853D01*
X168210147Y-98364354D01*
X168111544Y-98216784D01*
X168043624Y-98052812D01*
X168009000Y-97878741D01*
X168009000Y-97701259D01*
X168043624Y-97527188D01*
X168111544Y-97363216D01*
X168210147Y-97215646D01*
X168335646Y-97090147D01*
X168483216Y-96991544D01*
X168647188Y-96923624D01*
X168796488Y-96893927D01*
X168821258Y-96889000D01*
X168998742Y-96889000D01*
X169023512Y-96893927D01*
G37*
G36*
X153783512Y-96893927D02*
G01*
X153932812Y-96923624D01*
X154096784Y-96991544D01*
X154244354Y-97090147D01*
X154369853Y-97215646D01*
X154468456Y-97363216D01*
X154536376Y-97527188D01*
X154571000Y-97701259D01*
X154571000Y-97878741D01*
X154536376Y-98052812D01*
X154468456Y-98216784D01*
X154369853Y-98364354D01*
X154244354Y-98489853D01*
X154096784Y-98588456D01*
X153932812Y-98656376D01*
X153783512Y-98686073D01*
X153758742Y-98691000D01*
X153581258Y-98691000D01*
X153556488Y-98686073D01*
X153407188Y-98656376D01*
X153243216Y-98588456D01*
X153095646Y-98489853D01*
X152970147Y-98364354D01*
X152871544Y-98216784D01*
X152803624Y-98052812D01*
X152769000Y-97878741D01*
X152769000Y-97701259D01*
X152803624Y-97527188D01*
X152871544Y-97363216D01*
X152970147Y-97215646D01*
X153095646Y-97090147D01*
X153243216Y-96991544D01*
X153407188Y-96923624D01*
X153556488Y-96893927D01*
X153581258Y-96889000D01*
X153758742Y-96889000D01*
X153783512Y-96893927D01*
G37*
G36*
X169528499Y-94537445D02*
G01*
X169565995Y-94548820D01*
X169600554Y-94567292D01*
X169630847Y-94592153D01*
X169655708Y-94622446D01*
X169674180Y-94657005D01*
X169685555Y-94694501D01*
X169690000Y-94739638D01*
X169690000Y-95478362D01*
X169685555Y-95523499D01*
X169674180Y-95560995D01*
X169655708Y-95595554D01*
X169630847Y-95625847D01*
X169600554Y-95650708D01*
X169565995Y-95669180D01*
X169528499Y-95680555D01*
X169483362Y-95685000D01*
X168844638Y-95685000D01*
X168799501Y-95680555D01*
X168762005Y-95669180D01*
X168727446Y-95650708D01*
X168697153Y-95625847D01*
X168672292Y-95595554D01*
X168653820Y-95560995D01*
X168642445Y-95523499D01*
X168638000Y-95478362D01*
X168638000Y-94739638D01*
X168642445Y-94694501D01*
X168653820Y-94657005D01*
X168672292Y-94622446D01*
X168697153Y-94592153D01*
X168727446Y-94567292D01*
X168762005Y-94548820D01*
X168799501Y-94537445D01*
X168844638Y-94533000D01*
X169483362Y-94533000D01*
X169528499Y-94537445D01*
G37*
G36*
X171243499Y-94636945D02*
G01*
X171280995Y-94648320D01*
X171315554Y-94666792D01*
X171345847Y-94691653D01*
X171370708Y-94721946D01*
X171389180Y-94756505D01*
X171400555Y-94794001D01*
X171405000Y-94839138D01*
X171405000Y-95477862D01*
X171400555Y-95522999D01*
X171389180Y-95560495D01*
X171370708Y-95595054D01*
X171345847Y-95625347D01*
X171315554Y-95650208D01*
X171280995Y-95668680D01*
X171243499Y-95680055D01*
X171198362Y-95684500D01*
X170459638Y-95684500D01*
X170414501Y-95680055D01*
X170377005Y-95668680D01*
X170342446Y-95650208D01*
X170312153Y-95625347D01*
X170287292Y-95595054D01*
X170268820Y-95560495D01*
X170257445Y-95522999D01*
X170253000Y-95477862D01*
X170253000Y-94839138D01*
X170257445Y-94794001D01*
X170268820Y-94756505D01*
X170287292Y-94721946D01*
X170312153Y-94691653D01*
X170342446Y-94666792D01*
X170377005Y-94648320D01*
X170414501Y-94636945D01*
X170459638Y-94632500D01*
X171198362Y-94632500D01*
X171243499Y-94636945D01*
G37*
G36*
X172993499Y-94636945D02*
G01*
X173030995Y-94648320D01*
X173065554Y-94666792D01*
X173095847Y-94691653D01*
X173120708Y-94721946D01*
X173139180Y-94756505D01*
X173150555Y-94794001D01*
X173155000Y-94839138D01*
X173155000Y-95477862D01*
X173150555Y-95522999D01*
X173139180Y-95560495D01*
X173120708Y-95595054D01*
X173095847Y-95625347D01*
X173065554Y-95650208D01*
X173030995Y-95668680D01*
X172993499Y-95680055D01*
X172948362Y-95684500D01*
X172209638Y-95684500D01*
X172164501Y-95680055D01*
X172127005Y-95668680D01*
X172092446Y-95650208D01*
X172062153Y-95625347D01*
X172037292Y-95595054D01*
X172018820Y-95560495D01*
X172007445Y-95522999D01*
X172003000Y-95477862D01*
X172003000Y-94839138D01*
X172007445Y-94794001D01*
X172018820Y-94756505D01*
X172037292Y-94721946D01*
X172062153Y-94691653D01*
X172092446Y-94666792D01*
X172127005Y-94648320D01*
X172164501Y-94636945D01*
X172209638Y-94632500D01*
X172948362Y-94632500D01*
X172993499Y-94636945D01*
G37*
G36*
X136395999Y-94601445D02*
G01*
X136433495Y-94612820D01*
X136468054Y-94631292D01*
X136498347Y-94656153D01*
X136523208Y-94686446D01*
X136541680Y-94721005D01*
X136553055Y-94758501D01*
X136557500Y-94803638D01*
X136557500Y-95442362D01*
X136553055Y-95487499D01*
X136541680Y-95524995D01*
X136523208Y-95559554D01*
X136498347Y-95589847D01*
X136468054Y-95614708D01*
X136433495Y-95633180D01*
X136395999Y-95644555D01*
X136350862Y-95649000D01*
X135612138Y-95649000D01*
X135567001Y-95644555D01*
X135529505Y-95633180D01*
X135494946Y-95614708D01*
X135464653Y-95589847D01*
X135439792Y-95559554D01*
X135421320Y-95524995D01*
X135409945Y-95487499D01*
X135405500Y-95442362D01*
X135405500Y-94803638D01*
X135409945Y-94758501D01*
X135421320Y-94721005D01*
X135439792Y-94686446D01*
X135464653Y-94656153D01*
X135494946Y-94631292D01*
X135529505Y-94612820D01*
X135567001Y-94601445D01*
X135612138Y-94597000D01*
X136350862Y-94597000D01*
X136395999Y-94601445D01*
G37*
G36*
X138145999Y-94601445D02*
G01*
X138183495Y-94612820D01*
X138218054Y-94631292D01*
X138248347Y-94656153D01*
X138273208Y-94686446D01*
X138291680Y-94721005D01*
X138303055Y-94758501D01*
X138307500Y-94803638D01*
X138307500Y-95442362D01*
X138303055Y-95487499D01*
X138291680Y-95524995D01*
X138273208Y-95559554D01*
X138248347Y-95589847D01*
X138218054Y-95614708D01*
X138183495Y-95633180D01*
X138145999Y-95644555D01*
X138100862Y-95649000D01*
X137362138Y-95649000D01*
X137317001Y-95644555D01*
X137279505Y-95633180D01*
X137244946Y-95614708D01*
X137214653Y-95589847D01*
X137189792Y-95559554D01*
X137171320Y-95524995D01*
X137159945Y-95487499D01*
X137155500Y-95442362D01*
X137155500Y-94803638D01*
X137159945Y-94758501D01*
X137171320Y-94721005D01*
X137189792Y-94686446D01*
X137214653Y-94656153D01*
X137244946Y-94631292D01*
X137279505Y-94612820D01*
X137317001Y-94601445D01*
X137362138Y-94597000D01*
X138100862Y-94597000D01*
X138145999Y-94601445D01*
G37*
G36*
X148767500Y-94272000D02*
G01*
X146965500Y-94272000D01*
X146965500Y-93170000D01*
X148767500Y-93170000D01*
X148767500Y-94272000D01*
G37*
G36*
X142467500Y-94272000D02*
G01*
X140665500Y-94272000D01*
X140665500Y-93170000D01*
X142467500Y-93170000D01*
X142467500Y-94272000D01*
G37*
G36*
X138131999Y-93140945D02*
G01*
X138169495Y-93152320D01*
X138204054Y-93170792D01*
X138234347Y-93195653D01*
X138259208Y-93225946D01*
X138277680Y-93260505D01*
X138289055Y-93298001D01*
X138293500Y-93343138D01*
X138293500Y-93981862D01*
X138289055Y-94026999D01*
X138277680Y-94064495D01*
X138259208Y-94099054D01*
X138234347Y-94129347D01*
X138204054Y-94154208D01*
X138169495Y-94172680D01*
X138131999Y-94184055D01*
X138086862Y-94188500D01*
X137348138Y-94188500D01*
X137303001Y-94184055D01*
X137265505Y-94172680D01*
X137230946Y-94154208D01*
X137200653Y-94129347D01*
X137175792Y-94099054D01*
X137157320Y-94064495D01*
X137145945Y-94026999D01*
X137141500Y-93981862D01*
X137141500Y-93343138D01*
X137145945Y-93298001D01*
X137157320Y-93260505D01*
X137175792Y-93225946D01*
X137200653Y-93195653D01*
X137230946Y-93170792D01*
X137265505Y-93152320D01*
X137303001Y-93140945D01*
X137348138Y-93136500D01*
X138086862Y-93136500D01*
X138131999Y-93140945D01*
G37*
G36*
X136381999Y-93140945D02*
G01*
X136419495Y-93152320D01*
X136454054Y-93170792D01*
X136484347Y-93195653D01*
X136509208Y-93225946D01*
X136527680Y-93260505D01*
X136539055Y-93298001D01*
X136543500Y-93343138D01*
X136543500Y-93981862D01*
X136539055Y-94026999D01*
X136527680Y-94064495D01*
X136509208Y-94099054D01*
X136484347Y-94129347D01*
X136454054Y-94154208D01*
X136419495Y-94172680D01*
X136381999Y-94184055D01*
X136336862Y-94188500D01*
X135598138Y-94188500D01*
X135553001Y-94184055D01*
X135515505Y-94172680D01*
X135480946Y-94154208D01*
X135450653Y-94129347D01*
X135425792Y-94099054D01*
X135407320Y-94064495D01*
X135395945Y-94026999D01*
X135391500Y-93981862D01*
X135391500Y-93343138D01*
X135395945Y-93298001D01*
X135407320Y-93260505D01*
X135425792Y-93225946D01*
X135450653Y-93195653D01*
X135480946Y-93170792D01*
X135515505Y-93152320D01*
X135553001Y-93140945D01*
X135598138Y-93136500D01*
X136336862Y-93136500D01*
X136381999Y-93140945D01*
G37*
G36*
X169528499Y-92787445D02*
G01*
X169565995Y-92798820D01*
X169600554Y-92817292D01*
X169630847Y-92842153D01*
X169655708Y-92872446D01*
X169674180Y-92907005D01*
X169685555Y-92944501D01*
X169690000Y-92989638D01*
X169690000Y-93728362D01*
X169685555Y-93773499D01*
X169674180Y-93810995D01*
X169655708Y-93845554D01*
X169630847Y-93875847D01*
X169600554Y-93900708D01*
X169565995Y-93919180D01*
X169528499Y-93930555D01*
X169483362Y-93935000D01*
X168844638Y-93935000D01*
X168799501Y-93930555D01*
X168762005Y-93919180D01*
X168727446Y-93900708D01*
X168697153Y-93875847D01*
X168672292Y-93845554D01*
X168653820Y-93810995D01*
X168642445Y-93773499D01*
X168638000Y-93728362D01*
X168638000Y-92989638D01*
X168642445Y-92944501D01*
X168653820Y-92907005D01*
X168672292Y-92872446D01*
X168697153Y-92842153D01*
X168727446Y-92817292D01*
X168762005Y-92798820D01*
X168799501Y-92787445D01*
X168844638Y-92783000D01*
X169483362Y-92783000D01*
X169528499Y-92787445D01*
G37*
G36*
X159091295Y-91640323D02*
G01*
X159098309Y-91642451D01*
X159112077Y-91649810D01*
X159134716Y-91659187D01*
X159158749Y-91663967D01*
X159183253Y-91663967D01*
X159207286Y-91659186D01*
X159229923Y-91649810D01*
X159243691Y-91642451D01*
X159250705Y-91640323D01*
X159264140Y-91639000D01*
X159577860Y-91639000D01*
X159591295Y-91640323D01*
X159598309Y-91642451D01*
X159612077Y-91649810D01*
X159634716Y-91659187D01*
X159658749Y-91663967D01*
X159683253Y-91663967D01*
X159707286Y-91659186D01*
X159729923Y-91649810D01*
X159743691Y-91642451D01*
X159750705Y-91640323D01*
X159764140Y-91639000D01*
X160077860Y-91639000D01*
X160091295Y-91640323D01*
X160098309Y-91642451D01*
X160112077Y-91649810D01*
X160134716Y-91659187D01*
X160158749Y-91663967D01*
X160183253Y-91663967D01*
X160207286Y-91659186D01*
X160229923Y-91649810D01*
X160243691Y-91642451D01*
X160250705Y-91640323D01*
X160264140Y-91639000D01*
X160577860Y-91639000D01*
X160591295Y-91640323D01*
X160598309Y-91642451D01*
X160612077Y-91649810D01*
X160634716Y-91659187D01*
X160658749Y-91663967D01*
X160683253Y-91663967D01*
X160707286Y-91659186D01*
X160729923Y-91649810D01*
X160743691Y-91642451D01*
X160750705Y-91640323D01*
X160764140Y-91639000D01*
X161077860Y-91639000D01*
X161091295Y-91640323D01*
X161098309Y-91642451D01*
X161112077Y-91649810D01*
X161134716Y-91659187D01*
X161158749Y-91663967D01*
X161183253Y-91663967D01*
X161207286Y-91659186D01*
X161229923Y-91649810D01*
X161243691Y-91642451D01*
X161250705Y-91640323D01*
X161264140Y-91639000D01*
X161577860Y-91639000D01*
X161591295Y-91640323D01*
X161598309Y-91642451D01*
X161612077Y-91649810D01*
X161634716Y-91659187D01*
X161658749Y-91663967D01*
X161683253Y-91663967D01*
X161707286Y-91659186D01*
X161729923Y-91649810D01*
X161743691Y-91642451D01*
X161750705Y-91640323D01*
X161764140Y-91639000D01*
X162077860Y-91639000D01*
X162091295Y-91640323D01*
X162098309Y-91642451D01*
X162112077Y-91649810D01*
X162134716Y-91659187D01*
X162158749Y-91663967D01*
X162183253Y-91663967D01*
X162207286Y-91659186D01*
X162229923Y-91649810D01*
X162243691Y-91642451D01*
X162250705Y-91640323D01*
X162264140Y-91639000D01*
X162577860Y-91639000D01*
X162591295Y-91640323D01*
X162598309Y-91642451D01*
X162612077Y-91649810D01*
X162634716Y-91659187D01*
X162658749Y-91663967D01*
X162683253Y-91663967D01*
X162707286Y-91659186D01*
X162729923Y-91649810D01*
X162743691Y-91642451D01*
X162750705Y-91640323D01*
X162764140Y-91639000D01*
X163077860Y-91639000D01*
X163091295Y-91640323D01*
X163098309Y-91642451D01*
X163112077Y-91649810D01*
X163134716Y-91659187D01*
X163158749Y-91663967D01*
X163183253Y-91663967D01*
X163207286Y-91659186D01*
X163229923Y-91649810D01*
X163243691Y-91642451D01*
X163250705Y-91640323D01*
X163264140Y-91639000D01*
X163577860Y-91639000D01*
X163591295Y-91640323D01*
X163598309Y-91642451D01*
X163612077Y-91649810D01*
X163634716Y-91659187D01*
X163658749Y-91663967D01*
X163683253Y-91663967D01*
X163707286Y-91659186D01*
X163729923Y-91649810D01*
X163743691Y-91642451D01*
X163750705Y-91640323D01*
X163764140Y-91639000D01*
X164077860Y-91639000D01*
X164091295Y-91640323D01*
X164098309Y-91642451D01*
X164112077Y-91649810D01*
X164134716Y-91659187D01*
X164158749Y-91663967D01*
X164183253Y-91663967D01*
X164207286Y-91659186D01*
X164229923Y-91649810D01*
X164243691Y-91642451D01*
X164250705Y-91640323D01*
X164264140Y-91639000D01*
X164577860Y-91639000D01*
X164591295Y-91640323D01*
X164598310Y-91642451D01*
X164604776Y-91645908D01*
X164610442Y-91650558D01*
X164615092Y-91656224D01*
X164618549Y-91662690D01*
X164620677Y-91669705D01*
X164622000Y-91683140D01*
X164622000Y-93171860D01*
X164620677Y-93185295D01*
X164618549Y-93192310D01*
X164615092Y-93198776D01*
X164610442Y-93204442D01*
X164604776Y-93209092D01*
X164598310Y-93212549D01*
X164591295Y-93214677D01*
X164577860Y-93216000D01*
X164264140Y-93216000D01*
X164250705Y-93214677D01*
X164243691Y-93212549D01*
X164229923Y-93205190D01*
X164207284Y-93195813D01*
X164183251Y-93191033D01*
X164158747Y-93191033D01*
X164134714Y-93195814D01*
X164112077Y-93205190D01*
X164098309Y-93212549D01*
X164091295Y-93214677D01*
X164077860Y-93216000D01*
X163764140Y-93216000D01*
X163750705Y-93214677D01*
X163743691Y-93212549D01*
X163729923Y-93205190D01*
X163707284Y-93195813D01*
X163683251Y-93191033D01*
X163658747Y-93191033D01*
X163634714Y-93195814D01*
X163612077Y-93205190D01*
X163598309Y-93212549D01*
X163591295Y-93214677D01*
X163577860Y-93216000D01*
X163264140Y-93216000D01*
X163250705Y-93214677D01*
X163243691Y-93212549D01*
X163229923Y-93205190D01*
X163207284Y-93195813D01*
X163183251Y-93191033D01*
X163158747Y-93191033D01*
X163134714Y-93195814D01*
X163112077Y-93205190D01*
X163098309Y-93212549D01*
X163091295Y-93214677D01*
X163077860Y-93216000D01*
X162764140Y-93216000D01*
X162750705Y-93214677D01*
X162743691Y-93212549D01*
X162729923Y-93205190D01*
X162707284Y-93195813D01*
X162683251Y-93191033D01*
X162658747Y-93191033D01*
X162634714Y-93195814D01*
X162612077Y-93205190D01*
X162598309Y-93212549D01*
X162591295Y-93214677D01*
X162577860Y-93216000D01*
X162264140Y-93216000D01*
X162250705Y-93214677D01*
X162243691Y-93212549D01*
X162229923Y-93205190D01*
X162207284Y-93195813D01*
X162183251Y-93191033D01*
X162158747Y-93191033D01*
X162134714Y-93195814D01*
X162112077Y-93205190D01*
X162098309Y-93212549D01*
X162091295Y-93214677D01*
X162077860Y-93216000D01*
X161764140Y-93216000D01*
X161750705Y-93214677D01*
X161743691Y-93212549D01*
X161729923Y-93205190D01*
X161707284Y-93195813D01*
X161683251Y-93191033D01*
X161658747Y-93191033D01*
X161634714Y-93195814D01*
X161612077Y-93205190D01*
X161598309Y-93212549D01*
X161591295Y-93214677D01*
X161577860Y-93216000D01*
X161264140Y-93216000D01*
X161250705Y-93214677D01*
X161243691Y-93212549D01*
X161229923Y-93205190D01*
X161207284Y-93195813D01*
X161183251Y-93191033D01*
X161158747Y-93191033D01*
X161134714Y-93195814D01*
X161112077Y-93205190D01*
X161098309Y-93212549D01*
X161091295Y-93214677D01*
X161077860Y-93216000D01*
X160764140Y-93216000D01*
X160750705Y-93214677D01*
X160743691Y-93212549D01*
X160729923Y-93205190D01*
X160707284Y-93195813D01*
X160683251Y-93191033D01*
X160658747Y-93191033D01*
X160634714Y-93195814D01*
X160612077Y-93205190D01*
X160598309Y-93212549D01*
X160591295Y-93214677D01*
X160577860Y-93216000D01*
X160264140Y-93216000D01*
X160250705Y-93214677D01*
X160243691Y-93212549D01*
X160229923Y-93205190D01*
X160207284Y-93195813D01*
X160183251Y-93191033D01*
X160158747Y-93191033D01*
X160134714Y-93195814D01*
X160112077Y-93205190D01*
X160098309Y-93212549D01*
X160091295Y-93214677D01*
X160077860Y-93216000D01*
X159764140Y-93216000D01*
X159750705Y-93214677D01*
X159743691Y-93212549D01*
X159729923Y-93205190D01*
X159707284Y-93195813D01*
X159683251Y-93191033D01*
X159658747Y-93191033D01*
X159634714Y-93195814D01*
X159612077Y-93205190D01*
X159598309Y-93212549D01*
X159591295Y-93214677D01*
X159577860Y-93216000D01*
X159264140Y-93216000D01*
X159250705Y-93214677D01*
X159243691Y-93212549D01*
X159229923Y-93205190D01*
X159207284Y-93195813D01*
X159183251Y-93191033D01*
X159158747Y-93191033D01*
X159134714Y-93195814D01*
X159112077Y-93205190D01*
X159098309Y-93212549D01*
X159091295Y-93214677D01*
X159077860Y-93216000D01*
X158764140Y-93216000D01*
X158750705Y-93214677D01*
X158743690Y-93212549D01*
X158737224Y-93209092D01*
X158731558Y-93204442D01*
X158726908Y-93198776D01*
X158723451Y-93192310D01*
X158721323Y-93185295D01*
X158720000Y-93171860D01*
X158720000Y-91683140D01*
X158721323Y-91669705D01*
X158723451Y-91662690D01*
X158726908Y-91656224D01*
X158731558Y-91650558D01*
X158737224Y-91645908D01*
X158743690Y-91642451D01*
X158750705Y-91640323D01*
X158764140Y-91639000D01*
X159077860Y-91639000D01*
X159091295Y-91640323D01*
G37*
G36*
X138173999Y-91553445D02*
G01*
X138211495Y-91564820D01*
X138246054Y-91583292D01*
X138276347Y-91608153D01*
X138301208Y-91638446D01*
X138319680Y-91673005D01*
X138331055Y-91710501D01*
X138335500Y-91755638D01*
X138335500Y-92394362D01*
X138331055Y-92439499D01*
X138319680Y-92476995D01*
X138301208Y-92511554D01*
X138276347Y-92541847D01*
X138246054Y-92566708D01*
X138211495Y-92585180D01*
X138173999Y-92596555D01*
X138128862Y-92601000D01*
X137390138Y-92601000D01*
X137345001Y-92596555D01*
X137307505Y-92585180D01*
X137272946Y-92566708D01*
X137242653Y-92541847D01*
X137217792Y-92511554D01*
X137199320Y-92476995D01*
X137187945Y-92439499D01*
X137183500Y-92394362D01*
X137183500Y-91755638D01*
X137187945Y-91710501D01*
X137199320Y-91673005D01*
X137217792Y-91638446D01*
X137242653Y-91608153D01*
X137272946Y-91583292D01*
X137307505Y-91564820D01*
X137345001Y-91553445D01*
X137390138Y-91549000D01*
X138128862Y-91549000D01*
X138173999Y-91553445D01*
G37*
G36*
X139923999Y-91553445D02*
G01*
X139961495Y-91564820D01*
X139996054Y-91583292D01*
X140026347Y-91608153D01*
X140051208Y-91638446D01*
X140069680Y-91673005D01*
X140081055Y-91710501D01*
X140085500Y-91755638D01*
X140085500Y-92394362D01*
X140081055Y-92439499D01*
X140069680Y-92476995D01*
X140051208Y-92511554D01*
X140026347Y-92541847D01*
X139996054Y-92566708D01*
X139961495Y-92585180D01*
X139923999Y-92596555D01*
X139878862Y-92601000D01*
X139140138Y-92601000D01*
X139095001Y-92596555D01*
X139057505Y-92585180D01*
X139022946Y-92566708D01*
X138992653Y-92541847D01*
X138967792Y-92511554D01*
X138949320Y-92476995D01*
X138937945Y-92439499D01*
X138933500Y-92394362D01*
X138933500Y-91755638D01*
X138937945Y-91710501D01*
X138949320Y-91673005D01*
X138967792Y-91638446D01*
X138992653Y-91608153D01*
X139022946Y-91583292D01*
X139057505Y-91564820D01*
X139095001Y-91553445D01*
X139140138Y-91549000D01*
X139878862Y-91549000D01*
X139923999Y-91553445D01*
G37*
G36*
X173113000Y-92341000D02*
G01*
X171311000Y-92341000D01*
X171311000Y-90539000D01*
X173113000Y-90539000D01*
X173113000Y-92341000D01*
G37*
G36*
X176008512Y-90543927D02*
G01*
X176157812Y-90573624D01*
X176321784Y-90641544D01*
X176469354Y-90740147D01*
X176594853Y-90865646D01*
X176693456Y-91013216D01*
X176761376Y-91177188D01*
X176791073Y-91326488D01*
X176796000Y-91351258D01*
X176796000Y-91528742D01*
X176794913Y-91534208D01*
X176761376Y-91702812D01*
X176693456Y-91866784D01*
X176594853Y-92014354D01*
X176469354Y-92139853D01*
X176321784Y-92238456D01*
X176157812Y-92306376D01*
X176008512Y-92336073D01*
X175983742Y-92341000D01*
X175806258Y-92341000D01*
X175781488Y-92336073D01*
X175632188Y-92306376D01*
X175468216Y-92238456D01*
X175320646Y-92139853D01*
X175195147Y-92014354D01*
X175096544Y-91866784D01*
X175028624Y-91702812D01*
X174995087Y-91534208D01*
X174994000Y-91528742D01*
X174994000Y-91351258D01*
X174998927Y-91326488D01*
X175028624Y-91177188D01*
X175096544Y-91013216D01*
X175195147Y-90865646D01*
X175320646Y-90740147D01*
X175468216Y-90641544D01*
X175632188Y-90573624D01*
X175781488Y-90543927D01*
X175806258Y-90539000D01*
X175983742Y-90539000D01*
X176008512Y-90543927D01*
G37*
G36*
X153778000Y-92098000D02*
G01*
X151276000Y-92098000D01*
X151276000Y-88496000D01*
X153778000Y-88496000D01*
X153778000Y-92098000D01*
G37*
G36*
X128799715Y-90634058D02*
G01*
X128865323Y-90653960D01*
X128910935Y-90667796D01*
X128917722Y-90669855D01*
X129026468Y-90727981D01*
X129121790Y-90806210D01*
X129200019Y-90901532D01*
X129258145Y-91010278D01*
X129293942Y-91128285D01*
X129306028Y-91251000D01*
X129293942Y-91373715D01*
X129258145Y-91491722D01*
X129200019Y-91600468D01*
X129121790Y-91695790D01*
X129026468Y-91774019D01*
X128917722Y-91832145D01*
X128799715Y-91867942D01*
X128707746Y-91877000D01*
X127996254Y-91877000D01*
X127904285Y-91867942D01*
X127786278Y-91832145D01*
X127677532Y-91774019D01*
X127582210Y-91695790D01*
X127503981Y-91600468D01*
X127445855Y-91491722D01*
X127410058Y-91373715D01*
X127397972Y-91251000D01*
X127410058Y-91128285D01*
X127445855Y-91010278D01*
X127503981Y-90901532D01*
X127582210Y-90806210D01*
X127677532Y-90727981D01*
X127786278Y-90669855D01*
X127793066Y-90667796D01*
X127838677Y-90653960D01*
X127904285Y-90634058D01*
X127996254Y-90625000D01*
X128707746Y-90625000D01*
X128799715Y-90634058D01*
G37*
G36*
X131233552Y-89442331D02*
G01*
X131310861Y-89474354D01*
X131315629Y-89476329D01*
X131389496Y-89525686D01*
X131452314Y-89588504D01*
X131483454Y-89635107D01*
X131501672Y-89662373D01*
X131535669Y-89744448D01*
X131553000Y-89831579D01*
X131553000Y-89920421D01*
X131535669Y-90007552D01*
X131511522Y-90065847D01*
X131501671Y-90089629D01*
X131489048Y-90108520D01*
X131452315Y-90163495D01*
X131436762Y-90179048D01*
X131421217Y-90197990D01*
X131409666Y-90219601D01*
X131402553Y-90243050D01*
X131400151Y-90267436D01*
X131402553Y-90291822D01*
X131409666Y-90315271D01*
X131421217Y-90336882D01*
X131436762Y-90355824D01*
X131455704Y-90371369D01*
X131477315Y-90382920D01*
X131500764Y-90390033D01*
X131525150Y-90392435D01*
X131549536Y-90390033D01*
X131572985Y-90382920D01*
X131576614Y-90381204D01*
X131578600Y-90380602D01*
X131578601Y-90380601D01*
X131650915Y-90358665D01*
X131724879Y-90336228D01*
X131838882Y-90325000D01*
X132465118Y-90325000D01*
X132579121Y-90336228D01*
X132725402Y-90380602D01*
X132860204Y-90452655D01*
X132860207Y-90452657D01*
X132860208Y-90452658D01*
X132978369Y-90549631D01*
X133053801Y-90641544D01*
X133075345Y-90667796D01*
X133147398Y-90802598D01*
X133191772Y-90948879D01*
X133206754Y-91101000D01*
X133191772Y-91253121D01*
X133147398Y-91399402D01*
X133075345Y-91534204D01*
X133075343Y-91534207D01*
X133075342Y-91534208D01*
X132978369Y-91652369D01*
X132907536Y-91710501D01*
X132860204Y-91749345D01*
X132725402Y-91821398D01*
X132579121Y-91865772D01*
X132465118Y-91877000D01*
X131838882Y-91877000D01*
X131724879Y-91865772D01*
X131578598Y-91821398D01*
X131443796Y-91749345D01*
X131396465Y-91710501D01*
X131325631Y-91652369D01*
X131228658Y-91534208D01*
X131228657Y-91534207D01*
X131228655Y-91534204D01*
X131156602Y-91399402D01*
X131112228Y-91253121D01*
X131097246Y-91101000D01*
X131112228Y-90948879D01*
X131156602Y-90802598D01*
X131228655Y-90667796D01*
X131325633Y-90549628D01*
X131358430Y-90522712D01*
X131375757Y-90505385D01*
X131389370Y-90485011D01*
X131398748Y-90462372D01*
X131403528Y-90438339D01*
X131403528Y-90413835D01*
X131398748Y-90389801D01*
X131389370Y-90367163D01*
X131375756Y-90346788D01*
X131358429Y-90329461D01*
X131338055Y-90315848D01*
X131315416Y-90306470D01*
X131291383Y-90301690D01*
X131266879Y-90301690D01*
X131242845Y-90306470D01*
X131234351Y-90309510D01*
X131146421Y-90327000D01*
X131057579Y-90327000D01*
X130970448Y-90309669D01*
X130888373Y-90275672D01*
X130888372Y-90275672D01*
X130888371Y-90275671D01*
X130839551Y-90243050D01*
X130814505Y-90226315D01*
X130751685Y-90163495D01*
X130714952Y-90108520D01*
X130702329Y-90089629D01*
X130692478Y-90065847D01*
X130668331Y-90007552D01*
X130651000Y-89920421D01*
X130651000Y-89831579D01*
X130668331Y-89744448D01*
X130702328Y-89662373D01*
X130720547Y-89635107D01*
X130751686Y-89588504D01*
X130814504Y-89525686D01*
X130888371Y-89476329D01*
X130893139Y-89474354D01*
X130970448Y-89442331D01*
X131057579Y-89425000D01*
X131146421Y-89425000D01*
X131233552Y-89442331D01*
G37*
G36*
X150224499Y-90727445D02*
G01*
X150261995Y-90738820D01*
X150296554Y-90757292D01*
X150326847Y-90782153D01*
X150351708Y-90812446D01*
X150370180Y-90847005D01*
X150381555Y-90884501D01*
X150386000Y-90929638D01*
X150386000Y-91668362D01*
X150381555Y-91713499D01*
X150370180Y-91750995D01*
X150351708Y-91785554D01*
X150326847Y-91815847D01*
X150296554Y-91840708D01*
X150261995Y-91859180D01*
X150224499Y-91870555D01*
X150179362Y-91875000D01*
X149540638Y-91875000D01*
X149495501Y-91870555D01*
X149458005Y-91859180D01*
X149423446Y-91840708D01*
X149393153Y-91815847D01*
X149368292Y-91785554D01*
X149349820Y-91750995D01*
X149338445Y-91713499D01*
X149334000Y-91668362D01*
X149334000Y-90929638D01*
X149338445Y-90884501D01*
X149349820Y-90847005D01*
X149368292Y-90812446D01*
X149393153Y-90782153D01*
X149423446Y-90757292D01*
X149458005Y-90738820D01*
X149495501Y-90727445D01*
X149540638Y-90723000D01*
X150179362Y-90723000D01*
X150224499Y-90727445D01*
G37*
G36*
X166591295Y-85315323D02*
G01*
X166598310Y-85317451D01*
X166604776Y-85320908D01*
X166610442Y-85325558D01*
X166615092Y-85331224D01*
X166618549Y-85337690D01*
X166620677Y-85344705D01*
X166622000Y-85358140D01*
X166622000Y-85671860D01*
X166620677Y-85685295D01*
X166618549Y-85692309D01*
X166611190Y-85706077D01*
X166601813Y-85728716D01*
X166597033Y-85752749D01*
X166597033Y-85777253D01*
X166601814Y-85801286D01*
X166611190Y-85823923D01*
X166618549Y-85837691D01*
X166620677Y-85844705D01*
X166622000Y-85858140D01*
X166622000Y-86171860D01*
X166620677Y-86185295D01*
X166618549Y-86192309D01*
X166611190Y-86206077D01*
X166601813Y-86228716D01*
X166597033Y-86252749D01*
X166597033Y-86277253D01*
X166601814Y-86301286D01*
X166611190Y-86323923D01*
X166618549Y-86337691D01*
X166620677Y-86344705D01*
X166622000Y-86358140D01*
X166622000Y-86671860D01*
X166620677Y-86685295D01*
X166618549Y-86692309D01*
X166611190Y-86706077D01*
X166601813Y-86728716D01*
X166597033Y-86752749D01*
X166597033Y-86777253D01*
X166601814Y-86801286D01*
X166611190Y-86823923D01*
X166618549Y-86837691D01*
X166620677Y-86844705D01*
X166622000Y-86858140D01*
X166622000Y-87171860D01*
X166620677Y-87185295D01*
X166618549Y-87192309D01*
X166611190Y-87206077D01*
X166601813Y-87228716D01*
X166597033Y-87252749D01*
X166597033Y-87277253D01*
X166601814Y-87301286D01*
X166611190Y-87323923D01*
X166618549Y-87337691D01*
X166620677Y-87344705D01*
X166622000Y-87358140D01*
X166622000Y-87671860D01*
X166620677Y-87685295D01*
X166618549Y-87692309D01*
X166611190Y-87706077D01*
X166601813Y-87728716D01*
X166597033Y-87752749D01*
X166597033Y-87777253D01*
X166601814Y-87801286D01*
X166611190Y-87823923D01*
X166618549Y-87837691D01*
X166620677Y-87844705D01*
X166622000Y-87858140D01*
X166622000Y-88171860D01*
X166620677Y-88185295D01*
X166618549Y-88192309D01*
X166611190Y-88206077D01*
X166601813Y-88228716D01*
X166597033Y-88252749D01*
X166597033Y-88277253D01*
X166601814Y-88301286D01*
X166611190Y-88323923D01*
X166618549Y-88337691D01*
X166620677Y-88344705D01*
X166622000Y-88358140D01*
X166622000Y-88671860D01*
X166620677Y-88685295D01*
X166618549Y-88692309D01*
X166611190Y-88706077D01*
X166601813Y-88728716D01*
X166597033Y-88752749D01*
X166597033Y-88777253D01*
X166601814Y-88801286D01*
X166611190Y-88823923D01*
X166618549Y-88837691D01*
X166620677Y-88844705D01*
X166622000Y-88858140D01*
X166622000Y-89171860D01*
X166620677Y-89185295D01*
X166618549Y-89192309D01*
X166611190Y-89206077D01*
X166601813Y-89228716D01*
X166597033Y-89252749D01*
X166597033Y-89277253D01*
X166601814Y-89301286D01*
X166611190Y-89323923D01*
X166618549Y-89337691D01*
X166620677Y-89344705D01*
X166622000Y-89358140D01*
X166622000Y-89671860D01*
X166620677Y-89685295D01*
X166618549Y-89692309D01*
X166611190Y-89706077D01*
X166601813Y-89728716D01*
X166597033Y-89752749D01*
X166597033Y-89777253D01*
X166601814Y-89801286D01*
X166611190Y-89823923D01*
X166618549Y-89837691D01*
X166620677Y-89844705D01*
X166622000Y-89858140D01*
X166622000Y-90171860D01*
X166620677Y-90185295D01*
X166618549Y-90192309D01*
X166611190Y-90206077D01*
X166601813Y-90228716D01*
X166597033Y-90252749D01*
X166597033Y-90277253D01*
X166601814Y-90301286D01*
X166611190Y-90323923D01*
X166618549Y-90337691D01*
X166620677Y-90344705D01*
X166622000Y-90358140D01*
X166622000Y-90671860D01*
X166620677Y-90685295D01*
X166618549Y-90692309D01*
X166611190Y-90706077D01*
X166601813Y-90728716D01*
X166597033Y-90752749D01*
X166597033Y-90777253D01*
X166601814Y-90801286D01*
X166611190Y-90823923D01*
X166618549Y-90837691D01*
X166620677Y-90844705D01*
X166622000Y-90858140D01*
X166622000Y-91171860D01*
X166620677Y-91185295D01*
X166618549Y-91192310D01*
X166615092Y-91198776D01*
X166610442Y-91204442D01*
X166604776Y-91209092D01*
X166598310Y-91212549D01*
X166591295Y-91214677D01*
X166577860Y-91216000D01*
X165089140Y-91216000D01*
X165075705Y-91214677D01*
X165068690Y-91212549D01*
X165062224Y-91209092D01*
X165056558Y-91204442D01*
X165051908Y-91198776D01*
X165048451Y-91192310D01*
X165046323Y-91185295D01*
X165045000Y-91171860D01*
X165045000Y-90858140D01*
X165046323Y-90844705D01*
X165048451Y-90837691D01*
X165055810Y-90823923D01*
X165065187Y-90801284D01*
X165069967Y-90777251D01*
X165069967Y-90752747D01*
X165065186Y-90728714D01*
X165055810Y-90706077D01*
X165048451Y-90692309D01*
X165046323Y-90685295D01*
X165045000Y-90671860D01*
X165045000Y-90358140D01*
X165046323Y-90344705D01*
X165048451Y-90337691D01*
X165055810Y-90323923D01*
X165065187Y-90301284D01*
X165069967Y-90277251D01*
X165069967Y-90252747D01*
X165065186Y-90228714D01*
X165055810Y-90206077D01*
X165048451Y-90192309D01*
X165046323Y-90185295D01*
X165045000Y-90171860D01*
X165045000Y-89858140D01*
X165046323Y-89844705D01*
X165048451Y-89837691D01*
X165055810Y-89823923D01*
X165065187Y-89801284D01*
X165069967Y-89777251D01*
X165069967Y-89752747D01*
X165065186Y-89728714D01*
X165055810Y-89706077D01*
X165048451Y-89692309D01*
X165046323Y-89685295D01*
X165045000Y-89671860D01*
X165045000Y-89358140D01*
X165046323Y-89344705D01*
X165048451Y-89337691D01*
X165055810Y-89323923D01*
X165065187Y-89301284D01*
X165069967Y-89277251D01*
X165069967Y-89252747D01*
X165065186Y-89228714D01*
X165055810Y-89206077D01*
X165048451Y-89192309D01*
X165046323Y-89185295D01*
X165045000Y-89171860D01*
X165045000Y-88858140D01*
X165046323Y-88844705D01*
X165048451Y-88837691D01*
X165055810Y-88823923D01*
X165065187Y-88801284D01*
X165069967Y-88777251D01*
X165069967Y-88752747D01*
X165065186Y-88728714D01*
X165055810Y-88706077D01*
X165048451Y-88692309D01*
X165046323Y-88685295D01*
X165045000Y-88671860D01*
X165045000Y-88358140D01*
X165046323Y-88344705D01*
X165048451Y-88337691D01*
X165055810Y-88323923D01*
X165065187Y-88301284D01*
X165069967Y-88277251D01*
X165069967Y-88252747D01*
X165065186Y-88228714D01*
X165055810Y-88206077D01*
X165048451Y-88192309D01*
X165046323Y-88185295D01*
X165045000Y-88171860D01*
X165045000Y-87858140D01*
X165046323Y-87844705D01*
X165048451Y-87837691D01*
X165055810Y-87823923D01*
X165065187Y-87801284D01*
X165069967Y-87777251D01*
X165069967Y-87752747D01*
X165065186Y-87728714D01*
X165055810Y-87706077D01*
X165048451Y-87692309D01*
X165046323Y-87685295D01*
X165045000Y-87671860D01*
X165045000Y-87358140D01*
X165046323Y-87344705D01*
X165048451Y-87337691D01*
X165055810Y-87323923D01*
X165065187Y-87301284D01*
X165069967Y-87277251D01*
X165069967Y-87252747D01*
X165065186Y-87228714D01*
X165055810Y-87206077D01*
X165048451Y-87192309D01*
X165046323Y-87185295D01*
X165045000Y-87171860D01*
X165045000Y-86858140D01*
X165046323Y-86844705D01*
X165048451Y-86837691D01*
X165055810Y-86823923D01*
X165065187Y-86801284D01*
X165069967Y-86777251D01*
X165069967Y-86752747D01*
X165065186Y-86728714D01*
X165055810Y-86706077D01*
X165048451Y-86692309D01*
X165046323Y-86685295D01*
X165045000Y-86671860D01*
X165045000Y-86358140D01*
X165046323Y-86344705D01*
X165048451Y-86337691D01*
X165055810Y-86323923D01*
X165065187Y-86301284D01*
X165069967Y-86277251D01*
X165069967Y-86252747D01*
X165065186Y-86228714D01*
X165055810Y-86206077D01*
X165048451Y-86192309D01*
X165046323Y-86185295D01*
X165045000Y-86171860D01*
X165045000Y-85858140D01*
X165046323Y-85844705D01*
X165048451Y-85837691D01*
X165055810Y-85823923D01*
X165065187Y-85801284D01*
X165069967Y-85777251D01*
X165069967Y-85752747D01*
X165065186Y-85728714D01*
X165055810Y-85706077D01*
X165048451Y-85692309D01*
X165046323Y-85685295D01*
X165045000Y-85671860D01*
X165045000Y-85358140D01*
X165046323Y-85344705D01*
X165048451Y-85337690D01*
X165051908Y-85331224D01*
X165056558Y-85325558D01*
X165062224Y-85320908D01*
X165068690Y-85317451D01*
X165075705Y-85315323D01*
X165089140Y-85314000D01*
X166577860Y-85314000D01*
X166591295Y-85315323D01*
G37*
G36*
X158266295Y-85315323D02*
G01*
X158273310Y-85317451D01*
X158279776Y-85320908D01*
X158285442Y-85325558D01*
X158290092Y-85331224D01*
X158293549Y-85337690D01*
X158295677Y-85344705D01*
X158297000Y-85358140D01*
X158297000Y-85671860D01*
X158295677Y-85685295D01*
X158293549Y-85692309D01*
X158286190Y-85706077D01*
X158276813Y-85728716D01*
X158272033Y-85752749D01*
X158272033Y-85777253D01*
X158276814Y-85801286D01*
X158286190Y-85823923D01*
X158293549Y-85837691D01*
X158295677Y-85844705D01*
X158297000Y-85858140D01*
X158297000Y-86171860D01*
X158295677Y-86185295D01*
X158293549Y-86192309D01*
X158286190Y-86206077D01*
X158276813Y-86228716D01*
X158272033Y-86252749D01*
X158272033Y-86277253D01*
X158276814Y-86301286D01*
X158286190Y-86323923D01*
X158293549Y-86337691D01*
X158295677Y-86344705D01*
X158297000Y-86358140D01*
X158297000Y-86671860D01*
X158295677Y-86685295D01*
X158293549Y-86692309D01*
X158286190Y-86706077D01*
X158276813Y-86728716D01*
X158272033Y-86752749D01*
X158272033Y-86777253D01*
X158276814Y-86801286D01*
X158286190Y-86823923D01*
X158293549Y-86837691D01*
X158295677Y-86844705D01*
X158297000Y-86858140D01*
X158297000Y-87171860D01*
X158295677Y-87185295D01*
X158293549Y-87192309D01*
X158286190Y-87206077D01*
X158276813Y-87228716D01*
X158272033Y-87252749D01*
X158272033Y-87277253D01*
X158276814Y-87301286D01*
X158286190Y-87323923D01*
X158293549Y-87337691D01*
X158295677Y-87344705D01*
X158297000Y-87358140D01*
X158297000Y-87671860D01*
X158295677Y-87685295D01*
X158293549Y-87692309D01*
X158286190Y-87706077D01*
X158276813Y-87728716D01*
X158272033Y-87752749D01*
X158272033Y-87777253D01*
X158276814Y-87801286D01*
X158286190Y-87823923D01*
X158293549Y-87837691D01*
X158295677Y-87844705D01*
X158297000Y-87858140D01*
X158297000Y-88171860D01*
X158295677Y-88185295D01*
X158293549Y-88192309D01*
X158286190Y-88206077D01*
X158276813Y-88228716D01*
X158272033Y-88252749D01*
X158272033Y-88277253D01*
X158276814Y-88301286D01*
X158286190Y-88323923D01*
X158293549Y-88337691D01*
X158295677Y-88344705D01*
X158297000Y-88358140D01*
X158297000Y-88671860D01*
X158295677Y-88685295D01*
X158293549Y-88692309D01*
X158286190Y-88706077D01*
X158276813Y-88728716D01*
X158272033Y-88752749D01*
X158272033Y-88777253D01*
X158276814Y-88801286D01*
X158286190Y-88823923D01*
X158293549Y-88837691D01*
X158295677Y-88844705D01*
X158297000Y-88858140D01*
X158297000Y-89171860D01*
X158295677Y-89185295D01*
X158293549Y-89192309D01*
X158286190Y-89206077D01*
X158276813Y-89228716D01*
X158272033Y-89252749D01*
X158272033Y-89277253D01*
X158276814Y-89301286D01*
X158286190Y-89323923D01*
X158293549Y-89337691D01*
X158295677Y-89344705D01*
X158297000Y-89358140D01*
X158297000Y-89671860D01*
X158295677Y-89685295D01*
X158293549Y-89692309D01*
X158286190Y-89706077D01*
X158276813Y-89728716D01*
X158272033Y-89752749D01*
X158272033Y-89777253D01*
X158276814Y-89801286D01*
X158286190Y-89823923D01*
X158293549Y-89837691D01*
X158295677Y-89844705D01*
X158297000Y-89858140D01*
X158297000Y-90171860D01*
X158295677Y-90185295D01*
X158293549Y-90192309D01*
X158286190Y-90206077D01*
X158276813Y-90228716D01*
X158272033Y-90252749D01*
X158272033Y-90277253D01*
X158276814Y-90301286D01*
X158286190Y-90323923D01*
X158293549Y-90337691D01*
X158295677Y-90344705D01*
X158297000Y-90358140D01*
X158297000Y-90671860D01*
X158295677Y-90685295D01*
X158293549Y-90692309D01*
X158286190Y-90706077D01*
X158276813Y-90728716D01*
X158272033Y-90752749D01*
X158272033Y-90777253D01*
X158276814Y-90801286D01*
X158286190Y-90823923D01*
X158293549Y-90837691D01*
X158295677Y-90844705D01*
X158297000Y-90858140D01*
X158297000Y-91171860D01*
X158295677Y-91185295D01*
X158293549Y-91192310D01*
X158290092Y-91198776D01*
X158285442Y-91204442D01*
X158279776Y-91209092D01*
X158273310Y-91212549D01*
X158266295Y-91214677D01*
X158252860Y-91216000D01*
X156764140Y-91216000D01*
X156750705Y-91214677D01*
X156743690Y-91212549D01*
X156737224Y-91209092D01*
X156731558Y-91204442D01*
X156726908Y-91198776D01*
X156723451Y-91192310D01*
X156721323Y-91185295D01*
X156720000Y-91171860D01*
X156720000Y-90858140D01*
X156721323Y-90844705D01*
X156723451Y-90837691D01*
X156730810Y-90823923D01*
X156740187Y-90801284D01*
X156744967Y-90777251D01*
X156744967Y-90752747D01*
X156740186Y-90728714D01*
X156730810Y-90706077D01*
X156723451Y-90692309D01*
X156721323Y-90685295D01*
X156720000Y-90671860D01*
X156720000Y-90358140D01*
X156721323Y-90344705D01*
X156723451Y-90337691D01*
X156730810Y-90323923D01*
X156740187Y-90301284D01*
X156744967Y-90277251D01*
X156744967Y-90252747D01*
X156740186Y-90228714D01*
X156730810Y-90206077D01*
X156723451Y-90192309D01*
X156721323Y-90185295D01*
X156720000Y-90171860D01*
X156720000Y-89858140D01*
X156721323Y-89844705D01*
X156723451Y-89837691D01*
X156730810Y-89823923D01*
X156740187Y-89801284D01*
X156744967Y-89777251D01*
X156744967Y-89752747D01*
X156740186Y-89728714D01*
X156730810Y-89706077D01*
X156723451Y-89692309D01*
X156721323Y-89685295D01*
X156720000Y-89671860D01*
X156720000Y-89358140D01*
X156721323Y-89344705D01*
X156723451Y-89337691D01*
X156730810Y-89323923D01*
X156740187Y-89301284D01*
X156744967Y-89277251D01*
X156744967Y-89252747D01*
X156740186Y-89228714D01*
X156730810Y-89206077D01*
X156723451Y-89192309D01*
X156721323Y-89185295D01*
X156720000Y-89171860D01*
X156720000Y-88858140D01*
X156721323Y-88844705D01*
X156723451Y-88837691D01*
X156730810Y-88823923D01*
X156740187Y-88801284D01*
X156744967Y-88777251D01*
X156744967Y-88752747D01*
X156740186Y-88728714D01*
X156730810Y-88706077D01*
X156723451Y-88692309D01*
X156721323Y-88685295D01*
X156720000Y-88671860D01*
X156720000Y-88358140D01*
X156721323Y-88344705D01*
X156723451Y-88337691D01*
X156730810Y-88323923D01*
X156740187Y-88301284D01*
X156744967Y-88277251D01*
X156744967Y-88252747D01*
X156740186Y-88228714D01*
X156730810Y-88206077D01*
X156723451Y-88192309D01*
X156721323Y-88185295D01*
X156720000Y-88171860D01*
X156720000Y-87858140D01*
X156721323Y-87844705D01*
X156723451Y-87837691D01*
X156730810Y-87823923D01*
X156740187Y-87801284D01*
X156744967Y-87777251D01*
X156744967Y-87752747D01*
X156740186Y-87728714D01*
X156730810Y-87706077D01*
X156723451Y-87692309D01*
X156721323Y-87685295D01*
X156720000Y-87671860D01*
X156720000Y-87358140D01*
X156721323Y-87344705D01*
X156723451Y-87337691D01*
X156730810Y-87323923D01*
X156740187Y-87301284D01*
X156744967Y-87277251D01*
X156744967Y-87252747D01*
X156740186Y-87228714D01*
X156730810Y-87206077D01*
X156723451Y-87192309D01*
X156721323Y-87185295D01*
X156720000Y-87171860D01*
X156720000Y-86858140D01*
X156721323Y-86844705D01*
X156723451Y-86837691D01*
X156730810Y-86823923D01*
X156740187Y-86801284D01*
X156744967Y-86777251D01*
X156744967Y-86752747D01*
X156740186Y-86728714D01*
X156730810Y-86706077D01*
X156723451Y-86692309D01*
X156721323Y-86685295D01*
X156720000Y-86671860D01*
X156720000Y-86358140D01*
X156721323Y-86344705D01*
X156723451Y-86337691D01*
X156730810Y-86323923D01*
X156740187Y-86301284D01*
X156744967Y-86277251D01*
X156744967Y-86252747D01*
X156740186Y-86228714D01*
X156730810Y-86206077D01*
X156723451Y-86192309D01*
X156721323Y-86185295D01*
X156720000Y-86171860D01*
X156720000Y-85858140D01*
X156721323Y-85844705D01*
X156723451Y-85837691D01*
X156730810Y-85823923D01*
X156740187Y-85801284D01*
X156744967Y-85777251D01*
X156744967Y-85752747D01*
X156740186Y-85728714D01*
X156730810Y-85706077D01*
X156723451Y-85692309D01*
X156721323Y-85685295D01*
X156720000Y-85671860D01*
X156720000Y-85358140D01*
X156721323Y-85344705D01*
X156723451Y-85337690D01*
X156726908Y-85331224D01*
X156731558Y-85325558D01*
X156737224Y-85320908D01*
X156743690Y-85317451D01*
X156750705Y-85315323D01*
X156764140Y-85314000D01*
X158252860Y-85314000D01*
X158266295Y-85315323D01*
G37*
G36*
X138173999Y-90092945D02*
G01*
X138211495Y-90104320D01*
X138246054Y-90122792D01*
X138276347Y-90147653D01*
X138301208Y-90177946D01*
X138319680Y-90212505D01*
X138331054Y-90249999D01*
X138335500Y-90295138D01*
X138335500Y-90933862D01*
X138331055Y-90978999D01*
X138319680Y-91016495D01*
X138301208Y-91051054D01*
X138276347Y-91081347D01*
X138246054Y-91106208D01*
X138211495Y-91124680D01*
X138173999Y-91136055D01*
X138128862Y-91140500D01*
X137390138Y-91140500D01*
X137345001Y-91136055D01*
X137307505Y-91124680D01*
X137272946Y-91106208D01*
X137242653Y-91081347D01*
X137217792Y-91051054D01*
X137199320Y-91016495D01*
X137187945Y-90978999D01*
X137183500Y-90933862D01*
X137183500Y-90295138D01*
X137187946Y-90249999D01*
X137199320Y-90212505D01*
X137217792Y-90177946D01*
X137242653Y-90147653D01*
X137272946Y-90122792D01*
X137307505Y-90104320D01*
X137345001Y-90092945D01*
X137390138Y-90088500D01*
X138128862Y-90088500D01*
X138173999Y-90092945D01*
G37*
G36*
X139923999Y-90092945D02*
G01*
X139961495Y-90104320D01*
X139996054Y-90122792D01*
X140026347Y-90147653D01*
X140051208Y-90177946D01*
X140069680Y-90212505D01*
X140081054Y-90249999D01*
X140085500Y-90295138D01*
X140085500Y-90933862D01*
X140081055Y-90978999D01*
X140069680Y-91016495D01*
X140051208Y-91051054D01*
X140026347Y-91081347D01*
X139996054Y-91106208D01*
X139961495Y-91124680D01*
X139923999Y-91136055D01*
X139878862Y-91140500D01*
X139140138Y-91140500D01*
X139095001Y-91136055D01*
X139057505Y-91124680D01*
X139022946Y-91106208D01*
X138992653Y-91081347D01*
X138967792Y-91051054D01*
X138949320Y-91016495D01*
X138937945Y-90978999D01*
X138933500Y-90933862D01*
X138933500Y-90295138D01*
X138937946Y-90249999D01*
X138949320Y-90212505D01*
X138967792Y-90177946D01*
X138992653Y-90147653D01*
X139022946Y-90122792D01*
X139057505Y-90104320D01*
X139095001Y-90092945D01*
X139140138Y-90088500D01*
X139878862Y-90088500D01*
X139923999Y-90092945D01*
G37*
G36*
X148767500Y-90472000D02*
G01*
X146965500Y-90472000D01*
X146965500Y-89370000D01*
X148767500Y-89370000D01*
X148767500Y-90472000D01*
G37*
G36*
X142467500Y-90472000D02*
G01*
X140665500Y-90472000D01*
X140665500Y-89370000D01*
X142467500Y-89370000D01*
X142467500Y-90472000D01*
G37*
G36*
X150224499Y-88977445D02*
G01*
X150261995Y-88988820D01*
X150296554Y-89007292D01*
X150326847Y-89032153D01*
X150351708Y-89062446D01*
X150370180Y-89097005D01*
X150381555Y-89134501D01*
X150386000Y-89179638D01*
X150386000Y-89918362D01*
X150381555Y-89963499D01*
X150370180Y-90000995D01*
X150351708Y-90035554D01*
X150326847Y-90065847D01*
X150296554Y-90090708D01*
X150261995Y-90109180D01*
X150224499Y-90120555D01*
X150179362Y-90125000D01*
X149540638Y-90125000D01*
X149495501Y-90120555D01*
X149458005Y-90109180D01*
X149423446Y-90090708D01*
X149393153Y-90065847D01*
X149368292Y-90035554D01*
X149349820Y-90000995D01*
X149338445Y-89963499D01*
X149334000Y-89918362D01*
X149334000Y-89179638D01*
X149338445Y-89134501D01*
X149349820Y-89097005D01*
X149368292Y-89062446D01*
X149393153Y-89032153D01*
X149423446Y-89007292D01*
X149458005Y-88988820D01*
X149495501Y-88977445D01*
X149540638Y-88973000D01*
X150179362Y-88973000D01*
X150224499Y-88977445D01*
G37*
G36*
X172325512Y-88003927D02*
G01*
X172474812Y-88033624D01*
X172638784Y-88101544D01*
X172786354Y-88200147D01*
X172911853Y-88325646D01*
X173010456Y-88473216D01*
X173078376Y-88637188D01*
X173113000Y-88811259D01*
X173113000Y-88988741D01*
X173078376Y-89162812D01*
X173010456Y-89326784D01*
X172911853Y-89474354D01*
X172786354Y-89599853D01*
X172638784Y-89698456D01*
X172474812Y-89766376D01*
X172325512Y-89796073D01*
X172300742Y-89801000D01*
X172123258Y-89801000D01*
X172098488Y-89796073D01*
X171949188Y-89766376D01*
X171785216Y-89698456D01*
X171637646Y-89599853D01*
X171512147Y-89474354D01*
X171413544Y-89326784D01*
X171345624Y-89162812D01*
X171311000Y-88988741D01*
X171311000Y-88811259D01*
X171345624Y-88637188D01*
X171413544Y-88473216D01*
X171512147Y-88325646D01*
X171637646Y-88200147D01*
X171785216Y-88101544D01*
X171949188Y-88033624D01*
X172098488Y-88003927D01*
X172123258Y-87999000D01*
X172300742Y-87999000D01*
X172325512Y-88003927D01*
G37*
G36*
X176008512Y-88003927D02*
G01*
X176157812Y-88033624D01*
X176321784Y-88101544D01*
X176469354Y-88200147D01*
X176594853Y-88325646D01*
X176693456Y-88473216D01*
X176761376Y-88637188D01*
X176796000Y-88811259D01*
X176796000Y-88988741D01*
X176761376Y-89162812D01*
X176693456Y-89326784D01*
X176594853Y-89474354D01*
X176469354Y-89599853D01*
X176321784Y-89698456D01*
X176157812Y-89766376D01*
X176008512Y-89796073D01*
X175983742Y-89801000D01*
X175806258Y-89801000D01*
X175781488Y-89796073D01*
X175632188Y-89766376D01*
X175468216Y-89698456D01*
X175320646Y-89599853D01*
X175195147Y-89474354D01*
X175096544Y-89326784D01*
X175028624Y-89162812D01*
X174994000Y-88988741D01*
X174994000Y-88811259D01*
X175028624Y-88637188D01*
X175096544Y-88473216D01*
X175195147Y-88325646D01*
X175320646Y-88200147D01*
X175468216Y-88101544D01*
X175632188Y-88033624D01*
X175781488Y-88003927D01*
X175806258Y-87999000D01*
X175983742Y-87999000D01*
X176008512Y-88003927D01*
G37*
G36*
X132903000Y-88952000D02*
G01*
X131501000Y-88952000D01*
X131501000Y-85800000D01*
X132903000Y-85800000D01*
X132903000Y-88952000D01*
G37*
G36*
X137206999Y-87284445D02*
G01*
X137244495Y-87295820D01*
X137279054Y-87314292D01*
X137309347Y-87339153D01*
X137334208Y-87369446D01*
X137352680Y-87404005D01*
X137364055Y-87441501D01*
X137368500Y-87486638D01*
X137368500Y-88225362D01*
X137364055Y-88270499D01*
X137352680Y-88307995D01*
X137334208Y-88342554D01*
X137309347Y-88372847D01*
X137279054Y-88397708D01*
X137244495Y-88416180D01*
X137206999Y-88427555D01*
X137161862Y-88432000D01*
X136523138Y-88432000D01*
X136478001Y-88427555D01*
X136440505Y-88416180D01*
X136405946Y-88397708D01*
X136375653Y-88372847D01*
X136350792Y-88342554D01*
X136332320Y-88307995D01*
X136320945Y-88270499D01*
X136316500Y-88225362D01*
X136316500Y-87486638D01*
X136320945Y-87441501D01*
X136332320Y-87404005D01*
X136350792Y-87369446D01*
X136375653Y-87339153D01*
X136405946Y-87314292D01*
X136440505Y-87295820D01*
X136478001Y-87284445D01*
X136523138Y-87280000D01*
X137161862Y-87280000D01*
X137206999Y-87284445D01*
G37*
G36*
X146605499Y-87362445D02*
G01*
X146642995Y-87373820D01*
X146677554Y-87392292D01*
X146707847Y-87417153D01*
X146732708Y-87447446D01*
X146751180Y-87482005D01*
X146762555Y-87519501D01*
X146767000Y-87564638D01*
X146767000Y-88203362D01*
X146762555Y-88248499D01*
X146751180Y-88285995D01*
X146732708Y-88320554D01*
X146707847Y-88350847D01*
X146677554Y-88375708D01*
X146642995Y-88394180D01*
X146605499Y-88405555D01*
X146560362Y-88410000D01*
X145821638Y-88410000D01*
X145776501Y-88405555D01*
X145739005Y-88394180D01*
X145704446Y-88375708D01*
X145674153Y-88350847D01*
X145649292Y-88320554D01*
X145630820Y-88285995D01*
X145619445Y-88248499D01*
X145615000Y-88203362D01*
X145615000Y-87564638D01*
X145619445Y-87519501D01*
X145630820Y-87482005D01*
X145649292Y-87447446D01*
X145674153Y-87417153D01*
X145704446Y-87392292D01*
X145739005Y-87373820D01*
X145776501Y-87362445D01*
X145821638Y-87358000D01*
X146560362Y-87358000D01*
X146605499Y-87362445D01*
G37*
G36*
X148355499Y-87362445D02*
G01*
X148392995Y-87373820D01*
X148427554Y-87392292D01*
X148457847Y-87417153D01*
X148482708Y-87447446D01*
X148501180Y-87482005D01*
X148512555Y-87519501D01*
X148517000Y-87564638D01*
X148517000Y-88203362D01*
X148512555Y-88248499D01*
X148501180Y-88285995D01*
X148482708Y-88320554D01*
X148457847Y-88350847D01*
X148427554Y-88375708D01*
X148392995Y-88394180D01*
X148355499Y-88405555D01*
X148310362Y-88410000D01*
X147571638Y-88410000D01*
X147526501Y-88405555D01*
X147489005Y-88394180D01*
X147454446Y-88375708D01*
X147424153Y-88350847D01*
X147399292Y-88320554D01*
X147380820Y-88285995D01*
X147369445Y-88248499D01*
X147365000Y-88203362D01*
X147365000Y-87564638D01*
X147369445Y-87519501D01*
X147380820Y-87482005D01*
X147399292Y-87447446D01*
X147424153Y-87417153D01*
X147454446Y-87392292D01*
X147489005Y-87373820D01*
X147526501Y-87362445D01*
X147571638Y-87358000D01*
X148310362Y-87358000D01*
X148355499Y-87362445D01*
G37*
G36*
X139725000Y-88046400D02*
G01*
X138123000Y-88046400D01*
X138123000Y-85944400D01*
X139725000Y-85944400D01*
X139725000Y-88046400D01*
G37*
G36*
X144325000Y-88046400D02*
G01*
X142723000Y-88046400D01*
X142723000Y-85944400D01*
X144325000Y-85944400D01*
X144325000Y-88046400D01*
G37*
G36*
X142025000Y-88046400D02*
G01*
X140423000Y-88046400D01*
X140423000Y-85944400D01*
X142025000Y-85944400D01*
X142025000Y-88046400D01*
G37*
G36*
X176008512Y-85463927D02*
G01*
X176157812Y-85493624D01*
X176321784Y-85561544D01*
X176469354Y-85660147D01*
X176594853Y-85785646D01*
X176693456Y-85933216D01*
X176761376Y-86097188D01*
X176787537Y-86228714D01*
X176796000Y-86271258D01*
X176796000Y-86448742D01*
X176793291Y-86462360D01*
X176761376Y-86622812D01*
X176693456Y-86786784D01*
X176594853Y-86934354D01*
X176469354Y-87059853D01*
X176321784Y-87158456D01*
X176157812Y-87226376D01*
X176008512Y-87256073D01*
X175983742Y-87261000D01*
X175806258Y-87261000D01*
X175781488Y-87256073D01*
X175632188Y-87226376D01*
X175468216Y-87158456D01*
X175320646Y-87059853D01*
X175195147Y-86934354D01*
X175096544Y-86786784D01*
X175028624Y-86622812D01*
X174996709Y-86462360D01*
X174994000Y-86448742D01*
X174994000Y-86271258D01*
X175002463Y-86228714D01*
X175028624Y-86097188D01*
X175096544Y-85933216D01*
X175195147Y-85785646D01*
X175320646Y-85660147D01*
X175468216Y-85561544D01*
X175632188Y-85493624D01*
X175781488Y-85463927D01*
X175806258Y-85459000D01*
X175983742Y-85459000D01*
X176008512Y-85463927D01*
G37*
G36*
X172325512Y-85463927D02*
G01*
X172474812Y-85493624D01*
X172638784Y-85561544D01*
X172786354Y-85660147D01*
X172911853Y-85785646D01*
X173010456Y-85933216D01*
X173078376Y-86097188D01*
X173104537Y-86228714D01*
X173113000Y-86271258D01*
X173113000Y-86448742D01*
X173110291Y-86462360D01*
X173078376Y-86622812D01*
X173010456Y-86786784D01*
X172911853Y-86934354D01*
X172786354Y-87059853D01*
X172638784Y-87158456D01*
X172474812Y-87226376D01*
X172325512Y-87256073D01*
X172300742Y-87261000D01*
X172123258Y-87261000D01*
X172098488Y-87256073D01*
X171949188Y-87226376D01*
X171785216Y-87158456D01*
X171637646Y-87059853D01*
X171512147Y-86934354D01*
X171413544Y-86786784D01*
X171345624Y-86622812D01*
X171313709Y-86462360D01*
X171311000Y-86448742D01*
X171311000Y-86271258D01*
X171319463Y-86228714D01*
X171345624Y-86097188D01*
X171413544Y-85933216D01*
X171512147Y-85785646D01*
X171637646Y-85660147D01*
X171785216Y-85561544D01*
X171949188Y-85493624D01*
X172098488Y-85463927D01*
X172123258Y-85459000D01*
X172300742Y-85459000D01*
X172325512Y-85463927D01*
G37*
G36*
X153778000Y-86898000D02*
G01*
X151276000Y-86898000D01*
X151276000Y-83296000D01*
X153778000Y-83296000D01*
X153778000Y-86898000D01*
G37*
G36*
X146828000Y-86733000D02*
G01*
X145526000Y-86733000D01*
X145526000Y-85731000D01*
X146828000Y-85731000D01*
X146828000Y-86733000D01*
G37*
G36*
X137206999Y-85534445D02*
G01*
X137244495Y-85545820D01*
X137279054Y-85564292D01*
X137309347Y-85589153D01*
X137334208Y-85619446D01*
X137352680Y-85654005D01*
X137364055Y-85691501D01*
X137368500Y-85736638D01*
X137368500Y-86475362D01*
X137364055Y-86520499D01*
X137352680Y-86557995D01*
X137334208Y-86592554D01*
X137309347Y-86622847D01*
X137279054Y-86647708D01*
X137244495Y-86666180D01*
X137206999Y-86677555D01*
X137161862Y-86682000D01*
X136523138Y-86682000D01*
X136478001Y-86677555D01*
X136440505Y-86666180D01*
X136405946Y-86647708D01*
X136375653Y-86622847D01*
X136350792Y-86592554D01*
X136332320Y-86557995D01*
X136320945Y-86520499D01*
X136316500Y-86475362D01*
X136316500Y-85736638D01*
X136320945Y-85691501D01*
X136332320Y-85654005D01*
X136350792Y-85619446D01*
X136375653Y-85589153D01*
X136405946Y-85564292D01*
X136440505Y-85545820D01*
X136478001Y-85534445D01*
X136523138Y-85530000D01*
X137161862Y-85530000D01*
X137206999Y-85534445D01*
G37*
G36*
X155856938Y-85889716D02*
G01*
X155877557Y-85895971D01*
X155896553Y-85906124D01*
X155913208Y-85919792D01*
X155926876Y-85936447D01*
X155937029Y-85955443D01*
X155943284Y-85976062D01*
X155946000Y-86003640D01*
X155946000Y-86462360D01*
X155943284Y-86489938D01*
X155937029Y-86510557D01*
X155926876Y-86529553D01*
X155913208Y-86546208D01*
X155896553Y-86559876D01*
X155877557Y-86570029D01*
X155856938Y-86576284D01*
X155829360Y-86579000D01*
X155320640Y-86579000D01*
X155293062Y-86576284D01*
X155272443Y-86570029D01*
X155253447Y-86559876D01*
X155236792Y-86546208D01*
X155223124Y-86529553D01*
X155212971Y-86510557D01*
X155206716Y-86489938D01*
X155204000Y-86462360D01*
X155204000Y-86003640D01*
X155206716Y-85976062D01*
X155212971Y-85955443D01*
X155223124Y-85936447D01*
X155236792Y-85919792D01*
X155253447Y-85906124D01*
X155272443Y-85895971D01*
X155293062Y-85889716D01*
X155320640Y-85887000D01*
X155829360Y-85887000D01*
X155856938Y-85889716D01*
G37*
G36*
X150224499Y-85393445D02*
G01*
X150261995Y-85404820D01*
X150296554Y-85423292D01*
X150326847Y-85448153D01*
X150351708Y-85478446D01*
X150370180Y-85513005D01*
X150381555Y-85550501D01*
X150386000Y-85595638D01*
X150386000Y-86334362D01*
X150381555Y-86379499D01*
X150370180Y-86416995D01*
X150351708Y-86451554D01*
X150326847Y-86481847D01*
X150296554Y-86506708D01*
X150261995Y-86525180D01*
X150224499Y-86536555D01*
X150179362Y-86541000D01*
X149540638Y-86541000D01*
X149495501Y-86536555D01*
X149458005Y-86525180D01*
X149423446Y-86506708D01*
X149393153Y-86481847D01*
X149368292Y-86451554D01*
X149349820Y-86416995D01*
X149338445Y-86379499D01*
X149334000Y-86334362D01*
X149334000Y-85595638D01*
X149338445Y-85550501D01*
X149349820Y-85513005D01*
X149368292Y-85478446D01*
X149393153Y-85448153D01*
X149423446Y-85423292D01*
X149458005Y-85404820D01*
X149495501Y-85393445D01*
X149540638Y-85389000D01*
X150179362Y-85389000D01*
X150224499Y-85393445D01*
G37*
G36*
X155856938Y-84919716D02*
G01*
X155877557Y-84925971D01*
X155896553Y-84936124D01*
X155913208Y-84949792D01*
X155926876Y-84966447D01*
X155937029Y-84985443D01*
X155943284Y-85006062D01*
X155946000Y-85033640D01*
X155946000Y-85492360D01*
X155943284Y-85519938D01*
X155937029Y-85540557D01*
X155926876Y-85559553D01*
X155913208Y-85576208D01*
X155896553Y-85589876D01*
X155877557Y-85600029D01*
X155856938Y-85606284D01*
X155829360Y-85609000D01*
X155320640Y-85609000D01*
X155293062Y-85606284D01*
X155272443Y-85600029D01*
X155253447Y-85589876D01*
X155236792Y-85576208D01*
X155223124Y-85559553D01*
X155212971Y-85540557D01*
X155206716Y-85519938D01*
X155204000Y-85492360D01*
X155204000Y-85033640D01*
X155206716Y-85006062D01*
X155212971Y-84985443D01*
X155223124Y-84966447D01*
X155236792Y-84949792D01*
X155253447Y-84936124D01*
X155272443Y-84925971D01*
X155293062Y-84919716D01*
X155320640Y-84917000D01*
X155829360Y-84917000D01*
X155856938Y-84919716D01*
G37*
G36*
X132579121Y-82886228D02*
G01*
X132725402Y-82930602D01*
X132860204Y-83002655D01*
X132860207Y-83002657D01*
X132860208Y-83002658D01*
X132978369Y-83099631D01*
X133020963Y-83151531D01*
X133075345Y-83217796D01*
X133147398Y-83352598D01*
X133191772Y-83498879D01*
X133206754Y-83651000D01*
X133191772Y-83803121D01*
X133147398Y-83949402D01*
X133075345Y-84084204D01*
X133075343Y-84084207D01*
X133075342Y-84084208D01*
X132978369Y-84202369D01*
X132886116Y-84278080D01*
X132860204Y-84299345D01*
X132725402Y-84371398D01*
X132579121Y-84415772D01*
X132465118Y-84427000D01*
X131838882Y-84427000D01*
X131724879Y-84415772D01*
X131572664Y-84369598D01*
X131561439Y-84364948D01*
X131537405Y-84360167D01*
X131512901Y-84360167D01*
X131488868Y-84364946D01*
X131466229Y-84374323D01*
X131445854Y-84387936D01*
X131428527Y-84405263D01*
X131414912Y-84425637D01*
X131405534Y-84448275D01*
X131400753Y-84472309D01*
X131400753Y-84496813D01*
X131405532Y-84520846D01*
X131414909Y-84543485D01*
X131428522Y-84563860D01*
X131436762Y-84572952D01*
X131452315Y-84588505D01*
X131501672Y-84662373D01*
X131535669Y-84744448D01*
X131553000Y-84831579D01*
X131553000Y-84920421D01*
X131535669Y-85007552D01*
X131501672Y-85089627D01*
X131501671Y-85089629D01*
X131452314Y-85163496D01*
X131389496Y-85226314D01*
X131315629Y-85275671D01*
X131315628Y-85275672D01*
X131315627Y-85275672D01*
X131233552Y-85309669D01*
X131146421Y-85327000D01*
X131057579Y-85327000D01*
X130970448Y-85309669D01*
X130888373Y-85275672D01*
X130888372Y-85275672D01*
X130888371Y-85275671D01*
X130814504Y-85226314D01*
X130751686Y-85163496D01*
X130702329Y-85089629D01*
X130702328Y-85089627D01*
X130668331Y-85007552D01*
X130651000Y-84920421D01*
X130651000Y-84831579D01*
X130668331Y-84744448D01*
X130702328Y-84662373D01*
X130751685Y-84588505D01*
X130814505Y-84525685D01*
X130857715Y-84496813D01*
X130888371Y-84476329D01*
X130898076Y-84472309D01*
X130970448Y-84442331D01*
X131057579Y-84425000D01*
X131146421Y-84425000D01*
X131235946Y-84442807D01*
X131254743Y-84448510D01*
X131279129Y-84450912D01*
X131303515Y-84448511D01*
X131326964Y-84441398D01*
X131348575Y-84429847D01*
X131367517Y-84414302D01*
X131383063Y-84395361D01*
X131394614Y-84373750D01*
X131401728Y-84350301D01*
X131404130Y-84325915D01*
X131401729Y-84301529D01*
X131394616Y-84278080D01*
X131383065Y-84256469D01*
X131367520Y-84237527D01*
X131358430Y-84229288D01*
X131325633Y-84202372D01*
X131228655Y-84084204D01*
X131156602Y-83949402D01*
X131112228Y-83803121D01*
X131097246Y-83651000D01*
X131112228Y-83498879D01*
X131156602Y-83352598D01*
X131228655Y-83217796D01*
X131283038Y-83151531D01*
X131325631Y-83099631D01*
X131443792Y-83002658D01*
X131443793Y-83002657D01*
X131443796Y-83002655D01*
X131578598Y-82930602D01*
X131724879Y-82886228D01*
X131838882Y-82875000D01*
X132465118Y-82875000D01*
X132579121Y-82886228D01*
G37*
G36*
X137037000Y-84940000D02*
G01*
X136135000Y-84940000D01*
X136135000Y-83938000D01*
X137037000Y-83938000D01*
X137037000Y-84940000D01*
G37*
G36*
X135137000Y-84940000D02*
G01*
X134235000Y-84940000D01*
X134235000Y-83938000D01*
X135137000Y-83938000D01*
X135137000Y-84940000D01*
G37*
G36*
X159091295Y-83315323D02*
G01*
X159098309Y-83317451D01*
X159112077Y-83324810D01*
X159134716Y-83334187D01*
X159158749Y-83338967D01*
X159183253Y-83338967D01*
X159207286Y-83334186D01*
X159229923Y-83324810D01*
X159243691Y-83317451D01*
X159250705Y-83315323D01*
X159264140Y-83314000D01*
X159577860Y-83314000D01*
X159591295Y-83315323D01*
X159598309Y-83317451D01*
X159612077Y-83324810D01*
X159634716Y-83334187D01*
X159658749Y-83338967D01*
X159683253Y-83338967D01*
X159707286Y-83334186D01*
X159729923Y-83324810D01*
X159743691Y-83317451D01*
X159750705Y-83315323D01*
X159764140Y-83314000D01*
X160077860Y-83314000D01*
X160091295Y-83315323D01*
X160098309Y-83317451D01*
X160112077Y-83324810D01*
X160134716Y-83334187D01*
X160158749Y-83338967D01*
X160183253Y-83338967D01*
X160207286Y-83334186D01*
X160229923Y-83324810D01*
X160243691Y-83317451D01*
X160250705Y-83315323D01*
X160264140Y-83314000D01*
X160577860Y-83314000D01*
X160591295Y-83315323D01*
X160598309Y-83317451D01*
X160612077Y-83324810D01*
X160634716Y-83334187D01*
X160658749Y-83338967D01*
X160683253Y-83338967D01*
X160707286Y-83334186D01*
X160729923Y-83324810D01*
X160743691Y-83317451D01*
X160750705Y-83315323D01*
X160764140Y-83314000D01*
X161077860Y-83314000D01*
X161091295Y-83315323D01*
X161098309Y-83317451D01*
X161112077Y-83324810D01*
X161134716Y-83334187D01*
X161158749Y-83338967D01*
X161183253Y-83338967D01*
X161207286Y-83334186D01*
X161229923Y-83324810D01*
X161243691Y-83317451D01*
X161250705Y-83315323D01*
X161264140Y-83314000D01*
X161577860Y-83314000D01*
X161591295Y-83315323D01*
X161598309Y-83317451D01*
X161612077Y-83324810D01*
X161634716Y-83334187D01*
X161658749Y-83338967D01*
X161683253Y-83338967D01*
X161707286Y-83334186D01*
X161729923Y-83324810D01*
X161743691Y-83317451D01*
X161750705Y-83315323D01*
X161764140Y-83314000D01*
X162077860Y-83314000D01*
X162091295Y-83315323D01*
X162098309Y-83317451D01*
X162112077Y-83324810D01*
X162134716Y-83334187D01*
X162158749Y-83338967D01*
X162183253Y-83338967D01*
X162207286Y-83334186D01*
X162229923Y-83324810D01*
X162243691Y-83317451D01*
X162250705Y-83315323D01*
X162264140Y-83314000D01*
X162577860Y-83314000D01*
X162591295Y-83315323D01*
X162598309Y-83317451D01*
X162612077Y-83324810D01*
X162634716Y-83334187D01*
X162658749Y-83338967D01*
X162683253Y-83338967D01*
X162707286Y-83334186D01*
X162729923Y-83324810D01*
X162743691Y-83317451D01*
X162750705Y-83315323D01*
X162764140Y-83314000D01*
X163077860Y-83314000D01*
X163091295Y-83315323D01*
X163098309Y-83317451D01*
X163112077Y-83324810D01*
X163134716Y-83334187D01*
X163158749Y-83338967D01*
X163183253Y-83338967D01*
X163207286Y-83334186D01*
X163229923Y-83324810D01*
X163243691Y-83317451D01*
X163250705Y-83315323D01*
X163264140Y-83314000D01*
X163577860Y-83314000D01*
X163591295Y-83315323D01*
X163598309Y-83317451D01*
X163612077Y-83324810D01*
X163634716Y-83334187D01*
X163658749Y-83338967D01*
X163683253Y-83338967D01*
X163707286Y-83334186D01*
X163729923Y-83324810D01*
X163743691Y-83317451D01*
X163750705Y-83315323D01*
X163764140Y-83314000D01*
X164077860Y-83314000D01*
X164091295Y-83315323D01*
X164098309Y-83317451D01*
X164112077Y-83324810D01*
X164134716Y-83334187D01*
X164158749Y-83338967D01*
X164183253Y-83338967D01*
X164207286Y-83334186D01*
X164229923Y-83324810D01*
X164243691Y-83317451D01*
X164250705Y-83315323D01*
X164264140Y-83314000D01*
X164577860Y-83314000D01*
X164591295Y-83315323D01*
X164598310Y-83317451D01*
X164604776Y-83320908D01*
X164610442Y-83325558D01*
X164615092Y-83331224D01*
X164618549Y-83337690D01*
X164620677Y-83344705D01*
X164622000Y-83358140D01*
X164622000Y-84846860D01*
X164620677Y-84860295D01*
X164618549Y-84867310D01*
X164615092Y-84873776D01*
X164610442Y-84879442D01*
X164604776Y-84884092D01*
X164598310Y-84887549D01*
X164591295Y-84889677D01*
X164577860Y-84891000D01*
X164264140Y-84891000D01*
X164250705Y-84889677D01*
X164243691Y-84887549D01*
X164229923Y-84880190D01*
X164207284Y-84870813D01*
X164183251Y-84866033D01*
X164158747Y-84866033D01*
X164134714Y-84870814D01*
X164112077Y-84880190D01*
X164098309Y-84887549D01*
X164091295Y-84889677D01*
X164077860Y-84891000D01*
X163764140Y-84891000D01*
X163750705Y-84889677D01*
X163743691Y-84887549D01*
X163729923Y-84880190D01*
X163707284Y-84870813D01*
X163683251Y-84866033D01*
X163658747Y-84866033D01*
X163634714Y-84870814D01*
X163612077Y-84880190D01*
X163598309Y-84887549D01*
X163591295Y-84889677D01*
X163577860Y-84891000D01*
X163264140Y-84891000D01*
X163250705Y-84889677D01*
X163243691Y-84887549D01*
X163229923Y-84880190D01*
X163207284Y-84870813D01*
X163183251Y-84866033D01*
X163158747Y-84866033D01*
X163134714Y-84870814D01*
X163112077Y-84880190D01*
X163098309Y-84887549D01*
X163091295Y-84889677D01*
X163077860Y-84891000D01*
X162764140Y-84891000D01*
X162750705Y-84889677D01*
X162743691Y-84887549D01*
X162729923Y-84880190D01*
X162707284Y-84870813D01*
X162683251Y-84866033D01*
X162658747Y-84866033D01*
X162634714Y-84870814D01*
X162612077Y-84880190D01*
X162598309Y-84887549D01*
X162591295Y-84889677D01*
X162577860Y-84891000D01*
X162264140Y-84891000D01*
X162250705Y-84889677D01*
X162243691Y-84887549D01*
X162229923Y-84880190D01*
X162207284Y-84870813D01*
X162183251Y-84866033D01*
X162158747Y-84866033D01*
X162134714Y-84870814D01*
X162112077Y-84880190D01*
X162098309Y-84887549D01*
X162091295Y-84889677D01*
X162077860Y-84891000D01*
X161764140Y-84891000D01*
X161750705Y-84889677D01*
X161743691Y-84887549D01*
X161729923Y-84880190D01*
X161707284Y-84870813D01*
X161683251Y-84866033D01*
X161658747Y-84866033D01*
X161634714Y-84870814D01*
X161612077Y-84880190D01*
X161598309Y-84887549D01*
X161591295Y-84889677D01*
X161577860Y-84891000D01*
X161264140Y-84891000D01*
X161250705Y-84889677D01*
X161243691Y-84887549D01*
X161229923Y-84880190D01*
X161207284Y-84870813D01*
X161183251Y-84866033D01*
X161158747Y-84866033D01*
X161134714Y-84870814D01*
X161112077Y-84880190D01*
X161098309Y-84887549D01*
X161091295Y-84889677D01*
X161077860Y-84891000D01*
X160764140Y-84891000D01*
X160750705Y-84889677D01*
X160743691Y-84887549D01*
X160729923Y-84880190D01*
X160707284Y-84870813D01*
X160683251Y-84866033D01*
X160658747Y-84866033D01*
X160634714Y-84870814D01*
X160612077Y-84880190D01*
X160598309Y-84887549D01*
X160591295Y-84889677D01*
X160577860Y-84891000D01*
X160264140Y-84891000D01*
X160250705Y-84889677D01*
X160243691Y-84887549D01*
X160229923Y-84880190D01*
X160207284Y-84870813D01*
X160183251Y-84866033D01*
X160158747Y-84866033D01*
X160134714Y-84870814D01*
X160112077Y-84880190D01*
X160098309Y-84887549D01*
X160091295Y-84889677D01*
X160077860Y-84891000D01*
X159764140Y-84891000D01*
X159750705Y-84889677D01*
X159743691Y-84887549D01*
X159729923Y-84880190D01*
X159707284Y-84870813D01*
X159683251Y-84866033D01*
X159658747Y-84866033D01*
X159634714Y-84870814D01*
X159612077Y-84880190D01*
X159598309Y-84887549D01*
X159591295Y-84889677D01*
X159577860Y-84891000D01*
X159264140Y-84891000D01*
X159250705Y-84889677D01*
X159243691Y-84887549D01*
X159229923Y-84880190D01*
X159207284Y-84870813D01*
X159183251Y-84866033D01*
X159158747Y-84866033D01*
X159134714Y-84870814D01*
X159112077Y-84880190D01*
X159098309Y-84887549D01*
X159091295Y-84889677D01*
X159077860Y-84891000D01*
X158764140Y-84891000D01*
X158750705Y-84889677D01*
X158743690Y-84887549D01*
X158737224Y-84884092D01*
X158731558Y-84879442D01*
X158726908Y-84873776D01*
X158723451Y-84867310D01*
X158721323Y-84860295D01*
X158720000Y-84846860D01*
X158720000Y-83358140D01*
X158721323Y-83344705D01*
X158723451Y-83337690D01*
X158726908Y-83331224D01*
X158731558Y-83325558D01*
X158737224Y-83320908D01*
X158743690Y-83317451D01*
X158750705Y-83315323D01*
X158764140Y-83314000D01*
X159077860Y-83314000D01*
X159091295Y-83315323D01*
G37*
G36*
X150224499Y-83643445D02*
G01*
X150261995Y-83654820D01*
X150296554Y-83673292D01*
X150326847Y-83698153D01*
X150351708Y-83728446D01*
X150370180Y-83763005D01*
X150381555Y-83800501D01*
X150386000Y-83845638D01*
X150386000Y-84584362D01*
X150381555Y-84629499D01*
X150370180Y-84666995D01*
X150351708Y-84701554D01*
X150326847Y-84731847D01*
X150296554Y-84756708D01*
X150261995Y-84775180D01*
X150224499Y-84786555D01*
X150179362Y-84791000D01*
X149540638Y-84791000D01*
X149495501Y-84786555D01*
X149458005Y-84775180D01*
X149423446Y-84756708D01*
X149393153Y-84731847D01*
X149368292Y-84701554D01*
X149349820Y-84666995D01*
X149338445Y-84629499D01*
X149334000Y-84584362D01*
X149334000Y-83845638D01*
X149338445Y-83800501D01*
X149349820Y-83763005D01*
X149368292Y-83728446D01*
X149393153Y-83698153D01*
X149423446Y-83673292D01*
X149458005Y-83654820D01*
X149495501Y-83643445D01*
X149540638Y-83639000D01*
X150179362Y-83639000D01*
X150224499Y-83643445D01*
G37*
G36*
X176796000Y-84721000D02*
G01*
X174994000Y-84721000D01*
X174994000Y-82919000D01*
X176796000Y-82919000D01*
X176796000Y-84721000D01*
G37*
G36*
X128799715Y-82884058D02*
G01*
X128895753Y-82913191D01*
X128914904Y-82919000D01*
X128917722Y-82919855D01*
X129026468Y-82977981D01*
X129121790Y-83056210D01*
X129200019Y-83151532D01*
X129258145Y-83260278D01*
X129293942Y-83378285D01*
X129306028Y-83501000D01*
X129293942Y-83623715D01*
X129258145Y-83741722D01*
X129200019Y-83850468D01*
X129121790Y-83945790D01*
X129026468Y-84024019D01*
X128917722Y-84082145D01*
X128917719Y-84082146D01*
X128910921Y-84084208D01*
X128799715Y-84117942D01*
X128707746Y-84127000D01*
X127996254Y-84127000D01*
X127904285Y-84117942D01*
X127793079Y-84084208D01*
X127786281Y-84082146D01*
X127786278Y-84082145D01*
X127677532Y-84024019D01*
X127582210Y-83945790D01*
X127503981Y-83850468D01*
X127445855Y-83741722D01*
X127410058Y-83623715D01*
X127397972Y-83501000D01*
X127410058Y-83378285D01*
X127445855Y-83260278D01*
X127503981Y-83151532D01*
X127582210Y-83056210D01*
X127677532Y-82977981D01*
X127786278Y-82919855D01*
X127789097Y-82919000D01*
X127808247Y-82913191D01*
X127904285Y-82884058D01*
X127996254Y-82875000D01*
X128707746Y-82875000D01*
X128799715Y-82884058D01*
G37*
G36*
X168040499Y-82663445D02*
G01*
X168077995Y-82674820D01*
X168112554Y-82693292D01*
X168142847Y-82718153D01*
X168167708Y-82748446D01*
X168186180Y-82783005D01*
X168197555Y-82820501D01*
X168202000Y-82865638D01*
X168202000Y-83504362D01*
X168197555Y-83549499D01*
X168186180Y-83586995D01*
X168167708Y-83621554D01*
X168142847Y-83651847D01*
X168112554Y-83676708D01*
X168077995Y-83695180D01*
X168040499Y-83706555D01*
X167995362Y-83711000D01*
X167256638Y-83711000D01*
X167211501Y-83706555D01*
X167174005Y-83695180D01*
X167139446Y-83676708D01*
X167109153Y-83651847D01*
X167084292Y-83621554D01*
X167065820Y-83586995D01*
X167054445Y-83549499D01*
X167050000Y-83504362D01*
X167050000Y-82865638D01*
X167054445Y-82820501D01*
X167065820Y-82783005D01*
X167084292Y-82748446D01*
X167109153Y-82718153D01*
X167139446Y-82693292D01*
X167174005Y-82674820D01*
X167211501Y-82663445D01*
X167256638Y-82659000D01*
X167995362Y-82659000D01*
X168040499Y-82663445D01*
G37*
G36*
X157612499Y-82663445D02*
G01*
X157649995Y-82674820D01*
X157684554Y-82693292D01*
X157714847Y-82718153D01*
X157739708Y-82748446D01*
X157758180Y-82783005D01*
X157769555Y-82820501D01*
X157774000Y-82865638D01*
X157774000Y-83504362D01*
X157769555Y-83549499D01*
X157758180Y-83586995D01*
X157739708Y-83621554D01*
X157714847Y-83651847D01*
X157684554Y-83676708D01*
X157649995Y-83695180D01*
X157612499Y-83706555D01*
X157567362Y-83711000D01*
X156828638Y-83711000D01*
X156783501Y-83706555D01*
X156746005Y-83695180D01*
X156711446Y-83676708D01*
X156681153Y-83651847D01*
X156656292Y-83621554D01*
X156637820Y-83586995D01*
X156626445Y-83549499D01*
X156622000Y-83504362D01*
X156622000Y-82865638D01*
X156626445Y-82820501D01*
X156637820Y-82783005D01*
X156656292Y-82748446D01*
X156681153Y-82718153D01*
X156711446Y-82693292D01*
X156746005Y-82674820D01*
X156783501Y-82663445D01*
X156828638Y-82659000D01*
X157567362Y-82659000D01*
X157612499Y-82663445D01*
G37*
G36*
X155862499Y-82663445D02*
G01*
X155899995Y-82674820D01*
X155934554Y-82693292D01*
X155964847Y-82718153D01*
X155989708Y-82748446D01*
X156008180Y-82783005D01*
X156019555Y-82820501D01*
X156024000Y-82865638D01*
X156024000Y-83504362D01*
X156019555Y-83549499D01*
X156008180Y-83586995D01*
X155989708Y-83621554D01*
X155964847Y-83651847D01*
X155934554Y-83676708D01*
X155899995Y-83695180D01*
X155862499Y-83706555D01*
X155817362Y-83711000D01*
X155078638Y-83711000D01*
X155033501Y-83706555D01*
X154996005Y-83695180D01*
X154961446Y-83676708D01*
X154931153Y-83651847D01*
X154906292Y-83621554D01*
X154887820Y-83586995D01*
X154876445Y-83549499D01*
X154872000Y-83504362D01*
X154872000Y-82865638D01*
X154876445Y-82820501D01*
X154887820Y-82783005D01*
X154906292Y-82748446D01*
X154931153Y-82718153D01*
X154961446Y-82693292D01*
X154996005Y-82674820D01*
X155033501Y-82663445D01*
X155078638Y-82659000D01*
X155817362Y-82659000D01*
X155862499Y-82663445D01*
G37*
G36*
X166290499Y-82663445D02*
G01*
X166327995Y-82674820D01*
X166362554Y-82693292D01*
X166392847Y-82718153D01*
X166417708Y-82748446D01*
X166436180Y-82783005D01*
X166447555Y-82820501D01*
X166452000Y-82865638D01*
X166452000Y-83504362D01*
X166447555Y-83549499D01*
X166436180Y-83586995D01*
X166417708Y-83621554D01*
X166392847Y-83651847D01*
X166362554Y-83676708D01*
X166327995Y-83695180D01*
X166290499Y-83706555D01*
X166245362Y-83711000D01*
X165506638Y-83711000D01*
X165461501Y-83706555D01*
X165424005Y-83695180D01*
X165389446Y-83676708D01*
X165359153Y-83651847D01*
X165334292Y-83621554D01*
X165315820Y-83586995D01*
X165304445Y-83549499D01*
X165300000Y-83504362D01*
X165300000Y-82865638D01*
X165304445Y-82820501D01*
X165315820Y-82783005D01*
X165334292Y-82748446D01*
X165359153Y-82718153D01*
X165389446Y-82693292D01*
X165424005Y-82674820D01*
X165461501Y-82663445D01*
X165506638Y-82659000D01*
X166245362Y-82659000D01*
X166290499Y-82663445D01*
G37*
G36*
X146828000Y-83433000D02*
G01*
X145526000Y-83433000D01*
X145526000Y-82431000D01*
X146828000Y-82431000D01*
X146828000Y-83433000D01*
G37*
G36*
X136087000Y-82940000D02*
G01*
X135185000Y-82940000D01*
X135185000Y-81938000D01*
X136087000Y-81938000D01*
X136087000Y-82940000D01*
G37*
G36*
X152066499Y-81393445D02*
G01*
X152103995Y-81404820D01*
X152138554Y-81423292D01*
X152168847Y-81448153D01*
X152193708Y-81478446D01*
X152212180Y-81513005D01*
X152223555Y-81550501D01*
X152228000Y-81595638D01*
X152228000Y-82234362D01*
X152223555Y-82279499D01*
X152212180Y-82316995D01*
X152193708Y-82351554D01*
X152168847Y-82381847D01*
X152138554Y-82406708D01*
X152103995Y-82425180D01*
X152066499Y-82436555D01*
X152021362Y-82441000D01*
X151282638Y-82441000D01*
X151237501Y-82436555D01*
X151200005Y-82425180D01*
X151165446Y-82406708D01*
X151135153Y-82381847D01*
X151110292Y-82351554D01*
X151091820Y-82316995D01*
X151080445Y-82279499D01*
X151076000Y-82234362D01*
X151076000Y-81595638D01*
X151080445Y-81550501D01*
X151091820Y-81513005D01*
X151110292Y-81478446D01*
X151135153Y-81448153D01*
X151165446Y-81423292D01*
X151200005Y-81404820D01*
X151237501Y-81393445D01*
X151282638Y-81389000D01*
X152021362Y-81389000D01*
X152066499Y-81393445D01*
G37*
G36*
X153816499Y-81393445D02*
G01*
X153853995Y-81404820D01*
X153888554Y-81423292D01*
X153918847Y-81448153D01*
X153943708Y-81478446D01*
X153962180Y-81513005D01*
X153973555Y-81550501D01*
X153978000Y-81595638D01*
X153978000Y-82234362D01*
X153973555Y-82279499D01*
X153962180Y-82316995D01*
X153943708Y-82351554D01*
X153918847Y-82381847D01*
X153888554Y-82406708D01*
X153853995Y-82425180D01*
X153816499Y-82436555D01*
X153771362Y-82441000D01*
X153032638Y-82441000D01*
X152987501Y-82436555D01*
X152950005Y-82425180D01*
X152915446Y-82406708D01*
X152885153Y-82381847D01*
X152860292Y-82351554D01*
X152841820Y-82316995D01*
X152830445Y-82279499D01*
X152826000Y-82234362D01*
X152826000Y-81595638D01*
X152830445Y-81550501D01*
X152841820Y-81513005D01*
X152860292Y-81478446D01*
X152885153Y-81448153D01*
X152915446Y-81423292D01*
X152950005Y-81404820D01*
X152987501Y-81393445D01*
X153032638Y-81389000D01*
X153771362Y-81389000D01*
X153816499Y-81393445D01*
G37*
G36*
X155862499Y-81139445D02*
G01*
X155899995Y-81150820D01*
X155934554Y-81169292D01*
X155964847Y-81194153D01*
X155989708Y-81224446D01*
X156008180Y-81259005D01*
X156019555Y-81296501D01*
X156024000Y-81341638D01*
X156024000Y-81980362D01*
X156019555Y-82025499D01*
X156008180Y-82062995D01*
X155989708Y-82097554D01*
X155964847Y-82127847D01*
X155934554Y-82152708D01*
X155899995Y-82171180D01*
X155862499Y-82182555D01*
X155817362Y-82187000D01*
X155078638Y-82187000D01*
X155033501Y-82182555D01*
X154996005Y-82171180D01*
X154961446Y-82152708D01*
X154931153Y-82127847D01*
X154906292Y-82097554D01*
X154887820Y-82062995D01*
X154876445Y-82025499D01*
X154872000Y-81980362D01*
X154872000Y-81341638D01*
X154876445Y-81296501D01*
X154887820Y-81259005D01*
X154906292Y-81224446D01*
X154931153Y-81194153D01*
X154961446Y-81169292D01*
X154996005Y-81150820D01*
X155033501Y-81139445D01*
X155078638Y-81135000D01*
X155817362Y-81135000D01*
X155862499Y-81139445D01*
G37*
G36*
X166290499Y-81139445D02*
G01*
X166327995Y-81150820D01*
X166362554Y-81169292D01*
X166392847Y-81194153D01*
X166417708Y-81224446D01*
X166436180Y-81259005D01*
X166447555Y-81296501D01*
X166452000Y-81341638D01*
X166452000Y-81980362D01*
X166447555Y-82025499D01*
X166436180Y-82062995D01*
X166417708Y-82097554D01*
X166392847Y-82127847D01*
X166362554Y-82152708D01*
X166327995Y-82171180D01*
X166290499Y-82182555D01*
X166245362Y-82187000D01*
X165506638Y-82187000D01*
X165461501Y-82182555D01*
X165424005Y-82171180D01*
X165389446Y-82152708D01*
X165359153Y-82127847D01*
X165334292Y-82097554D01*
X165315820Y-82062995D01*
X165304445Y-82025499D01*
X165300000Y-81980362D01*
X165300000Y-81341638D01*
X165304445Y-81296501D01*
X165315820Y-81259005D01*
X165334292Y-81224446D01*
X165359153Y-81194153D01*
X165389446Y-81169292D01*
X165424005Y-81150820D01*
X165461501Y-81139445D01*
X165506638Y-81135000D01*
X166245362Y-81135000D01*
X166290499Y-81139445D01*
G37*
G36*
X168040499Y-81139445D02*
G01*
X168077995Y-81150820D01*
X168112554Y-81169292D01*
X168142847Y-81194153D01*
X168167708Y-81224446D01*
X168186180Y-81259005D01*
X168197555Y-81296501D01*
X168202000Y-81341638D01*
X168202000Y-81980362D01*
X168197555Y-82025499D01*
X168186180Y-82062995D01*
X168167708Y-82097554D01*
X168142847Y-82127847D01*
X168112554Y-82152708D01*
X168077995Y-82171180D01*
X168040499Y-82182555D01*
X167995362Y-82187000D01*
X167256638Y-82187000D01*
X167211501Y-82182555D01*
X167174005Y-82171180D01*
X167139446Y-82152708D01*
X167109153Y-82127847D01*
X167084292Y-82097554D01*
X167065820Y-82062995D01*
X167054445Y-82025499D01*
X167050000Y-81980362D01*
X167050000Y-81341638D01*
X167054445Y-81296501D01*
X167065820Y-81259005D01*
X167084292Y-81224446D01*
X167109153Y-81194153D01*
X167139446Y-81169292D01*
X167174005Y-81150820D01*
X167211501Y-81139445D01*
X167256638Y-81135000D01*
X167995362Y-81135000D01*
X168040499Y-81139445D01*
G37*
G36*
X157612499Y-81139445D02*
G01*
X157649995Y-81150820D01*
X157684554Y-81169292D01*
X157714847Y-81194153D01*
X157739708Y-81224446D01*
X157758180Y-81259005D01*
X157769555Y-81296501D01*
X157774000Y-81341638D01*
X157774000Y-81980362D01*
X157769555Y-82025499D01*
X157758180Y-82062995D01*
X157739708Y-82097554D01*
X157714847Y-82127847D01*
X157684554Y-82152708D01*
X157649995Y-82171180D01*
X157612499Y-82182555D01*
X157567362Y-82187000D01*
X156828638Y-82187000D01*
X156783501Y-82182555D01*
X156746005Y-82171180D01*
X156711446Y-82152708D01*
X156681153Y-82127847D01*
X156656292Y-82097554D01*
X156637820Y-82062995D01*
X156626445Y-82025499D01*
X156622000Y-81980362D01*
X156622000Y-81341638D01*
X156626445Y-81296501D01*
X156637820Y-81259005D01*
X156656292Y-81224446D01*
X156681153Y-81194153D01*
X156711446Y-81169292D01*
X156746005Y-81150820D01*
X156783501Y-81139445D01*
X156828638Y-81135000D01*
X157567362Y-81135000D01*
X157612499Y-81139445D01*
G37*
G36*
X143175000Y-81746400D02*
G01*
X139273000Y-81746400D01*
X139273000Y-79644400D01*
X143175000Y-79644400D01*
X143175000Y-81746400D01*
G37*
G36*
X147963099Y-80148845D02*
G01*
X148000595Y-80160220D01*
X148035154Y-80178692D01*
X148065447Y-80203553D01*
X148090308Y-80233846D01*
X148108780Y-80268405D01*
X148120155Y-80305901D01*
X148124600Y-80351038D01*
X148124600Y-80989762D01*
X148120155Y-81034899D01*
X148108780Y-81072395D01*
X148090308Y-81106954D01*
X148065447Y-81137247D01*
X148035154Y-81162108D01*
X148000595Y-81180580D01*
X147963099Y-81191955D01*
X147917962Y-81196400D01*
X147179238Y-81196400D01*
X147134101Y-81191955D01*
X147096605Y-81180580D01*
X147062046Y-81162108D01*
X147031753Y-81137247D01*
X147006892Y-81106954D01*
X146988420Y-81072395D01*
X146977045Y-81034899D01*
X146972600Y-80989762D01*
X146972600Y-80351038D01*
X146977045Y-80305901D01*
X146988420Y-80268405D01*
X147006892Y-80233846D01*
X147031753Y-80203553D01*
X147062046Y-80178692D01*
X147096605Y-80160220D01*
X147134101Y-80148845D01*
X147179238Y-80144400D01*
X147917962Y-80144400D01*
X147963099Y-80148845D01*
G37*
G36*
X146213099Y-80148845D02*
G01*
X146250595Y-80160220D01*
X146285154Y-80178692D01*
X146315447Y-80203553D01*
X146340308Y-80233846D01*
X146358780Y-80268405D01*
X146370155Y-80305901D01*
X146374600Y-80351038D01*
X146374600Y-80989762D01*
X146370155Y-81034899D01*
X146358780Y-81072395D01*
X146340308Y-81106954D01*
X146315447Y-81137247D01*
X146285154Y-81162108D01*
X146250595Y-81180580D01*
X146213099Y-81191955D01*
X146167962Y-81196400D01*
X145429238Y-81196400D01*
X145384101Y-81191955D01*
X145346605Y-81180580D01*
X145312046Y-81162108D01*
X145281753Y-81137247D01*
X145256892Y-81106954D01*
X145238420Y-81072395D01*
X145227045Y-81034899D01*
X145222600Y-80989762D01*
X145222600Y-80351038D01*
X145227045Y-80305901D01*
X145238420Y-80268405D01*
X145256892Y-80233846D01*
X145281753Y-80203553D01*
X145312046Y-80178692D01*
X145346605Y-80160220D01*
X145384101Y-80148845D01*
X145429238Y-80144400D01*
X146167962Y-80144400D01*
X146213099Y-80148845D01*
G37*
G36*
X152080499Y-79869445D02*
G01*
X152117995Y-79880820D01*
X152152554Y-79899292D01*
X152182847Y-79924153D01*
X152207708Y-79954446D01*
X152226180Y-79989005D01*
X152237555Y-80026501D01*
X152242000Y-80071638D01*
X152242000Y-80710362D01*
X152237555Y-80755499D01*
X152226180Y-80792995D01*
X152207708Y-80827554D01*
X152182847Y-80857847D01*
X152152554Y-80882708D01*
X152117995Y-80901180D01*
X152080499Y-80912555D01*
X152035362Y-80917000D01*
X151296638Y-80917000D01*
X151251501Y-80912555D01*
X151214005Y-80901180D01*
X151179446Y-80882708D01*
X151149153Y-80857847D01*
X151124292Y-80827554D01*
X151105820Y-80792995D01*
X151094445Y-80755499D01*
X151090000Y-80710362D01*
X151090000Y-80071638D01*
X151094445Y-80026501D01*
X151105820Y-79989005D01*
X151124292Y-79954446D01*
X151149153Y-79924153D01*
X151179446Y-79899292D01*
X151214005Y-79880820D01*
X151251501Y-79869445D01*
X151296638Y-79865000D01*
X152035362Y-79865000D01*
X152080499Y-79869445D01*
G37*
G36*
X153830499Y-79869445D02*
G01*
X153867995Y-79880820D01*
X153902554Y-79899292D01*
X153932847Y-79924153D01*
X153957708Y-79954446D01*
X153976180Y-79989005D01*
X153987555Y-80026501D01*
X153992000Y-80071638D01*
X153992000Y-80710362D01*
X153987555Y-80755499D01*
X153976180Y-80792995D01*
X153957708Y-80827554D01*
X153932847Y-80857847D01*
X153902554Y-80882708D01*
X153867995Y-80901180D01*
X153830499Y-80912555D01*
X153785362Y-80917000D01*
X153046638Y-80917000D01*
X153001501Y-80912555D01*
X152964005Y-80901180D01*
X152929446Y-80882708D01*
X152899153Y-80857847D01*
X152874292Y-80827554D01*
X152855820Y-80792995D01*
X152844445Y-80755499D01*
X152840000Y-80710362D01*
X152840000Y-80071638D01*
X152844445Y-80026501D01*
X152855820Y-79989005D01*
X152874292Y-79954446D01*
X152899153Y-79924153D01*
X152929446Y-79899292D01*
X152964005Y-79880820D01*
X153001501Y-79869445D01*
X153046638Y-79865000D01*
X153785362Y-79865000D01*
X153830499Y-79869445D01*
G37*
G36*
X169023512Y-76573927D02*
G01*
X169172812Y-76603624D01*
X169336784Y-76671544D01*
X169484354Y-76770147D01*
X169609853Y-76895646D01*
X169708456Y-77043216D01*
X169776376Y-77207188D01*
X169811000Y-77381259D01*
X169811000Y-77558741D01*
X169776376Y-77732812D01*
X169708456Y-77896784D01*
X169609853Y-78044354D01*
X169484354Y-78169853D01*
X169336784Y-78268456D01*
X169172812Y-78336376D01*
X169023512Y-78366073D01*
X168998742Y-78371000D01*
X168821258Y-78371000D01*
X168796488Y-78366073D01*
X168647188Y-78336376D01*
X168483216Y-78268456D01*
X168335646Y-78169853D01*
X168210147Y-78044354D01*
X168111544Y-77896784D01*
X168043624Y-77732812D01*
X168009000Y-77558741D01*
X168009000Y-77381259D01*
X168043624Y-77207188D01*
X168111544Y-77043216D01*
X168210147Y-76895646D01*
X168335646Y-76770147D01*
X168483216Y-76671544D01*
X168647188Y-76603624D01*
X168796488Y-76573927D01*
X168821258Y-76569000D01*
X168998742Y-76569000D01*
X169023512Y-76573927D01*
G37*
G36*
X156323512Y-76573927D02*
G01*
X156472812Y-76603624D01*
X156636784Y-76671544D01*
X156784354Y-76770147D01*
X156909853Y-76895646D01*
X157008456Y-77043216D01*
X157076376Y-77207188D01*
X157111000Y-77381259D01*
X157111000Y-77558741D01*
X157076376Y-77732812D01*
X157008456Y-77896784D01*
X156909853Y-78044354D01*
X156784354Y-78169853D01*
X156636784Y-78268456D01*
X156472812Y-78336376D01*
X156323512Y-78366073D01*
X156298742Y-78371000D01*
X156121258Y-78371000D01*
X156096488Y-78366073D01*
X155947188Y-78336376D01*
X155783216Y-78268456D01*
X155635646Y-78169853D01*
X155510147Y-78044354D01*
X155411544Y-77896784D01*
X155343624Y-77732812D01*
X155309000Y-77558741D01*
X155309000Y-77381259D01*
X155343624Y-77207188D01*
X155411544Y-77043216D01*
X155510147Y-76895646D01*
X155635646Y-76770147D01*
X155783216Y-76671544D01*
X155947188Y-76603624D01*
X156096488Y-76573927D01*
X156121258Y-76569000D01*
X156298742Y-76569000D01*
X156323512Y-76573927D01*
G37*
G36*
X153783512Y-76573927D02*
G01*
X153932812Y-76603624D01*
X154096784Y-76671544D01*
X154244354Y-76770147D01*
X154369853Y-76895646D01*
X154468456Y-77043216D01*
X154536376Y-77207188D01*
X154571000Y-77381259D01*
X154571000Y-77558741D01*
X154536376Y-77732812D01*
X154468456Y-77896784D01*
X154369853Y-78044354D01*
X154244354Y-78169853D01*
X154096784Y-78268456D01*
X153932812Y-78336376D01*
X153783512Y-78366073D01*
X153758742Y-78371000D01*
X153581258Y-78371000D01*
X153556488Y-78366073D01*
X153407188Y-78336376D01*
X153243216Y-78268456D01*
X153095646Y-78169853D01*
X152970147Y-78044354D01*
X152871544Y-77896784D01*
X152803624Y-77732812D01*
X152769000Y-77558741D01*
X152769000Y-77381259D01*
X152803624Y-77207188D01*
X152871544Y-77043216D01*
X152970147Y-76895646D01*
X153095646Y-76770147D01*
X153243216Y-76671544D01*
X153407188Y-76603624D01*
X153556488Y-76573927D01*
X153581258Y-76569000D01*
X153758742Y-76569000D01*
X153783512Y-76573927D01*
G37*
G36*
X171563512Y-76573927D02*
G01*
X171712812Y-76603624D01*
X171876784Y-76671544D01*
X172024354Y-76770147D01*
X172149853Y-76895646D01*
X172248456Y-77043216D01*
X172316376Y-77207188D01*
X172351000Y-77381259D01*
X172351000Y-77558741D01*
X172316376Y-77732812D01*
X172248456Y-77896784D01*
X172149853Y-78044354D01*
X172024354Y-78169853D01*
X171876784Y-78268456D01*
X171712812Y-78336376D01*
X171563512Y-78366073D01*
X171538742Y-78371000D01*
X171361258Y-78371000D01*
X171336488Y-78366073D01*
X171187188Y-78336376D01*
X171023216Y-78268456D01*
X170875646Y-78169853D01*
X170750147Y-78044354D01*
X170651544Y-77896784D01*
X170583624Y-77732812D01*
X170549000Y-77558741D01*
X170549000Y-77381259D01*
X170583624Y-77207188D01*
X170651544Y-77043216D01*
X170750147Y-76895646D01*
X170875646Y-76770147D01*
X171023216Y-76671544D01*
X171187188Y-76603624D01*
X171336488Y-76573927D01*
X171361258Y-76569000D01*
X171538742Y-76569000D01*
X171563512Y-76573927D01*
G37*
G36*
X151243512Y-76573927D02*
G01*
X151392812Y-76603624D01*
X151556784Y-76671544D01*
X151704354Y-76770147D01*
X151829853Y-76895646D01*
X151928456Y-77043216D01*
X151996376Y-77207188D01*
X152031000Y-77381259D01*
X152031000Y-77558741D01*
X151996376Y-77732812D01*
X151928456Y-77896784D01*
X151829853Y-78044354D01*
X151704354Y-78169853D01*
X151556784Y-78268456D01*
X151392812Y-78336376D01*
X151243512Y-78366073D01*
X151218742Y-78371000D01*
X151041258Y-78371000D01*
X151016488Y-78366073D01*
X150867188Y-78336376D01*
X150703216Y-78268456D01*
X150555646Y-78169853D01*
X150430147Y-78044354D01*
X150331544Y-77896784D01*
X150263624Y-77732812D01*
X150229000Y-77558741D01*
X150229000Y-77381259D01*
X150263624Y-77207188D01*
X150331544Y-77043216D01*
X150430147Y-76895646D01*
X150555646Y-76770147D01*
X150703216Y-76671544D01*
X150867188Y-76603624D01*
X151016488Y-76573927D01*
X151041258Y-76569000D01*
X151218742Y-76569000D01*
X151243512Y-76573927D01*
G37*
G36*
X148703512Y-76573927D02*
G01*
X148852812Y-76603624D01*
X149016784Y-76671544D01*
X149164354Y-76770147D01*
X149289853Y-76895646D01*
X149388456Y-77043216D01*
X149456376Y-77207188D01*
X149491000Y-77381259D01*
X149491000Y-77558741D01*
X149456376Y-77732812D01*
X149388456Y-77896784D01*
X149289853Y-78044354D01*
X149164354Y-78169853D01*
X149016784Y-78268456D01*
X148852812Y-78336376D01*
X148703512Y-78366073D01*
X148678742Y-78371000D01*
X148501258Y-78371000D01*
X148476488Y-78366073D01*
X148327188Y-78336376D01*
X148163216Y-78268456D01*
X148015646Y-78169853D01*
X147890147Y-78044354D01*
X147791544Y-77896784D01*
X147723624Y-77732812D01*
X147689000Y-77558741D01*
X147689000Y-77381259D01*
X147723624Y-77207188D01*
X147791544Y-77043216D01*
X147890147Y-76895646D01*
X148015646Y-76770147D01*
X148163216Y-76671544D01*
X148327188Y-76603624D01*
X148476488Y-76573927D01*
X148501258Y-76569000D01*
X148678742Y-76569000D01*
X148703512Y-76573927D01*
G37*
G36*
X146163512Y-76573927D02*
G01*
X146312812Y-76603624D01*
X146476784Y-76671544D01*
X146624354Y-76770147D01*
X146749853Y-76895646D01*
X146848456Y-77043216D01*
X146916376Y-77207188D01*
X146951000Y-77381259D01*
X146951000Y-77558741D01*
X146916376Y-77732812D01*
X146848456Y-77896784D01*
X146749853Y-78044354D01*
X146624354Y-78169853D01*
X146476784Y-78268456D01*
X146312812Y-78336376D01*
X146163512Y-78366073D01*
X146138742Y-78371000D01*
X145961258Y-78371000D01*
X145936488Y-78366073D01*
X145787188Y-78336376D01*
X145623216Y-78268456D01*
X145475646Y-78169853D01*
X145350147Y-78044354D01*
X145251544Y-77896784D01*
X145183624Y-77732812D01*
X145149000Y-77558741D01*
X145149000Y-77381259D01*
X145183624Y-77207188D01*
X145251544Y-77043216D01*
X145350147Y-76895646D01*
X145475646Y-76770147D01*
X145623216Y-76671544D01*
X145787188Y-76603624D01*
X145936488Y-76573927D01*
X145961258Y-76569000D01*
X146138742Y-76569000D01*
X146163512Y-76573927D01*
G37*
G36*
X144411000Y-78371000D02*
G01*
X142609000Y-78371000D01*
X142609000Y-76569000D01*
X144411000Y-76569000D01*
X144411000Y-78371000D01*
G37*
G36*
X158863512Y-76573927D02*
G01*
X159012812Y-76603624D01*
X159176784Y-76671544D01*
X159324354Y-76770147D01*
X159449853Y-76895646D01*
X159548456Y-77043216D01*
X159616376Y-77207188D01*
X159651000Y-77381259D01*
X159651000Y-77558741D01*
X159616376Y-77732812D01*
X159548456Y-77896784D01*
X159449853Y-78044354D01*
X159324354Y-78169853D01*
X159176784Y-78268456D01*
X159012812Y-78336376D01*
X158863512Y-78366073D01*
X158838742Y-78371000D01*
X158661258Y-78371000D01*
X158636488Y-78366073D01*
X158487188Y-78336376D01*
X158323216Y-78268456D01*
X158175646Y-78169853D01*
X158050147Y-78044354D01*
X157951544Y-77896784D01*
X157883624Y-77732812D01*
X157849000Y-77558741D01*
X157849000Y-77381259D01*
X157883624Y-77207188D01*
X157951544Y-77043216D01*
X158050147Y-76895646D01*
X158175646Y-76770147D01*
X158323216Y-76671544D01*
X158487188Y-76603624D01*
X158636488Y-76573927D01*
X158661258Y-76569000D01*
X158838742Y-76569000D01*
X158863512Y-76573927D01*
G37*
G36*
X161403512Y-76573927D02*
G01*
X161552812Y-76603624D01*
X161716784Y-76671544D01*
X161864354Y-76770147D01*
X161989853Y-76895646D01*
X162088456Y-77043216D01*
X162156376Y-77207188D01*
X162191000Y-77381259D01*
X162191000Y-77558741D01*
X162156376Y-77732812D01*
X162088456Y-77896784D01*
X161989853Y-78044354D01*
X161864354Y-78169853D01*
X161716784Y-78268456D01*
X161552812Y-78336376D01*
X161403512Y-78366073D01*
X161378742Y-78371000D01*
X161201258Y-78371000D01*
X161176488Y-78366073D01*
X161027188Y-78336376D01*
X160863216Y-78268456D01*
X160715646Y-78169853D01*
X160590147Y-78044354D01*
X160491544Y-77896784D01*
X160423624Y-77732812D01*
X160389000Y-77558741D01*
X160389000Y-77381259D01*
X160423624Y-77207188D01*
X160491544Y-77043216D01*
X160590147Y-76895646D01*
X160715646Y-76770147D01*
X160863216Y-76671544D01*
X161027188Y-76603624D01*
X161176488Y-76573927D01*
X161201258Y-76569000D01*
X161378742Y-76569000D01*
X161403512Y-76573927D01*
G37*
G36*
X163943512Y-76573927D02*
G01*
X164092812Y-76603624D01*
X164256784Y-76671544D01*
X164404354Y-76770147D01*
X164529853Y-76895646D01*
X164628456Y-77043216D01*
X164696376Y-77207188D01*
X164731000Y-77381259D01*
X164731000Y-77558741D01*
X164696376Y-77732812D01*
X164628456Y-77896784D01*
X164529853Y-78044354D01*
X164404354Y-78169853D01*
X164256784Y-78268456D01*
X164092812Y-78336376D01*
X163943512Y-78366073D01*
X163918742Y-78371000D01*
X163741258Y-78371000D01*
X163716488Y-78366073D01*
X163567188Y-78336376D01*
X163403216Y-78268456D01*
X163255646Y-78169853D01*
X163130147Y-78044354D01*
X163031544Y-77896784D01*
X162963624Y-77732812D01*
X162929000Y-77558741D01*
X162929000Y-77381259D01*
X162963624Y-77207188D01*
X163031544Y-77043216D01*
X163130147Y-76895646D01*
X163255646Y-76770147D01*
X163403216Y-76671544D01*
X163567188Y-76603624D01*
X163716488Y-76573927D01*
X163741258Y-76569000D01*
X163918742Y-76569000D01*
X163943512Y-76573927D01*
G37*
G36*
X166483512Y-76573927D02*
G01*
X166632812Y-76603624D01*
X166796784Y-76671544D01*
X166944354Y-76770147D01*
X167069853Y-76895646D01*
X167168456Y-77043216D01*
X167236376Y-77207188D01*
X167271000Y-77381259D01*
X167271000Y-77558741D01*
X167236376Y-77732812D01*
X167168456Y-77896784D01*
X167069853Y-78044354D01*
X166944354Y-78169853D01*
X166796784Y-78268456D01*
X166632812Y-78336376D01*
X166483512Y-78366073D01*
X166458742Y-78371000D01*
X166281258Y-78371000D01*
X166256488Y-78366073D01*
X166107188Y-78336376D01*
X165943216Y-78268456D01*
X165795646Y-78169853D01*
X165670147Y-78044354D01*
X165571544Y-77896784D01*
X165503624Y-77732812D01*
X165469000Y-77558741D01*
X165469000Y-77381259D01*
X165503624Y-77207188D01*
X165571544Y-77043216D01*
X165670147Y-76895646D01*
X165795646Y-76770147D01*
X165943216Y-76671544D01*
X166107188Y-76603624D01*
X166256488Y-76573927D01*
X166281258Y-76569000D01*
X166458742Y-76569000D01*
X166483512Y-76573927D01*
G37*
M02*
