M48
; DRILL file {KiCad (5.1.5)-2} date 8/19/2020 8:36:16 PM
; FORMAT={-:-/ absolute / inch / decimal}
; #@! TF.CreationDate,2020-08-19T20:36:16+04:00
; #@! TF.GenerationSoftware,Kicad,Pcbnew,(5.1.5)-2
; #@! TF.FileFunction,Plated,1,2,PTH
FMAT,2
INCH
T1C0.0118
T2C0.0217
T3C0.0335
T4C0.0394
T5C0.1000
%
G90
G05
T1
X5.06Y-3.43
X5.06Y-3.51
X5.13Y-3.39
X5.13Y-3.47
X5.295Y-3.445
X5.34Y-3.445
X5.4243Y-3.5682
X5.4925Y-3.625
X5.57Y-3.54
X5.5725Y-3.69
X5.7544Y-3.1361
X5.81Y-3.175
X5.815Y-3.385
X5.8275Y-3.6925
X5.9Y-3.525
X5.97Y-3.165
X6.115Y-3.5
X6.115Y-3.535
X6.12Y-3.275
X6.1889Y-3.215
X6.275Y-3.38
X6.28Y-3.505
X6.29Y-3.75
X6.32Y-3.56
X6.3225Y-3.22
X6.335Y-3.4975
X6.36Y-3.19
X6.36Y-3.56
X6.395Y-3.6975
X6.4Y-3.56
X6.4325Y-3.7175
X6.44Y-3.56
X6.445Y-3.385
X6.4575Y-3.7727
X6.48Y-3.2525
X6.4989Y-3.1361
X6.5325Y-3.63
X6.5575Y-3.675
X6.5994Y-3.275
X6.65Y-3.2975
X6.6586Y-3.7464
X6.66Y-3.415
X6.66Y-3.455
X6.66Y-3.675
X6.72Y-3.56
T4
X6.925Y-3.3
X6.925Y-3.4
X6.925Y-3.5
X6.925Y-3.6
X5.25Y-3.85
X5.35Y-3.85
X5.45Y-3.85
X5.55Y-3.85
X5.65Y-3.85
X5.75Y-3.85
X5.85Y-3.85
X5.95Y-3.85
X6.05Y-3.85
X6.15Y-3.85
X6.25Y-3.85
X6.35Y-3.85
X6.45Y-3.85
X6.55Y-3.85
X6.65Y-3.85
X6.75Y-3.85
X6.78Y-3.4
X6.78Y-3.5
X6.78Y-3.6
X5.65Y-3.05
X5.75Y-3.05
X5.85Y-3.05
X5.95Y-3.05
X6.05Y-3.05
X6.15Y-3.05
X6.25Y-3.05
X6.35Y-3.05
X6.45Y-3.05
X6.55Y-3.05
X6.65Y-3.05
X6.75Y-3.05
T5
X5.1Y-3.1
X5.1Y-3.8
X6.9Y-3.1
X6.9Y-3.8
T2
G00X5.066Y-3.2874
M15
G01X5.0404Y-3.2874
M16
G05
G00X5.066Y-3.5926
M15
G01X5.0404Y-3.5926
M16
G05
T3
G00X5.2137Y-3.2933
M15
G01X5.192Y-3.2933
M16
G05
G00X5.2137Y-3.5867
M15
G01X5.192Y-3.5867
M16
G05
T0
M30
