G04 #@! TF.GenerationSoftware,KiCad,Pcbnew,(5.1.5)-2*
G04 #@! TF.CreationDate,2020-08-18T22:47:36+04:00*
G04 #@! TF.ProjectId,stm32f103_feather,73746d33-3266-4313-9033-5f6665617468,rev?*
G04 #@! TF.SameCoordinates,Original*
G04 #@! TF.FileFunction,Legend,Bot*
G04 #@! TF.FilePolarity,Positive*
%FSLAX46Y46*%
G04 Gerber Fmt 4.6, Leading zero omitted, Abs format (unit mm)*
G04 Created by KiCad (PCBNEW (5.1.5)-2) date 2020-08-18 22:47:36*
%MOMM*%
%LPD*%
G04 APERTURE LIST*
%ADD10C,0.101600*%
G04 #@! TA.AperFunction,Profile*
%ADD11C,0.050000*%
G04 #@! TD*
%ADD12C,0.120000*%
G04 APERTURE END LIST*
D10*
X171655619Y-78631142D02*
X171679809Y-78703714D01*
X171679809Y-78824666D01*
X171655619Y-78873047D01*
X171631428Y-78897238D01*
X171583047Y-78921428D01*
X171534666Y-78921428D01*
X171486285Y-78897238D01*
X171462095Y-78873047D01*
X171437904Y-78824666D01*
X171413714Y-78727904D01*
X171389523Y-78679523D01*
X171365333Y-78655333D01*
X171316952Y-78631142D01*
X171268571Y-78631142D01*
X171220190Y-78655333D01*
X171196000Y-78679523D01*
X171171809Y-78727904D01*
X171171809Y-78848857D01*
X171196000Y-78921428D01*
X171679809Y-79139142D02*
X171171809Y-79139142D01*
X171171809Y-79260095D01*
X171196000Y-79332666D01*
X171244380Y-79381047D01*
X171292761Y-79405238D01*
X171389523Y-79429428D01*
X171462095Y-79429428D01*
X171558857Y-79405238D01*
X171607238Y-79381047D01*
X171655619Y-79332666D01*
X171679809Y-79260095D01*
X171679809Y-79139142D01*
X171534666Y-79622952D02*
X171534666Y-79864857D01*
X171679809Y-79574571D02*
X171171809Y-79743904D01*
X171679809Y-79913238D01*
X169115619Y-78643238D02*
X169139809Y-78715809D01*
X169139809Y-78836761D01*
X169115619Y-78885142D01*
X169091428Y-78909333D01*
X169043047Y-78933523D01*
X168994666Y-78933523D01*
X168946285Y-78909333D01*
X168922095Y-78885142D01*
X168897904Y-78836761D01*
X168873714Y-78740000D01*
X168849523Y-78691619D01*
X168825333Y-78667428D01*
X168776952Y-78643238D01*
X168728571Y-78643238D01*
X168680190Y-78667428D01*
X168656000Y-78691619D01*
X168631809Y-78740000D01*
X168631809Y-78860952D01*
X168656000Y-78933523D01*
X169091428Y-79441523D02*
X169115619Y-79417333D01*
X169139809Y-79344761D01*
X169139809Y-79296380D01*
X169115619Y-79223809D01*
X169067238Y-79175428D01*
X169018857Y-79151238D01*
X168922095Y-79127047D01*
X168849523Y-79127047D01*
X168752761Y-79151238D01*
X168704380Y-79175428D01*
X168656000Y-79223809D01*
X168631809Y-79296380D01*
X168631809Y-79344761D01*
X168656000Y-79417333D01*
X168680190Y-79441523D01*
X169139809Y-79901142D02*
X169139809Y-79659238D01*
X168631809Y-79659238D01*
X166599809Y-78631142D02*
X166091809Y-78631142D01*
X166091809Y-78824666D01*
X166116000Y-78873047D01*
X166140190Y-78897238D01*
X166188571Y-78921428D01*
X166261142Y-78921428D01*
X166309523Y-78897238D01*
X166333714Y-78873047D01*
X166357904Y-78824666D01*
X166357904Y-78631142D01*
X166333714Y-79308476D02*
X166357904Y-79381047D01*
X166382095Y-79405238D01*
X166430476Y-79429428D01*
X166503047Y-79429428D01*
X166551428Y-79405238D01*
X166575619Y-79381047D01*
X166599809Y-79332666D01*
X166599809Y-79139142D01*
X166091809Y-79139142D01*
X166091809Y-79308476D01*
X166116000Y-79356857D01*
X166140190Y-79381047D01*
X166188571Y-79405238D01*
X166236952Y-79405238D01*
X166285333Y-79381047D01*
X166309523Y-79356857D01*
X166333714Y-79308476D01*
X166333714Y-79139142D01*
X166599809Y-79913238D02*
X166599809Y-79622952D01*
X166599809Y-79768095D02*
X166091809Y-79768095D01*
X166164380Y-79719714D01*
X166212761Y-79671333D01*
X166236952Y-79622952D01*
X166140190Y-80106761D02*
X166116000Y-80130952D01*
X166091809Y-80179333D01*
X166091809Y-80300285D01*
X166116000Y-80348666D01*
X166140190Y-80372857D01*
X166188571Y-80397047D01*
X166236952Y-80397047D01*
X166309523Y-80372857D01*
X166599809Y-80082571D01*
X166599809Y-80397047D01*
X164059809Y-78667428D02*
X163551809Y-78667428D01*
X163551809Y-78860952D01*
X163576000Y-78909333D01*
X163600190Y-78933523D01*
X163648571Y-78957714D01*
X163721142Y-78957714D01*
X163769523Y-78933523D01*
X163793714Y-78909333D01*
X163817904Y-78860952D01*
X163817904Y-78667428D01*
X163914666Y-79151238D02*
X163914666Y-79393142D01*
X164059809Y-79102857D02*
X163551809Y-79272190D01*
X164059809Y-79441523D01*
X164059809Y-79876952D02*
X164059809Y-79586666D01*
X164059809Y-79731809D02*
X163551809Y-79731809D01*
X163624380Y-79683428D01*
X163672761Y-79635047D01*
X163696952Y-79586666D01*
X163551809Y-80336571D02*
X163551809Y-80094666D01*
X163793714Y-80070476D01*
X163769523Y-80094666D01*
X163745333Y-80143047D01*
X163745333Y-80264000D01*
X163769523Y-80312380D01*
X163793714Y-80336571D01*
X163842095Y-80360761D01*
X163963047Y-80360761D01*
X164011428Y-80336571D01*
X164035619Y-80312380D01*
X164059809Y-80264000D01*
X164059809Y-80143047D01*
X164035619Y-80094666D01*
X164011428Y-80070476D01*
X161519809Y-78746047D02*
X161011809Y-78746047D01*
X161011809Y-78939571D01*
X161036000Y-78987952D01*
X161060190Y-79012142D01*
X161108571Y-79036333D01*
X161181142Y-79036333D01*
X161229523Y-79012142D01*
X161253714Y-78987952D01*
X161277904Y-78939571D01*
X161277904Y-78746047D01*
X161253714Y-79423380D02*
X161277904Y-79495952D01*
X161302095Y-79520142D01*
X161350476Y-79544333D01*
X161423047Y-79544333D01*
X161471428Y-79520142D01*
X161495619Y-79495952D01*
X161519809Y-79447571D01*
X161519809Y-79254047D01*
X161011809Y-79254047D01*
X161011809Y-79423380D01*
X161036000Y-79471761D01*
X161060190Y-79495952D01*
X161108571Y-79520142D01*
X161156952Y-79520142D01*
X161205333Y-79495952D01*
X161229523Y-79471761D01*
X161253714Y-79423380D01*
X161253714Y-79254047D01*
X161011809Y-79713666D02*
X161011809Y-80028142D01*
X161205333Y-79858809D01*
X161205333Y-79931380D01*
X161229523Y-79979761D01*
X161253714Y-80003952D01*
X161302095Y-80028142D01*
X161423047Y-80028142D01*
X161471428Y-80003952D01*
X161495619Y-79979761D01*
X161519809Y-79931380D01*
X161519809Y-79786238D01*
X161495619Y-79737857D01*
X161471428Y-79713666D01*
X159106809Y-78746047D02*
X158598809Y-78746047D01*
X158598809Y-78939571D01*
X158623000Y-78987952D01*
X158647190Y-79012142D01*
X158695571Y-79036333D01*
X158768142Y-79036333D01*
X158816523Y-79012142D01*
X158840714Y-78987952D01*
X158864904Y-78939571D01*
X158864904Y-78746047D01*
X158840714Y-79423380D02*
X158864904Y-79495952D01*
X158889095Y-79520142D01*
X158937476Y-79544333D01*
X159010047Y-79544333D01*
X159058428Y-79520142D01*
X159082619Y-79495952D01*
X159106809Y-79447571D01*
X159106809Y-79254047D01*
X158598809Y-79254047D01*
X158598809Y-79423380D01*
X158623000Y-79471761D01*
X158647190Y-79495952D01*
X158695571Y-79520142D01*
X158743952Y-79520142D01*
X158792333Y-79495952D01*
X158816523Y-79471761D01*
X158840714Y-79423380D01*
X158840714Y-79254047D01*
X158768142Y-79979761D02*
X159106809Y-79979761D01*
X158574619Y-79858809D02*
X158937476Y-79737857D01*
X158937476Y-80052333D01*
X156566809Y-78746047D02*
X156058809Y-78746047D01*
X156058809Y-78939571D01*
X156083000Y-78987952D01*
X156107190Y-79012142D01*
X156155571Y-79036333D01*
X156228142Y-79036333D01*
X156276523Y-79012142D01*
X156300714Y-78987952D01*
X156324904Y-78939571D01*
X156324904Y-78746047D01*
X156300714Y-79423380D02*
X156324904Y-79495952D01*
X156349095Y-79520142D01*
X156397476Y-79544333D01*
X156470047Y-79544333D01*
X156518428Y-79520142D01*
X156542619Y-79495952D01*
X156566809Y-79447571D01*
X156566809Y-79254047D01*
X156058809Y-79254047D01*
X156058809Y-79423380D01*
X156083000Y-79471761D01*
X156107190Y-79495952D01*
X156155571Y-79520142D01*
X156203952Y-79520142D01*
X156252333Y-79495952D01*
X156276523Y-79471761D01*
X156300714Y-79423380D01*
X156300714Y-79254047D01*
X156058809Y-80003952D02*
X156058809Y-79762047D01*
X156300714Y-79737857D01*
X156276523Y-79762047D01*
X156252333Y-79810428D01*
X156252333Y-79931380D01*
X156276523Y-79979761D01*
X156300714Y-80003952D01*
X156349095Y-80028142D01*
X156470047Y-80028142D01*
X156518428Y-80003952D01*
X156542619Y-79979761D01*
X156566809Y-79931380D01*
X156566809Y-79810428D01*
X156542619Y-79762047D01*
X156518428Y-79737857D01*
X154026809Y-78746047D02*
X153518809Y-78746047D01*
X153518809Y-78939571D01*
X153543000Y-78987952D01*
X153567190Y-79012142D01*
X153615571Y-79036333D01*
X153688142Y-79036333D01*
X153736523Y-79012142D01*
X153760714Y-78987952D01*
X153784904Y-78939571D01*
X153784904Y-78746047D01*
X153760714Y-79423380D02*
X153784904Y-79495952D01*
X153809095Y-79520142D01*
X153857476Y-79544333D01*
X153930047Y-79544333D01*
X153978428Y-79520142D01*
X154002619Y-79495952D01*
X154026809Y-79447571D01*
X154026809Y-79254047D01*
X153518809Y-79254047D01*
X153518809Y-79423380D01*
X153543000Y-79471761D01*
X153567190Y-79495952D01*
X153615571Y-79520142D01*
X153663952Y-79520142D01*
X153712333Y-79495952D01*
X153736523Y-79471761D01*
X153760714Y-79423380D01*
X153760714Y-79254047D01*
X153736523Y-79834619D02*
X153712333Y-79786238D01*
X153688142Y-79762047D01*
X153639761Y-79737857D01*
X153615571Y-79737857D01*
X153567190Y-79762047D01*
X153543000Y-79786238D01*
X153518809Y-79834619D01*
X153518809Y-79931380D01*
X153543000Y-79979761D01*
X153567190Y-80003952D01*
X153615571Y-80028142D01*
X153639761Y-80028142D01*
X153688142Y-80003952D01*
X153712333Y-79979761D01*
X153736523Y-79931380D01*
X153736523Y-79834619D01*
X153760714Y-79786238D01*
X153784904Y-79762047D01*
X153833285Y-79737857D01*
X153930047Y-79737857D01*
X153978428Y-79762047D01*
X154002619Y-79786238D01*
X154026809Y-79834619D01*
X154026809Y-79931380D01*
X154002619Y-79979761D01*
X153978428Y-80003952D01*
X153930047Y-80028142D01*
X153833285Y-80028142D01*
X153784904Y-80003952D01*
X153760714Y-79979761D01*
X153736523Y-79931380D01*
X151359809Y-78746047D02*
X150851809Y-78746047D01*
X150851809Y-78939571D01*
X150876000Y-78987952D01*
X150900190Y-79012142D01*
X150948571Y-79036333D01*
X151021142Y-79036333D01*
X151069523Y-79012142D01*
X151093714Y-78987952D01*
X151117904Y-78939571D01*
X151117904Y-78746047D01*
X151093714Y-79423380D02*
X151117904Y-79495952D01*
X151142095Y-79520142D01*
X151190476Y-79544333D01*
X151263047Y-79544333D01*
X151311428Y-79520142D01*
X151335619Y-79495952D01*
X151359809Y-79447571D01*
X151359809Y-79254047D01*
X150851809Y-79254047D01*
X150851809Y-79423380D01*
X150876000Y-79471761D01*
X150900190Y-79495952D01*
X150948571Y-79520142D01*
X150996952Y-79520142D01*
X151045333Y-79495952D01*
X151069523Y-79471761D01*
X151093714Y-79423380D01*
X151093714Y-79254047D01*
X151359809Y-79786238D02*
X151359809Y-79883000D01*
X151335619Y-79931380D01*
X151311428Y-79955571D01*
X151238857Y-80003952D01*
X151142095Y-80028142D01*
X150948571Y-80028142D01*
X150900190Y-80003952D01*
X150876000Y-79979761D01*
X150851809Y-79931380D01*
X150851809Y-79834619D01*
X150876000Y-79786238D01*
X150900190Y-79762047D01*
X150948571Y-79737857D01*
X151069523Y-79737857D01*
X151117904Y-79762047D01*
X151142095Y-79786238D01*
X151166285Y-79834619D01*
X151166285Y-79931380D01*
X151142095Y-79979761D01*
X151117904Y-80003952D01*
X151069523Y-80028142D01*
X148311809Y-78733952D02*
X148723047Y-78733952D01*
X148771428Y-78758142D01*
X148795619Y-78782333D01*
X148819809Y-78830714D01*
X148819809Y-78927476D01*
X148795619Y-78975857D01*
X148771428Y-79000047D01*
X148723047Y-79024238D01*
X148311809Y-79024238D01*
X148795619Y-79241952D02*
X148819809Y-79314523D01*
X148819809Y-79435476D01*
X148795619Y-79483857D01*
X148771428Y-79508047D01*
X148723047Y-79532238D01*
X148674666Y-79532238D01*
X148626285Y-79508047D01*
X148602095Y-79483857D01*
X148577904Y-79435476D01*
X148553714Y-79338714D01*
X148529523Y-79290333D01*
X148505333Y-79266142D01*
X148456952Y-79241952D01*
X148408571Y-79241952D01*
X148360190Y-79266142D01*
X148336000Y-79290333D01*
X148311809Y-79338714D01*
X148311809Y-79459666D01*
X148336000Y-79532238D01*
X148553714Y-79919285D02*
X148577904Y-79991857D01*
X148602095Y-80016047D01*
X148650476Y-80040238D01*
X148723047Y-80040238D01*
X148771428Y-80016047D01*
X148795619Y-79991857D01*
X148819809Y-79943476D01*
X148819809Y-79749952D01*
X148311809Y-79749952D01*
X148311809Y-79919285D01*
X148336000Y-79967666D01*
X148360190Y-79991857D01*
X148408571Y-80016047D01*
X148456952Y-80016047D01*
X148505333Y-79991857D01*
X148529523Y-79967666D01*
X148553714Y-79919285D01*
X148553714Y-79749952D01*
X146279809Y-78721857D02*
X145771809Y-78721857D01*
X146279809Y-79012142D01*
X145771809Y-79012142D01*
X146231428Y-79544333D02*
X146255619Y-79520142D01*
X146279809Y-79447571D01*
X146279809Y-79399190D01*
X146255619Y-79326619D01*
X146207238Y-79278238D01*
X146158857Y-79254047D01*
X146062095Y-79229857D01*
X145989523Y-79229857D01*
X145892761Y-79254047D01*
X145844380Y-79278238D01*
X145796000Y-79326619D01*
X145771809Y-79399190D01*
X145771809Y-79447571D01*
X145796000Y-79520142D01*
X145820190Y-79544333D01*
X143473714Y-78873047D02*
X143497904Y-78945619D01*
X143522095Y-78969809D01*
X143570476Y-78994000D01*
X143643047Y-78994000D01*
X143691428Y-78969809D01*
X143715619Y-78945619D01*
X143739809Y-78897238D01*
X143739809Y-78703714D01*
X143231809Y-78703714D01*
X143231809Y-78873047D01*
X143256000Y-78921428D01*
X143280190Y-78945619D01*
X143328571Y-78969809D01*
X143376952Y-78969809D01*
X143425333Y-78945619D01*
X143449523Y-78921428D01*
X143473714Y-78873047D01*
X143473714Y-78703714D01*
X143594666Y-79187523D02*
X143594666Y-79429428D01*
X143739809Y-79139142D02*
X143231809Y-79308476D01*
X143739809Y-79477809D01*
X143231809Y-79574571D02*
X143231809Y-79864857D01*
X143739809Y-79719714D02*
X143231809Y-79719714D01*
X171196000Y-95497952D02*
X171171809Y-95449571D01*
X171171809Y-95377000D01*
X171196000Y-95304428D01*
X171244380Y-95256047D01*
X171292761Y-95231857D01*
X171389523Y-95207666D01*
X171462095Y-95207666D01*
X171558857Y-95231857D01*
X171607238Y-95256047D01*
X171655619Y-95304428D01*
X171679809Y-95377000D01*
X171679809Y-95425380D01*
X171655619Y-95497952D01*
X171631428Y-95522142D01*
X171462095Y-95522142D01*
X171462095Y-95425380D01*
X171679809Y-95739857D02*
X171171809Y-95739857D01*
X171679809Y-96030142D01*
X171171809Y-96030142D01*
X171679809Y-96272047D02*
X171171809Y-96272047D01*
X171171809Y-96393000D01*
X171196000Y-96465571D01*
X171244380Y-96513952D01*
X171292761Y-96538142D01*
X171389523Y-96562333D01*
X171462095Y-96562333D01*
X171558857Y-96538142D01*
X171607238Y-96513952D01*
X171655619Y-96465571D01*
X171679809Y-96393000D01*
X171679809Y-96272047D01*
X168631809Y-95751952D02*
X168631809Y-96042238D01*
X169139809Y-95897095D02*
X168631809Y-95897095D01*
X168631809Y-96163190D02*
X169139809Y-96501857D01*
X168631809Y-96501857D02*
X169139809Y-96163190D01*
X166599809Y-96054333D02*
X166357904Y-95885000D01*
X166599809Y-95764047D02*
X166091809Y-95764047D01*
X166091809Y-95957571D01*
X166116000Y-96005952D01*
X166140190Y-96030142D01*
X166188571Y-96054333D01*
X166261142Y-96054333D01*
X166309523Y-96030142D01*
X166333714Y-96005952D01*
X166357904Y-95957571D01*
X166357904Y-95764047D01*
X166091809Y-96223666D02*
X166599809Y-96562333D01*
X166091809Y-96562333D02*
X166599809Y-96223666D01*
X164059809Y-94959714D02*
X163551809Y-94959714D01*
X163914666Y-95129047D01*
X163551809Y-95298380D01*
X164059809Y-95298380D01*
X164059809Y-95540285D02*
X163551809Y-95540285D01*
X164035619Y-95758000D02*
X164059809Y-95830571D01*
X164059809Y-95951523D01*
X164035619Y-95999904D01*
X164011428Y-96024095D01*
X163963047Y-96048285D01*
X163914666Y-96048285D01*
X163866285Y-96024095D01*
X163842095Y-95999904D01*
X163817904Y-95951523D01*
X163793714Y-95854761D01*
X163769523Y-95806380D01*
X163745333Y-95782190D01*
X163696952Y-95758000D01*
X163648571Y-95758000D01*
X163600190Y-95782190D01*
X163576000Y-95806380D01*
X163551809Y-95854761D01*
X163551809Y-95975714D01*
X163576000Y-96048285D01*
X163551809Y-96362761D02*
X163551809Y-96459523D01*
X163576000Y-96507904D01*
X163624380Y-96556285D01*
X163721142Y-96580476D01*
X163890476Y-96580476D01*
X163987238Y-96556285D01*
X164035619Y-96507904D01*
X164059809Y-96459523D01*
X164059809Y-96362761D01*
X164035619Y-96314380D01*
X163987238Y-96266000D01*
X163890476Y-96241809D01*
X163721142Y-96241809D01*
X163624380Y-96266000D01*
X163576000Y-96314380D01*
X163551809Y-96362761D01*
X161519809Y-94959714D02*
X161011809Y-94959714D01*
X161374666Y-95129047D01*
X161011809Y-95298380D01*
X161519809Y-95298380D01*
X161011809Y-95637047D02*
X161011809Y-95733809D01*
X161036000Y-95782190D01*
X161084380Y-95830571D01*
X161181142Y-95854761D01*
X161350476Y-95854761D01*
X161447238Y-95830571D01*
X161495619Y-95782190D01*
X161519809Y-95733809D01*
X161519809Y-95637047D01*
X161495619Y-95588666D01*
X161447238Y-95540285D01*
X161350476Y-95516095D01*
X161181142Y-95516095D01*
X161084380Y-95540285D01*
X161036000Y-95588666D01*
X161011809Y-95637047D01*
X161495619Y-96048285D02*
X161519809Y-96120857D01*
X161519809Y-96241809D01*
X161495619Y-96290190D01*
X161471428Y-96314380D01*
X161423047Y-96338571D01*
X161374666Y-96338571D01*
X161326285Y-96314380D01*
X161302095Y-96290190D01*
X161277904Y-96241809D01*
X161253714Y-96145047D01*
X161229523Y-96096666D01*
X161205333Y-96072476D01*
X161156952Y-96048285D01*
X161108571Y-96048285D01*
X161060190Y-96072476D01*
X161036000Y-96096666D01*
X161011809Y-96145047D01*
X161011809Y-96266000D01*
X161036000Y-96338571D01*
X161519809Y-96556285D02*
X161011809Y-96556285D01*
X158955619Y-95358857D02*
X158979809Y-95431428D01*
X158979809Y-95552380D01*
X158955619Y-95600761D01*
X158931428Y-95624952D01*
X158883047Y-95649142D01*
X158834666Y-95649142D01*
X158786285Y-95624952D01*
X158762095Y-95600761D01*
X158737904Y-95552380D01*
X158713714Y-95455619D01*
X158689523Y-95407238D01*
X158665333Y-95383047D01*
X158616952Y-95358857D01*
X158568571Y-95358857D01*
X158520190Y-95383047D01*
X158496000Y-95407238D01*
X158471809Y-95455619D01*
X158471809Y-95576571D01*
X158496000Y-95649142D01*
X158931428Y-96157142D02*
X158955619Y-96132952D01*
X158979809Y-96060380D01*
X158979809Y-96012000D01*
X158955619Y-95939428D01*
X158907238Y-95891047D01*
X158858857Y-95866857D01*
X158762095Y-95842666D01*
X158689523Y-95842666D01*
X158592761Y-95866857D01*
X158544380Y-95891047D01*
X158496000Y-95939428D01*
X158471809Y-96012000D01*
X158471809Y-96060380D01*
X158496000Y-96132952D01*
X158520190Y-96157142D01*
X158979809Y-96374857D02*
X158471809Y-96374857D01*
X158979809Y-96665142D02*
X158689523Y-96447428D01*
X158471809Y-96665142D02*
X158762095Y-96374857D01*
X156294666Y-95903142D02*
X156294666Y-96145047D01*
X156439809Y-95854761D02*
X155931809Y-96024095D01*
X156439809Y-96193428D01*
X155931809Y-96604666D02*
X155931809Y-96362761D01*
X156173714Y-96338571D01*
X156149523Y-96362761D01*
X156125333Y-96411142D01*
X156125333Y-96532095D01*
X156149523Y-96580476D01*
X156173714Y-96604666D01*
X156222095Y-96628857D01*
X156343047Y-96628857D01*
X156391428Y-96604666D01*
X156415619Y-96580476D01*
X156439809Y-96532095D01*
X156439809Y-96411142D01*
X156415619Y-96362761D01*
X156391428Y-96338571D01*
X153754666Y-95903142D02*
X153754666Y-96145047D01*
X153899809Y-95854761D02*
X153391809Y-96024095D01*
X153899809Y-96193428D01*
X153561142Y-96580476D02*
X153899809Y-96580476D01*
X153367619Y-96459523D02*
X153730476Y-96338571D01*
X153730476Y-96653047D01*
X151214666Y-95903142D02*
X151214666Y-96145047D01*
X151359809Y-95854761D02*
X150851809Y-96024095D01*
X151359809Y-96193428D01*
X150851809Y-96314380D02*
X150851809Y-96628857D01*
X151045333Y-96459523D01*
X151045333Y-96532095D01*
X151069523Y-96580476D01*
X151093714Y-96604666D01*
X151142095Y-96628857D01*
X151263047Y-96628857D01*
X151311428Y-96604666D01*
X151335619Y-96580476D01*
X151359809Y-96532095D01*
X151359809Y-96386952D01*
X151335619Y-96338571D01*
X151311428Y-96314380D01*
X148674666Y-95903142D02*
X148674666Y-96145047D01*
X148819809Y-95854761D02*
X148311809Y-96024095D01*
X148819809Y-96193428D01*
X148360190Y-96338571D02*
X148336000Y-96362761D01*
X148311809Y-96411142D01*
X148311809Y-96532095D01*
X148336000Y-96580476D01*
X148360190Y-96604666D01*
X148408571Y-96628857D01*
X148456952Y-96628857D01*
X148529523Y-96604666D01*
X148819809Y-96314380D01*
X148819809Y-96628857D01*
X146134666Y-95903142D02*
X146134666Y-96145047D01*
X146279809Y-95854761D02*
X145771809Y-96024095D01*
X146279809Y-96193428D01*
X146279809Y-96628857D02*
X146279809Y-96338571D01*
X146279809Y-96483714D02*
X145771809Y-96483714D01*
X145844380Y-96435333D01*
X145892761Y-96386952D01*
X145916952Y-96338571D01*
X143594666Y-95903142D02*
X143594666Y-96145047D01*
X143739809Y-95854761D02*
X143231809Y-96024095D01*
X143739809Y-96193428D01*
X143231809Y-96459523D02*
X143231809Y-96507904D01*
X143256000Y-96556285D01*
X143280190Y-96580476D01*
X143328571Y-96604666D01*
X143425333Y-96628857D01*
X143546285Y-96628857D01*
X143643047Y-96604666D01*
X143691428Y-96580476D01*
X143715619Y-96556285D01*
X143739809Y-96507904D01*
X143739809Y-96459523D01*
X143715619Y-96411142D01*
X143691428Y-96386952D01*
X143643047Y-96362761D01*
X143546285Y-96338571D01*
X143425333Y-96338571D01*
X143328571Y-96362761D01*
X143280190Y-96386952D01*
X143256000Y-96411142D01*
X143231809Y-96459523D01*
X140716000Y-95497952D02*
X140691809Y-95449571D01*
X140691809Y-95377000D01*
X140716000Y-95304428D01*
X140764380Y-95256047D01*
X140812761Y-95231857D01*
X140909523Y-95207666D01*
X140982095Y-95207666D01*
X141078857Y-95231857D01*
X141127238Y-95256047D01*
X141175619Y-95304428D01*
X141199809Y-95377000D01*
X141199809Y-95425380D01*
X141175619Y-95497952D01*
X141151428Y-95522142D01*
X140982095Y-95522142D01*
X140982095Y-95425380D01*
X141199809Y-95739857D02*
X140691809Y-95739857D01*
X141199809Y-96030142D01*
X140691809Y-96030142D01*
X141199809Y-96272047D02*
X140691809Y-96272047D01*
X140691809Y-96393000D01*
X140716000Y-96465571D01*
X140764380Y-96513952D01*
X140812761Y-96538142D01*
X140909523Y-96562333D01*
X140982095Y-96562333D01*
X141078857Y-96538142D01*
X141127238Y-96513952D01*
X141175619Y-96465571D01*
X141199809Y-96393000D01*
X141199809Y-96272047D01*
X138151809Y-94887142D02*
X138659809Y-95056476D01*
X138151809Y-95225809D01*
X138659809Y-95685428D02*
X138417904Y-95516095D01*
X138659809Y-95395142D02*
X138151809Y-95395142D01*
X138151809Y-95588666D01*
X138176000Y-95637047D01*
X138200190Y-95661238D01*
X138248571Y-95685428D01*
X138321142Y-95685428D01*
X138369523Y-95661238D01*
X138393714Y-95637047D01*
X138417904Y-95588666D01*
X138417904Y-95395142D01*
X138393714Y-95903142D02*
X138393714Y-96072476D01*
X138659809Y-96145047D02*
X138659809Y-95903142D01*
X138151809Y-95903142D01*
X138151809Y-96145047D01*
X138393714Y-96532095D02*
X138393714Y-96362761D01*
X138659809Y-96362761D02*
X138151809Y-96362761D01*
X138151809Y-96604666D01*
X135611809Y-95383047D02*
X135611809Y-95697523D01*
X135805333Y-95528190D01*
X135805333Y-95600761D01*
X135829523Y-95649142D01*
X135853714Y-95673333D01*
X135902095Y-95697523D01*
X136023047Y-95697523D01*
X136071428Y-95673333D01*
X136095619Y-95649142D01*
X136119809Y-95600761D01*
X136119809Y-95455619D01*
X136095619Y-95407238D01*
X136071428Y-95383047D01*
X135611809Y-95842666D02*
X136119809Y-96012000D01*
X135611809Y-96181333D01*
X135611809Y-96302285D02*
X135611809Y-96616761D01*
X135805333Y-96447428D01*
X135805333Y-96520000D01*
X135829523Y-96568380D01*
X135853714Y-96592571D01*
X135902095Y-96616761D01*
X136023047Y-96616761D01*
X136071428Y-96592571D01*
X136095619Y-96568380D01*
X136119809Y-96520000D01*
X136119809Y-96374857D01*
X136095619Y-96326476D01*
X136071428Y-96302285D01*
X133706809Y-94923428D02*
X133198809Y-94923428D01*
X133706809Y-95213714D01*
X133198809Y-95213714D01*
X133706809Y-95745904D02*
X133464904Y-95576571D01*
X133706809Y-95455619D02*
X133198809Y-95455619D01*
X133198809Y-95649142D01*
X133223000Y-95697523D01*
X133247190Y-95721714D01*
X133295571Y-95745904D01*
X133368142Y-95745904D01*
X133416523Y-95721714D01*
X133440714Y-95697523D01*
X133464904Y-95649142D01*
X133464904Y-95455619D01*
X133682619Y-95939428D02*
X133706809Y-96012000D01*
X133706809Y-96132952D01*
X133682619Y-96181333D01*
X133658428Y-96205523D01*
X133610047Y-96229714D01*
X133561666Y-96229714D01*
X133513285Y-96205523D01*
X133489095Y-96181333D01*
X133464904Y-96132952D01*
X133440714Y-96036190D01*
X133416523Y-95987809D01*
X133392333Y-95963619D01*
X133343952Y-95939428D01*
X133295571Y-95939428D01*
X133247190Y-95963619D01*
X133223000Y-95987809D01*
X133198809Y-96036190D01*
X133198809Y-96157142D01*
X133223000Y-96229714D01*
X133198809Y-96374857D02*
X133198809Y-96665142D01*
X133706809Y-96520000D02*
X133198809Y-96520000D01*
X153270857Y-89348128D02*
X153198285Y-89384414D01*
X153053142Y-89384414D01*
X152980571Y-89348128D01*
X152944285Y-89275557D01*
X152944285Y-89239271D01*
X152980571Y-89166700D01*
X153053142Y-89130414D01*
X153162000Y-89130414D01*
X153234571Y-89094128D01*
X153270857Y-89021557D01*
X153270857Y-88985271D01*
X153234571Y-88912700D01*
X153162000Y-88876414D01*
X153053142Y-88876414D01*
X152980571Y-88912700D01*
X152726571Y-88876414D02*
X152436285Y-88876414D01*
X152617714Y-88622414D02*
X152617714Y-89275557D01*
X152581428Y-89348128D01*
X152508857Y-89384414D01*
X152436285Y-89384414D01*
X152182285Y-89384414D02*
X152182285Y-88876414D01*
X152182285Y-88948985D02*
X152146000Y-88912700D01*
X152073428Y-88876414D01*
X151964571Y-88876414D01*
X151892000Y-88912700D01*
X151855714Y-88985271D01*
X151855714Y-89384414D01*
X151855714Y-88985271D02*
X151819428Y-88912700D01*
X151746857Y-88876414D01*
X151638000Y-88876414D01*
X151565428Y-88912700D01*
X151529142Y-88985271D01*
X151529142Y-89384414D01*
X151238857Y-88622414D02*
X150767142Y-88622414D01*
X151021142Y-88912700D01*
X150912285Y-88912700D01*
X150839714Y-88948985D01*
X150803428Y-88985271D01*
X150767142Y-89057842D01*
X150767142Y-89239271D01*
X150803428Y-89311842D01*
X150839714Y-89348128D01*
X150912285Y-89384414D01*
X151130000Y-89384414D01*
X151202571Y-89348128D01*
X151238857Y-89311842D01*
X150476857Y-88694985D02*
X150440571Y-88658700D01*
X150368000Y-88622414D01*
X150186571Y-88622414D01*
X150114000Y-88658700D01*
X150077714Y-88694985D01*
X150041428Y-88767557D01*
X150041428Y-88840128D01*
X150077714Y-88948985D01*
X150513142Y-89384414D01*
X150041428Y-89384414D01*
X149823714Y-88876414D02*
X149533428Y-88876414D01*
X149714857Y-89384414D02*
X149714857Y-88731271D01*
X149678571Y-88658700D01*
X149606000Y-88622414D01*
X149533428Y-88622414D01*
X148880285Y-89384414D02*
X149315714Y-89384414D01*
X149098000Y-89384414D02*
X149098000Y-88622414D01*
X149170571Y-88731271D01*
X149243142Y-88803842D01*
X149315714Y-88840128D01*
X148408571Y-88622414D02*
X148336000Y-88622414D01*
X148263428Y-88658700D01*
X148227142Y-88694985D01*
X148190857Y-88767557D01*
X148154571Y-88912700D01*
X148154571Y-89094128D01*
X148190857Y-89239271D01*
X148227142Y-89311842D01*
X148263428Y-89348128D01*
X148336000Y-89384414D01*
X148408571Y-89384414D01*
X148481142Y-89348128D01*
X148517428Y-89311842D01*
X148553714Y-89239271D01*
X148590000Y-89094128D01*
X148590000Y-88912700D01*
X148553714Y-88767557D01*
X148517428Y-88694985D01*
X148481142Y-88658700D01*
X148408571Y-88622414D01*
X147900571Y-88622414D02*
X147428857Y-88622414D01*
X147682857Y-88912700D01*
X147574000Y-88912700D01*
X147501428Y-88948985D01*
X147465142Y-88985271D01*
X147428857Y-89057842D01*
X147428857Y-89239271D01*
X147465142Y-89311842D01*
X147501428Y-89348128D01*
X147574000Y-89384414D01*
X147791714Y-89384414D01*
X147864285Y-89348128D01*
X147900571Y-89311842D01*
X146775714Y-89348128D02*
X146848285Y-89384414D01*
X146993428Y-89384414D01*
X147066000Y-89348128D01*
X147102285Y-89311842D01*
X147138571Y-89239271D01*
X147138571Y-89021557D01*
X147102285Y-88948985D01*
X147066000Y-88912700D01*
X146993428Y-88876414D01*
X146848285Y-88876414D01*
X146775714Y-88912700D01*
X146449142Y-89384414D02*
X146449142Y-88622414D01*
X146449142Y-88912700D02*
X146376571Y-88876414D01*
X146231428Y-88876414D01*
X146158857Y-88912700D01*
X146122571Y-88948985D01*
X146086285Y-89021557D01*
X146086285Y-89239271D01*
X146122571Y-89311842D01*
X146158857Y-89348128D01*
X146231428Y-89384414D01*
X146376571Y-89384414D01*
X146449142Y-89348128D01*
X145288000Y-88876414D02*
X144997714Y-88876414D01*
X145179142Y-89384414D02*
X145179142Y-88731271D01*
X145142857Y-88658700D01*
X145070285Y-88622414D01*
X144997714Y-88622414D01*
X144453428Y-89348128D02*
X144526000Y-89384414D01*
X144671142Y-89384414D01*
X144743714Y-89348128D01*
X144780000Y-89275557D01*
X144780000Y-88985271D01*
X144743714Y-88912700D01*
X144671142Y-88876414D01*
X144526000Y-88876414D01*
X144453428Y-88912700D01*
X144417142Y-88985271D01*
X144417142Y-89057842D01*
X144780000Y-89130414D01*
X143764000Y-89384414D02*
X143764000Y-88985271D01*
X143800285Y-88912700D01*
X143872857Y-88876414D01*
X144018000Y-88876414D01*
X144090571Y-88912700D01*
X143764000Y-89348128D02*
X143836571Y-89384414D01*
X144018000Y-89384414D01*
X144090571Y-89348128D01*
X144126857Y-89275557D01*
X144126857Y-89202985D01*
X144090571Y-89130414D01*
X144018000Y-89094128D01*
X143836571Y-89094128D01*
X143764000Y-89057842D01*
X143510000Y-88876414D02*
X143219714Y-88876414D01*
X143401142Y-88622414D02*
X143401142Y-89275557D01*
X143364857Y-89348128D01*
X143292285Y-89384414D01*
X143219714Y-89384414D01*
X142965714Y-89384414D02*
X142965714Y-88622414D01*
X142639142Y-89384414D02*
X142639142Y-88985271D01*
X142675428Y-88912700D01*
X142748000Y-88876414D01*
X142856857Y-88876414D01*
X142929428Y-88912700D01*
X142965714Y-88948985D01*
X141986000Y-89348128D02*
X142058571Y-89384414D01*
X142203714Y-89384414D01*
X142276285Y-89348128D01*
X142312571Y-89275557D01*
X142312571Y-88985271D01*
X142276285Y-88912700D01*
X142203714Y-88876414D01*
X142058571Y-88876414D01*
X141986000Y-88912700D01*
X141949714Y-88985271D01*
X141949714Y-89057842D01*
X142312571Y-89130414D01*
X141623142Y-89384414D02*
X141623142Y-88876414D01*
X141623142Y-89021557D02*
X141586857Y-88948985D01*
X141550571Y-88912700D01*
X141478000Y-88876414D01*
X141405428Y-88876414D01*
X141151428Y-89094128D02*
X140570857Y-89094128D01*
X139881428Y-89348128D02*
X139954000Y-89384414D01*
X140099142Y-89384414D01*
X140171714Y-89348128D01*
X140208000Y-89311842D01*
X140244285Y-89239271D01*
X140244285Y-89021557D01*
X140208000Y-88948985D01*
X140171714Y-88912700D01*
X140099142Y-88876414D01*
X139954000Y-88876414D01*
X139881428Y-88912700D01*
X139446000Y-89384414D02*
X139518571Y-89348128D01*
X139554857Y-89311842D01*
X139591142Y-89239271D01*
X139591142Y-89021557D01*
X139554857Y-88948985D01*
X139518571Y-88912700D01*
X139446000Y-88876414D01*
X139337142Y-88876414D01*
X139264571Y-88912700D01*
X139228285Y-88948985D01*
X139192000Y-89021557D01*
X139192000Y-89239271D01*
X139228285Y-89311842D01*
X139264571Y-89348128D01*
X139337142Y-89384414D01*
X139446000Y-89384414D01*
X138865428Y-89384414D02*
X138865428Y-88876414D01*
X138865428Y-88948985D02*
X138829142Y-88912700D01*
X138756571Y-88876414D01*
X138647714Y-88876414D01*
X138575142Y-88912700D01*
X138538857Y-88985271D01*
X138538857Y-89384414D01*
X138538857Y-88985271D02*
X138502571Y-88912700D01*
X138430000Y-88876414D01*
X138321142Y-88876414D01*
X138248571Y-88912700D01*
X138212285Y-88985271D01*
X138212285Y-89384414D01*
X137849428Y-88876414D02*
X137849428Y-89638414D01*
X137849428Y-88912700D02*
X137776857Y-88876414D01*
X137631714Y-88876414D01*
X137559142Y-88912700D01*
X137522857Y-88948985D01*
X137486571Y-89021557D01*
X137486571Y-89239271D01*
X137522857Y-89311842D01*
X137559142Y-89348128D01*
X137631714Y-89384414D01*
X137776857Y-89384414D01*
X137849428Y-89348128D01*
X136833428Y-89384414D02*
X136833428Y-88985271D01*
X136869714Y-88912700D01*
X136942285Y-88876414D01*
X137087428Y-88876414D01*
X137160000Y-88912700D01*
X136833428Y-89348128D02*
X136906000Y-89384414D01*
X137087428Y-89384414D01*
X137160000Y-89348128D01*
X137196285Y-89275557D01*
X137196285Y-89202985D01*
X137160000Y-89130414D01*
X137087428Y-89094128D01*
X136906000Y-89094128D01*
X136833428Y-89057842D01*
X136579428Y-88876414D02*
X136289142Y-88876414D01*
X136470571Y-88622414D02*
X136470571Y-89275557D01*
X136434285Y-89348128D01*
X136361714Y-89384414D01*
X136289142Y-89384414D01*
X136035142Y-89384414D02*
X136035142Y-88876414D01*
X136035142Y-88622414D02*
X136071428Y-88658700D01*
X136035142Y-88694985D01*
X135998857Y-88658700D01*
X136035142Y-88622414D01*
X136035142Y-88694985D01*
X135672285Y-89384414D02*
X135672285Y-88622414D01*
X135672285Y-88912700D02*
X135599714Y-88876414D01*
X135454571Y-88876414D01*
X135382000Y-88912700D01*
X135345714Y-88948985D01*
X135309428Y-89021557D01*
X135309428Y-89239271D01*
X135345714Y-89311842D01*
X135382000Y-89348128D01*
X135454571Y-89384414D01*
X135599714Y-89384414D01*
X135672285Y-89348128D01*
X134874000Y-89384414D02*
X134946571Y-89348128D01*
X134982857Y-89275557D01*
X134982857Y-88622414D01*
X134293428Y-89348128D02*
X134366000Y-89384414D01*
X134511142Y-89384414D01*
X134583714Y-89348128D01*
X134620000Y-89275557D01*
X134620000Y-88985271D01*
X134583714Y-88912700D01*
X134511142Y-88876414D01*
X134366000Y-88876414D01*
X134293428Y-88912700D01*
X134257142Y-88985271D01*
X134257142Y-89057842D01*
X134620000Y-89130414D01*
X146666857Y-90629014D02*
X146666857Y-90121014D01*
X146666857Y-89867014D02*
X146703142Y-89903300D01*
X146666857Y-89939585D01*
X146630571Y-89903300D01*
X146666857Y-89867014D01*
X146666857Y-89939585D01*
X146304000Y-90121014D02*
X146304000Y-90883014D01*
X146304000Y-90157300D02*
X146231428Y-90121014D01*
X146086285Y-90121014D01*
X146013714Y-90157300D01*
X145977428Y-90193585D01*
X145941142Y-90266157D01*
X145941142Y-90483871D01*
X145977428Y-90556442D01*
X146013714Y-90592728D01*
X146086285Y-90629014D01*
X146231428Y-90629014D01*
X146304000Y-90592728D01*
X145687142Y-90121014D02*
X145505714Y-90629014D01*
X145324285Y-90121014D02*
X145505714Y-90629014D01*
X145578285Y-90810442D01*
X145614571Y-90846728D01*
X145687142Y-90883014D01*
X144707428Y-90629014D02*
X144707428Y-89867014D01*
X144707428Y-90592728D02*
X144780000Y-90629014D01*
X144925142Y-90629014D01*
X144997714Y-90592728D01*
X145034000Y-90556442D01*
X145070285Y-90483871D01*
X145070285Y-90266157D01*
X145034000Y-90193585D01*
X144997714Y-90157300D01*
X144925142Y-90121014D01*
X144780000Y-90121014D01*
X144707428Y-90157300D01*
X144344571Y-90338728D02*
X143764000Y-90338728D01*
X143437428Y-89939585D02*
X143401142Y-89903300D01*
X143328571Y-89867014D01*
X143147142Y-89867014D01*
X143074571Y-89903300D01*
X143038285Y-89939585D01*
X143002000Y-90012157D01*
X143002000Y-90084728D01*
X143038285Y-90193585D01*
X143473714Y-90629014D01*
X143002000Y-90629014D01*
X142530285Y-89867014D02*
X142457714Y-89867014D01*
X142385142Y-89903300D01*
X142348857Y-89939585D01*
X142312571Y-90012157D01*
X142276285Y-90157300D01*
X142276285Y-90338728D01*
X142312571Y-90483871D01*
X142348857Y-90556442D01*
X142385142Y-90592728D01*
X142457714Y-90629014D01*
X142530285Y-90629014D01*
X142602857Y-90592728D01*
X142639142Y-90556442D01*
X142675428Y-90483871D01*
X142711714Y-90338728D01*
X142711714Y-90157300D01*
X142675428Y-90012157D01*
X142639142Y-89939585D01*
X142602857Y-89903300D01*
X142530285Y-89867014D01*
X141986000Y-89939585D02*
X141949714Y-89903300D01*
X141877142Y-89867014D01*
X141695714Y-89867014D01*
X141623142Y-89903300D01*
X141586857Y-89939585D01*
X141550571Y-90012157D01*
X141550571Y-90084728D01*
X141586857Y-90193585D01*
X142022285Y-90629014D01*
X141550571Y-90629014D01*
X141078857Y-89867014D02*
X141006285Y-89867014D01*
X140933714Y-89903300D01*
X140897428Y-89939585D01*
X140861142Y-90012157D01*
X140824857Y-90157300D01*
X140824857Y-90338728D01*
X140861142Y-90483871D01*
X140897428Y-90556442D01*
X140933714Y-90592728D01*
X141006285Y-90629014D01*
X141078857Y-90629014D01*
X141151428Y-90592728D01*
X141187714Y-90556442D01*
X141224000Y-90483871D01*
X141260285Y-90338728D01*
X141260285Y-90157300D01*
X141224000Y-90012157D01*
X141187714Y-89939585D01*
X141151428Y-89903300D01*
X141078857Y-89867014D01*
D11*
X175260000Y-76200000D02*
X129540000Y-76200000D01*
X177800000Y-96520000D02*
X177800000Y-78740000D01*
X129540000Y-99060000D02*
X175260000Y-99060000D01*
X127000000Y-78740000D02*
X127000000Y-96520000D01*
X175260000Y-76200000D02*
G75*
G02X177800000Y-78740000I0J-2540000D01*
G01*
X177800000Y-96520000D02*
G75*
G02X175260000Y-99060000I-2540000J0D01*
G01*
X129540000Y-99060000D02*
G75*
G02X127000000Y-96520000I0J2540000D01*
G01*
X127000000Y-78740000D02*
G75*
G02X129540000Y-76200000I2540000J0D01*
G01*
D12*
G04 #@! TO.C,R5*
X154761000Y-83059748D02*
X154761000Y-83582252D01*
X153341000Y-83059748D02*
X153341000Y-83582252D01*
G04 #@! TO.C,R4*
X150623748Y-84126000D02*
X151146252Y-84126000D01*
X150623748Y-85546000D02*
X151146252Y-85546000D01*
G04 #@! TO.C,D4*
X152745000Y-83256000D02*
X149885000Y-83256000D01*
X152745000Y-81336000D02*
X152745000Y-83256000D01*
X149885000Y-81336000D02*
X152745000Y-81336000D01*
G04 #@! TO.C,C14*
X143308000Y-84194252D02*
X143308000Y-83671748D01*
X144728000Y-84194252D02*
X144728000Y-83671748D01*
G04 #@! TO.C,C12*
X156793000Y-92561748D02*
X156793000Y-93084252D01*
X155373000Y-92561748D02*
X155373000Y-93084252D01*
G04 #@! TO.C,C11*
X154761000Y-92561748D02*
X154761000Y-93084252D01*
X153341000Y-92561748D02*
X153341000Y-93084252D01*
D10*
G04 #@! TO.C,J5*
X135407000Y-76622000D02*
X140087000Y-76622000D01*
X140787000Y-82842000D02*
X139507000Y-82842000D01*
X140787000Y-84442000D02*
X140787000Y-82842000D01*
X141807000Y-84442000D02*
X140787000Y-84442000D01*
X141807000Y-80192000D02*
X141807000Y-84442000D01*
X135987000Y-82842000D02*
X135987000Y-85732000D01*
X134707000Y-82842000D02*
X135987000Y-82842000D01*
X134707000Y-84442000D02*
X134707000Y-82842000D01*
X133687000Y-84442000D02*
X134707000Y-84442000D01*
X133687000Y-80192000D02*
X133687000Y-84442000D01*
G04 #@! TO.C,U3*
X147839000Y-85557000D02*
X145389000Y-85557000D01*
X146039000Y-82337000D02*
X147839000Y-82337000D01*
G04 #@! TD*
G04 #@! TO.C,R5*
X154178000Y-86196714D02*
X154432000Y-85833857D01*
X154613428Y-86196714D02*
X154613428Y-85434714D01*
X154323142Y-85434714D01*
X154250571Y-85471000D01*
X154214285Y-85507285D01*
X154178000Y-85579857D01*
X154178000Y-85688714D01*
X154214285Y-85761285D01*
X154250571Y-85797571D01*
X154323142Y-85833857D01*
X154613428Y-85833857D01*
X153488571Y-85434714D02*
X153851428Y-85434714D01*
X153887714Y-85797571D01*
X153851428Y-85761285D01*
X153778857Y-85725000D01*
X153597428Y-85725000D01*
X153524857Y-85761285D01*
X153488571Y-85797571D01*
X153452285Y-85870142D01*
X153452285Y-86051571D01*
X153488571Y-86124142D01*
X153524857Y-86160428D01*
X153597428Y-86196714D01*
X153778857Y-86196714D01*
X153851428Y-86160428D01*
X153887714Y-86124142D01*
G04 #@! TO.C,R4*
X151003000Y-86830714D02*
X151257000Y-86467857D01*
X151438428Y-86830714D02*
X151438428Y-86068714D01*
X151148142Y-86068714D01*
X151075571Y-86105000D01*
X151039285Y-86141285D01*
X151003000Y-86213857D01*
X151003000Y-86322714D01*
X151039285Y-86395285D01*
X151075571Y-86431571D01*
X151148142Y-86467857D01*
X151438428Y-86467857D01*
X150349857Y-86322714D02*
X150349857Y-86830714D01*
X150531285Y-86032428D02*
X150712714Y-86576714D01*
X150241000Y-86576714D01*
G04 #@! TO.C,D4*
X148771428Y-81878714D02*
X148771428Y-81116714D01*
X148590000Y-81116714D01*
X148481142Y-81153000D01*
X148408571Y-81225571D01*
X148372285Y-81298142D01*
X148336000Y-81443285D01*
X148336000Y-81552142D01*
X148372285Y-81697285D01*
X148408571Y-81769857D01*
X148481142Y-81842428D01*
X148590000Y-81878714D01*
X148771428Y-81878714D01*
X147682857Y-81370714D02*
X147682857Y-81878714D01*
X147864285Y-81080428D02*
X148045714Y-81624714D01*
X147574000Y-81624714D01*
G04 #@! TO.C,C14*
X144507857Y-86759142D02*
X144544142Y-86795428D01*
X144653000Y-86831714D01*
X144725571Y-86831714D01*
X144834428Y-86795428D01*
X144907000Y-86722857D01*
X144943285Y-86650285D01*
X144979571Y-86505142D01*
X144979571Y-86396285D01*
X144943285Y-86251142D01*
X144907000Y-86178571D01*
X144834428Y-86106000D01*
X144725571Y-86069714D01*
X144653000Y-86069714D01*
X144544142Y-86106000D01*
X144507857Y-86142285D01*
X143782142Y-86831714D02*
X144217571Y-86831714D01*
X143999857Y-86831714D02*
X143999857Y-86069714D01*
X144072428Y-86178571D01*
X144145000Y-86251142D01*
X144217571Y-86287428D01*
X143129000Y-86323714D02*
X143129000Y-86831714D01*
X143310428Y-86033428D02*
X143491857Y-86577714D01*
X143020142Y-86577714D01*
G04 #@! TO.C,C12*
X158006142Y-92333142D02*
X158042428Y-92296857D01*
X158078714Y-92188000D01*
X158078714Y-92115428D01*
X158042428Y-92006571D01*
X157969857Y-91934000D01*
X157897285Y-91897714D01*
X157752142Y-91861428D01*
X157643285Y-91861428D01*
X157498142Y-91897714D01*
X157425571Y-91934000D01*
X157353000Y-92006571D01*
X157316714Y-92115428D01*
X157316714Y-92188000D01*
X157353000Y-92296857D01*
X157389285Y-92333142D01*
X158078714Y-93058857D02*
X158078714Y-92623428D01*
X158078714Y-92841142D02*
X157316714Y-92841142D01*
X157425571Y-92768571D01*
X157498142Y-92696000D01*
X157534428Y-92623428D01*
X157389285Y-93349142D02*
X157353000Y-93385428D01*
X157316714Y-93458000D01*
X157316714Y-93639428D01*
X157353000Y-93712000D01*
X157389285Y-93748285D01*
X157461857Y-93784571D01*
X157534428Y-93784571D01*
X157643285Y-93748285D01*
X158078714Y-93312857D01*
X158078714Y-93784571D01*
G04 #@! TO.C,C11*
X152799142Y-92347142D02*
X152835428Y-92310857D01*
X152871714Y-92202000D01*
X152871714Y-92129428D01*
X152835428Y-92020571D01*
X152762857Y-91948000D01*
X152690285Y-91911714D01*
X152545142Y-91875428D01*
X152436285Y-91875428D01*
X152291142Y-91911714D01*
X152218571Y-91948000D01*
X152146000Y-92020571D01*
X152109714Y-92129428D01*
X152109714Y-92202000D01*
X152146000Y-92310857D01*
X152182285Y-92347142D01*
X152871714Y-93072857D02*
X152871714Y-92637428D01*
X152871714Y-92855142D02*
X152109714Y-92855142D01*
X152218571Y-92782571D01*
X152291142Y-92710000D01*
X152327428Y-92637428D01*
X152871714Y-93798571D02*
X152871714Y-93363142D01*
X152871714Y-93580857D02*
X152109714Y-93580857D01*
X152218571Y-93508285D01*
X152291142Y-93435714D01*
X152327428Y-93363142D01*
G04 #@! TO.C,J5*
X133096000Y-80481714D02*
X133096000Y-81026000D01*
X133132285Y-81134857D01*
X133204857Y-81207428D01*
X133313714Y-81243714D01*
X133386285Y-81243714D01*
X132370285Y-80481714D02*
X132733142Y-80481714D01*
X132769428Y-80844571D01*
X132733142Y-80808285D01*
X132660571Y-80772000D01*
X132479142Y-80772000D01*
X132406571Y-80808285D01*
X132370285Y-80844571D01*
X132334000Y-80917142D01*
X132334000Y-81098571D01*
X132370285Y-81171142D01*
X132406571Y-81207428D01*
X132479142Y-81243714D01*
X132660571Y-81243714D01*
X132733142Y-81207428D01*
X132769428Y-81171142D01*
G04 #@! TO.C,U3*
X147265571Y-86069714D02*
X147265571Y-86686571D01*
X147229285Y-86759142D01*
X147193000Y-86795428D01*
X147120428Y-86831714D01*
X146975285Y-86831714D01*
X146902714Y-86795428D01*
X146866428Y-86759142D01*
X146830142Y-86686571D01*
X146830142Y-86069714D01*
X146539857Y-86069714D02*
X146068142Y-86069714D01*
X146322142Y-86360000D01*
X146213285Y-86360000D01*
X146140714Y-86396285D01*
X146104428Y-86432571D01*
X146068142Y-86505142D01*
X146068142Y-86686571D01*
X146104428Y-86759142D01*
X146140714Y-86795428D01*
X146213285Y-86831714D01*
X146431000Y-86831714D01*
X146503571Y-86795428D01*
X146539857Y-86759142D01*
G04 #@! TD*
M02*
